<?xml version="1.0" encoding="UTF-8" standalone="no"?>
<!DOCTYPE svg PUBLIC "-//W3C//DTD SVG 1.1//EN" "http://www.w3.org/Graphics/SVG/1.1/DTD/svg11.dtd">
<svg width="100%" height="100%" viewBox="0 0 261 259" version="1.1" xmlns="http://www.w3.org/2000/svg" xmlns:xlink="http://www.w3.org/1999/xlink" xml:space="preserve" xmlns:serif="http://www.serif.com/" style="fill-rule:evenodd;clip-rule:evenodd;">
    <g transform="matrix(0.48,0,0,0.48,-625.415,-991.285)">
        <g>
            <g transform="matrix(4.16667,0,0,-4.16667,204.51,3331.25)">
                <path d="M279.908,274.217L316.368,274.217" style="fill:none;fill-rule:nonzero;stroke:black;stroke-width:1px;"/>
            </g>
            <g transform="matrix(4.16667,0,0,4.16667,510.054,2036.48)">
                <g transform="matrix(8,0,0,8,213.948,32.8195)">
                    <path d="M0.111,-0L0.04,-0L0.165,-0.708L0.236,-0.708L0.111,-0Z" style="fill-rule:nonzero;"/>
                </g>
            </g>
            <g transform="matrix(4.16667,0,0,4.16667,491.951,2027.33)">
                <g transform="matrix(8,0,0,8,232.981,61.3892)">
                    <path d="M0.311,0.018C0.268,0.018 0.232,0.012 0.203,-0.001C0.173,-0.014 0.149,-0.03 0.13,-0.051C0.111,-0.071 0.098,-0.094 0.09,-0.12C0.081,-0.145 0.077,-0.171 0.077,-0.197C0.077,-0.22 0.079,-0.243 0.083,-0.264L0.161,-0.708L0.232,-0.708L0.155,-0.272C0.151,-0.251 0.149,-0.23 0.149,-0.211C0.149,-0.188 0.152,-0.167 0.158,-0.147C0.163,-0.127 0.173,-0.109 0.186,-0.094C0.199,-0.079 0.216,-0.067 0.237,-0.058C0.258,-0.048 0.284,-0.044 0.315,-0.044C0.352,-0.044 0.384,-0.05 0.411,-0.063C0.437,-0.075 0.459,-0.092 0.477,-0.113C0.494,-0.134 0.508,-0.158 0.519,-0.186C0.529,-0.213 0.537,-0.242 0.542,-0.272L0.619,-0.708L0.69,-0.708L0.612,-0.264C0.607,-0.235 0.598,-0.204 0.586,-0.171C0.573,-0.137 0.556,-0.107 0.533,-0.079C0.509,-0.051 0.48,-0.028 0.444,-0.01C0.408,0.009 0.364,0.018 0.311,0.018Z" style="fill-rule:nonzero;"/>
                </g>
            </g>
            <g transform="matrix(-4.16667,0,0,-4.16667,2592.51,3331.05)">
                <g transform="matrix(-0.5,-0,-0,-0.5,309.496,303.809)">
                    <path d="M47.003,63.135L54.803,59.235L47.003,55.335L47.003,63.135Z" style="fill-rule:nonzero;"/>
                    <path d="M48.563,59.235L44.226,59.235" style="fill:none;fill-rule:nonzero;stroke:black;stroke-width:1.3px;"/>
                </g>
            </g>
            <g transform="matrix(0,4.16667,-4.16667,0,2636.81,898.944)">
                <path d="M302.841,274.217L316.229,274.217" style="fill:none;fill-rule:nonzero;stroke:black;stroke-width:1px;"/>
            </g>
            <g transform="matrix(4.16667,0,0,4.16667,491.951,1776.32)">
                <path d="M240.549,98.966L227.3,105.66L227.3,92.272L240.549,98.966Z" style="fill:rgb(196,200,237);fill-rule:nonzero;stroke:rgb(19,19,19);stroke-width:0.75px;"/>
            </g>
            <g transform="matrix(1,0,0,1,-3.04459,9.91131)">
                <g transform="matrix(2.98264,-2.90947,2.90947,2.98264,-197.8,2240.97)">
                    <g transform="matrix(0.357916,0.349136,-0.349136,0.357916,289.472,220.11)">
                        <path d="M76.406,39.046L74.569,44.336L79.903,42.631L76.406,39.046Z" style="fill-rule:nonzero;"/>
                        <path d="M77.438,41.538C80.283,38.762 84.222,34.92 84.222,34.92" style="fill:none;fill-rule:nonzero;stroke:black;stroke-width:1px;"/>
                    </g>
                </g>
                <g transform="matrix(2.98264,-2.90947,2.90947,2.98264,-188.02,2250.75)">
                    <g transform="matrix(0.357916,0.349136,-0.349136,0.357916,289.431,216.791)">
                        <path d="M81.1,43.74L79.263,49.03L84.597,47.325L81.1,43.74Z" style="fill-rule:nonzero;"/>
                        <path d="M82.132,46.232C84.977,43.456 88.916,39.614 88.916,39.614" style="fill:none;fill-rule:nonzero;stroke:black;stroke-width:1px;"/>
                    </g>
                </g>
            </g>
            <g transform="matrix(4.16667,0,0,-4.16667,204.51,3439.36)">
                <g transform="matrix(0.5,0,0,-0.5,263.625,329.803)">
                    <path d="M81.105,81.625L91.905,85.225L81.105,88.825L81.105,81.625Z" style="fill-rule:nonzero;"/>
                    <path d="M49.932,85.225L83.265,85.225" style="fill:none;fill-rule:nonzero;stroke:black;stroke-width:1.6px;"/>
                </g>
            </g>
        </g>
        <g transform="matrix(4.16667,0,0,4.16667,492.922,2060.74)">
            <g transform="matrix(8,0,0,8,256.819,12.8232)">
                <path d="M0.111,-0L0.04,-0L0.165,-0.708L0.236,-0.708L0.111,-0Z" style="fill-rule:nonzero;"/>
            </g>
        </g>
        <g transform="matrix(3.87029,0,0,-3.87029,319.838,3510)">
            <g transform="matrix(0.538289,0,0,-0.538289,254.014,373.311)">
                <path d="M244.254,120.611L251.004,123.986L244.254,127.361L244.254,120.611Z" style="fill-rule:nonzero;"/>
                <path d="M9.546,123.986L245.604,123.986" style="fill:none;fill-rule:nonzero;stroke:black;stroke-width:1.5px;"/>
            </g>
        </g>
        <g transform="matrix(0,4.16667,-4.16667,0,2885.6,947.899)">
            <g transform="matrix(0,-0.5,0.5,0,268.147,379.836)">
                <path d="M143.155,19.512L139.78,12.762L136.405,19.512L143.155,19.512Z" style="fill-rule:nonzero;"/>
                <path d="M139.78,18.162L139.78,248.711" style="fill:none;fill-rule:nonzero;stroke:black;stroke-width:1.5px;"/>
            </g>
        </g>
        <g>
            <g>
                <g>
                    <g transform="matrix(4.16667,0,0,-4.16667,204.51,3423.7)">
                        <path d="M274.258,245.178C276.657,254.325 279.355,258.707 282.681,260.81C286.008,262.912 289.965,262.735 294.881,262.765C311.594,262.867 318.062,262.851 333.555,263.098C347.673,263.323 362.847,268.991 368.409,275.555C372.031,279.831 377.288,288.158 380.389,297.737C383.489,307.315 386.017,317.629 386.492,325.444" style="fill:none;fill-rule:nonzero;stroke:rgb(91,105,205);stroke-width:1.2px;stroke-linejoin:round;"/>
                    </g>
                    <g transform="matrix(4.16667,0,0,-4.16667,204.51,3535.12)">
                        <path d="M274.258,255.332C276.657,264.479 279.356,268.796 282.683,270.865C286.011,272.935 289.965,272.879 294.881,272.919C308.09,273.029 318.474,272.864 333.473,273.193C347.999,273.513 360.61,280.463 367.329,287.186C371.289,291.15 376.726,299.644 380.087,308.728C383.447,317.811 386.134,334.217 386.609,342.033" style="fill:none;fill-rule:nonzero;stroke:rgb(91,105,205);stroke-width:1.2px;stroke-linejoin:round;"/>
                    </g>
                    <g transform="matrix(4.16667,0,0,-4.16667,204.51,3664.84)">
                        <path d="M274.258,269.391C276.657,278.538 279.355,282.881 282.682,284.964C286.009,287.047 289.965,286.959 294.881,286.978C314.98,287.058 319.026,287.085 333.294,287.274C348.613,287.476 362.533,297.093 367.05,302.064C372.394,307.945 377.967,316.699 381.049,325.435C384.13,334.172 386.134,351.291 386.609,359.106" style="fill:none;fill-rule:nonzero;stroke:rgb(91,105,205);stroke-width:1.2px;stroke-linejoin:round;"/>
                    </g>
                </g>
            </g>
        </g>
        <g transform="matrix(4.16667,0,0,4.16667,466.951,2027.33)">
            <g transform="matrix(8,0,0,8,321.337,81.9208)">
                <path d="M0.311,0.018C0.268,0.018 0.232,0.012 0.203,-0.001C0.173,-0.014 0.149,-0.03 0.13,-0.051C0.111,-0.071 0.098,-0.094 0.09,-0.12C0.081,-0.145 0.077,-0.171 0.077,-0.197C0.077,-0.22 0.079,-0.243 0.083,-0.264L0.161,-0.708L0.232,-0.708L0.155,-0.272C0.151,-0.251 0.149,-0.23 0.149,-0.211C0.149,-0.188 0.152,-0.167 0.158,-0.147C0.163,-0.127 0.173,-0.109 0.186,-0.094C0.199,-0.079 0.216,-0.067 0.237,-0.058C0.258,-0.048 0.284,-0.044 0.315,-0.044C0.352,-0.044 0.384,-0.05 0.411,-0.063C0.437,-0.075 0.459,-0.092 0.477,-0.113C0.494,-0.134 0.508,-0.158 0.519,-0.186C0.529,-0.213 0.537,-0.242 0.542,-0.272L0.619,-0.708L0.69,-0.708L0.612,-0.264C0.607,-0.235 0.598,-0.204 0.586,-0.171C0.573,-0.137 0.556,-0.107 0.533,-0.079C0.509,-0.051 0.48,-0.028 0.444,-0.01C0.408,0.009 0.364,0.018 0.311,0.018Z" style="fill-rule:nonzero;"/>
            </g>
        </g>
        <g transform="matrix(5.55112e-17,1,-1,5.55112e-17,4041.62,1295.77)">
            <g transform="matrix(0.863831,6.24608e-19,5.44403e-19,0.848065,-116.553,473.719)">
                <rect x="1417.32" y="2331.37" width="70.866" height="219.81" style="fill:white;fill-opacity:0.73;"/>
            </g>
            <g transform="matrix(0,-4.16667,4.16667,0,296.197,2143.49)">
                <g transform="matrix(7,0,0,7,-117.817,200.667)">
                    <path d="M0.094,-0.708L0.305,-0.708C0.332,-0.708 0.359,-0.705 0.386,-0.7C0.413,-0.694 0.438,-0.684 0.46,-0.671C0.481,-0.657 0.499,-0.638 0.513,-0.615C0.526,-0.592 0.533,-0.562 0.533,-0.527C0.533,-0.49 0.522,-0.457 0.499,-0.43C0.476,-0.402 0.446,-0.384 0.408,-0.375L0.408,-0.373C0.454,-0.368 0.492,-0.35 0.523,-0.32C0.553,-0.289 0.568,-0.248 0.568,-0.196C0.568,-0.167 0.562,-0.14 0.55,-0.116C0.537,-0.091 0.52,-0.07 0.497,-0.054C0.474,-0.037 0.447,-0.023 0.414,-0.014C0.381,-0.005 0.345,-0 0.304,-0L0.094,-0L0.094,-0.708ZM0.166,-0.398L0.311,-0.398C0.328,-0.398 0.346,-0.4 0.364,-0.404C0.381,-0.408 0.397,-0.415 0.412,-0.425C0.427,-0.434 0.439,-0.447 0.448,-0.463C0.456,-0.479 0.461,-0.499 0.461,-0.522C0.461,-0.545 0.456,-0.564 0.448,-0.58C0.439,-0.595 0.426,-0.608 0.411,-0.618C0.396,-0.628 0.378,-0.635 0.357,-0.64C0.336,-0.644 0.314,-0.646 0.291,-0.646L0.166,-0.646L0.166,-0.398ZM0.166,-0.062L0.3,-0.062C0.326,-0.062 0.351,-0.065 0.375,-0.07C0.398,-0.075 0.419,-0.083 0.437,-0.094C0.454,-0.105 0.468,-0.119 0.479,-0.137C0.49,-0.154 0.495,-0.175 0.495,-0.2C0.495,-0.247 0.479,-0.282 0.448,-0.305C0.416,-0.328 0.371,-0.339 0.313,-0.339L0.166,-0.339L0.166,-0.062Z" style="fill-rule:nonzero;"/>
                </g>
                <g transform="matrix(7,0,0,7,-113.365,200.667)">
                    <path d="M0.447,-0.27C0.445,-0.314 0.431,-0.351 0.405,-0.38C0.378,-0.409 0.341,-0.423 0.292,-0.423C0.269,-0.423 0.248,-0.419 0.229,-0.411C0.21,-0.402 0.193,-0.391 0.178,-0.377C0.163,-0.362 0.152,-0.346 0.143,-0.328C0.134,-0.309 0.129,-0.29 0.128,-0.27L0.447,-0.27ZM0.516,-0.248L0.516,-0.233C0.516,-0.228 0.516,-0.222 0.515,-0.216L0.127,-0.216C0.128,-0.193 0.132,-0.171 0.141,-0.15C0.15,-0.129 0.162,-0.111 0.177,-0.096C0.192,-0.081 0.21,-0.068 0.231,-0.06C0.252,-0.05 0.274,-0.046 0.298,-0.046C0.333,-0.046 0.364,-0.054 0.39,-0.071C0.415,-0.087 0.435,-0.106 0.448,-0.127L0.499,-0.087C0.471,-0.052 0.44,-0.026 0.407,-0.011C0.373,0.004 0.337,0.012 0.298,0.012C0.263,0.012 0.231,0.006 0.202,-0.007C0.172,-0.019 0.146,-0.036 0.125,-0.058C0.104,-0.08 0.087,-0.106 0.075,-0.136C0.062,-0.166 0.056,-0.199 0.056,-0.234C0.056,-0.269 0.062,-0.302 0.074,-0.332C0.086,-0.362 0.103,-0.388 0.124,-0.41C0.145,-0.432 0.17,-0.449 0.199,-0.462C0.228,-0.474 0.259,-0.48 0.292,-0.48C0.329,-0.48 0.361,-0.474 0.389,-0.462C0.417,-0.449 0.44,-0.433 0.459,-0.412C0.478,-0.391 0.492,-0.366 0.502,-0.338C0.511,-0.31 0.516,-0.28 0.516,-0.248Z" style="fill-rule:nonzero;"/>
                </g>
                <g transform="matrix(7,0,0,7,-109.361,200.667)">
                    <path d="M0.339,-0.357C0.329,-0.376 0.314,-0.392 0.294,-0.405C0.273,-0.417 0.25,-0.423 0.224,-0.423C0.212,-0.423 0.2,-0.422 0.188,-0.419C0.176,-0.416 0.165,-0.412 0.156,-0.406C0.147,-0.4 0.139,-0.392 0.134,-0.383C0.128,-0.374 0.125,-0.363 0.125,-0.35C0.125,-0.328 0.134,-0.311 0.152,-0.3C0.17,-0.288 0.198,-0.278 0.237,-0.27C0.292,-0.259 0.333,-0.242 0.36,-0.221C0.386,-0.199 0.399,-0.17 0.399,-0.133C0.399,-0.106 0.394,-0.084 0.384,-0.066C0.373,-0.047 0.36,-0.032 0.343,-0.021C0.326,-0.009 0.308,-0 0.287,0.005C0.266,0.01 0.244,0.012 0.223,0.012C0.188,0.012 0.153,0.005 0.12,-0.01C0.087,-0.025 0.059,-0.048 0.038,-0.079L0.092,-0.119C0.104,-0.098 0.122,-0.081 0.145,-0.067C0.168,-0.053 0.194,-0.046 0.222,-0.046C0.237,-0.046 0.251,-0.047 0.264,-0.05C0.277,-0.053 0.289,-0.057 0.299,-0.064C0.309,-0.071 0.317,-0.079 0.323,-0.09C0.329,-0.1 0.332,-0.113 0.332,-0.128C0.332,-0.153 0.32,-0.171 0.297,-0.184C0.273,-0.196 0.239,-0.207 0.194,-0.218C0.18,-0.221 0.165,-0.226 0.15,-0.231C0.134,-0.236 0.119,-0.243 0.106,-0.253C0.093,-0.262 0.082,-0.274 0.073,-0.289C0.064,-0.304 0.06,-0.322 0.06,-0.344C0.06,-0.368 0.065,-0.389 0.074,-0.406C0.083,-0.423 0.096,-0.436 0.112,-0.448C0.127,-0.459 0.145,-0.467 0.165,-0.472C0.185,-0.477 0.206,-0.48 0.227,-0.48C0.26,-0.48 0.291,-0.473 0.322,-0.458C0.353,-0.443 0.376,-0.423 0.391,-0.396L0.339,-0.357Z" style="fill-rule:nonzero;"/>
                </g>
                <g transform="matrix(7,0,0,7,-106.253,200.667)">
                    <path d="M0.301,-0.411L0.169,-0.411L0.169,-0.138C0.169,-0.121 0.171,-0.106 0.174,-0.095C0.177,-0.084 0.182,-0.075 0.189,-0.069C0.195,-0.062 0.202,-0.058 0.211,-0.056C0.22,-0.053 0.229,-0.052 0.239,-0.052C0.248,-0.052 0.258,-0.053 0.269,-0.056C0.279,-0.059 0.289,-0.062 0.298,-0.067L0.301,-0.008C0.289,-0.003 0.277,0 0.264,0.003C0.251,0.005 0.236,0.006 0.221,0.006C0.208,0.006 0.195,0.004 0.181,0.001C0.167,-0.002 0.154,-0.009 0.142,-0.018C0.13,-0.027 0.12,-0.04 0.113,-0.056C0.105,-0.072 0.101,-0.093 0.101,-0.119L0.101,-0.411L0.004,-0.411L0.004,-0.468L0.101,-0.468L0.101,-0.6L0.169,-0.6L0.169,-0.468L0.301,-0.468L0.301,-0.411Z" style="fill-rule:nonzero;"/>
                </g>
                <g transform="matrix(7,0,0,7,-104.034,200.667)">
                    <path d="M0.09,-0.365C0.09,-0.378 0.09,-0.394 0.089,-0.414C0.088,-0.434 0.087,-0.452 0.086,-0.468L0.151,-0.468C0.152,-0.455 0.153,-0.441 0.154,-0.426C0.155,-0.411 0.155,-0.398 0.155,-0.388L0.157,-0.388C0.17,-0.415 0.19,-0.438 0.217,-0.455C0.244,-0.471 0.274,-0.48 0.307,-0.48C0.316,-0.48 0.324,-0.48 0.331,-0.479C0.338,-0.478 0.345,-0.477 0.352,-0.475L0.343,-0.411C0.339,-0.412 0.332,-0.414 0.323,-0.415C0.314,-0.416 0.304,-0.417 0.295,-0.417C0.277,-0.417 0.26,-0.414 0.243,-0.407C0.226,-0.4 0.212,-0.39 0.2,-0.376C0.187,-0.361 0.177,-0.343 0.17,-0.321C0.162,-0.298 0.158,-0.271 0.158,-0.24L0.158,-0L0.09,-0L0.09,-0.365Z" style="fill-rule:nonzero;"/>
                </g>
                <g transform="matrix(7,0,0,7,-101.598,200.667)">
                    <path d="M0.385,-0.302C0.385,-0.343 0.374,-0.373 0.353,-0.393C0.332,-0.413 0.301,-0.423 0.26,-0.423C0.232,-0.423 0.206,-0.418 0.182,-0.408C0.158,-0.398 0.138,-0.385 0.121,-0.368L0.083,-0.413C0.102,-0.432 0.128,-0.448 0.16,-0.461C0.191,-0.474 0.227,-0.48 0.267,-0.48C0.292,-0.48 0.316,-0.476 0.338,-0.47C0.36,-0.463 0.379,-0.452 0.396,-0.438C0.413,-0.424 0.426,-0.406 0.435,-0.385C0.444,-0.364 0.449,-0.339 0.449,-0.31L0.449,-0.105C0.449,-0.087 0.45,-0.068 0.451,-0.049C0.452,-0.03 0.454,-0.013 0.457,-0L0.396,-0C0.394,-0.011 0.392,-0.024 0.391,-0.037C0.39,-0.05 0.389,-0.063 0.389,-0.076L0.387,-0.076C0.366,-0.045 0.341,-0.022 0.315,-0.009C0.288,0.005 0.255,0.012 0.217,0.012C0.199,0.012 0.181,0.01 0.162,0.005C0.142,-0 0.125,-0.009 0.11,-0.02C0.094,-0.031 0.081,-0.046 0.071,-0.064C0.06,-0.082 0.055,-0.104 0.055,-0.13C0.055,-0.166 0.064,-0.195 0.083,-0.216C0.101,-0.237 0.125,-0.252 0.156,-0.263C0.187,-0.273 0.222,-0.28 0.262,-0.283C0.301,-0.286 0.342,-0.287 0.385,-0.287L0.385,-0.302ZM0.365,-0.234C0.337,-0.234 0.309,-0.233 0.281,-0.231C0.252,-0.228 0.227,-0.224 0.204,-0.217C0.181,-0.21 0.162,-0.199 0.147,-0.186C0.132,-0.173 0.125,-0.155 0.125,-0.133C0.125,-0.116 0.128,-0.102 0.135,-0.091C0.141,-0.08 0.149,-0.07 0.16,-0.064C0.171,-0.056 0.183,-0.051 0.196,-0.049C0.209,-0.046 0.222,-0.044 0.235,-0.044C0.259,-0.044 0.28,-0.048 0.299,-0.057C0.318,-0.065 0.333,-0.076 0.346,-0.091C0.359,-0.105 0.368,-0.121 0.375,-0.14C0.382,-0.159 0.385,-0.178 0.385,-0.199L0.385,-0.234L0.365,-0.234Z" style="fill-rule:nonzero;"/>
                </g>
                <g transform="matrix(7,0,0,7,-97.8598,200.667)">
                    <path d="M0.162,-0.391C0.175,-0.418 0.196,-0.44 0.225,-0.456C0.254,-0.472 0.286,-0.48 0.319,-0.48C0.378,-0.48 0.423,-0.462 0.453,-0.427C0.482,-0.392 0.497,-0.345 0.497,-0.287L0.497,-0L0.429,-0L0.429,-0.259C0.429,-0.284 0.427,-0.306 0.423,-0.326C0.419,-0.346 0.412,-0.363 0.403,-0.378C0.393,-0.392 0.38,-0.403 0.364,-0.411C0.347,-0.419 0.327,-0.423 0.302,-0.423C0.284,-0.423 0.267,-0.419 0.25,-0.412C0.233,-0.405 0.217,-0.394 0.204,-0.379C0.191,-0.364 0.18,-0.345 0.172,-0.322C0.164,-0.299 0.16,-0.271 0.16,-0.24L0.16,-0L0.092,-0L0.092,-0.756L0.16,-0.756L0.16,-0.391L0.162,-0.391Z" style="fill-rule:nonzero;"/>
                </g>
                <g transform="matrix(7,0,0,7,-93.7788,200.667)">
                    <rect x="0.092" y="-0.756" width="0.068" height="0.756" style="fill-rule:nonzero;"/>
                </g>
                <g transform="matrix(7,0,0,7,-92.0148,200.667)">
                    <path d="M0.43,-0C0.429,-0.013 0.428,-0.027 0.427,-0.042C0.426,-0.057 0.426,-0.07 0.426,-0.08L0.424,-0.08C0.411,-0.053 0.389,-0.031 0.359,-0.014C0.329,0.004 0.297,0.012 0.264,0.012C0.205,0.012 0.16,-0.006 0.131,-0.041C0.101,-0.076 0.086,-0.123 0.086,-0.181L0.086,-0.468L0.154,-0.468L0.154,-0.209C0.154,-0.184 0.156,-0.162 0.16,-0.142C0.164,-0.122 0.171,-0.105 0.181,-0.091C0.19,-0.076 0.203,-0.065 0.22,-0.057C0.236,-0.049 0.256,-0.045 0.281,-0.045C0.299,-0.045 0.317,-0.049 0.334,-0.056C0.35,-0.063 0.366,-0.075 0.379,-0.09C0.392,-0.105 0.403,-0.124 0.411,-0.147C0.419,-0.169 0.423,-0.197 0.423,-0.228L0.423,-0.468L0.491,-0.468L0.491,-0.103C0.491,-0.09 0.491,-0.074 0.492,-0.054C0.493,-0.034 0.494,-0.016 0.495,-0L0.43,-0Z" style="fill-rule:nonzero;"/>
                </g>
                <g transform="matrix(7,0,0,7,-87.9478,200.667)">
                    <path d="M0.151,-0.468C0.152,-0.455 0.153,-0.441 0.154,-0.426C0.155,-0.411 0.155,-0.398 0.155,-0.388L0.157,-0.388C0.17,-0.415 0.192,-0.438 0.222,-0.455C0.252,-0.471 0.284,-0.48 0.317,-0.48C0.376,-0.48 0.421,-0.462 0.451,-0.427C0.48,-0.392 0.495,-0.345 0.495,-0.287L0.495,-0L0.427,-0L0.427,-0.259C0.427,-0.284 0.425,-0.306 0.421,-0.326C0.417,-0.346 0.41,-0.363 0.401,-0.378C0.391,-0.392 0.378,-0.403 0.362,-0.411C0.345,-0.419 0.325,-0.423 0.3,-0.423C0.282,-0.423 0.265,-0.419 0.248,-0.412C0.231,-0.405 0.215,-0.394 0.202,-0.379C0.189,-0.364 0.178,-0.345 0.17,-0.322C0.162,-0.299 0.158,-0.271 0.158,-0.24L0.158,-0L0.09,-0L0.09,-0.365C0.09,-0.378 0.09,-0.394 0.089,-0.414C0.088,-0.434 0.087,-0.452 0.086,-0.468L0.151,-0.468Z" style="fill-rule:nonzero;"/>
                </g>
                <g transform="matrix(7,0,0,7,-83.8808,200.667)">
                    <path d="M0.115,0.094C0.134,0.118 0.159,0.138 0.192,0.155C0.224,0.172 0.258,0.18 0.294,0.18C0.327,0.18 0.356,0.175 0.379,0.166C0.402,0.156 0.421,0.143 0.436,0.126C0.45,0.109 0.46,0.09 0.467,0.068C0.474,0.045 0.477,0.021 0.477,-0.004L0.477,-0.092L0.475,-0.092C0.457,-0.063 0.432,-0.04 0.399,-0.024C0.366,-0.008 0.332,-0 0.298,-0C0.261,-0 0.228,-0.006 0.199,-0.018C0.169,-0.03 0.143,-0.047 0.123,-0.068C0.101,-0.089 0.085,-0.114 0.074,-0.143C0.062,-0.172 0.056,-0.204 0.056,-0.238C0.056,-0.271 0.062,-0.303 0.074,-0.332C0.085,-0.361 0.101,-0.387 0.123,-0.409C0.143,-0.431 0.169,-0.448 0.199,-0.461C0.228,-0.474 0.261,-0.48 0.298,-0.48C0.332,-0.48 0.365,-0.472 0.398,-0.456C0.431,-0.44 0.456,-0.417 0.475,-0.387L0.477,-0.387L0.477,-0.468L0.545,-0.468L0.545,-0.004C0.545,0.021 0.542,0.048 0.535,0.077C0.528,0.106 0.515,0.132 0.496,0.156C0.476,0.18 0.451,0.2 0.418,0.216C0.385,0.232 0.343,0.24 0.291,0.24C0.248,0.24 0.206,0.232 0.167,0.215C0.128,0.198 0.094,0.175 0.066,0.146L0.115,0.094ZM0.128,-0.24C0.128,-0.215 0.132,-0.192 0.14,-0.17C0.148,-0.148 0.16,-0.129 0.175,-0.112C0.19,-0.095 0.208,-0.082 0.23,-0.073C0.252,-0.063 0.277,-0.058 0.305,-0.058C0.331,-0.058 0.355,-0.062 0.377,-0.071C0.399,-0.08 0.418,-0.092 0.434,-0.108C0.45,-0.124 0.463,-0.143 0.472,-0.166C0.481,-0.188 0.485,-0.213 0.485,-0.24C0.485,-0.265 0.481,-0.288 0.472,-0.31C0.463,-0.332 0.45,-0.351 0.434,-0.368C0.418,-0.385 0.399,-0.398 0.377,-0.408C0.355,-0.418 0.331,-0.423 0.305,-0.423C0.277,-0.423 0.252,-0.418 0.23,-0.408C0.208,-0.398 0.19,-0.385 0.175,-0.368C0.16,-0.351 0.148,-0.332 0.14,-0.31C0.132,-0.288 0.128,-0.265 0.128,-0.24Z" style="fill-rule:nonzero;"/>
                </g>
                <g transform="matrix(7,0,0,7,-79.4568,200.667)">
                    <path d="M0.339,-0.357C0.329,-0.376 0.314,-0.392 0.294,-0.405C0.273,-0.417 0.25,-0.423 0.224,-0.423C0.212,-0.423 0.2,-0.422 0.188,-0.419C0.176,-0.416 0.165,-0.412 0.156,-0.406C0.147,-0.4 0.139,-0.392 0.134,-0.383C0.128,-0.374 0.125,-0.363 0.125,-0.35C0.125,-0.328 0.134,-0.311 0.152,-0.3C0.17,-0.288 0.198,-0.278 0.237,-0.27C0.292,-0.259 0.333,-0.242 0.36,-0.221C0.386,-0.199 0.399,-0.17 0.399,-0.133C0.399,-0.106 0.394,-0.084 0.384,-0.066C0.373,-0.047 0.36,-0.032 0.343,-0.021C0.326,-0.009 0.308,-0 0.287,0.005C0.266,0.01 0.244,0.012 0.223,0.012C0.188,0.012 0.153,0.005 0.12,-0.01C0.087,-0.025 0.059,-0.048 0.038,-0.079L0.092,-0.119C0.104,-0.098 0.122,-0.081 0.145,-0.067C0.168,-0.053 0.194,-0.046 0.222,-0.046C0.237,-0.046 0.251,-0.047 0.264,-0.05C0.277,-0.053 0.289,-0.057 0.299,-0.064C0.309,-0.071 0.317,-0.079 0.323,-0.09C0.329,-0.1 0.332,-0.113 0.332,-0.128C0.332,-0.153 0.32,-0.171 0.297,-0.184C0.273,-0.196 0.239,-0.207 0.194,-0.218C0.18,-0.221 0.165,-0.226 0.15,-0.231C0.134,-0.236 0.119,-0.243 0.106,-0.253C0.093,-0.262 0.082,-0.274 0.073,-0.289C0.064,-0.304 0.06,-0.322 0.06,-0.344C0.06,-0.368 0.065,-0.389 0.074,-0.406C0.083,-0.423 0.096,-0.436 0.112,-0.448C0.127,-0.459 0.145,-0.467 0.165,-0.472C0.185,-0.477 0.206,-0.48 0.227,-0.48C0.26,-0.48 0.291,-0.473 0.322,-0.458C0.353,-0.443 0.376,-0.423 0.391,-0.396L0.339,-0.357Z" style="fill-rule:nonzero;"/>
                </g>
                <g transform="matrix(7,0,0,7,-76.3488,200.667)">
                    <rect x="0.048" y="-0.271" width="0.224" height="0.057" style="fill-rule:nonzero;"/>
                </g>
                <g transform="matrix(7,0,0,7,-117.817,208.667)">
                    <path d="M0.339,-0.357C0.329,-0.376 0.314,-0.392 0.294,-0.405C0.273,-0.417 0.25,-0.423 0.224,-0.423C0.212,-0.423 0.2,-0.422 0.188,-0.419C0.176,-0.416 0.165,-0.412 0.156,-0.406C0.147,-0.4 0.139,-0.392 0.134,-0.383C0.128,-0.374 0.125,-0.363 0.125,-0.35C0.125,-0.328 0.134,-0.311 0.152,-0.3C0.17,-0.288 0.198,-0.278 0.237,-0.27C0.292,-0.259 0.333,-0.242 0.36,-0.221C0.386,-0.199 0.399,-0.17 0.399,-0.133C0.399,-0.106 0.394,-0.084 0.384,-0.066C0.373,-0.047 0.36,-0.032 0.343,-0.021C0.326,-0.009 0.308,-0 0.287,0.005C0.266,0.01 0.244,0.012 0.223,0.012C0.188,0.012 0.153,0.005 0.12,-0.01C0.087,-0.025 0.059,-0.048 0.038,-0.079L0.092,-0.119C0.104,-0.098 0.122,-0.081 0.145,-0.067C0.168,-0.053 0.194,-0.046 0.222,-0.046C0.237,-0.046 0.251,-0.047 0.264,-0.05C0.277,-0.053 0.289,-0.057 0.299,-0.064C0.309,-0.071 0.317,-0.079 0.323,-0.09C0.329,-0.1 0.332,-0.113 0.332,-0.128C0.332,-0.153 0.32,-0.171 0.297,-0.184C0.273,-0.196 0.239,-0.207 0.194,-0.218C0.18,-0.221 0.165,-0.226 0.15,-0.231C0.134,-0.236 0.119,-0.243 0.106,-0.253C0.093,-0.262 0.082,-0.274 0.073,-0.289C0.064,-0.304 0.06,-0.322 0.06,-0.344C0.06,-0.368 0.065,-0.389 0.074,-0.406C0.083,-0.423 0.096,-0.436 0.112,-0.448C0.127,-0.459 0.145,-0.467 0.165,-0.472C0.185,-0.477 0.206,-0.48 0.227,-0.48C0.26,-0.48 0.291,-0.473 0.322,-0.458C0.353,-0.443 0.376,-0.423 0.391,-0.396L0.339,-0.357Z" style="fill-rule:nonzero;"/>
                </g>
                <g transform="matrix(7,0,0,7,-114.709,208.667)">
                    <path d="M0.301,-0.411L0.169,-0.411L0.169,-0.138C0.169,-0.121 0.171,-0.106 0.174,-0.095C0.177,-0.084 0.182,-0.075 0.189,-0.069C0.195,-0.062 0.202,-0.058 0.211,-0.056C0.22,-0.053 0.229,-0.052 0.239,-0.052C0.248,-0.052 0.258,-0.053 0.269,-0.056C0.279,-0.059 0.289,-0.062 0.298,-0.067L0.301,-0.008C0.289,-0.003 0.277,0 0.264,0.003C0.251,0.005 0.236,0.006 0.221,0.006C0.208,0.006 0.195,0.004 0.181,0.001C0.167,-0.002 0.154,-0.009 0.142,-0.018C0.13,-0.027 0.12,-0.04 0.113,-0.056C0.105,-0.072 0.101,-0.093 0.101,-0.119L0.101,-0.411L0.004,-0.411L0.004,-0.468L0.101,-0.468L0.101,-0.6L0.169,-0.6L0.169,-0.468L0.301,-0.468L0.301,-0.411Z" style="fill-rule:nonzero;"/>
                </g>
                <g transform="matrix(7,0,0,7,-112.49,208.667)">
                    <path d="M0.385,-0.302C0.385,-0.343 0.374,-0.373 0.353,-0.393C0.332,-0.413 0.301,-0.423 0.26,-0.423C0.232,-0.423 0.206,-0.418 0.182,-0.408C0.158,-0.398 0.138,-0.385 0.121,-0.368L0.083,-0.413C0.102,-0.432 0.128,-0.448 0.16,-0.461C0.191,-0.474 0.227,-0.48 0.267,-0.48C0.292,-0.48 0.316,-0.476 0.338,-0.47C0.36,-0.463 0.379,-0.452 0.396,-0.438C0.413,-0.424 0.426,-0.406 0.435,-0.385C0.444,-0.364 0.449,-0.339 0.449,-0.31L0.449,-0.105C0.449,-0.087 0.45,-0.068 0.451,-0.049C0.452,-0.03 0.454,-0.013 0.457,-0L0.396,-0C0.394,-0.011 0.392,-0.024 0.391,-0.037C0.39,-0.05 0.389,-0.063 0.389,-0.076L0.387,-0.076C0.366,-0.045 0.341,-0.022 0.315,-0.009C0.288,0.005 0.255,0.012 0.217,0.012C0.199,0.012 0.181,0.01 0.162,0.005C0.142,-0 0.125,-0.009 0.11,-0.02C0.094,-0.031 0.081,-0.046 0.071,-0.064C0.06,-0.082 0.055,-0.104 0.055,-0.13C0.055,-0.166 0.064,-0.195 0.083,-0.216C0.101,-0.237 0.125,-0.252 0.156,-0.263C0.187,-0.273 0.222,-0.28 0.262,-0.283C0.301,-0.286 0.342,-0.287 0.385,-0.287L0.385,-0.302ZM0.365,-0.234C0.337,-0.234 0.309,-0.233 0.281,-0.231C0.252,-0.228 0.227,-0.224 0.204,-0.217C0.181,-0.21 0.162,-0.199 0.147,-0.186C0.132,-0.173 0.125,-0.155 0.125,-0.133C0.125,-0.116 0.128,-0.102 0.135,-0.091C0.141,-0.08 0.149,-0.07 0.16,-0.064C0.171,-0.056 0.183,-0.051 0.196,-0.049C0.209,-0.046 0.222,-0.044 0.235,-0.044C0.259,-0.044 0.28,-0.048 0.299,-0.057C0.318,-0.065 0.333,-0.076 0.346,-0.091C0.359,-0.105 0.368,-0.121 0.375,-0.14C0.382,-0.159 0.385,-0.178 0.385,-0.199L0.385,-0.234L0.365,-0.234ZM0.119,-0.647C0.119,-0.66 0.124,-0.672 0.133,-0.683C0.142,-0.693 0.155,-0.698 0.17,-0.698C0.185,-0.698 0.198,-0.693 0.207,-0.683C0.216,-0.672 0.221,-0.66 0.221,-0.647C0.221,-0.634 0.216,-0.622 0.207,-0.612C0.198,-0.601 0.185,-0.596 0.17,-0.596C0.155,-0.596 0.142,-0.601 0.133,-0.612C0.124,-0.622 0.119,-0.634 0.119,-0.647ZM0.311,-0.647C0.311,-0.66 0.316,-0.672 0.325,-0.683C0.334,-0.693 0.347,-0.698 0.362,-0.698C0.377,-0.698 0.39,-0.693 0.399,-0.683C0.408,-0.672 0.413,-0.66 0.413,-0.647C0.413,-0.634 0.408,-0.622 0.399,-0.612C0.39,-0.601 0.377,-0.596 0.362,-0.596C0.347,-0.596 0.334,-0.601 0.325,-0.612C0.316,-0.622 0.311,-0.634 0.311,-0.647Z" style="fill-rule:nonzero;"/>
                </g>
                <g transform="matrix(7,0,0,7,-108.752,208.667)">
                    <path d="M0.09,-0.365C0.09,-0.378 0.09,-0.394 0.089,-0.414C0.088,-0.434 0.087,-0.452 0.086,-0.468L0.151,-0.468C0.152,-0.455 0.153,-0.441 0.154,-0.426C0.155,-0.411 0.155,-0.398 0.155,-0.388L0.157,-0.388C0.17,-0.415 0.19,-0.438 0.217,-0.455C0.244,-0.471 0.274,-0.48 0.307,-0.48C0.316,-0.48 0.324,-0.48 0.331,-0.479C0.338,-0.478 0.345,-0.477 0.352,-0.475L0.343,-0.411C0.339,-0.412 0.332,-0.414 0.323,-0.415C0.314,-0.416 0.304,-0.417 0.295,-0.417C0.277,-0.417 0.26,-0.414 0.243,-0.407C0.226,-0.4 0.212,-0.39 0.2,-0.376C0.187,-0.361 0.177,-0.343 0.17,-0.321C0.162,-0.298 0.158,-0.271 0.158,-0.24L0.158,-0L0.09,-0L0.09,-0.365Z" style="fill-rule:nonzero;"/>
                </g>
                <g transform="matrix(7,0,0,7,-106.232,208.667)">
                    <path d="M0.16,-0.257L0.163,-0.257L0.379,-0.468L0.477,-0.468L0.241,-0.254L0.501,-0L0.401,-0L0.163,-0.246L0.16,-0.246L0.16,-0L0.092,-0L0.092,-0.756L0.16,-0.756L0.16,-0.257Z" style="fill-rule:nonzero;"/>
                </g>
                <g transform="matrix(7,0,0,7,-102.788,208.667)">
                    <path d="M0.447,-0.27C0.445,-0.314 0.431,-0.351 0.405,-0.38C0.378,-0.409 0.341,-0.423 0.292,-0.423C0.269,-0.423 0.248,-0.419 0.229,-0.411C0.21,-0.402 0.193,-0.391 0.178,-0.377C0.163,-0.362 0.152,-0.346 0.143,-0.328C0.134,-0.309 0.129,-0.29 0.128,-0.27L0.447,-0.27ZM0.516,-0.248L0.516,-0.233C0.516,-0.228 0.516,-0.222 0.515,-0.216L0.127,-0.216C0.128,-0.193 0.132,-0.171 0.141,-0.15C0.15,-0.129 0.162,-0.111 0.177,-0.096C0.192,-0.081 0.21,-0.068 0.231,-0.06C0.252,-0.05 0.274,-0.046 0.298,-0.046C0.333,-0.046 0.364,-0.054 0.39,-0.071C0.415,-0.087 0.435,-0.106 0.448,-0.127L0.499,-0.087C0.471,-0.052 0.44,-0.026 0.407,-0.011C0.373,0.004 0.337,0.012 0.298,0.012C0.263,0.012 0.231,0.006 0.202,-0.007C0.172,-0.019 0.146,-0.036 0.125,-0.058C0.104,-0.08 0.087,-0.106 0.075,-0.136C0.062,-0.166 0.056,-0.199 0.056,-0.234C0.056,-0.269 0.062,-0.302 0.074,-0.332C0.086,-0.362 0.103,-0.388 0.124,-0.41C0.145,-0.432 0.17,-0.449 0.199,-0.462C0.228,-0.474 0.259,-0.48 0.292,-0.48C0.329,-0.48 0.361,-0.474 0.389,-0.462C0.417,-0.449 0.44,-0.433 0.459,-0.412C0.478,-0.391 0.492,-0.366 0.502,-0.338C0.511,-0.31 0.516,-0.28 0.516,-0.248Z" style="fill-rule:nonzero;"/>
                </g>
            </g>
        </g>
        <g transform="matrix(1,0,0,1,-70.8661,17.7448)">
            <g transform="matrix(29.1667,0,0,29.1667,1677.17,2535.66)">
                <path d="M0.514,-0.591C0.49,-0.637 0.448,-0.66 0.387,-0.66C0.368,-0.66 0.35,-0.658 0.331,-0.653C0.312,-0.648 0.295,-0.64 0.28,-0.63C0.264,-0.619 0.25,-0.606 0.239,-0.59C0.228,-0.573 0.221,-0.554 0.218,-0.532C0.215,-0.508 0.217,-0.488 0.225,-0.473C0.233,-0.457 0.245,-0.444 0.261,-0.433C0.276,-0.422 0.294,-0.413 0.315,-0.406C0.336,-0.399 0.357,-0.391 0.379,-0.384C0.4,-0.376 0.421,-0.367 0.442,-0.358C0.462,-0.349 0.48,-0.337 0.495,-0.322C0.509,-0.307 0.521,-0.289 0.528,-0.268C0.535,-0.246 0.537,-0.219 0.532,-0.187C0.527,-0.155 0.516,-0.126 0.499,-0.101C0.482,-0.075 0.461,-0.053 0.436,-0.036C0.411,-0.019 0.385,-0.005 0.356,0.004C0.327,0.013 0.298,0.018 0.27,0.018C0.227,0.018 0.187,0.01 0.15,-0.007C0.113,-0.023 0.084,-0.05 0.062,-0.087L0.134,-0.134C0.145,-0.108 0.164,-0.087 0.189,-0.072C0.214,-0.056 0.246,-0.048 0.283,-0.048C0.301,-0.048 0.319,-0.051 0.338,-0.057C0.357,-0.062 0.374,-0.071 0.39,-0.082C0.406,-0.093 0.42,-0.106 0.431,-0.122C0.442,-0.138 0.45,-0.156 0.453,-0.177C0.456,-0.202 0.454,-0.222 0.446,-0.239C0.438,-0.255 0.426,-0.269 0.411,-0.28C0.395,-0.291 0.377,-0.3 0.356,-0.307C0.335,-0.314 0.314,-0.322 0.293,-0.329C0.271,-0.336 0.25,-0.345 0.23,-0.354C0.209,-0.363 0.192,-0.375 0.177,-0.39C0.162,-0.404 0.15,-0.422 0.143,-0.444C0.136,-0.465 0.134,-0.492 0.139,-0.525C0.144,-0.559 0.154,-0.589 0.171,-0.614C0.188,-0.639 0.208,-0.66 0.232,-0.677C0.255,-0.694 0.281,-0.706 0.31,-0.714C0.339,-0.722 0.367,-0.726 0.396,-0.726C0.436,-0.726 0.472,-0.72 0.503,-0.707C0.534,-0.694 0.561,-0.672 0.584,-0.64L0.514,-0.591Z" style="fill:rgb(64,64,64);fill-rule:nonzero;"/>
            </g>
            <g transform="matrix(29.1667,0,0,29.1667,1693.38,2535.66)">
                <path d="M0.506,-0.234C0.51,-0.26 0.509,-0.284 0.504,-0.307C0.499,-0.33 0.49,-0.349 0.477,-0.366C0.464,-0.383 0.447,-0.396 0.427,-0.406C0.406,-0.415 0.382,-0.42 0.355,-0.42C0.328,-0.42 0.303,-0.415 0.28,-0.406C0.257,-0.396 0.236,-0.383 0.219,-0.366C0.202,-0.349 0.187,-0.33 0.176,-0.307C0.165,-0.284 0.157,-0.26 0.153,-0.234C0.149,-0.208 0.15,-0.184 0.155,-0.161C0.16,-0.138 0.169,-0.119 0.182,-0.102C0.195,-0.085 0.211,-0.072 0.232,-0.063C0.252,-0.053 0.276,-0.048 0.303,-0.048C0.33,-0.048 0.356,-0.053 0.379,-0.063C0.402,-0.072 0.422,-0.085 0.44,-0.102C0.457,-0.119 0.472,-0.138 0.483,-0.161C0.494,-0.184 0.502,-0.208 0.506,-0.234ZM0.578,-0.234C0.573,-0.199 0.562,-0.166 0.546,-0.136C0.529,-0.106 0.509,-0.08 0.484,-0.058C0.458,-0.036 0.43,-0.019 0.398,-0.007C0.365,0.006 0.331,0.012 0.294,0.012C0.258,0.012 0.226,0.006 0.197,-0.007C0.168,-0.019 0.145,-0.036 0.126,-0.058C0.107,-0.08 0.093,-0.106 0.085,-0.136C0.077,-0.166 0.076,-0.199 0.081,-0.234C0.086,-0.269 0.096,-0.302 0.113,-0.332C0.13,-0.362 0.151,-0.388 0.176,-0.41C0.201,-0.432 0.229,-0.449 0.261,-0.462C0.293,-0.474 0.327,-0.48 0.363,-0.48C0.4,-0.48 0.432,-0.474 0.461,-0.462C0.49,-0.449 0.514,-0.432 0.533,-0.41C0.552,-0.388 0.565,-0.362 0.573,-0.332C0.581,-0.302 0.583,-0.269 0.578,-0.234Z" style="fill:rgb(64,64,64);fill-rule:nonzero;"/>
            </g>
            <g transform="matrix(29.1667,0,0,29.1667,1710.68,2535.66)">
                <path d="M0.153,-0L0.087,-0L0.193,-0.756L0.259,-0.756L0.153,-0Z" style="fill:rgb(64,64,64);fill-rule:nonzero;"/>
            </g>
            <g transform="matrix(29.1667,0,0,29.1667,1717.68,2535.66)">
                <path d="M0.371,-0.233C0.354,-0.233 0.334,-0.232 0.309,-0.231C0.284,-0.229 0.259,-0.225 0.235,-0.219C0.211,-0.212 0.19,-0.202 0.172,-0.189C0.153,-0.176 0.142,-0.157 0.139,-0.134C0.137,-0.119 0.138,-0.106 0.143,-0.095C0.148,-0.084 0.155,-0.075 0.165,-0.068C0.174,-0.061 0.185,-0.056 0.198,-0.053C0.211,-0.049 0.224,-0.048 0.237,-0.048C0.261,-0.048 0.283,-0.052 0.302,-0.06C0.321,-0.068 0.337,-0.079 0.35,-0.093C0.363,-0.106 0.374,-0.122 0.383,-0.141C0.391,-0.159 0.397,-0.178 0.4,-0.199L0.405,-0.233L0.371,-0.233ZM0.412,-0.287L0.414,-0.299C0.425,-0.38 0.39,-0.42 0.311,-0.42C0.256,-0.42 0.206,-0.402 0.16,-0.365L0.127,-0.412C0.152,-0.434 0.181,-0.451 0.216,-0.463C0.251,-0.474 0.29,-0.48 0.334,-0.48C0.357,-0.48 0.378,-0.477 0.398,-0.47C0.418,-0.463 0.435,-0.453 0.449,-0.44C0.462,-0.426 0.472,-0.409 0.479,-0.388C0.485,-0.367 0.486,-0.343 0.482,-0.314L0.453,-0.105C0.45,-0.087 0.448,-0.068 0.448,-0.049C0.447,-0.029 0.446,-0.013 0.446,-0L0.382,-0C0.381,-0.011 0.382,-0.024 0.383,-0.037C0.384,-0.05 0.385,-0.063 0.387,-0.076L0.385,-0.076C0.362,-0.045 0.336,-0.022 0.307,-0.009C0.278,0.005 0.245,0.012 0.207,0.012C0.186,0.012 0.167,0.009 0.148,0.004C0.129,-0.002 0.114,-0.011 0.101,-0.023C0.088,-0.034 0.078,-0.049 0.071,-0.066C0.064,-0.083 0.063,-0.102 0.066,-0.125C0.071,-0.163 0.085,-0.193 0.108,-0.215C0.131,-0.236 0.158,-0.252 0.189,-0.263C0.22,-0.274 0.252,-0.28 0.286,-0.283C0.32,-0.286 0.351,-0.287 0.379,-0.287L0.412,-0.287Z" style="fill:rgb(64,64,64);fill-rule:nonzero;"/>
            </g>
            <g transform="matrix(29.1667,0,0,29.1667,1732.82,2535.66)">
                <path d="M0.124,-0.322C0.127,-0.343 0.129,-0.364 0.132,-0.385C0.134,-0.406 0.137,-0.434 0.141,-0.468L0.206,-0.468L0.194,-0.381L0.196,-0.381C0.203,-0.394 0.211,-0.406 0.221,-0.418C0.231,-0.429 0.243,-0.44 0.257,-0.449C0.27,-0.458 0.286,-0.466 0.303,-0.472C0.32,-0.477 0.338,-0.48 0.359,-0.48C0.378,-0.48 0.394,-0.478 0.408,-0.474L0.385,-0.409C0.377,-0.412 0.365,-0.414 0.348,-0.414C0.323,-0.414 0.3,-0.409 0.281,-0.4C0.262,-0.39 0.245,-0.378 0.231,-0.363C0.217,-0.347 0.206,-0.331 0.198,-0.314C0.189,-0.297 0.184,-0.28 0.182,-0.264L0.145,-0L0.079,-0L0.124,-0.322Z" style="fill:rgb(64,64,64);fill-rule:nonzero;"/>
            </g>
            <g transform="matrix(29.1667,0,0,29.1667,1742.5,2535.66)">
                <path d="M0.452,-0.42L0.127,-0.06L0.411,-0.06L0.403,-0L0.023,-0L0.03,-0.048L0.354,-0.408L0.094,-0.408L0.103,-0.468L0.459,-0.468L0.452,-0.42Z" style="fill:rgb(64,64,64);fill-rule:nonzero;"/>
            </g>
            <g transform="matrix(29.1667,0,0,29.1667,1754.92,2535.66)">
                <path d="M0.474,-0.27C0.48,-0.315 0.472,-0.351 0.449,-0.379C0.426,-0.406 0.391,-0.42 0.343,-0.42C0.322,-0.42 0.301,-0.416 0.28,-0.408C0.259,-0.399 0.24,-0.388 0.223,-0.374C0.206,-0.36 0.191,-0.344 0.18,-0.326C0.168,-0.308 0.161,-0.289 0.158,-0.27L0.474,-0.27ZM0.148,-0.216C0.147,-0.193 0.149,-0.171 0.156,-0.15C0.163,-0.129 0.173,-0.112 0.186,-0.097C0.199,-0.082 0.215,-0.07 0.234,-0.061C0.253,-0.052 0.274,-0.048 0.297,-0.048C0.332,-0.048 0.364,-0.056 0.392,-0.073C0.42,-0.089 0.442,-0.108 0.458,-0.129L0.503,-0.087C0.47,-0.052 0.436,-0.026 0.4,-0.011C0.364,0.004 0.327,0.012 0.288,0.012C0.253,0.012 0.222,0.006 0.195,-0.007C0.167,-0.019 0.144,-0.036 0.125,-0.058C0.106,-0.08 0.093,-0.106 0.085,-0.136C0.077,-0.166 0.076,-0.199 0.081,-0.234C0.086,-0.269 0.096,-0.302 0.113,-0.332C0.129,-0.362 0.149,-0.388 0.174,-0.41C0.198,-0.432 0.225,-0.449 0.256,-0.462C0.286,-0.474 0.318,-0.48 0.351,-0.48C0.386,-0.48 0.417,-0.474 0.444,-0.461C0.47,-0.448 0.491,-0.432 0.507,-0.411C0.523,-0.39 0.534,-0.365 0.541,-0.337C0.547,-0.308 0.548,-0.278 0.543,-0.246L0.538,-0.216L0.148,-0.216Z" style="fill:rgb(64,64,64);fill-rule:nonzero;"/>
            </g>
            <g transform="matrix(29.1667,0,0,29.1667,1771.14,2535.66)">
                <path d="M0.153,-0L0.087,-0L0.193,-0.756L0.259,-0.756L0.153,-0Z" style="fill:rgb(64,64,64);fill-rule:nonzero;"/>
            </g>
            <g transform="matrix(29.1667,0,0,29.1667,1778.14,2535.66)">
                <path d="M0.153,-0L0.087,-0L0.193,-0.756L0.259,-0.756L0.153,-0Z" style="fill:rgb(64,64,64);fill-rule:nonzero;"/>
            </g>
            <g transform="matrix(29.1667,0,0,29.1667,1785.14,2535.66)">
                <path d="M0.474,-0.27C0.48,-0.315 0.472,-0.351 0.449,-0.379C0.426,-0.406 0.391,-0.42 0.343,-0.42C0.322,-0.42 0.301,-0.416 0.28,-0.408C0.259,-0.399 0.24,-0.388 0.223,-0.374C0.206,-0.36 0.191,-0.344 0.18,-0.326C0.168,-0.308 0.161,-0.289 0.158,-0.27L0.474,-0.27ZM0.148,-0.216C0.147,-0.193 0.149,-0.171 0.156,-0.15C0.163,-0.129 0.173,-0.112 0.186,-0.097C0.199,-0.082 0.215,-0.07 0.234,-0.061C0.253,-0.052 0.274,-0.048 0.297,-0.048C0.332,-0.048 0.364,-0.056 0.392,-0.073C0.42,-0.089 0.442,-0.108 0.458,-0.129L0.503,-0.087C0.47,-0.052 0.436,-0.026 0.4,-0.011C0.364,0.004 0.327,0.012 0.288,0.012C0.253,0.012 0.222,0.006 0.195,-0.007C0.167,-0.019 0.144,-0.036 0.125,-0.058C0.106,-0.08 0.093,-0.106 0.085,-0.136C0.077,-0.166 0.076,-0.199 0.081,-0.234C0.086,-0.269 0.096,-0.302 0.113,-0.332C0.129,-0.362 0.149,-0.388 0.174,-0.41C0.198,-0.432 0.225,-0.449 0.256,-0.462C0.286,-0.474 0.318,-0.48 0.351,-0.48C0.386,-0.48 0.417,-0.474 0.444,-0.461C0.47,-0.448 0.491,-0.432 0.507,-0.411C0.523,-0.39 0.534,-0.365 0.541,-0.337C0.547,-0.308 0.548,-0.278 0.543,-0.246L0.538,-0.216L0.148,-0.216Z" style="fill:rgb(64,64,64);fill-rule:nonzero;"/>
            </g>
        </g>
        <g transform="matrix(1,0,0,1,-257.024,21.2417)">
            <g transform="matrix(29.1667,0,0,29.1667,1686.31,2532.16)">
                <path d="M0.224,-0.395L0.34,-0.395C0.372,-0.395 0.4,-0.398 0.423,-0.405C0.446,-0.412 0.464,-0.421 0.48,-0.432C0.495,-0.443 0.506,-0.456 0.514,-0.471C0.522,-0.486 0.527,-0.502 0.53,-0.519C0.532,-0.536 0.531,-0.552 0.528,-0.567C0.524,-0.582 0.516,-0.595 0.504,-0.606C0.492,-0.617 0.475,-0.626 0.454,-0.633C0.433,-0.639 0.406,-0.642 0.374,-0.642L0.258,-0.642L0.224,-0.395ZM0.196,-0.708L0.402,-0.708C0.474,-0.708 0.529,-0.692 0.566,-0.661C0.603,-0.63 0.617,-0.582 0.608,-0.519C0.599,-0.455 0.571,-0.407 0.526,-0.376C0.48,-0.345 0.421,-0.329 0.348,-0.329L0.214,-0.329L0.168,-0L0.096,-0L0.196,-0.708Z" style="fill:rgb(64,64,64);fill-rule:nonzero;"/>
            </g>
            <g transform="matrix(29.1667,0,0,29.1667,1703.05,2532.16)">
                <path d="M0.178,-0.756L0.244,-0.756L0.193,-0.393L0.195,-0.393C0.204,-0.406 0.215,-0.417 0.228,-0.428C0.241,-0.439 0.255,-0.448 0.27,-0.456C0.284,-0.463 0.3,-0.469 0.317,-0.474C0.333,-0.478 0.349,-0.48 0.364,-0.48C0.424,-0.48 0.466,-0.464 0.491,-0.433C0.515,-0.401 0.523,-0.356 0.515,-0.297L0.473,-0L0.407,-0L0.443,-0.259C0.447,-0.285 0.448,-0.308 0.447,-0.328C0.446,-0.348 0.441,-0.365 0.434,-0.379C0.426,-0.392 0.414,-0.403 0.399,-0.41C0.384,-0.417 0.364,-0.42 0.339,-0.42C0.336,-0.42 0.326,-0.419 0.311,-0.416C0.295,-0.413 0.278,-0.406 0.259,-0.394C0.24,-0.382 0.223,-0.364 0.206,-0.34C0.189,-0.316 0.178,-0.283 0.172,-0.24L0.138,-0L0.072,-0L0.178,-0.756Z" style="fill:rgb(64,64,64);fill-rule:nonzero;"/>
            </g>
            <g transform="matrix(29.1667,0,0,29.1667,1719.27,2532.16)">
                <path d="M0.506,-0.234C0.51,-0.26 0.509,-0.284 0.504,-0.307C0.499,-0.33 0.49,-0.349 0.477,-0.366C0.464,-0.383 0.447,-0.396 0.427,-0.406C0.406,-0.415 0.382,-0.42 0.355,-0.42C0.328,-0.42 0.303,-0.415 0.28,-0.406C0.257,-0.396 0.236,-0.383 0.219,-0.366C0.202,-0.349 0.187,-0.33 0.176,-0.307C0.165,-0.284 0.157,-0.26 0.153,-0.234C0.149,-0.208 0.15,-0.184 0.155,-0.161C0.16,-0.138 0.169,-0.119 0.182,-0.102C0.195,-0.085 0.211,-0.072 0.232,-0.063C0.252,-0.053 0.276,-0.048 0.303,-0.048C0.33,-0.048 0.356,-0.053 0.379,-0.063C0.402,-0.072 0.422,-0.085 0.44,-0.102C0.457,-0.119 0.472,-0.138 0.483,-0.161C0.494,-0.184 0.502,-0.208 0.506,-0.234ZM0.578,-0.234C0.573,-0.199 0.562,-0.166 0.546,-0.136C0.529,-0.106 0.509,-0.08 0.484,-0.058C0.458,-0.036 0.43,-0.019 0.398,-0.007C0.365,0.006 0.331,0.012 0.294,0.012C0.258,0.012 0.226,0.006 0.197,-0.007C0.168,-0.019 0.145,-0.036 0.126,-0.058C0.107,-0.08 0.093,-0.106 0.085,-0.136C0.077,-0.166 0.076,-0.199 0.081,-0.234C0.086,-0.269 0.096,-0.302 0.113,-0.332C0.13,-0.362 0.151,-0.388 0.176,-0.41C0.201,-0.432 0.229,-0.449 0.261,-0.462C0.293,-0.474 0.327,-0.48 0.363,-0.48C0.4,-0.48 0.432,-0.474 0.461,-0.462C0.49,-0.449 0.514,-0.432 0.533,-0.41C0.552,-0.388 0.565,-0.362 0.573,-0.332C0.581,-0.302 0.583,-0.269 0.578,-0.234Z" style="fill:rgb(64,64,64);fill-rule:nonzero;"/>
            </g>
            <g transform="matrix(29.1667,0,0,29.1667,1736.57,2532.16)">
                <path d="M0.371,-0.408L0.236,-0.408L0.198,-0.132C0.195,-0.115 0.195,-0.1 0.197,-0.09C0.198,-0.079 0.202,-0.07 0.207,-0.064C0.212,-0.058 0.218,-0.054 0.227,-0.052C0.235,-0.049 0.244,-0.048 0.254,-0.048C0.265,-0.048 0.277,-0.05 0.29,-0.053C0.302,-0.056 0.313,-0.061 0.324,-0.066L0.319,-0.005C0.292,0.006 0.262,0.012 0.227,0.012C0.214,0.012 0.202,0.01 0.189,0.007C0.175,0.004 0.164,-0.003 0.154,-0.012C0.144,-0.021 0.136,-0.034 0.131,-0.05C0.126,-0.066 0.125,-0.087 0.129,-0.113L0.17,-0.408L0.071,-0.408L0.08,-0.468L0.179,-0.468L0.197,-0.6L0.263,-0.6L0.245,-0.468L0.38,-0.468L0.371,-0.408Z" style="fill:rgb(64,64,64);fill-rule:nonzero;"/>
            </g>
            <g transform="matrix(29.1667,0,0,29.1667,1746.25,2532.16)">
                <path d="M0.506,-0.234C0.51,-0.26 0.509,-0.284 0.504,-0.307C0.499,-0.33 0.49,-0.349 0.477,-0.366C0.464,-0.383 0.447,-0.396 0.427,-0.406C0.406,-0.415 0.382,-0.42 0.355,-0.42C0.328,-0.42 0.303,-0.415 0.28,-0.406C0.257,-0.396 0.236,-0.383 0.219,-0.366C0.202,-0.349 0.187,-0.33 0.176,-0.307C0.165,-0.284 0.157,-0.26 0.153,-0.234C0.149,-0.208 0.15,-0.184 0.155,-0.161C0.16,-0.138 0.169,-0.119 0.182,-0.102C0.195,-0.085 0.211,-0.072 0.232,-0.063C0.252,-0.053 0.276,-0.048 0.303,-0.048C0.33,-0.048 0.356,-0.053 0.379,-0.063C0.402,-0.072 0.422,-0.085 0.44,-0.102C0.457,-0.119 0.472,-0.138 0.483,-0.161C0.494,-0.184 0.502,-0.208 0.506,-0.234ZM0.578,-0.234C0.573,-0.199 0.562,-0.166 0.546,-0.136C0.529,-0.106 0.509,-0.08 0.484,-0.058C0.458,-0.036 0.43,-0.019 0.398,-0.007C0.365,0.006 0.331,0.012 0.294,0.012C0.258,0.012 0.226,0.006 0.197,-0.007C0.168,-0.019 0.145,-0.036 0.126,-0.058C0.107,-0.08 0.093,-0.106 0.085,-0.136C0.077,-0.166 0.076,-0.199 0.081,-0.234C0.086,-0.269 0.096,-0.302 0.113,-0.332C0.13,-0.362 0.151,-0.388 0.176,-0.41C0.201,-0.432 0.229,-0.449 0.261,-0.462C0.293,-0.474 0.327,-0.48 0.363,-0.48C0.4,-0.48 0.432,-0.474 0.461,-0.462C0.49,-0.449 0.514,-0.432 0.533,-0.41C0.552,-0.388 0.565,-0.362 0.573,-0.332C0.581,-0.302 0.583,-0.269 0.578,-0.234Z" style="fill:rgb(64,64,64);fill-rule:nonzero;"/>
            </g>
            <g transform="matrix(29.1667,0,0,29.1667,1763.55,2532.16)">
                <path d="M0.145,-0.234C0.141,-0.208 0.141,-0.184 0.147,-0.161C0.152,-0.138 0.161,-0.119 0.174,-0.102C0.187,-0.085 0.203,-0.072 0.224,-0.063C0.245,-0.053 0.269,-0.048 0.296,-0.048C0.323,-0.048 0.348,-0.053 0.373,-0.063C0.397,-0.072 0.419,-0.085 0.438,-0.102C0.456,-0.119 0.472,-0.138 0.485,-0.161C0.497,-0.184 0.505,-0.208 0.509,-0.234C0.513,-0.26 0.512,-0.284 0.506,-0.307C0.499,-0.33 0.489,-0.349 0.475,-0.366C0.46,-0.383 0.442,-0.396 0.421,-0.406C0.399,-0.415 0.375,-0.42 0.348,-0.42C0.321,-0.42 0.296,-0.415 0.273,-0.406C0.25,-0.396 0.229,-0.383 0.212,-0.366C0.194,-0.349 0.179,-0.33 0.168,-0.307C0.157,-0.284 0.149,-0.26 0.145,-0.234ZM0.539,-0L0.473,-0L0.484,-0.078L0.482,-0.078C0.469,-0.062 0.454,-0.048 0.438,-0.037C0.422,-0.026 0.405,-0.016 0.388,-0.009C0.371,-0.002 0.353,0.004 0.336,0.007C0.319,0.01 0.302,0.012 0.287,0.012C0.25,0.012 0.218,0.006 0.189,-0.007C0.16,-0.019 0.136,-0.036 0.118,-0.058C0.098,-0.08 0.085,-0.106 0.077,-0.136C0.069,-0.166 0.068,-0.199 0.073,-0.234C0.078,-0.269 0.088,-0.302 0.105,-0.332C0.122,-0.362 0.142,-0.388 0.168,-0.41C0.193,-0.432 0.221,-0.449 0.253,-0.462C0.285,-0.474 0.319,-0.48 0.356,-0.48C0.371,-0.48 0.387,-0.478 0.404,-0.475C0.421,-0.472 0.436,-0.466 0.452,-0.459C0.467,-0.452 0.481,-0.442 0.494,-0.431C0.507,-0.42 0.517,-0.406 0.526,-0.39L0.528,-0.39L0.579,-0.756L0.645,-0.756L0.539,-0Z" style="fill:rgb(64,64,64);fill-rule:nonzero;"/>
            </g>
            <g transform="matrix(29.1667,0,0,29.1667,1781.37,2532.16)">
                <path d="M0.259,-0.648C0.257,-0.634 0.25,-0.623 0.239,-0.614C0.228,-0.604 0.216,-0.6 0.204,-0.6C0.192,-0.6 0.182,-0.604 0.173,-0.614C0.164,-0.623 0.161,-0.634 0.163,-0.648C0.165,-0.662 0.172,-0.674 0.183,-0.683C0.194,-0.692 0.206,-0.696 0.218,-0.696C0.23,-0.696 0.24,-0.692 0.249,-0.683C0.258,-0.674 0.261,-0.662 0.259,-0.648ZM0.153,-0L0.087,-0L0.153,-0.468L0.219,-0.468L0.153,-0Z" style="fill:rgb(64,64,64);fill-rule:nonzero;"/>
            </g>
            <g transform="matrix(29.1667,0,0,29.1667,1788.37,2532.16)">
                <path d="M0.506,-0.234C0.51,-0.26 0.509,-0.284 0.504,-0.307C0.499,-0.33 0.49,-0.349 0.477,-0.366C0.464,-0.383 0.447,-0.396 0.427,-0.406C0.406,-0.415 0.382,-0.42 0.355,-0.42C0.328,-0.42 0.303,-0.415 0.28,-0.406C0.257,-0.396 0.236,-0.383 0.219,-0.366C0.202,-0.349 0.187,-0.33 0.176,-0.307C0.165,-0.284 0.157,-0.26 0.153,-0.234C0.149,-0.208 0.15,-0.184 0.155,-0.161C0.16,-0.138 0.169,-0.119 0.182,-0.102C0.195,-0.085 0.211,-0.072 0.232,-0.063C0.252,-0.053 0.276,-0.048 0.303,-0.048C0.33,-0.048 0.356,-0.053 0.379,-0.063C0.402,-0.072 0.422,-0.085 0.44,-0.102C0.457,-0.119 0.472,-0.138 0.483,-0.161C0.494,-0.184 0.502,-0.208 0.506,-0.234ZM0.578,-0.234C0.573,-0.199 0.562,-0.166 0.546,-0.136C0.529,-0.106 0.509,-0.08 0.484,-0.058C0.458,-0.036 0.43,-0.019 0.398,-0.007C0.365,0.006 0.331,0.012 0.294,0.012C0.258,0.012 0.226,0.006 0.197,-0.007C0.168,-0.019 0.145,-0.036 0.126,-0.058C0.107,-0.08 0.093,-0.106 0.085,-0.136C0.077,-0.166 0.076,-0.199 0.081,-0.234C0.086,-0.269 0.096,-0.302 0.113,-0.332C0.13,-0.362 0.151,-0.388 0.176,-0.41C0.201,-0.432 0.229,-0.449 0.261,-0.462C0.293,-0.474 0.327,-0.48 0.363,-0.48C0.4,-0.48 0.432,-0.474 0.461,-0.462C0.49,-0.449 0.514,-0.432 0.533,-0.41C0.552,-0.388 0.565,-0.362 0.573,-0.332C0.581,-0.302 0.583,-0.269 0.578,-0.234Z" style="fill:rgb(64,64,64);fill-rule:nonzero;"/>
            </g>
            <g transform="matrix(29.1667,0,0,29.1667,1805.66,2532.16)">
                <path d="M0.145,-0.234C0.141,-0.208 0.141,-0.184 0.147,-0.161C0.152,-0.138 0.161,-0.119 0.174,-0.102C0.187,-0.085 0.203,-0.072 0.224,-0.063C0.245,-0.053 0.269,-0.048 0.296,-0.048C0.323,-0.048 0.348,-0.053 0.373,-0.063C0.397,-0.072 0.419,-0.085 0.438,-0.102C0.456,-0.119 0.472,-0.138 0.485,-0.161C0.497,-0.184 0.505,-0.208 0.509,-0.234C0.513,-0.26 0.512,-0.284 0.506,-0.307C0.499,-0.33 0.489,-0.349 0.475,-0.366C0.46,-0.383 0.442,-0.396 0.421,-0.406C0.399,-0.415 0.375,-0.42 0.348,-0.42C0.321,-0.42 0.296,-0.415 0.273,-0.406C0.25,-0.396 0.229,-0.383 0.212,-0.366C0.194,-0.349 0.179,-0.33 0.168,-0.307C0.157,-0.284 0.149,-0.26 0.145,-0.234ZM0.539,-0L0.473,-0L0.484,-0.078L0.482,-0.078C0.469,-0.062 0.454,-0.048 0.438,-0.037C0.422,-0.026 0.405,-0.016 0.388,-0.009C0.371,-0.002 0.353,0.004 0.336,0.007C0.319,0.01 0.302,0.012 0.287,0.012C0.25,0.012 0.218,0.006 0.189,-0.007C0.16,-0.019 0.136,-0.036 0.118,-0.058C0.098,-0.08 0.085,-0.106 0.077,-0.136C0.069,-0.166 0.068,-0.199 0.073,-0.234C0.078,-0.269 0.088,-0.302 0.105,-0.332C0.122,-0.362 0.142,-0.388 0.168,-0.41C0.193,-0.432 0.221,-0.449 0.253,-0.462C0.285,-0.474 0.319,-0.48 0.356,-0.48C0.371,-0.48 0.387,-0.478 0.404,-0.475C0.421,-0.472 0.436,-0.466 0.452,-0.459C0.467,-0.452 0.481,-0.442 0.494,-0.431C0.507,-0.42 0.517,-0.406 0.526,-0.39L0.528,-0.39L0.579,-0.756L0.645,-0.756L0.539,-0Z" style="fill:rgb(64,64,64);fill-rule:nonzero;"/>
            </g>
            <g transform="matrix(29.1667,0,0,29.1667,1823.48,2532.16)">
                <path d="M0.474,-0.27C0.48,-0.315 0.472,-0.351 0.449,-0.379C0.426,-0.406 0.391,-0.42 0.343,-0.42C0.322,-0.42 0.301,-0.416 0.28,-0.408C0.259,-0.399 0.24,-0.388 0.223,-0.374C0.206,-0.36 0.191,-0.344 0.18,-0.326C0.168,-0.308 0.161,-0.289 0.158,-0.27L0.474,-0.27ZM0.148,-0.216C0.147,-0.193 0.149,-0.171 0.156,-0.15C0.163,-0.129 0.173,-0.112 0.186,-0.097C0.199,-0.082 0.215,-0.07 0.234,-0.061C0.253,-0.052 0.274,-0.048 0.297,-0.048C0.332,-0.048 0.364,-0.056 0.392,-0.073C0.42,-0.089 0.442,-0.108 0.458,-0.129L0.503,-0.087C0.47,-0.052 0.436,-0.026 0.4,-0.011C0.364,0.004 0.327,0.012 0.288,0.012C0.253,0.012 0.222,0.006 0.195,-0.007C0.167,-0.019 0.144,-0.036 0.125,-0.058C0.106,-0.08 0.093,-0.106 0.085,-0.136C0.077,-0.166 0.076,-0.199 0.081,-0.234C0.086,-0.269 0.096,-0.302 0.113,-0.332C0.129,-0.362 0.149,-0.388 0.174,-0.41C0.198,-0.432 0.225,-0.449 0.256,-0.462C0.286,-0.474 0.318,-0.48 0.351,-0.48C0.386,-0.48 0.417,-0.474 0.444,-0.461C0.47,-0.448 0.491,-0.432 0.507,-0.411C0.523,-0.39 0.534,-0.365 0.541,-0.337C0.547,-0.308 0.548,-0.278 0.543,-0.246L0.538,-0.216L0.148,-0.216Z" style="fill:rgb(64,64,64);fill-rule:nonzero;"/>
            </g>
        </g>
        <g transform="matrix(1,0,0,0.812951,-17.7165,429.217)">
            <g transform="matrix(2.08333,-0,-0,2.56268,1320.66,2012.37)">
                <path d="M49.771,205.286L46.396,212.036L43.021,205.286L49.771,205.286Z"/>
                <path d="M46.396,127.266L46.396,206.636" style="fill:none;stroke:black;stroke-width:1.5px;stroke-linecap:round;stroke-linejoin:bevel;stroke-miterlimit:1.5;stroke-dasharray:3,3,0,0;"/>
            </g>
        </g>
        <g transform="matrix(1,0,0,1,-70.8661,-391.75)">
            <g transform="matrix(29.1667,0,0,29.1667,1677.17,2535.81)">
                <path d="M0.167,-0.066L0.307,-0.066C0.361,-0.066 0.409,-0.074 0.451,-0.091C0.493,-0.107 0.529,-0.129 0.559,-0.156C0.589,-0.183 0.613,-0.213 0.631,-0.248C0.648,-0.282 0.66,-0.317 0.665,-0.354C0.67,-0.391 0.668,-0.426 0.661,-0.461C0.653,-0.495 0.638,-0.526 0.615,-0.553C0.592,-0.58 0.562,-0.601 0.525,-0.618C0.488,-0.634 0.442,-0.642 0.388,-0.642L0.248,-0.642L0.167,-0.066ZM0.186,-0.708L0.421,-0.708C0.465,-0.708 0.508,-0.701 0.551,-0.686C0.593,-0.671 0.63,-0.649 0.661,-0.62C0.692,-0.59 0.716,-0.553 0.732,-0.509C0.747,-0.464 0.751,-0.413 0.743,-0.354C0.735,-0.295 0.717,-0.243 0.688,-0.199C0.659,-0.155 0.625,-0.118 0.586,-0.089C0.547,-0.059 0.504,-0.037 0.457,-0.022C0.41,-0.007 0.365,-0 0.321,-0L0.086,-0L0.186,-0.708Z" style="fill:rgb(64,64,64);fill-rule:nonzero;"/>
            </g>
            <g transform="matrix(29.1667,0,0,29.1667,1698.78,2535.81)">
                <path d="M0.41,-0C0.411,-0.013 0.412,-0.025 0.413,-0.038C0.414,-0.05 0.416,-0.062 0.418,-0.075L0.416,-0.075C0.407,-0.062 0.396,-0.051 0.383,-0.04C0.37,-0.029 0.356,-0.02 0.341,-0.013C0.326,-0.005 0.31,0.001 0.294,0.006C0.277,0.01 0.261,0.012 0.246,0.012C0.186,0.012 0.144,-0.004 0.12,-0.036C0.096,-0.067 0.088,-0.112 0.096,-0.171L0.138,-0.468L0.204,-0.468L0.167,-0.209C0.164,-0.183 0.163,-0.16 0.164,-0.14C0.165,-0.12 0.17,-0.103 0.178,-0.09C0.185,-0.076 0.197,-0.066 0.212,-0.059C0.227,-0.051 0.247,-0.048 0.272,-0.048C0.274,-0.048 0.279,-0.049 0.288,-0.05C0.296,-0.051 0.306,-0.053 0.317,-0.057C0.328,-0.06 0.339,-0.066 0.352,-0.074C0.365,-0.081 0.377,-0.092 0.389,-0.105C0.4,-0.118 0.411,-0.135 0.42,-0.155C0.428,-0.175 0.435,-0.199 0.439,-0.228L0.473,-0.468L0.539,-0.468L0.487,-0.103C0.486,-0.09 0.484,-0.074 0.483,-0.055C0.481,-0.036 0.479,-0.017 0.478,-0L0.41,-0Z" style="fill:rgb(64,64,64);fill-rule:nonzero;"/>
            </g>
            <g transform="matrix(29.1667,0,0,29.1667,1714.99,2535.81)">
                <path d="M0.124,-0.322C0.127,-0.343 0.129,-0.364 0.132,-0.385C0.134,-0.406 0.137,-0.434 0.141,-0.468L0.206,-0.468L0.194,-0.381L0.196,-0.381C0.203,-0.394 0.211,-0.406 0.221,-0.418C0.231,-0.429 0.243,-0.44 0.257,-0.449C0.27,-0.458 0.286,-0.466 0.303,-0.472C0.32,-0.477 0.338,-0.48 0.359,-0.48C0.378,-0.48 0.394,-0.478 0.408,-0.474L0.385,-0.409C0.377,-0.412 0.365,-0.414 0.348,-0.414C0.323,-0.414 0.3,-0.409 0.281,-0.4C0.262,-0.39 0.245,-0.378 0.231,-0.363C0.217,-0.347 0.206,-0.331 0.198,-0.314C0.189,-0.297 0.184,-0.28 0.182,-0.264L0.145,-0L0.079,-0L0.124,-0.322Z" style="fill:rgb(64,64,64);fill-rule:nonzero;"/>
            </g>
            <g transform="matrix(29.1667,0,0,29.1667,1724.15,2535.81)">
                <path d="M0.463,-0.358C0.454,-0.375 0.441,-0.39 0.422,-0.402C0.403,-0.414 0.381,-0.42 0.355,-0.42C0.328,-0.421 0.303,-0.416 0.28,-0.407C0.257,-0.398 0.236,-0.385 0.219,-0.368C0.201,-0.351 0.187,-0.332 0.176,-0.309C0.165,-0.286 0.157,-0.261 0.153,-0.234C0.149,-0.207 0.15,-0.183 0.155,-0.16C0.16,-0.136 0.168,-0.117 0.181,-0.1C0.194,-0.083 0.21,-0.07 0.231,-0.061C0.252,-0.052 0.276,-0.047 0.303,-0.048C0.329,-0.048 0.353,-0.054 0.375,-0.066C0.397,-0.078 0.415,-0.093 0.428,-0.11L0.477,-0.069C0.45,-0.042 0.42,-0.022 0.389,-0.009C0.358,0.005 0.326,0.011 0.294,0.012C0.256,0.013 0.223,0.007 0.194,-0.006C0.165,-0.018 0.141,-0.035 0.123,-0.057C0.104,-0.079 0.091,-0.105 0.084,-0.136C0.077,-0.166 0.076,-0.199 0.081,-0.234C0.086,-0.269 0.096,-0.302 0.112,-0.333C0.128,-0.363 0.148,-0.389 0.173,-0.411C0.197,-0.433 0.225,-0.45 0.258,-0.463C0.29,-0.475 0.325,-0.481 0.363,-0.48C0.395,-0.479 0.425,-0.472 0.453,-0.46C0.48,-0.447 0.504,-0.426 0.523,-0.399L0.463,-0.358Z" style="fill:rgb(64,64,64);fill-rule:nonzero;"/>
            </g>
            <g transform="matrix(29.1667,0,0,29.1667,1738.21,2535.81)">
                <path d="M0.178,-0.756L0.244,-0.756L0.193,-0.393L0.195,-0.393C0.204,-0.406 0.215,-0.417 0.228,-0.428C0.241,-0.439 0.255,-0.448 0.27,-0.456C0.284,-0.463 0.3,-0.469 0.317,-0.474C0.333,-0.478 0.349,-0.48 0.364,-0.48C0.424,-0.48 0.466,-0.464 0.491,-0.433C0.515,-0.401 0.523,-0.356 0.515,-0.297L0.473,-0L0.407,-0L0.443,-0.259C0.447,-0.285 0.448,-0.308 0.447,-0.328C0.446,-0.348 0.441,-0.365 0.434,-0.379C0.426,-0.392 0.414,-0.403 0.399,-0.41C0.384,-0.417 0.364,-0.42 0.339,-0.42C0.336,-0.42 0.326,-0.419 0.311,-0.416C0.295,-0.413 0.278,-0.406 0.259,-0.394C0.24,-0.382 0.223,-0.364 0.206,-0.34C0.189,-0.316 0.178,-0.283 0.172,-0.24L0.138,-0L0.072,-0L0.178,-0.756Z" style="fill:rgb(64,64,64);fill-rule:nonzero;"/>
            </g>
            <g transform="matrix(29.1667,0,0,29.1667,1754.43,2535.81)">
                <path d="M0.153,-0L0.087,-0L0.193,-0.756L0.259,-0.756L0.153,-0Z" style="fill:rgb(64,64,64);fill-rule:nonzero;"/>
            </g>
            <g transform="matrix(29.1667,0,0,29.1667,1761.43,2535.81)">
                <path d="M0.371,-0.233C0.354,-0.233 0.334,-0.232 0.309,-0.231C0.284,-0.229 0.259,-0.225 0.235,-0.219C0.211,-0.212 0.19,-0.202 0.172,-0.189C0.153,-0.176 0.142,-0.157 0.139,-0.134C0.137,-0.119 0.138,-0.106 0.143,-0.095C0.148,-0.084 0.155,-0.075 0.165,-0.068C0.174,-0.061 0.185,-0.056 0.198,-0.053C0.211,-0.049 0.224,-0.048 0.237,-0.048C0.261,-0.048 0.283,-0.052 0.302,-0.06C0.321,-0.068 0.337,-0.079 0.35,-0.093C0.363,-0.106 0.374,-0.122 0.383,-0.141C0.391,-0.159 0.397,-0.178 0.4,-0.199L0.405,-0.233L0.371,-0.233ZM0.412,-0.287L0.414,-0.299C0.425,-0.38 0.39,-0.42 0.311,-0.42C0.256,-0.42 0.206,-0.402 0.16,-0.365L0.127,-0.412C0.152,-0.434 0.181,-0.451 0.216,-0.463C0.251,-0.474 0.29,-0.48 0.334,-0.48C0.357,-0.48 0.378,-0.477 0.398,-0.47C0.418,-0.463 0.435,-0.453 0.449,-0.44C0.462,-0.426 0.472,-0.409 0.479,-0.388C0.485,-0.367 0.486,-0.343 0.482,-0.314L0.453,-0.105C0.45,-0.087 0.448,-0.068 0.448,-0.049C0.447,-0.029 0.446,-0.013 0.446,-0L0.382,-0C0.381,-0.011 0.382,-0.024 0.383,-0.037C0.384,-0.05 0.385,-0.063 0.387,-0.076L0.385,-0.076C0.362,-0.045 0.336,-0.022 0.307,-0.009C0.278,0.005 0.245,0.012 0.207,0.012C0.186,0.012 0.167,0.009 0.148,0.004C0.129,-0.002 0.114,-0.011 0.101,-0.023C0.088,-0.034 0.078,-0.049 0.071,-0.066C0.064,-0.083 0.063,-0.102 0.066,-0.125C0.071,-0.163 0.085,-0.193 0.108,-0.215C0.131,-0.236 0.158,-0.252 0.189,-0.263C0.22,-0.274 0.252,-0.28 0.286,-0.283C0.32,-0.286 0.351,-0.287 0.379,-0.287L0.412,-0.287Z" style="fill:rgb(64,64,64);fill-rule:nonzero;"/>
            </g>
            <g transform="matrix(29.1667,0,0,29.1667,1776.57,2535.81)">
                <path d="M0.37,-0.357C0.363,-0.376 0.352,-0.392 0.337,-0.403C0.322,-0.414 0.302,-0.42 0.278,-0.42C0.267,-0.42 0.255,-0.419 0.243,-0.416C0.231,-0.413 0.22,-0.409 0.21,-0.404C0.2,-0.398 0.192,-0.391 0.185,-0.382C0.178,-0.373 0.173,-0.363 0.171,-0.35C0.168,-0.328 0.173,-0.312 0.187,-0.302C0.201,-0.292 0.223,-0.283 0.253,-0.276L0.318,-0.26C0.349,-0.253 0.374,-0.238 0.393,-0.216C0.412,-0.193 0.419,-0.165 0.414,-0.132C0.41,-0.107 0.402,-0.085 0.389,-0.067C0.376,-0.048 0.36,-0.033 0.341,-0.022C0.322,-0.01 0.302,-0.001 0.279,0.004C0.256,0.009 0.234,0.012 0.211,0.012C0.175,0.012 0.142,0.005 0.114,-0.009C0.085,-0.022 0.061,-0.046 0.044,-0.079L0.107,-0.118C0.118,-0.097 0.132,-0.08 0.151,-0.067C0.169,-0.054 0.192,-0.048 0.22,-0.048C0.233,-0.048 0.247,-0.049 0.261,-0.053C0.274,-0.056 0.287,-0.06 0.298,-0.067C0.309,-0.073 0.319,-0.081 0.327,-0.091C0.334,-0.101 0.339,-0.113 0.341,-0.126C0.342,-0.138 0.341,-0.148 0.338,-0.156C0.335,-0.164 0.329,-0.171 0.322,-0.177C0.315,-0.182 0.306,-0.187 0.296,-0.191C0.285,-0.194 0.274,-0.198 0.262,-0.201L0.2,-0.216C0.192,-0.218 0.182,-0.221 0.169,-0.226C0.156,-0.231 0.144,-0.238 0.133,-0.247C0.121,-0.256 0.111,-0.269 0.104,-0.284C0.097,-0.299 0.095,-0.317 0.098,-0.339C0.101,-0.363 0.109,-0.384 0.121,-0.402C0.133,-0.42 0.148,-0.435 0.166,-0.446C0.183,-0.457 0.203,-0.466 0.225,-0.472C0.246,-0.477 0.268,-0.48 0.29,-0.48C0.323,-0.48 0.352,-0.474 0.379,-0.461C0.405,-0.448 0.424,-0.427 0.435,-0.396L0.37,-0.357Z" style="fill:rgb(64,64,64);fill-rule:nonzero;"/>
            </g>
            <g transform="matrix(29.1667,0,0,29.1667,1788.99,2535.81)">
                <path d="M0.37,-0.357C0.363,-0.376 0.352,-0.392 0.337,-0.403C0.322,-0.414 0.302,-0.42 0.278,-0.42C0.267,-0.42 0.255,-0.419 0.243,-0.416C0.231,-0.413 0.22,-0.409 0.21,-0.404C0.2,-0.398 0.192,-0.391 0.185,-0.382C0.178,-0.373 0.173,-0.363 0.171,-0.35C0.168,-0.328 0.173,-0.312 0.187,-0.302C0.201,-0.292 0.223,-0.283 0.253,-0.276L0.318,-0.26C0.349,-0.253 0.374,-0.238 0.393,-0.216C0.412,-0.193 0.419,-0.165 0.414,-0.132C0.41,-0.107 0.402,-0.085 0.389,-0.067C0.376,-0.048 0.36,-0.033 0.341,-0.022C0.322,-0.01 0.302,-0.001 0.279,0.004C0.256,0.009 0.234,0.012 0.211,0.012C0.175,0.012 0.142,0.005 0.114,-0.009C0.085,-0.022 0.061,-0.046 0.044,-0.079L0.107,-0.118C0.118,-0.097 0.132,-0.08 0.151,-0.067C0.169,-0.054 0.192,-0.048 0.22,-0.048C0.233,-0.048 0.247,-0.049 0.261,-0.053C0.274,-0.056 0.287,-0.06 0.298,-0.067C0.309,-0.073 0.319,-0.081 0.327,-0.091C0.334,-0.101 0.339,-0.113 0.341,-0.126C0.342,-0.138 0.341,-0.148 0.338,-0.156C0.335,-0.164 0.329,-0.171 0.322,-0.177C0.315,-0.182 0.306,-0.187 0.296,-0.191C0.285,-0.194 0.274,-0.198 0.262,-0.201L0.2,-0.216C0.192,-0.218 0.182,-0.221 0.169,-0.226C0.156,-0.231 0.144,-0.238 0.133,-0.247C0.121,-0.256 0.111,-0.269 0.104,-0.284C0.097,-0.299 0.095,-0.317 0.098,-0.339C0.101,-0.363 0.109,-0.384 0.121,-0.402C0.133,-0.42 0.148,-0.435 0.166,-0.446C0.183,-0.457 0.203,-0.466 0.225,-0.472C0.246,-0.477 0.268,-0.48 0.29,-0.48C0.323,-0.48 0.352,-0.474 0.379,-0.461C0.405,-0.448 0.424,-0.427 0.435,-0.396L0.37,-0.357Z" style="fill:rgb(64,64,64);fill-rule:nonzero;"/>
            </g>
            <g transform="matrix(29.1667,0,0,29.1667,1801.42,2535.81)">
                <path d="M0.324,-0.207L0.067,-0.207L0.076,-0.273L0.333,-0.273L0.324,-0.207Z" style="fill:rgb(64,64,64);fill-rule:nonzero;"/>
            </g>
            <g transform="matrix(29.1667,0,0,29.1667,1677.17,2564.98)">
                <path d="M0.532,-0.234C0.536,-0.26 0.535,-0.284 0.53,-0.307C0.525,-0.33 0.516,-0.349 0.503,-0.366C0.49,-0.383 0.473,-0.396 0.453,-0.406C0.432,-0.415 0.408,-0.42 0.381,-0.42C0.354,-0.42 0.328,-0.415 0.304,-0.406C0.28,-0.396 0.259,-0.383 0.24,-0.366C0.221,-0.349 0.205,-0.33 0.193,-0.307C0.18,-0.284 0.172,-0.26 0.168,-0.234C0.164,-0.208 0.165,-0.184 0.172,-0.161C0.178,-0.138 0.188,-0.119 0.203,-0.102C0.217,-0.085 0.235,-0.072 0.256,-0.063C0.277,-0.053 0.302,-0.048 0.329,-0.048C0.356,-0.048 0.382,-0.053 0.405,-0.063C0.428,-0.072 0.448,-0.085 0.466,-0.102C0.483,-0.119 0.498,-0.138 0.509,-0.161C0.52,-0.184 0.528,-0.208 0.532,-0.234ZM0.178,-0.756L0.244,-0.756L0.193,-0.39L0.195,-0.39C0.208,-0.406 0.222,-0.42 0.239,-0.431C0.255,-0.442 0.272,-0.452 0.289,-0.459C0.306,-0.466 0.323,-0.472 0.34,-0.475C0.357,-0.478 0.374,-0.48 0.389,-0.48C0.426,-0.48 0.458,-0.474 0.487,-0.462C0.516,-0.449 0.54,-0.432 0.559,-0.41C0.578,-0.388 0.591,-0.362 0.599,-0.332C0.607,-0.302 0.609,-0.269 0.604,-0.234C0.599,-0.199 0.588,-0.166 0.572,-0.136C0.555,-0.106 0.535,-0.08 0.51,-0.058C0.485,-0.036 0.456,-0.019 0.424,-0.007C0.391,0.006 0.357,0.012 0.32,0.012C0.305,0.012 0.289,0.01 0.273,0.007C0.256,0.004 0.24,-0.002 0.225,-0.009C0.21,-0.016 0.196,-0.026 0.183,-0.037C0.17,-0.048 0.16,-0.062 0.151,-0.078L0.149,-0.078L0.138,-0L0.072,-0L0.178,-0.756Z" style="fill:rgb(64,64,64);fill-rule:nonzero;"/>
            </g>
            <g transform="matrix(29.1667,0,0,29.1667,1694.99,2564.98)">
                <path d="M0.474,-0.27C0.48,-0.315 0.472,-0.351 0.449,-0.379C0.426,-0.406 0.391,-0.42 0.343,-0.42C0.322,-0.42 0.301,-0.416 0.28,-0.408C0.259,-0.399 0.24,-0.388 0.223,-0.374C0.206,-0.36 0.191,-0.344 0.18,-0.326C0.168,-0.308 0.161,-0.289 0.158,-0.27L0.474,-0.27ZM0.148,-0.216C0.147,-0.193 0.149,-0.171 0.156,-0.15C0.163,-0.129 0.173,-0.112 0.186,-0.097C0.199,-0.082 0.215,-0.07 0.234,-0.061C0.253,-0.052 0.274,-0.048 0.297,-0.048C0.332,-0.048 0.364,-0.056 0.392,-0.073C0.42,-0.089 0.442,-0.108 0.458,-0.129L0.503,-0.087C0.47,-0.052 0.436,-0.026 0.4,-0.011C0.364,0.004 0.327,0.012 0.288,0.012C0.253,0.012 0.222,0.006 0.195,-0.007C0.167,-0.019 0.144,-0.036 0.125,-0.058C0.106,-0.08 0.093,-0.106 0.085,-0.136C0.077,-0.166 0.076,-0.199 0.081,-0.234C0.086,-0.269 0.096,-0.302 0.113,-0.332C0.129,-0.362 0.149,-0.388 0.174,-0.41C0.198,-0.432 0.225,-0.449 0.256,-0.462C0.286,-0.474 0.318,-0.48 0.351,-0.48C0.386,-0.48 0.417,-0.474 0.444,-0.461C0.47,-0.448 0.491,-0.432 0.507,-0.411C0.523,-0.39 0.534,-0.365 0.541,-0.337C0.547,-0.308 0.548,-0.278 0.543,-0.246L0.538,-0.216L0.148,-0.216Z" style="fill:rgb(64,64,64);fill-rule:nonzero;"/>
            </g>
            <g transform="matrix(29.1667,0,0,29.1667,1711.2,2564.98)">
                <path d="M0.124,-0.322C0.127,-0.343 0.129,-0.364 0.132,-0.385C0.134,-0.406 0.137,-0.434 0.141,-0.468L0.206,-0.468L0.194,-0.381L0.196,-0.381C0.203,-0.394 0.211,-0.406 0.221,-0.418C0.231,-0.429 0.243,-0.44 0.257,-0.449C0.27,-0.458 0.286,-0.466 0.303,-0.472C0.32,-0.477 0.338,-0.48 0.359,-0.48C0.378,-0.48 0.394,-0.478 0.408,-0.474L0.385,-0.409C0.377,-0.412 0.365,-0.414 0.348,-0.414C0.323,-0.414 0.3,-0.409 0.281,-0.4C0.262,-0.39 0.245,-0.378 0.231,-0.363C0.217,-0.347 0.206,-0.331 0.198,-0.314C0.189,-0.297 0.184,-0.28 0.182,-0.264L0.145,-0L0.079,-0L0.124,-0.322Z" style="fill:rgb(64,64,64);fill-rule:nonzero;"/>
            </g>
            <g transform="matrix(29.1667,0,0,29.1667,1720.36,2564.98)">
                <path d="M0.474,-0.27C0.48,-0.315 0.472,-0.351 0.449,-0.379C0.426,-0.406 0.391,-0.42 0.343,-0.42C0.322,-0.42 0.301,-0.416 0.28,-0.408C0.259,-0.399 0.24,-0.388 0.223,-0.374C0.206,-0.36 0.191,-0.344 0.18,-0.326C0.168,-0.308 0.161,-0.289 0.158,-0.27L0.474,-0.27ZM0.148,-0.216C0.147,-0.193 0.149,-0.171 0.156,-0.15C0.163,-0.129 0.173,-0.112 0.186,-0.097C0.199,-0.082 0.215,-0.07 0.234,-0.061C0.253,-0.052 0.274,-0.048 0.297,-0.048C0.332,-0.048 0.364,-0.056 0.392,-0.073C0.42,-0.089 0.442,-0.108 0.458,-0.129L0.503,-0.087C0.47,-0.052 0.436,-0.026 0.4,-0.011C0.364,0.004 0.327,0.012 0.288,0.012C0.253,0.012 0.222,0.006 0.195,-0.007C0.167,-0.019 0.144,-0.036 0.125,-0.058C0.106,-0.08 0.093,-0.106 0.085,-0.136C0.077,-0.166 0.076,-0.199 0.081,-0.234C0.086,-0.269 0.096,-0.302 0.113,-0.332C0.129,-0.362 0.149,-0.388 0.174,-0.41C0.198,-0.432 0.225,-0.449 0.256,-0.462C0.286,-0.474 0.318,-0.48 0.351,-0.48C0.386,-0.48 0.417,-0.474 0.444,-0.461C0.47,-0.448 0.491,-0.432 0.507,-0.411C0.523,-0.39 0.534,-0.365 0.541,-0.337C0.547,-0.308 0.548,-0.278 0.543,-0.246L0.538,-0.216L0.148,-0.216Z" style="fill:rgb(64,64,64);fill-rule:nonzero;"/>
            </g>
            <g transform="matrix(29.1667,0,0,29.1667,1736.58,2564.98)">
                <path d="M0.259,-0.648C0.257,-0.634 0.25,-0.623 0.239,-0.614C0.228,-0.604 0.216,-0.6 0.204,-0.6C0.192,-0.6 0.182,-0.604 0.173,-0.614C0.164,-0.623 0.161,-0.634 0.163,-0.648C0.165,-0.662 0.172,-0.674 0.183,-0.683C0.194,-0.692 0.206,-0.696 0.218,-0.696C0.23,-0.696 0.24,-0.692 0.249,-0.683C0.258,-0.674 0.261,-0.662 0.259,-0.648ZM0.153,-0L0.087,-0L0.153,-0.468L0.219,-0.468L0.153,-0Z" style="fill:rgb(64,64,64);fill-rule:nonzero;"/>
            </g>
            <g transform="matrix(29.1667,0,0,29.1667,1743.58,2564.98)">
                <path d="M0.463,-0.358C0.454,-0.375 0.441,-0.39 0.422,-0.402C0.403,-0.414 0.381,-0.42 0.355,-0.42C0.328,-0.421 0.303,-0.416 0.28,-0.407C0.257,-0.398 0.236,-0.385 0.219,-0.368C0.201,-0.351 0.187,-0.332 0.176,-0.309C0.165,-0.286 0.157,-0.261 0.153,-0.234C0.149,-0.207 0.15,-0.183 0.155,-0.16C0.16,-0.136 0.168,-0.117 0.181,-0.1C0.194,-0.083 0.21,-0.07 0.231,-0.061C0.252,-0.052 0.276,-0.047 0.303,-0.048C0.329,-0.048 0.353,-0.054 0.375,-0.066C0.397,-0.078 0.415,-0.093 0.428,-0.11L0.477,-0.069C0.45,-0.042 0.42,-0.022 0.389,-0.009C0.358,0.005 0.326,0.011 0.294,0.012C0.256,0.013 0.223,0.007 0.194,-0.006C0.165,-0.018 0.141,-0.035 0.123,-0.057C0.104,-0.079 0.091,-0.105 0.084,-0.136C0.077,-0.166 0.076,-0.199 0.081,-0.234C0.086,-0.269 0.096,-0.302 0.112,-0.333C0.128,-0.363 0.148,-0.389 0.173,-0.411C0.197,-0.433 0.225,-0.45 0.258,-0.463C0.29,-0.475 0.325,-0.481 0.363,-0.48C0.395,-0.479 0.425,-0.472 0.453,-0.46C0.48,-0.447 0.504,-0.426 0.523,-0.399L0.463,-0.358Z" style="fill:rgb(64,64,64);fill-rule:nonzero;"/>
            </g>
            <g transform="matrix(29.1667,0,0,29.1667,1757.64,2564.98)">
                <path d="M0.178,-0.756L0.244,-0.756L0.193,-0.393L0.195,-0.393C0.204,-0.406 0.215,-0.417 0.228,-0.428C0.241,-0.439 0.255,-0.448 0.27,-0.456C0.284,-0.463 0.3,-0.469 0.317,-0.474C0.333,-0.478 0.349,-0.48 0.364,-0.48C0.424,-0.48 0.466,-0.464 0.491,-0.433C0.515,-0.401 0.523,-0.356 0.515,-0.297L0.473,-0L0.407,-0L0.443,-0.259C0.447,-0.285 0.448,-0.308 0.447,-0.328C0.446,-0.348 0.441,-0.365 0.434,-0.379C0.426,-0.392 0.414,-0.403 0.399,-0.41C0.384,-0.417 0.364,-0.42 0.339,-0.42C0.336,-0.42 0.326,-0.419 0.311,-0.416C0.295,-0.413 0.278,-0.406 0.259,-0.394C0.24,-0.382 0.223,-0.364 0.206,-0.34C0.189,-0.316 0.178,-0.283 0.172,-0.24L0.138,-0L0.072,-0L0.178,-0.756Z" style="fill:rgb(64,64,64);fill-rule:nonzero;"/>
            </g>
        </g>
    </g>
</svg>
