<?xml version="1.0" encoding="UTF-8" standalone="no"?>
<!DOCTYPE svg PUBLIC "-//W3C//DTD SVG 1.1//EN" "http://www.w3.org/Graphics/SVG/1.1/DTD/svg11.dtd">
<svg width="100%" height="100%" viewBox="0 0 1164 662" version="1.1" xmlns="http://www.w3.org/2000/svg" xmlns:xlink="http://www.w3.org/1999/xlink" xml:space="preserve" xmlns:serif="http://www.serif.com/" style="fill-rule:evenodd;clip-rule:evenodd;stroke-linecap:square;stroke-linejoin:round;stroke-miterlimit:1.5;">
    <g transform="matrix(1,0,0,1,-1251.97,-128.896)">
        <g transform="matrix(1,0,0,1,696.85,-803.15)">
            <g transform="matrix(1,0,0,1,-249.044,-70.8661)">
                <rect x="1015.75" y="1322.84" width="47.244" height="47.244" style="fill:white;"/>
                <path d="M1039.37,1322.84L1039.37,1370.08" style="fill:none;stroke:black;stroke-width:4.17px;"/>
                <path d="M1039.37,1358.27L1062.99,1370.08" style="fill:none;stroke:black;stroke-width:4.17px;stroke-linecap:butt;"/>
                <path d="M1039.37,1346.46L1015.75,1346.46" style="fill:none;stroke:black;stroke-width:4.17px;"/>
                <path d="M1039.37,1334.65L1062.99,1322.84" style="fill:none;stroke:black;stroke-width:4.17px;stroke-linecap:butt;stroke-linejoin:bevel;"/>
                <g transform="matrix(1,0,0,1,3.54331,1.77165)">
                    <g transform="matrix(1,-0,-0,1,800.619,1001.14)">
                        <path d="M247.09,351.514L258.83,367.167L239.264,367.167L247.09,351.514Z"/>
                        <path d="M238.751,357.127C238.751,357.127 242.239,358.871 246.308,360.906" style="fill:none;stroke:black;stroke-width:4.17px;stroke-linecap:butt;stroke-linejoin:bevel;"/>
                    </g>
                </g>
            </g>
            <g transform="matrix(1,0,0,1,-248.031,-188.976)">
                <path d="M1062.99,1370.08L1062.99,1440.94" style="fill:none;stroke:black;stroke-width:4.17px;stroke-linecap:round;stroke-linejoin:bevel;"/>
            </g>
            <g transform="matrix(1,0,0,1,-248.031,-188.976)">
                <path d="M1062.99,1488.19L1062.99,1559.06" style="fill:none;stroke:black;stroke-width:4.17px;stroke-linecap:round;stroke-linejoin:bevel;"/>
            </g>
            <g transform="matrix(1,0,0,1,-602.362,330.709)">
                <path d="M1381.89,1039.37L1452.76,1039.37" style="fill:none;stroke:black;stroke-width:4.17px;"/>
                <g transform="matrix(1,0,0,1,-0.0220472,1.53592)">
                    <path d="M1393.75,1046.69L1440.94,1046.69" style="fill:none;stroke:black;stroke-width:4.17px;"/>
                </g>
                <g transform="matrix(0.819054,0,0,1,254.04,2.27374e-13)">
                    <path d="M1405.51,1057.09L1435.04,1057.09" style="fill:none;stroke:black;stroke-width:4.56px;"/>
                </g>
            </g>
            <g transform="matrix(1,0,0,1,106.299,-259.843)">
                <rect x="685.039" y="1299.21" width="45.218" height="141.732"/>
                <g transform="matrix(1,0,0,1,-519.685,-1700.79)">
                    <circle cx="1228.35" cy="3070.87" r="47.244" style="fill:white;stroke:black;stroke-width:4.17px;"/>
                </g>
                <g transform="matrix(1,0,0,1,11.811,0)">
                    <text x="676.025px" y="1387.99px" style="font-family:'ArialMT', 'Arial', sans-serif;font-size:50px;">M</text>
                </g>
            </g>
            <g transform="matrix(1,0,0,1,-248.031,-188.976)">
                <g transform="matrix(1,-0,-0,1,803.15,1121.02)">
                    <path d="M150.066,66.33C146.616,66.33 143.816,63.529 143.816,60.08C143.816,56.63 146.616,53.83 150.066,53.83C153.515,53.83 156.316,56.63 156.316,60.08C156.316,63.529 153.515,66.33 150.066,66.33Z" style="fill:none;stroke:black;stroke-width:4.17px;stroke-linecap:butt;stroke-linejoin:miter;stroke-miterlimit:10;"/>
                    <path d="M259.843,107.324L258.83,60.08L156.316,60.08" style="fill:none;stroke:black;stroke-width:4.17px;stroke-linecap:butt;stroke-linejoin:bevel;"/>
                </g>
            </g>
            <g transform="matrix(1,0,0,1,-295.276,-188.976)">
                <g transform="matrix(1.49995,0,0,1,-496.021,0)">
                    <path d="M992.126,1464.57C991.588,1463.86 968.504,1440.94 968.504,1440.94L897.638,1440.94L897.638,1488.19L968.504,1488.19C968.504,1488.19 992.664,1465.28 992.126,1464.57Z" style="fill:rgb(217,217,217);"/>
                    <path d="M992.126,1464.57C991.588,1463.86 968.504,1440.94 968.504,1440.94L897.638,1440.94L897.638,1488.19L968.504,1488.19C968.504,1488.19 992.664,1465.28 992.126,1464.57ZM987.433,1464.78C981.969,1470.43 970.59,1481.28 967.699,1484.02C967.699,1484.02 900.416,1484.02 900.416,1484.02C900.416,1484.02 900.416,1445.11 900.416,1445.11C900.416,1445.11 967.669,1445.11 967.669,1445.11C970.603,1448.02 982.027,1459.35 987.433,1464.78Z"/>
                </g>
                <g transform="matrix(1,0,0,1,-23.6176,2.27374e-13)">
                    <text x="897.638px" y="1476.51px" style="font-family:'ArialMT', 'Arial', sans-serif;font-size:33.333px;">pin</text>
                </g>
            </g>
            <g transform="matrix(2.45651,0,0,1,-1726,-188.976)">
                <path d="M1014.74,1464.57L986.299,1464.57" style="fill:none;stroke:black;stroke-width:2.22px;stroke-linecap:round;stroke-linejoin:bevel;"/>
            </g>
            <g transform="matrix(1,0,0,1,-248.031,-188.976)">
                <g transform="matrix(1,-0,-0,1,803.15,1121.02)">
                    <circle cx="259.843" cy="83.702" r="6.25"/>
                    <path d="M259.843,278.928C256.393,278.928 253.593,276.128 253.593,272.678C253.593,269.229 256.393,266.428 259.843,266.428C263.292,266.428 266.093,269.229 266.093,272.678C266.093,276.128 263.292,278.928 259.843,278.928Z"/>
                    <path d="M259.843,83.702L377.953,83.702L377.953,272.678L259.843,272.678" style="fill:none;stroke:black;stroke-width:4.17px;stroke-linecap:round;stroke-linejoin:bevel;"/>
                </g>
            </g>
            <g transform="matrix(1,0,0,1,-248.031,-147.638)">
                <path d="M1181.1,1240.16L1204.72,1275.59L1157.48,1275.59L1181.1,1240.16Z" style="fill:rgb(217,217,217);"/>
                <path d="M1181.1,1240.16L1204.72,1275.59L1157.48,1275.59L1181.1,1240.16ZM1181.1,1247.67L1196.94,1271.42C1196.94,1271.42 1165.27,1271.42 1165.27,1271.42L1181.1,1247.67Z"/>
                <path d="M1157.48,1240.16L1204.72,1240.16" style="fill:none;stroke:black;stroke-width:4.17px;stroke-linecap:round;stroke-linejoin:bevel;"/>
            </g>
            <g transform="matrix(1,0,0,1,531.496,-218.458)">
                <text x="330.709px" y="1496.16px" style="font-family:'Arial-ItalicMT', 'Arial', sans-serif;font-style:italic;font-size:41.667px;">T<tspan x="353.068px 366.943px " y="1496.16px 1496.16px ">ra</tspan>nsistor</text>
                <text x="330.709px" y="1539.19px" style="font-family:'Arial-ItalicMT', 'Arial', sans-serif;font-style:italic;font-size:41.667px;">leitend</text>
            </g>
            <g transform="matrix(1,0,0,1,318.898,-165.354)">
                <text x="283.465px" y="1172.4px" style="font-family:'ArialMT', 'Arial', sans-serif;font-size:41.667px;">U</text>
                <text x="313.555px" y="1186.28px" style="font-family:'ArialMT', 'Arial', sans-serif;font-size:24.292px;">BA<tspan x="342.867px " y="1186.28px ">T</tspan></text>
            </g>
            <g transform="matrix(1,0,0,1,271.654,-188.976)">
                <text x="324.974px" y="1698.49px" style="font-family:'Avenir-Book', 'Avenir';font-size:41.667px;">a) Der Str<tspan x="498.557px 523.265px " y="1698.49px 1698.49px ">om</tspan> ﬂießt über</text>
                <text x="316.161px" y="1740.16px" style="font-family:'Avenir-Book', 'Avenir';font-size:41.667px;">den T<tspan x="419.62px 433.453px " y="1740.16px 1740.16px ">ra</tspan>nsistor und tr<tspan x="697.995px 721.161px " y="1740.16px 1740.16px ">ei</tspan>bt</text>
                <text x="416.349px" y="1781.83px" style="font-family:'Avenir-Book', 'Avenir';font-size:41.667px;">den Motor an</text>
            </g>
            <g transform="matrix(1,0,0,1,-389.764,-1677.17)">
                <g transform="matrix(1,-0,-0,1,944.882,2609.21)">
                    <path d="M296.338,389.601L283.465,414.411L271.341,389.226L296.338,389.601Z" style="fill:rgb(247,97,97);"/>
                    <path d="M165.354,36.458C204.724,36.329 275.346,30.202 281.439,48.269C287.936,67.532 284.817,320.711 283.765,394.413" style="fill:none;stroke:rgb(247,97,97);stroke-width:4.17px;stroke-linecap:round;stroke-linejoin:bevel;stroke-dasharray:8.33,8.33,0,0;"/>
                </g>
            </g>
        </g>
        <g transform="matrix(1,0,0,1,673.228,-803.15)">
            <g transform="matrix(1,0,0,1,1145.67,-218.458)">
                <text x="330.709px" y="1496.16px" style="font-family:'Arial-ItalicMT', 'Arial', sans-serif;font-style:italic;font-size:41.667px;">T<tspan x="353.068px 366.943px " y="1496.16px 1496.16px ">ra</tspan>nsistor</text>
                <text x="330.709px" y="1539.19px" style="font-family:'Arial-ItalicMT', 'Arial', sans-serif;font-style:italic;font-size:41.667px;">nichtleitend</text>
            </g>
            <g transform="matrix(1,0,0,1,388.751,-70.8661)">
                <rect x="1015.75" y="1322.84" width="47.244" height="47.244" style="fill:white;"/>
                <path d="M1039.37,1322.84L1039.37,1370.08" style="fill:none;stroke:black;stroke-width:4.17px;"/>
                <path d="M1039.37,1358.27L1062.99,1370.08" style="fill:none;stroke:black;stroke-width:4.17px;stroke-linecap:butt;"/>
                <path d="M1039.37,1346.46L1015.75,1346.46" style="fill:none;stroke:black;stroke-width:4.17px;"/>
                <path d="M1039.37,1334.65L1062.99,1322.84" style="fill:none;stroke:black;stroke-width:4.17px;stroke-linecap:butt;stroke-linejoin:bevel;"/>
                <g transform="matrix(1,0,0,1,3.54331,1.77165)">
                    <g transform="matrix(1,-0,-0,1,186.446,1001.14)">
                        <path d="M861.264,351.514L873.003,367.167L853.437,367.167L861.264,351.514Z"/>
                        <path d="M852.924,357.127C852.924,357.127 856.412,358.871 860.481,360.906" style="fill:none;stroke:black;stroke-width:4.17px;stroke-linecap:butt;stroke-linejoin:bevel;"/>
                    </g>
                </g>
            </g>
            <g transform="matrix(1,0,0,1,389.764,-188.976)">
                <path d="M1062.99,1370.08L1062.99,1440.94" style="fill:none;stroke:black;stroke-width:4.17px;stroke-linecap:round;stroke-linejoin:bevel;"/>
            </g>
            <g transform="matrix(1,0,0,1,389.764,-188.976)">
                <path d="M1062.99,1488.19L1062.99,1559.06" style="fill:none;stroke:black;stroke-width:4.17px;stroke-linecap:round;stroke-linejoin:bevel;"/>
            </g>
            <g transform="matrix(1,0,0,1,35.4331,330.709)">
                <path d="M1381.89,1039.37L1452.76,1039.37" style="fill:none;stroke:black;stroke-width:4.17px;"/>
                <g transform="matrix(1,0,0,1,-0.0220472,1.53592)">
                    <path d="M1393.75,1046.69L1440.94,1046.69" style="fill:none;stroke:black;stroke-width:4.17px;"/>
                </g>
                <g transform="matrix(0.819054,0,0,1,254.04,2.27374e-13)">
                    <path d="M1405.51,1057.09L1435.04,1057.09" style="fill:none;stroke:black;stroke-width:4.56px;"/>
                </g>
            </g>
            <g transform="matrix(1,0,0,1,744.094,-259.843)">
                <rect x="685.039" y="1299.21" width="45.218" height="141.732"/>
                <g transform="matrix(1,0,0,1,-519.685,-1700.79)">
                    <circle cx="1228.35" cy="3070.87" r="47.244" style="fill:white;stroke:black;stroke-width:4.17px;"/>
                </g>
                <g transform="matrix(1,0,0,1,11.811,0)">
                    <text x="676.025px" y="1387.99px" style="font-family:'ArialMT', 'Arial', sans-serif;font-size:50px;">M</text>
                </g>
            </g>
            <g transform="matrix(1,0,0,1,389.764,-188.976)">
                <g transform="matrix(1,-0,-0,1,188.976,1121.02)">
                    <path d="M764.239,66.33C760.789,66.33 757.989,63.529 757.989,60.08C757.989,56.63 760.789,53.83 764.239,53.83C767.688,53.83 770.489,56.63 770.489,60.08C770.489,63.529 767.688,66.33 764.239,66.33Z" style="fill:none;stroke:black;stroke-width:4.17px;stroke-linecap:butt;stroke-linejoin:miter;stroke-miterlimit:10;"/>
                    <path d="M874.016,107.324L873.003,60.08L770.489,60.08" style="fill:none;stroke:black;stroke-width:4.17px;stroke-linecap:butt;stroke-linejoin:bevel;"/>
                </g>
            </g>
            <g transform="matrix(1,0,0,1,342.52,-188.976)">
                <g transform="matrix(1.49995,0,0,1,-496.021,0)">
                    <path d="M992.126,1464.57C991.588,1463.86 968.504,1440.94 968.504,1440.94L897.638,1440.94L897.638,1488.19L968.504,1488.19C968.504,1488.19 992.664,1465.28 992.126,1464.57Z" style="fill:rgb(217,217,217);"/>
                    <path d="M992.126,1464.57C991.588,1463.86 968.504,1440.94 968.504,1440.94L897.638,1440.94L897.638,1488.19L968.504,1488.19C968.504,1488.19 992.664,1465.28 992.126,1464.57ZM987.433,1464.78C981.969,1470.43 970.59,1481.28 967.699,1484.02C967.699,1484.02 900.416,1484.02 900.416,1484.02C900.416,1484.02 900.416,1445.11 900.416,1445.11C900.416,1445.11 967.669,1445.11 967.669,1445.11C970.603,1448.02 982.027,1459.35 987.433,1464.78Z"/>
                </g>
                <g transform="matrix(1,0,0,1,-23.6176,2.27374e-13)">
                    <text x="897.638px" y="1476.51px" style="font-family:'ArialMT', 'Arial', sans-serif;font-size:33.333px;">pin</text>
                </g>
            </g>
            <g transform="matrix(2.45651,0,0,1,-1088.21,-188.976)">
                <path d="M1014.74,1464.57L986.299,1464.57" style="fill:none;stroke:black;stroke-width:2.22px;stroke-linecap:round;stroke-linejoin:bevel;"/>
            </g>
            <g transform="matrix(1,0,0,1,389.764,-188.976)">
                <g transform="matrix(1,-0,-0,1,188.976,1121.02)">
                    <circle cx="874.016" cy="83.702" r="6.25"/>
                    <path d="M874.016,278.928C870.566,278.928 867.766,276.128 867.766,272.678C867.766,269.229 870.566,266.428 874.016,266.428C877.465,266.428 880.266,269.229 880.266,272.678C880.266,276.128 877.465,278.928 874.016,278.928Z"/>
                    <path d="M874.016,83.702L992.126,83.702L992.126,272.678L874.016,272.678" style="fill:none;stroke:black;stroke-width:4.17px;stroke-linecap:round;stroke-linejoin:bevel;"/>
                </g>
            </g>
            <g transform="matrix(1,0,0,1,389.764,-147.638)">
                <path d="M1181.1,1240.16L1204.72,1275.59L1157.48,1275.59L1181.1,1240.16Z" style="fill:rgb(217,217,217);"/>
                <path d="M1181.1,1240.16L1204.72,1275.59L1157.48,1275.59L1181.1,1240.16ZM1181.1,1247.67L1196.94,1271.42C1196.94,1271.42 1165.27,1271.42 1165.27,1271.42L1181.1,1247.67Z"/>
                <path d="M1157.48,1240.16L1204.72,1240.16" style="fill:none;stroke:black;stroke-width:4.17px;stroke-linecap:round;stroke-linejoin:bevel;"/>
            </g>
            <g transform="matrix(1,0,0,1,956.693,-165.354)">
                <text x="283.465px" y="1172.4px" style="font-family:'ArialMT', 'Arial', sans-serif;font-size:41.667px;">U</text>
                <text x="313.555px" y="1186.28px" style="font-family:'ArialMT', 'Arial', sans-serif;font-size:24.292px;">BA<tspan x="342.867px " y="1186.28px ">T</tspan></text>
            </g>
            <g transform="matrix(1,0,0,1,862.205,-188.976)">
                <text x="301.551px" y="1698.49px" style="font-family:'Avenir-Book', 'Avenir';font-size:41.667px;">b) Der in den Motorwicklungen</text>
                <text x="301.26px" y="1740.16px" style="font-family:'Avenir-Book', 'Avenir';font-size:41.667px;">gespeicherte Str<tspan x="605.176px 629.885px " y="1740.16px 1740.16px ">om</tspan>, ﬂießt über</text>
                <text x="391.864px" y="1781.83px" style="font-family:'Avenir-Book', 'Avenir';font-size:41.667px;">die Fr<tspan x="498.322px 521.489px " y="1781.83px 1781.83px ">ei</tspan>laufdiode  ab.</text>
            </g>
            <g transform="matrix(1,0,0,0.863473,-460.63,-1296.61)">
                <g transform="matrix(1,-0,-0,1.15811,1039.37,2581.04)">
                    <path d="M949.204,116.393L921.26,116.999L937.541,94.28L949.204,116.393Z" style="fill:rgb(247,97,97);"/>
                    <path d="M921.26,116.999C913.386,137.396 913.386,218.984 921.26,239.381C926.24,252.281 963.524,252.281 968.504,239.381C976.378,218.984 976.378,137.396 968.504,116.999C965.544,109.331 951.169,106.221 938.95,107.669" style="fill:none;stroke:rgb(247,97,97);stroke-width:4.17px;stroke-linecap:round;stroke-linejoin:bevel;stroke-dasharray:8.33,8.33,0,0;"/>
                </g>
            </g>
        </g>
        <g transform="matrix(1,0,0,1,1322.83,-1482.28)">
            <text x="146.205px" y="2116.54px" style="font-family:'Avenir-Book', 'Avenir';font-size:37.5px;">GND</text>
        </g>
        <g transform="matrix(1,0,0,1,1937.01,-1482.28)">
            <text x="146.205px" y="2116.54px" style="font-family:'Avenir-Book', 'Avenir';font-size:37.5px;">GND</text>
        </g>
    </g>
</svg>
