<?xml version="1.0" encoding="UTF-8" standalone="no"?>
<!DOCTYPE svg PUBLIC "-//W3C//DTD SVG 1.1//EN" "http://www.w3.org/Graphics/SVG/1.1/DTD/svg11.dtd">
<svg width="100%" height="100%" viewBox="0 0 1016 757" version="1.1" xmlns="http://www.w3.org/2000/svg" xmlns:xlink="http://www.w3.org/1999/xlink" xml:space="preserve" xmlns:serif="http://www.serif.com/" style="fill-rule:evenodd;clip-rule:evenodd;stroke-linecap:round;stroke-linejoin:round;stroke-miterlimit:1.5;">
    <g transform="matrix(1,0,0,1,-1389.04,-1189.03)">
        <g transform="matrix(0.586697,0,0,0.827828,1922.59,843.377)">
            <g transform="matrix(1.70446,-0,-0,1.20798,-909.42,417.541)">
                <path d="M773.781,498.507L801.906,512.569L773.781,526.632L773.781,498.507Z" style="fill:rgb(255,54,3);fill-opacity:0.75;"/>
                <path d="M731.04,512.569L779.406,512.569" style="fill:none;stroke:rgb(255,54,3);stroke-opacity:0.75;stroke-width:6.25px;"/>
            </g>
        </g>
        <g transform="matrix(-0.586697,0,0,0.827828,2364.81,943.506)">
            <g transform="matrix(-1.70446,0,0,1.20798,1663.16,296.587)">
                <path d="M735.543,626.761L707.418,612.699L735.543,598.636L735.543,626.761Z" style="fill:rgb(255,54,3);fill-opacity:0.75;"/>
                <path d="M778.284,612.699L729.918,612.699" style="fill:none;stroke:rgb(255,54,3);stroke-opacity:0.75;stroke-width:6.25px;"/>
            </g>
        </g>
        <g transform="matrix(1,0,0,1,1748.03,-62.9911)">
            <g transform="matrix(0.8,0,0,1,47.2441,-23.622)">
                <g transform="matrix(1.25,-0,-0,1,-507.796,1275.64)">
                    <path d="M585.213,226.169C585.213,231.688 589.694,236.169 595.213,236.169C600.733,236.169 605.213,231.688 605.213,226.169C605.213,220.65 600.733,216.169 595.213,216.169C589.694,216.169 585.213,220.65 585.213,226.169Z"/>
                    <path d="M983.166,226.169C983.166,231.688 978.685,236.169 973.166,236.169C967.647,236.169 963.166,231.688 963.166,226.169C963.166,220.65 967.647,216.169 973.166,216.169C978.685,216.169 983.166,220.65 983.166,226.169Z"/>
                    <path d="M595.213,220.169L595.213,141.68L973.166,141.68L973.166,220.169" style="fill:none;stroke:black;stroke-width:3.33px;"/>
                </g>
            </g>
            <g transform="matrix(0.8,0,0,-1,47.2441,3330.71)">
                <g transform="matrix(1.25,0,0,-1,-507.796,2078.69)">
                    <path d="M605.213,576.877C605.213,571.358 600.733,566.877 595.213,566.877C589.694,566.877 585.213,571.358 585.213,576.877C585.213,582.396 589.694,586.877 595.213,586.877C600.733,586.877 605.213,582.396 605.213,576.877Z"/>
                    <path d="M963.166,576.877C963.166,571.358 967.647,566.877 973.166,566.877C978.685,566.877 983.166,571.358 983.166,576.877C983.166,582.396 978.685,586.877 973.166,586.877C967.647,586.877 963.166,582.396 963.166,576.877Z"/>
                    <path d="M595.213,582.877L595.213,661.366L973.166,661.366L973.166,582.877" style="fill:none;stroke:black;stroke-width:3.33px;"/>
                </g>
            </g>
            <g transform="matrix(1,0,0,1,-991.869,945.865)">
                <path d="M1381.89,1039.37L1452.76,1039.37" style="fill:none;stroke:black;stroke-width:4.17px;stroke-linecap:square;"/>
                <g transform="matrix(1,0,0,1,-0.0220472,1.53592)">
                    <path d="M1393.75,1046.69L1440.94,1046.69" style="fill:none;stroke:black;stroke-width:4.17px;stroke-linecap:square;"/>
                </g>
                <g transform="matrix(0.819054,0,0,1,254.04,2.27374e-13)">
                    <path d="M1405.51,1057.09L1435.04,1057.09" style="fill:none;stroke:black;stroke-width:4.56px;stroke-linecap:square;"/>
                </g>
            </g>
            <g transform="matrix(-1.79989e-06,3.57143,-3.57143,-1.79989e-06,1906.29,1518.18)">
                <path d="M64.359,361.791L84.202,361.791" style="fill:none;fill-rule:nonzero;stroke:black;stroke-width:0.93px;stroke-linecap:butt;stroke-linejoin:miter;stroke-miterlimit:4;"/>
            </g>
            <g transform="matrix(-1.78572,3.09295,-3.09295,-1.78572,1883.54,1951.74)">
                <path d="M64.359,361.791L84.202,361.791" style="fill:none;fill-rule:nonzero;stroke:black;stroke-width:0.93px;stroke-linecap:butt;stroke-linejoin:miter;stroke-miterlimit:4;"/>
            </g>
            <g transform="matrix(-1.78572,3.09295,-3.09295,-1.78572,1505.58,1944.68)">
                <path d="M64.359,361.791L84.202,361.791" style="fill:none;fill-rule:nonzero;stroke:black;stroke-width:0.93px;stroke-linecap:butt;stroke-linejoin:miter;stroke-miterlimit:4;"/>
            </g>
            <g transform="matrix(-1.79989e-06,3.57143,-3.57143,-1.79989e-06,1528.33,1518.18)">
                <path d="M64.359,361.791L84.202,361.791" style="fill:none;fill-rule:nonzero;stroke:black;stroke-width:0.93px;stroke-linecap:butt;stroke-linejoin:miter;stroke-miterlimit:4;"/>
            </g>
            <path d="M236.22,1653.54L614.173,1653.54" style="fill:none;stroke:black;stroke-width:3.33px;"/>
            <g transform="matrix(1,0,0,1.6,0,-1011.02)">
                <g transform="matrix(1,-0,-0,0.625,-358.993,1414.4)">
                    <path d="M605.213,317.035C605.213,311.516 600.733,307.035 595.213,307.035C589.694,307.035 585.213,311.516 585.213,317.035C585.213,322.554 589.694,327.035 595.213,327.035C600.733,327.035 605.213,322.554 605.213,317.035Z"/>
                    <path d="M605.213,486.011C605.213,491.53 600.733,496.011 595.213,496.011C589.694,496.011 585.213,491.53 585.213,486.011C585.213,480.492 589.694,476.011 595.213,476.011C600.733,476.011 605.213,480.492 605.213,486.011Z"/>
                    <path d="M595.213,323.035L595.213,480.011" style="fill:none;stroke:black;stroke-width:3.33px;"/>
                </g>
            </g>
            <g transform="matrix(1,0,0,1.6,377.953,-1011.02)">
                <g transform="matrix(1,-0,-0,0.625,-736.946,1414.4)">
                    <path d="M983.166,317.035C983.166,311.516 978.685,307.035 973.166,307.035C967.647,307.035 963.166,311.516 963.166,317.035C963.166,322.554 967.647,327.035 973.166,327.035C978.685,327.035 983.166,322.554 983.166,317.035Z"/>
                    <path d="M983.166,486.011C983.166,491.53 978.685,496.011 973.166,496.011C967.647,496.011 963.166,491.53 963.166,486.011C963.166,480.492 967.647,476.011 973.166,476.011C978.685,476.011 983.166,480.492 983.166,486.011Z"/>
                    <path d="M973.166,323.035L973.166,480.011" style="fill:none;stroke:black;stroke-width:3.33px;"/>
                </g>
            </g>
            <g transform="matrix(0.888889,0,0,0.888889,-425.463,330.708)">
                <g transform="matrix(4.16667,0,0,4.16667,645.103,1087.32)">
                    <rect x="49.341" y="84.87" width="51.024" height="22.677" style="fill:rgb(56,56,56);stroke:rgb(56,56,56);stroke-width:1.12px;stroke-linecap:butt;stroke-linejoin:miter;stroke-miterlimit:4;"/>
                </g>
                <g transform="matrix(4.16667,0,0,4.16667,645.103,1087.32)">
                    <path d="M74.853,113.217C65.46,113.217 57.845,105.602 57.845,96.209C57.845,86.816 65.46,79.201 74.853,79.201C84.247,79.201 91.861,86.816 91.861,96.209C91.861,105.602 84.247,113.217 74.853,113.217Z" style="fill:white;fill-rule:nonzero;stroke:rgb(28,28,28);stroke-width:1.12px;stroke-linecap:butt;stroke-linejoin:miter;stroke-miterlimit:4;"/>
                </g>
                <g transform="matrix(4.16667,0,0,4.16667,645.103,1001.85)">
                    <text x="69.037px" y="119.717px" style="font-family:'AvenirNext-Regular', 'Avenir Next', sans-serif;font-size:12px;">M</text>
                </g>
                <g transform="matrix(3.14796,6.50129e-17,-6.50129e-17,-2.61708,550.066,2459.24)">
                    <path d="M120.188,385.092C122.482,388.709 126.425,390.948 130.707,391.063C133.466,391.137 136.133,390.324 138.345,388.802" style="fill:none;fill-rule:nonzero;stroke:rgb(56,56,56);stroke-width:1.21px;stroke-linecap:butt;stroke-linejoin:miter;stroke-miterlimit:4;stroke-dasharray:2.43,2.43,0,0;"/>
                </g>
                <g transform="matrix(-4.0789,0.850692,0.850692,4.0789,1235.61,945.074)">
                    <path d="M82.737,105.579L85.441,105.579L80.241,109.324L81.697,103.083L82.737,105.579Z" style="fill:white;fill-rule:nonzero;stroke:rgb(56,56,56);stroke-width:0.84px;stroke-linecap:butt;stroke-linejoin:miter;stroke-miterlimit:4;"/>
                </g>
            </g>
            <g transform="matrix(1,0,0,1,-710.964,-70.8661)">
                <text x="992.126px" y="1612.16px" style="font-family:'LucidaGrande', 'Lucida Grande', sans-serif;font-weight:500;font-size:45.833px;">S1</text>
            </g>
            <g transform="matrix(1,0,0,1,-710.964,188.976)">
                <text x="992.126px" y="1612.16px" style="font-family:'LucidaGrande', 'Lucida Grande', sans-serif;font-weight:500;font-size:45.833px;">S2</text>
            </g>
            <g transform="matrix(1,0,0,1,-496.063,-70.8661)">
                <text x="1011.63px" y="1612.16px" style="font-family:'LucidaGrande', 'Lucida Grande', sans-serif;font-weight:500;font-size:45.833px;">S3</text>
            </g>
            <g transform="matrix(1,0,0,1,-496.063,188.976)">
                <text x="1011.63px" y="1612.16px" style="font-family:'LucidaGrande', 'Lucida Grande', sans-serif;font-weight:500;font-size:45.833px;">S4</text>
            </g>
            <g transform="matrix(0.782263,0,0,0.827828,96.1432,1043.35)">
                <path d="M224.362,851.237C242.768,824.39 609.445,811.347 624.056,852.662C641.42,901.759 644.844,1011.48 609.375,1022.45C567.477,1035.4 235.262,1038.21 224.362,1022.45C201.395,989.225 204.752,879.843 224.362,851.237Z" style="fill:none;stroke:rgb(255,54,3);stroke-opacity:0.75;stroke-width:10.35px;stroke-dasharray:20.69,20.69,0,0;"/>
            </g>
            <g transform="matrix(1,0,0,1.66667,0,-929.134)">
                <g transform="matrix(1,-0,-0,0.6,-358.993,1308.69)">
                    <path d="M777.541,31.918C777.533,28.239 780.514,25.245 784.193,25.237C787.873,25.229 790.867,28.21 790.875,31.889C790.883,35.568 787.902,38.562 784.222,38.57C780.543,38.578 777.549,35.597 777.541,31.918Z" style="fill:none;stroke:black;stroke-width:3.33px;stroke-linejoin:miter;stroke-miterlimit:10;"/>
                    <path d="M784.447,141.68C784.447,141.68 784.292,70.372 784.222,38.57" style="fill:none;stroke:black;stroke-width:3.33px;"/>
                </g>
            </g>
            <g transform="matrix(1,0,0,1.5,0,-956.693)">
                <path d="M425.454,1913.39L425.454,1960.63" style="fill:none;stroke:black;stroke-width:2.61px;"/>
            </g>
            <g transform="matrix(1,0,0,1,118.11,-108.269)">
                <text x="173.705px" y="2116.54px" style="font-family:'Avenir-Book', 'Avenir';font-size:37.5px;">GND</text>
            </g>
            <g transform="matrix(1,0,0,1,168.828,-826.772)">
                <text x="165.205px" y="2119.69px" style="font-family:'Avenir-Book', 'Avenir';font-size:45.833px;">U</text>
                <text x="196.647px" y="2134.95px" style="font-family:'Avenir-Book', 'Avenir';font-size:26.721px;">Bat</text>
            </g>
        </g>
        <g transform="matrix(-0.586697,0,0,0.827828,1856.93,843.377)">
            <g transform="matrix(-1.70446,0,0,1.20798,797.508,417.541)">
                <path d="M227.669,526.632L199.544,512.569L227.669,498.507L227.669,526.632Z" style="fill:rgb(255,54,3);fill-opacity:0.75;"/>
                <path d="M270.41,512.569L222.044,512.569" style="fill:none;stroke:rgb(255,54,3);stroke-opacity:0.75;stroke-width:6.25px;"/>
            </g>
        </g>
        <g transform="matrix(0.586697,0,0,0.827828,1414.72,943.506)">
            <g transform="matrix(1.70446,-0,-0,1.20798,-43.7714,296.587)">
                <path d="M265.907,598.636L294.032,612.699L265.907,626.761L265.907,598.636Z" style="fill:rgb(255,54,3);fill-opacity:0.75;"/>
                <path d="M223.166,612.699L271.532,612.699" style="fill:none;stroke:rgb(255,54,3);stroke-opacity:0.75;stroke-width:6.25px;"/>
            </g>
        </g>
        <g transform="matrix(1,0,0,1,1181.1,-62.9911)">
            <g transform="matrix(0.8,0,0,1,47.2441,-23.622)">
                <g transform="matrix(1.25,-0,-0,1,200.865,1275.64)">
                    <path d="M18.284,226.169C18.284,231.688 22.765,236.169 28.284,236.169C33.803,236.169 38.284,231.688 38.284,226.169C38.284,220.65 33.803,216.169 28.284,216.169C22.765,216.169 18.284,220.65 18.284,226.169Z"/>
                    <path d="M416.237,226.169C416.237,231.688 411.756,236.169 406.237,236.169C400.718,236.169 396.237,231.688 396.237,226.169C396.237,220.65 400.718,216.169 406.237,216.169C411.756,216.169 416.237,220.65 416.237,226.169Z"/>
                    <path d="M28.284,220.169L28.284,141.68L406.237,141.68L406.237,220.169" style="fill:none;stroke:black;stroke-width:3.33px;"/>
                </g>
            </g>
            <g transform="matrix(0.8,0,0,-1,47.2441,3330.71)">
                <g transform="matrix(1.25,0,0,-1,200.865,2078.69)">
                    <path d="M38.284,576.877C38.284,571.358 33.803,566.877 28.284,566.877C22.765,566.877 18.284,571.358 18.284,576.877C18.284,582.396 22.765,586.877 28.284,586.877C33.803,586.877 38.284,582.396 38.284,576.877Z"/>
                    <path d="M396.237,576.877C396.237,571.358 400.718,566.877 406.237,566.877C411.756,566.877 416.237,571.358 416.237,576.877C416.237,582.396 411.756,586.877 406.237,586.877C400.718,586.877 396.237,582.396 396.237,576.877Z"/>
                    <path d="M28.284,582.877L28.284,661.366L406.237,661.366L406.237,582.877" style="fill:none;stroke:black;stroke-width:3.33px;"/>
                </g>
            </g>
            <g transform="matrix(-1.79989e-06,3.57143,-3.57143,-1.79989e-06,1906.29,1518.18)">
                <path d="M64.359,361.791L84.202,361.791" style="fill:none;fill-rule:nonzero;stroke:black;stroke-width:0.93px;stroke-linecap:butt;stroke-linejoin:miter;stroke-miterlimit:4;"/>
            </g>
            <g transform="matrix(-1.78572,3.09295,-3.09295,-1.78572,1883.54,1951.74)">
                <path d="M64.359,361.791L84.202,361.791" style="fill:none;fill-rule:nonzero;stroke:black;stroke-width:0.93px;stroke-linecap:butt;stroke-linejoin:miter;stroke-miterlimit:4;"/>
            </g>
            <g transform="matrix(-1.78572,3.09295,-3.09295,-1.78572,1505.58,1944.68)">
                <path d="M64.359,361.791L84.202,361.791" style="fill:none;fill-rule:nonzero;stroke:black;stroke-width:0.93px;stroke-linecap:butt;stroke-linejoin:miter;stroke-miterlimit:4;"/>
            </g>
            <g transform="matrix(-1.79989e-06,3.57143,-3.57143,-1.79989e-06,1528.33,1518.18)">
                <path d="M64.359,361.791L84.202,361.791" style="fill:none;fill-rule:nonzero;stroke:black;stroke-width:0.93px;stroke-linecap:butt;stroke-linejoin:miter;stroke-miterlimit:4;"/>
            </g>
            <path d="M236.22,1653.54L614.173,1653.54" style="fill:none;stroke:black;stroke-width:3.33px;"/>
            <g transform="matrix(1,0,0,1.6,0,-1011.02)">
                <g transform="matrix(1,-0,-0,0.625,207.936,1414.4)">
                    <path d="M38.284,317.035C38.284,311.516 33.803,307.035 28.284,307.035C22.765,307.035 18.284,311.516 18.284,317.035C18.284,322.554 22.765,327.035 28.284,327.035C33.803,327.035 38.284,322.554 38.284,317.035Z"/>
                    <path d="M38.284,486.011C38.284,491.53 33.803,496.011 28.284,496.011C22.765,496.011 18.284,491.53 18.284,486.011C18.284,480.492 22.765,476.011 28.284,476.011C33.803,476.011 38.284,480.492 38.284,486.011Z"/>
                    <path d="M28.284,323.035L28.284,480.011" style="fill:none;stroke:black;stroke-width:3.33px;"/>
                </g>
            </g>
            <g transform="matrix(1,0,0,1.6,377.953,-1011.02)">
                <g transform="matrix(1,-0,-0,0.625,-170.017,1414.4)">
                    <path d="M416.237,317.035C416.237,311.516 411.756,307.035 406.237,307.035C400.718,307.035 396.237,311.516 396.237,317.035C396.237,322.554 400.718,327.035 406.237,327.035C411.756,327.035 416.237,322.554 416.237,317.035Z"/>
                    <path d="M416.237,486.011C416.237,491.53 411.756,496.011 406.237,496.011C400.718,496.011 396.237,491.53 396.237,486.011C396.237,480.492 400.718,476.011 406.237,476.011C411.756,476.011 416.237,480.492 416.237,486.011Z"/>
                    <path d="M406.237,323.035L406.237,480.011" style="fill:none;stroke:black;stroke-width:3.33px;"/>
                </g>
            </g>
            <g transform="matrix(-0.888889,0,0,0.888889,1275.86,330.708)">
                <g transform="matrix(4.16667,0,0,4.16667,645.103,1087.32)">
                    <rect x="49.341" y="84.87" width="51.024" height="22.677" style="fill:rgb(56,56,56);stroke:rgb(56,56,56);stroke-width:1.12px;stroke-linecap:butt;stroke-linejoin:miter;stroke-miterlimit:4;"/>
                </g>
                <g transform="matrix(4.16667,0,0,4.16667,645.103,1087.32)">
                    <path d="M74.853,113.217C65.46,113.217 57.845,105.602 57.845,96.209C57.845,86.816 65.46,79.201 74.853,79.201C84.247,79.201 91.861,86.816 91.861,96.209C91.861,105.602 84.247,113.217 74.853,113.217Z" style="fill:white;fill-rule:nonzero;stroke:rgb(28,28,28);stroke-width:1.12px;stroke-linecap:butt;stroke-linejoin:miter;stroke-miterlimit:4;"/>
                </g>
                <g transform="matrix(4.16667,0,0,4.16667,645.103,1001.85)">
                    <text x="69.037px" y="119.717px" style="font-family:'AvenirNext-Regular', 'Avenir Next', sans-serif;font-size:12px;">M</text>
                </g>
                <g transform="matrix(3.14796,6.50129e-17,-6.50129e-17,-2.61708,550.066,2459.24)">
                    <path d="M120.188,385.092C122.482,388.709 126.425,390.948 130.707,391.063C133.466,391.137 136.133,390.324 138.345,388.802" style="fill:none;fill-rule:nonzero;stroke:rgb(56,56,56);stroke-width:1.21px;stroke-linecap:butt;stroke-linejoin:miter;stroke-miterlimit:4;stroke-dasharray:2.43,2.43,0,0;"/>
                </g>
                <g transform="matrix(-4.0789,0.850692,0.850692,4.0789,1235.61,945.074)">
                    <path d="M82.737,105.579L85.441,105.579L80.241,109.324L81.697,103.083L82.737,105.579Z" style="fill:white;fill-rule:nonzero;stroke:rgb(56,56,56);stroke-width:0.84px;stroke-linecap:butt;stroke-linejoin:miter;stroke-miterlimit:4;"/>
                </g>
            </g>
            <g transform="matrix(1,0,0,1,-710.964,-70.8661)">
                <text x="992.126px" y="1612.16px" style="font-family:'LucidaGrande', 'Lucida Grande', sans-serif;font-weight:500;font-size:45.833px;">S1</text>
            </g>
            <g transform="matrix(1,0,0,1,-710.964,188.976)">
                <text x="992.126px" y="1612.16px" style="font-family:'LucidaGrande', 'Lucida Grande', sans-serif;font-weight:500;font-size:45.833px;">S2</text>
            </g>
            <g transform="matrix(1,0,0,1,-496.063,-70.8661)">
                <text x="1011.63px" y="1612.16px" style="font-family:'LucidaGrande', 'Lucida Grande', sans-serif;font-weight:500;font-size:45.833px;">S3</text>
            </g>
            <g transform="matrix(1,0,0,1,-496.063,188.976)">
                <text x="1011.63px" y="1612.16px" style="font-family:'LucidaGrande', 'Lucida Grande', sans-serif;font-weight:500;font-size:45.833px;">S4</text>
            </g>
            <g transform="matrix(0.782263,0,0,0.827828,96.1432,1043.35)">
                <path d="M224.362,851.237C242.768,824.39 609.445,811.347 624.056,852.662C641.42,901.759 644.844,1011.48 609.375,1022.45C567.477,1035.4 235.262,1038.21 224.362,1022.45C201.395,989.225 204.752,879.843 224.362,851.237Z" style="fill:none;stroke:rgb(255,54,3);stroke-opacity:0.75;stroke-width:10.35px;stroke-dasharray:20.69,20.69,0,0;"/>
            </g>
            <g transform="matrix(1,0,0,1.66667,0,-929.134)">
                <g transform="matrix(1,-0,-0,0.6,207.936,1308.69)">
                    <path d="M210.612,31.918C210.604,28.239 213.585,25.245 217.264,25.237C220.944,25.229 223.937,28.21 223.945,31.889C223.953,35.568 220.973,38.562 217.293,38.57C213.614,38.578 210.62,35.597 210.612,31.918Z" style="fill:none;stroke:black;stroke-width:3.33px;stroke-linejoin:miter;stroke-miterlimit:10;"/>
                    <path d="M217.518,141.68C217.518,141.68 217.362,70.372 217.293,38.57" style="fill:none;stroke:black;stroke-width:3.33px;"/>
                </g>
            </g>
            <g transform="matrix(1,0,0,1.5,0,-956.693)">
                <path d="M425.454,1913.39L425.454,1960.63" style="fill:none;stroke:black;stroke-width:2.61px;"/>
            </g>
            <g transform="matrix(1,0,0,1,-992.126,945.865)">
                <path d="M1381.89,1039.37L1452.76,1039.37" style="fill:none;stroke:black;stroke-width:4.17px;stroke-linecap:square;"/>
                <g transform="matrix(1,0,0,1,-0.0220472,1.53592)">
                    <path d="M1393.75,1046.69L1440.94,1046.69" style="fill:none;stroke:black;stroke-width:4.17px;stroke-linecap:square;"/>
                </g>
                <g transform="matrix(0.819054,0,0,1,254.04,2.27374e-13)">
                    <path d="M1405.51,1057.09L1435.04,1057.09" style="fill:none;stroke:black;stroke-width:4.56px;stroke-linecap:square;"/>
                </g>
            </g>
            <g transform="matrix(1,0,0,1,118.11,-108.269)">
                <text x="173.705px" y="2116.54px" style="font-family:'Avenir-Book', 'Avenir';font-size:37.5px;">GND</text>
            </g>
            <g transform="matrix(1,0,0,1,168.828,-826.772)">
                <text x="165.205px" y="2119.69px" style="font-family:'Avenir-Book', 'Avenir';font-size:45.833px;">U</text>
                <text x="196.647px" y="2134.95px" style="font-family:'Avenir-Book', 'Avenir';font-size:26.721px;">Bat</text>
            </g>
        </g>
    </g>
</svg>
