<?xml version="1.0" encoding="UTF-8" standalone="no"?>
<!DOCTYPE svg PUBLIC "-//W3C//DTD SVG 1.1//EN" "http://www.w3.org/Graphics/SVG/1.1/DTD/svg11.dtd">
<svg width="100%" height="100%" viewBox="0 0 1016 865" version="1.1" xmlns="http://www.w3.org/2000/svg" xmlns:xlink="http://www.w3.org/1999/xlink" xml:space="preserve" xmlns:serif="http://www.serif.com/" style="fill-rule:evenodd;clip-rule:evenodd;stroke-linecap:round;stroke-linejoin:round;stroke-miterlimit:1.5;">
    <g transform="matrix(1,0,0,1,-207.936,-1189.6)">
        <g transform="matrix(1,0,0,1,566.929,-55.1161)">
            <g transform="matrix(0.8,0,0,1,47.2441,-23.622)">
                <g transform="matrix(1.25,-0,-0,1,-507.796,1268.34)">
                    <path d="M585.213,233.473C585.213,238.993 589.694,243.473 595.213,243.473C600.733,243.473 605.213,238.993 605.213,233.473C605.213,227.954 600.733,223.473 595.213,223.473C589.694,223.473 585.213,227.954 585.213,233.473Z"/>
                    <path d="M983.166,233.473C983.166,238.993 978.685,243.473 973.166,243.473C967.647,243.473 963.166,238.993 963.166,233.473C963.166,227.954 967.647,223.473 973.166,223.473C978.685,223.473 983.166,227.954 983.166,233.473Z"/>
                    <path d="M595.213,227.473L595.213,148.985L973.166,148.985L973.166,227.473" style="fill:none;stroke:black;stroke-width:3.33px;"/>
                </g>
            </g>
            <g transform="matrix(0.8,0,0,-1,47.2441,3330.71)">
                <g transform="matrix(1.25,0,0,-1,-507.796,2085.99)">
                    <path d="M605.213,584.182C605.213,578.663 600.733,574.182 595.213,574.182C589.694,574.182 585.213,578.663 585.213,584.182C585.213,589.701 589.694,594.182 595.213,594.182C600.733,594.182 605.213,589.701 605.213,584.182Z"/>
                    <path d="M963.166,584.182C963.166,578.663 967.647,574.182 973.166,574.182C978.685,574.182 983.166,578.663 983.166,584.182C983.166,589.701 978.685,594.182 973.166,594.182C967.647,594.182 963.166,589.701 963.166,584.182Z"/>
                    <path d="M595.213,590.182L595.213,668.67L973.166,668.67L973.166,590.182" style="fill:none;stroke:black;stroke-width:3.33px;"/>
                </g>
            </g>
            <g transform="matrix(-1.79989e-06,3.57143,-3.57143,-1.79989e-06,1906.29,1518.18)">
                <path d="M64.359,361.791L84.202,361.791" style="fill:none;fill-rule:nonzero;stroke:black;stroke-width:0.93px;stroke-linecap:butt;stroke-linejoin:miter;stroke-miterlimit:4;"/>
            </g>
            <g transform="matrix(-1.78572,3.09295,-3.09295,-1.78572,1883.54,1951.74)">
                <path d="M64.359,361.791L84.202,361.791" style="fill:none;fill-rule:nonzero;stroke:black;stroke-width:0.93px;stroke-linecap:butt;stroke-linejoin:miter;stroke-miterlimit:4;"/>
            </g>
            <g transform="matrix(-1.78572,3.09295,-3.09295,-1.78572,1505.58,2211.59)">
                <path d="M64.359,361.791L84.202,361.791" style="fill:none;fill-rule:nonzero;stroke:black;stroke-width:0.93px;stroke-linecap:butt;stroke-linejoin:miter;stroke-miterlimit:4;"/>
            </g>
            <g transform="matrix(-1.79989e-06,3.57143,-3.57143,-1.79989e-06,1528.33,1258.34)">
                <path d="M64.359,361.791L84.202,361.791" style="fill:none;fill-rule:nonzero;stroke:black;stroke-width:0.93px;stroke-linecap:butt;stroke-linejoin:miter;stroke-miterlimit:4;"/>
            </g>
            <path d="M236.22,1653.54L614.173,1653.54" style="fill:none;stroke:black;stroke-width:3.33px;"/>
            <g transform="matrix(1,0,0,1.6,0,-1011.02)">
                <g transform="matrix(1,-0,-0,0.625,-358.993,1409.84)">
                    <path d="M605.213,324.34C605.213,318.82 600.733,314.34 595.213,314.34C589.694,314.34 585.213,318.82 585.213,324.34C585.213,329.859 589.694,334.34 595.213,334.34C600.733,334.34 605.213,329.859 605.213,324.34Z"/>
                    <path d="M605.213,493.316C605.213,498.835 600.733,503.316 595.213,503.316C589.694,503.316 585.213,498.835 585.213,493.316C585.213,487.797 589.694,483.316 595.213,483.316C600.733,483.316 605.213,487.797 605.213,493.316Z"/>
                    <path d="M595.213,330.34L595.213,487.316" style="fill:none;stroke:black;stroke-width:3.33px;"/>
                </g>
            </g>
            <g transform="matrix(1,0,0,1.6,377.953,-1011.02)">
                <g transform="matrix(1,-0,-0,0.625,-736.946,1409.84)">
                    <path d="M983.166,324.34C983.166,318.82 978.685,314.34 973.166,314.34C967.647,314.34 963.166,318.82 963.166,324.34C963.166,329.859 967.647,334.34 973.166,334.34C978.685,334.34 983.166,329.859 983.166,324.34Z"/>
                    <path d="M983.166,493.316C983.166,498.835 978.685,503.316 973.166,503.316C967.647,503.316 963.166,498.835 963.166,493.316C963.166,487.797 967.647,483.316 973.166,483.316C978.685,483.316 983.166,487.797 983.166,493.316Z"/>
                    <path d="M973.166,330.34L973.166,487.316" style="fill:none;stroke:black;stroke-width:3.33px;"/>
                </g>
            </g>
            <g transform="matrix(0.888889,0,0,0.888889,-425.463,330.708)">
                <g transform="matrix(4.16667,0,0,4.16667,645.103,1087.32)">
                    <rect x="49.341" y="84.87" width="51.024" height="22.677" style="fill:rgb(56,56,56);stroke:rgb(56,56,56);stroke-width:1.12px;stroke-linecap:butt;stroke-linejoin:miter;stroke-miterlimit:4;"/>
                </g>
                <g transform="matrix(4.16667,0,0,4.16667,645.103,1087.32)">
                    <path d="M74.853,113.217C65.46,113.217 57.845,105.602 57.845,96.209C57.845,86.816 65.46,79.201 74.853,79.201C84.247,79.201 91.861,86.816 91.861,96.209C91.861,105.602 84.247,113.217 74.853,113.217Z" style="fill:white;fill-rule:nonzero;stroke:rgb(28,28,28);stroke-width:1.12px;stroke-linecap:butt;stroke-linejoin:miter;stroke-miterlimit:4;"/>
                </g>
                <g transform="matrix(4.16667,0,0,4.16667,645.103,1001.85)">
                    <text x="69.037px" y="119.717px" style="font-family:'AvenirNext-Regular', 'Avenir Next', sans-serif;font-size:12px;">M</text>
                </g>
                <g transform="matrix(4.16667,0,0,-4.16667,411.302,3066.85)">
                    <path d="M120.188,385.092C122.482,388.709 126.425,390.948 130.707,391.063C133.466,391.137 136.133,390.324 138.345,388.802" style="fill:none;fill-rule:nonzero;stroke:rgb(56,56,56);stroke-width:0.84px;stroke-linecap:butt;stroke-linejoin:miter;stroke-miterlimit:4;"/>
                </g>
                <g transform="matrix(-4.0789,0.850692,0.850692,4.0789,1235.4,945.813)">
                    <path d="M82.737,105.579L85.441,105.579L80.241,109.324L81.697,103.083L82.737,105.579Z" style="fill:rgb(56,56,56);fill-rule:nonzero;stroke:rgb(56,56,56);stroke-width:0.84px;stroke-linecap:butt;stroke-linejoin:miter;stroke-miterlimit:4;"/>
                </g>
            </g>
            <g transform="matrix(1,0,0,1,-710.964,-70.8661)">
                <text x="992.126px" y="1612.16px" style="font-family:'LucidaGrande', 'Lucida Grande', sans-serif;font-weight:500;font-size:45.833px;">S1</text>
            </g>
            <g transform="matrix(1,0,0,1,-710.964,188.976)">
                <text x="992.126px" y="1612.16px" style="font-family:'LucidaGrande', 'Lucida Grande', sans-serif;font-weight:500;font-size:45.833px;">S2</text>
            </g>
            <g transform="matrix(1,0,0,1,-496.063,-70.8661)">
                <text x="1011.63px" y="1612.16px" style="font-family:'LucidaGrande', 'Lucida Grande', sans-serif;font-weight:500;font-size:45.833px;">S3</text>
            </g>
            <g transform="matrix(1,0,0,1,-496.063,188.976)">
                <text x="1011.63px" y="1612.16px" style="font-family:'LucidaGrande', 'Lucida Grande', sans-serif;font-weight:500;font-size:45.833px;">S4</text>
            </g>
            <g transform="matrix(0.782263,0,0,0.827828,96.1432,1043.35)">
                <path d="M407.91,337.608C405.992,367.934 416.785,444.184 394.887,464.838C364.895,493.128 204.842,436.394 210.674,519.685C212.067,539.574 195.411,763.316 214.132,803.15C231.812,840.769 365.79,834.965 422.282,832.063C486.026,828.789 636.071,820.816 635.085,854.957C633.069,924.78 648.294,1001.65 614.173,1015.94C528.791,1051.69 440.409,985.86 447.599,1108.05" style="fill:none;stroke:rgb(255,54,3);stroke-opacity:0.75;stroke-width:10.35px;stroke-dasharray:20.69,20.69,0,0;"/>
            </g>
            <g transform="matrix(0.569138,0,0,0.827828,212.121,913.432)">
                <g transform="matrix(1.75704,-0,-0,1.20798,-1003.47,400.184)">
                    <path d="M803.309,512.875L831.434,526.938L803.309,541L803.309,512.875Z" style="fill:rgb(255,54,3);fill-opacity:0.75;"/>
                    <path d="M762.689,526.938L808.934,526.938" style="fill:none;stroke:rgb(255,54,3);stroke-opacity:0.75;stroke-width:6.25px;"/>
                </g>
            </g>
            <g transform="matrix(2.94153e-17,0.480388,-0.827828,5.06899e-17,1246.92,1162.61)">
                <g transform="matrix(1.27464e-16,-1.20798,2.08165,7.39675e-17,170.918,1939.92)">
                    <path d="M761.759,109.495L747.696,137.62L733.634,109.495L761.759,109.495Z" style="fill:rgb(255,54,3);fill-opacity:0.75;"/>
                    <path d="M747.696,79.594L747.696,115.12" style="fill:none;stroke:rgb(255,54,3);stroke-opacity:0.75;stroke-width:6.25px;"/>
                </g>
            </g>
            <g transform="matrix(1,0,0,1.66667,0,-929.134)">
                <g transform="matrix(1,-0,-0,0.6,-358.993,1304.31)">
                    <path d="M777.541,39.223C777.533,35.543 780.514,32.55 784.193,32.542C787.873,32.534 790.867,35.514 790.875,39.194C790.883,42.873 787.902,45.867 784.222,45.875C780.543,45.883 777.549,42.902 777.541,39.223Z" style="fill:none;stroke:black;stroke-width:3.33px;stroke-linejoin:miter;stroke-miterlimit:10;"/>
                    <path d="M784.447,148.985C784.447,148.985 784.292,77.677 784.222,45.875" style="fill:none;stroke:black;stroke-width:3.33px;"/>
                </g>
            </g>
            <g transform="matrix(1,0,0,1.5,0,-956.693)">
                <path d="M425.454,1913.39L425.454,1960.63" style="fill:none;stroke:black;stroke-width:2.61px;"/>
            </g>
            <g transform="matrix(1,0,0,1,-992.126,946.848)">
                <path d="M1381.89,1039.37L1452.76,1039.37" style="fill:none;stroke:black;stroke-width:4.17px;stroke-linecap:square;"/>
                <g transform="matrix(1,0,0,1,-0.0220472,1.53592)">
                    <path d="M1393.75,1046.69L1440.94,1046.69" style="fill:none;stroke:black;stroke-width:4.17px;stroke-linecap:square;"/>
                </g>
                <g transform="matrix(0.819054,0,0,1,254.04,2.27374e-13)">
                    <path d="M1405.51,1057.09L1435.04,1057.09" style="fill:none;stroke:black;stroke-width:4.56px;stroke-linecap:square;"/>
                </g>
            </g>
            <g transform="matrix(1,0,0,1,118.11,-107.285)">
                <text x="173.705px" y="2116.54px" style="font-family:'Avenir-Book', 'Avenir';font-size:37.5px;">GND</text>
            </g>
            <g transform="matrix(1,0,0,1,167.475,-842.522)">
                <text x="165.205px" y="2119.69px" style="font-family:'Avenir-Book', 'Avenir';font-size:45.833px;">U</text>
                <text x="196.647px" y="2134.95px" style="font-family:'Avenir-Book', 'Avenir';font-size:26.721px;">Bat</text>
            </g>
        </g>
        <g transform="matrix(1,0,0,1,3.57143e-05,-55.1161)">
            <g transform="matrix(0.8,0,0,1,47.2441,-23.622)">
                <g transform="matrix(1.25,-0,-0,1,200.865,1268.34)">
                    <path d="M18.284,233.473C18.284,238.993 22.765,243.473 28.284,243.473C33.803,243.473 38.284,238.993 38.284,233.473C38.284,227.954 33.803,223.473 28.284,223.473C22.765,223.473 18.284,227.954 18.284,233.473Z"/>
                    <path d="M416.237,233.473C416.237,238.993 411.756,243.473 406.237,243.473C400.718,243.473 396.237,238.993 396.237,233.473C396.237,227.954 400.718,223.473 406.237,223.473C411.756,223.473 416.237,227.954 416.237,233.473Z"/>
                    <path d="M28.284,227.473L28.284,148.985L406.237,148.985L406.237,227.473" style="fill:none;stroke:black;stroke-width:3.33px;"/>
                </g>
            </g>
            <g transform="matrix(0.8,0,0,-1,47.2441,3330.71)">
                <g transform="matrix(1.25,0,0,-1,200.865,2085.99)">
                    <path d="M38.284,584.182C38.284,578.663 33.803,574.182 28.284,574.182C22.765,574.182 18.284,578.663 18.284,584.182C18.284,589.701 22.765,594.182 28.284,594.182C33.803,594.182 38.284,589.701 38.284,584.182Z"/>
                    <path d="M396.237,584.182C396.237,578.663 400.718,574.182 406.237,574.182C411.756,574.182 416.237,578.663 416.237,584.182C416.237,589.701 411.756,594.182 406.237,594.182C400.718,594.182 396.237,589.701 396.237,584.182Z"/>
                    <path d="M28.284,590.182L28.284,668.67L406.237,668.67L406.237,590.182" style="fill:none;stroke:black;stroke-width:3.33px;"/>
                </g>
            </g>
            <g transform="matrix(-1.79989e-06,3.57143,-3.57143,-1.79989e-06,1528.33,1518.18)">
                <path d="M64.359,361.791L84.202,361.791" style="fill:none;fill-rule:nonzero;stroke:black;stroke-width:0.93px;stroke-linecap:butt;stroke-linejoin:miter;stroke-miterlimit:4;"/>
            </g>
            <g transform="matrix(-1.78572,3.09295,-3.09295,-1.78572,1505.58,1951.74)">
                <path d="M64.359,361.791L84.202,361.791" style="fill:none;fill-rule:nonzero;stroke:black;stroke-width:0.93px;stroke-linecap:butt;stroke-linejoin:miter;stroke-miterlimit:4;"/>
            </g>
            <g transform="matrix(-1.78572,3.09295,-3.09295,-1.78572,1883.54,2211.49)">
                <path d="M64.359,361.791L84.202,361.791" style="fill:none;fill-rule:nonzero;stroke:black;stroke-width:0.93px;stroke-linecap:butt;stroke-linejoin:miter;stroke-miterlimit:4;"/>
            </g>
            <g transform="matrix(-1.79989e-06,3.57143,-3.57143,-1.79989e-06,1906.29,1258.34)">
                <path d="M64.359,361.791L84.202,361.791" style="fill:none;fill-rule:nonzero;stroke:black;stroke-width:0.93px;stroke-linecap:butt;stroke-linejoin:miter;stroke-miterlimit:4;"/>
            </g>
            <path d="M236.22,1653.54L614.173,1653.54" style="fill:none;stroke:black;stroke-width:3.33px;"/>
            <g transform="matrix(1,0,0,1.6,0,-1011.02)">
                <g transform="matrix(1,-0,-0,0.625,207.936,1409.84)">
                    <path d="M38.284,324.34C38.284,318.82 33.803,314.34 28.284,314.34C22.765,314.34 18.284,318.82 18.284,324.34C18.284,329.859 22.765,334.34 28.284,334.34C33.803,334.34 38.284,329.859 38.284,324.34Z"/>
                    <path d="M38.284,493.316C38.284,498.835 33.803,503.316 28.284,503.316C22.765,503.316 18.284,498.835 18.284,493.316C18.284,487.797 22.765,483.316 28.284,483.316C33.803,483.316 38.284,487.797 38.284,493.316Z"/>
                    <path d="M28.284,330.34L28.284,487.316" style="fill:none;stroke:black;stroke-width:3.33px;"/>
                </g>
            </g>
            <g transform="matrix(1,0,0,1.6,377.953,-1011.02)">
                <g transform="matrix(1,-0,-0,0.625,-170.017,1409.84)">
                    <path d="M416.237,324.34C416.237,318.82 411.756,314.34 406.237,314.34C400.718,314.34 396.237,318.82 396.237,324.34C396.237,329.859 400.718,334.34 406.237,334.34C411.756,334.34 416.237,329.859 416.237,324.34Z"/>
                    <path d="M416.237,493.316C416.237,498.835 411.756,503.316 406.237,503.316C400.718,503.316 396.237,498.835 396.237,493.316C396.237,487.797 400.718,483.316 406.237,483.316C411.756,483.316 416.237,487.797 416.237,493.316Z"/>
                    <path d="M406.237,330.34L406.237,487.316" style="fill:none;stroke:black;stroke-width:3.33px;"/>
                </g>
            </g>
            <g transform="matrix(-0.888889,0,0,0.888889,1275.86,330.708)">
                <g transform="matrix(4.16667,0,0,4.16667,645.103,1087.32)">
                    <rect x="49.341" y="84.87" width="51.024" height="22.677" style="fill:rgb(56,56,56);stroke:rgb(56,56,56);stroke-width:1.12px;stroke-linecap:butt;stroke-linejoin:miter;stroke-miterlimit:4;"/>
                </g>
                <g transform="matrix(4.16667,0,0,4.16667,645.103,1087.32)">
                    <path d="M74.853,113.217C65.46,113.217 57.845,105.602 57.845,96.209C57.845,86.816 65.46,79.201 74.853,79.201C84.247,79.201 91.861,86.816 91.861,96.209C91.861,105.602 84.247,113.217 74.853,113.217Z" style="fill:white;fill-rule:nonzero;stroke:rgb(28,28,28);stroke-width:1.12px;stroke-linecap:butt;stroke-linejoin:miter;stroke-miterlimit:4;"/>
                </g>
                <g transform="matrix(4.16667,0,0,4.16667,645.103,1001.85)">
                    <text x="69.037px" y="119.717px" style="font-family:'AvenirNext-Regular', 'Avenir Next', sans-serif;font-size:12px;">M</text>
                </g>
                <g transform="matrix(4.16667,0,0,-4.16667,411.302,3066.85)">
                    <path d="M120.188,385.092C122.482,388.709 126.425,390.948 130.707,391.063C133.466,391.137 136.133,390.324 138.345,388.802" style="fill:none;fill-rule:nonzero;stroke:rgb(56,56,56);stroke-width:0.84px;stroke-linecap:butt;stroke-linejoin:miter;stroke-miterlimit:4;"/>
                </g>
                <g transform="matrix(-4.0789,0.850692,0.850692,4.0789,1235.4,945.813)">
                    <path d="M82.737,105.579L85.441,105.579L80.241,109.324L81.697,103.083L82.737,105.579Z" style="fill:rgb(56,56,56);fill-rule:nonzero;stroke:rgb(56,56,56);stroke-width:0.84px;stroke-linecap:butt;stroke-linejoin:miter;stroke-miterlimit:4;"/>
                </g>
            </g>
            <g transform="matrix(1,0,0,1,-710.964,-70.8661)">
                <text x="992.126px" y="1612.16px" style="font-family:'LucidaGrande', 'Lucida Grande', sans-serif;font-weight:500;font-size:45.833px;">S1</text>
            </g>
            <g transform="matrix(1,0,0,1,-710.964,188.976)">
                <text x="992.126px" y="1612.16px" style="font-family:'LucidaGrande', 'Lucida Grande', sans-serif;font-weight:500;font-size:45.833px;">S2</text>
            </g>
            <g transform="matrix(1,0,0,1,-496.063,-70.8661)">
                <text x="1011.63px" y="1612.16px" style="font-family:'LucidaGrande', 'Lucida Grande', sans-serif;font-weight:500;font-size:45.833px;">S3</text>
            </g>
            <g transform="matrix(1,0,0,1,-496.063,188.976)">
                <text x="1011.63px" y="1612.16px" style="font-family:'LucidaGrande', 'Lucida Grande', sans-serif;font-weight:500;font-size:45.833px;">S4</text>
            </g>
            <g transform="matrix(-0.782263,0,0,0.827828,754.764,1043.35)">
                <path d="M407.91,337.608C405.992,367.934 416.785,444.184 394.887,464.838C364.895,493.128 204.842,436.394 210.674,519.685C212.067,539.574 195.411,763.316 214.132,803.15C231.812,840.769 365.79,834.965 422.282,832.063C486.026,828.789 636.071,820.816 635.085,854.957C633.069,924.78 648.294,1001.65 614.173,1015.94C528.791,1051.69 440.409,985.86 447.599,1108.05" style="fill:none;stroke:rgb(255,54,3);stroke-opacity:0.75;stroke-width:10.35px;stroke-dasharray:20.69,20.69,0,0;"/>
            </g>
            <g transform="matrix(-0.569138,0,0,0.827828,664.016,913.432)">
                <g transform="matrix(-1.75704,0,0,1.20798,801.352,400.184)">
                    <path d="M223.885,541L195.76,526.938L223.885,512.875L223.885,541Z" style="fill:rgb(255,54,3);fill-opacity:0.75;"/>
                    <path d="M264.505,526.938L218.26,526.938" style="fill:none;stroke:rgb(255,54,3);stroke-opacity:0.75;stroke-width:6.25px;"/>
                </g>
            </g>
            <g transform="matrix(2.94153e-17,0.480388,-0.827828,5.06899e-17,1246.92,1162.61)">
                <g transform="matrix(1.27464e-16,-1.20798,2.08165,7.39675e-17,170.918,1255.08)">
                    <path d="M194.83,109.495L180.767,137.62L166.705,109.495L194.83,109.495Z" style="fill:rgb(255,54,3);fill-opacity:0.75;"/>
                    <path d="M180.767,79.594L180.767,115.12" style="fill:none;stroke:rgb(255,54,3);stroke-opacity:0.75;stroke-width:6.25px;"/>
                </g>
            </g>
            <g transform="matrix(1,0,0,1.66667,0,-929.134)">
                <g transform="matrix(1,-0,-0,0.6,207.936,1304.31)">
                    <path d="M210.612,39.223C210.604,35.543 213.585,32.55 217.264,32.542C220.944,32.534 223.937,35.514 223.945,39.194C223.953,42.873 220.973,45.867 217.293,45.875C213.614,45.883 210.62,42.902 210.612,39.223Z" style="fill:none;stroke:black;stroke-width:3.33px;stroke-linejoin:miter;stroke-miterlimit:10;"/>
                    <path d="M217.518,148.985C217.518,148.985 217.362,77.677 217.293,45.875" style="fill:none;stroke:black;stroke-width:3.33px;"/>
                </g>
            </g>
            <g transform="matrix(1,0,0,1.5,0,-956.693)">
                <path d="M425.454,1913.39L425.454,1960.63" style="fill:none;stroke:black;stroke-width:2.61px;"/>
            </g>
            <g transform="matrix(1,0,0,1,-992.126,946.848)">
                <path d="M1381.89,1039.37L1452.76,1039.37" style="fill:none;stroke:black;stroke-width:4.17px;stroke-linecap:square;"/>
                <g transform="matrix(1,0,0,1,-0.0220472,1.53592)">
                    <path d="M1393.75,1046.69L1440.94,1046.69" style="fill:none;stroke:black;stroke-width:4.17px;stroke-linecap:square;"/>
                </g>
                <g transform="matrix(0.819054,0,0,1,254.04,2.27374e-13)">
                    <path d="M1405.51,1057.09L1435.04,1057.09" style="fill:none;stroke:black;stroke-width:4.56px;stroke-linecap:square;"/>
                </g>
            </g>
            <g transform="matrix(1,0,0,1,118.11,-107.285)">
                <text x="173.705px" y="2116.54px" style="font-family:'Avenir-Book', 'Avenir';font-size:37.5px;">GND</text>
            </g>
            <g transform="matrix(1,0,0,1,167.475,-842.522)">
                <text x="165.205px" y="2119.69px" style="font-family:'Avenir-Book', 'Avenir';font-size:45.833px;">U</text>
                <text x="196.647px" y="2134.95px" style="font-family:'Avenir-Book', 'Avenir';font-size:26.721px;">Bat</text>
            </g>
        </g>
        <g transform="matrix(1,0,0,1,708.661,23.622)">
            <text x="164.61px" y="2023.62px" style="font-family:'Avenir-Book', 'Avenir';font-size:41.667px;">b) Rechtslauf</text>
        </g>
        <g transform="matrix(1,0,0,1,283.465,2007.87)">
            <text x="53.598px" y="39.372px" style="font-family:'Avenir-Book', 'Avenir';font-size:41.667px;">a) Linkslauf</text>
        </g>
    </g>
</svg>
