<?xml version="1.0" encoding="UTF-8" standalone="no"?>
<!DOCTYPE svg PUBLIC "-//W3C//DTD SVG 1.1//EN" "http://www.w3.org/Graphics/SVG/1.1/DTD/svg11.dtd">
<svg width="100%" height="100%" viewBox="0 0 512 512" version="1.1" xmlns="http://www.w3.org/2000/svg" xmlns:xlink="http://www.w3.org/1999/xlink" xml:space="preserve" xmlns:serif="http://www.serif.com/" style="fill-rule:evenodd;clip-rule:evenodd;stroke-linejoin:round;stroke-miterlimit:2;">
    <path d="M256,0C114.616,0 0,114.616 0,256C0,397.384 114.616,512 256,512C397.384,512 512,397.384 512,256C512,114.616 397.384,0 256,0Z" style="fill:rgb(136,197,204);fill-rule:nonzero;stroke:black;stroke-width:1px;"/>
    <path d="M376,352C376,365.2 365.2,376 352,376L160,376C146.8,376 136,365.2 136,352L136,160C136,146.8 146.8,136 160,136L352,136C365.2,136 376,146.8 376,160L376,352Z" style="fill:rgb(45,68,82);fill-rule:nonzero;"/>
    <path d="M352,136L336,136C349.2,136 360,146.8 360,160L360,352C360,365.2 349.2,376 336,376L352,376C365.2,376 376,365.2 376,352L376,160C376,146.8 365.2,136 352,136Z" style="fill:rgb(35,53,64);fill-rule:nonzero;"/>
    <g>
        <circle cx="352" cy="160" r="4" style="fill:rgb(210,31,11);"/>
        <circle cx="160" cy="160" r="4" style="fill:rgb(210,31,11);"/>
        <circle cx="352" cy="352" r="4" style="fill:rgb(210,31,11);"/>
        <circle cx="160" cy="352" r="4" style="fill:rgb(210,31,11);"/>
    </g>
    <g>
        <path d="M184,116C181.788,116 180,114.208 180,112L180,60C180,57.792 181.788,56 184,56C186.212,56 188,57.792 188,60L188,112C188,114.208 186.212,116 184,116Z" style="fill:rgb(245,245,245);fill-rule:nonzero;"/>
        <path d="M204,116C201.788,116 200,114.208 200,112L200,60C200,57.792 201.788,56 204,56C206.212,56 208,57.792 208,60L208,112C208,114.208 206.212,116 204,116Z" style="fill:rgb(245,245,245);fill-rule:nonzero;"/>
        <path d="M228,116C225.788,116 224,114.208 224,112L224,60C224,57.792 225.788,56 228,56C230.212,56 232,57.792 232,60L232,112C232,114.208 230.212,116 228,116Z" style="fill:rgb(245,245,245);fill-rule:nonzero;"/>
        <path d="M248,116C245.788,116 244,114.208 244,112L244,60C244,57.792 245.788,56 248,56C250.212,56 252,57.792 252,60L252,112C252,114.208 250.212,116 248,116Z" style="fill:rgb(245,245,245);fill-rule:nonzero;"/>
        <path d="M268,116C265.788,116 264,114.208 264,112L264,60C264,57.792 265.788,56 268,56C270.212,56 272,57.792 272,60L272,112C272,114.208 270.212,116 268,116Z" style="fill:rgb(245,245,245);fill-rule:nonzero;"/>
        <path d="M288,116C285.788,116 284,114.208 284,112L284,60C284,57.792 285.788,56 288,56C290.212,56 292,57.792 292,60L292,112C292,114.208 290.212,116 288,116Z" style="fill:rgb(245,245,245);fill-rule:nonzero;"/>
        <path d="M312,116C309.788,116 308,114.208 308,112L308,60C308,57.792 309.788,56 312,56C314.212,56 316,57.792 316,60L316,112C316,114.208 314.212,116 312,116Z" style="fill:rgb(245,245,245);fill-rule:nonzero;"/>
        <path d="M332,116C329.788,116 328,114.208 328,112L328,60C328,57.792 329.788,56 332,56C334.212,56 336,57.792 336,60L336,112C336,114.208 334.212,116 332,116Z" style="fill:rgb(245,245,245);fill-rule:nonzero;"/>
        <path d="M184,456C181.788,456 180,454.208 180,452L180,400C180,397.792 181.788,396 184,396C186.212,396 188,397.792 188,400L188,452C188,454.208 186.212,456 184,456Z" style="fill:rgb(245,245,245);fill-rule:nonzero;"/>
        <path d="M204,456C201.788,456 200,454.208 200,452L200,400C200,397.792 201.788,396 204,396C206.212,396 208,397.792 208,400L208,452C208,454.208 206.212,456 204,456Z" style="fill:rgb(245,245,245);fill-rule:nonzero;"/>
        <path d="M228,456C225.788,456 224,454.208 224,452L224,400C224,397.792 225.788,396 228,396C230.212,396 232,397.792 232,400L232,452C232,454.208 230.212,456 228,456Z" style="fill:rgb(245,245,245);fill-rule:nonzero;"/>
        <path d="M248,456C245.788,456 244,454.208 244,452L244,400C244,397.792 245.788,396 248,396C250.212,396 252,397.792 252,400L252,452C252,454.208 250.212,456 248,456Z" style="fill:rgb(245,245,245);fill-rule:nonzero;"/>
        <path d="M268,456C265.788,456 264,454.208 264,452L264,400C264,397.792 265.788,396 268,396C270.212,396 272,397.792 272,400L272,452C272,454.208 270.212,456 268,456Z" style="fill:rgb(245,245,245);fill-rule:nonzero;"/>
        <path d="M288,456C285.788,456 284,454.208 284,452L284,400C284,397.792 285.788,396 288,396C290.212,396 292,397.792 292,400L292,452C292,454.208 290.212,456 288,456Z" style="fill:rgb(245,245,245);fill-rule:nonzero;"/>
        <path d="M312,456C309.788,456 308,454.208 308,452L308,400C308,397.792 309.788,396 312,396C314.212,396 316,397.792 316,400L316,452C316,454.208 314.212,456 312,456Z" style="fill:rgb(245,245,245);fill-rule:nonzero;"/>
        <path d="M332,456C329.788,456 328,454.208 328,452L328,400C328,397.792 329.788,396 332,396C334.212,396 336,397.792 336,400L336,452C336,454.208 334.212,456 332,456Z" style="fill:rgb(245,245,245);fill-rule:nonzero;"/>
        <path d="M112,336L60,336C57.788,336 56,334.208 56,332C56,329.792 57.788,328 60,328L112,328C114.212,328 116,329.792 116,332C116,334.208 114.212,336 112,336Z" style="fill:rgb(245,245,245);fill-rule:nonzero;"/>
        <path d="M112,316L60,316C57.788,316 56,314.208 56,312C56,309.792 57.788,308 60,308L112,308C114.212,308 116,309.792 116,312C116,314.208 114.212,316 112,316Z" style="fill:rgb(245,245,245);fill-rule:nonzero;"/>
        <path d="M112,292L60,292C57.788,292 56,290.208 56,288C56,285.792 57.788,284 60,284L112,284C114.212,284 116,285.792 116,288C116,290.208 114.212,292 112,292Z" style="fill:rgb(245,245,245);fill-rule:nonzero;"/>
        <path d="M112,272L60,272C57.788,272 56,270.208 56,268C56,265.792 57.788,264 60,264L112,264C114.212,264 116,265.792 116,268C116,270.208 114.212,272 112,272Z" style="fill:rgb(245,245,245);fill-rule:nonzero;"/>
        <path d="M112,252L60,252C57.788,252 56,250.208 56,248C56,245.792 57.788,244 60,244L112,244C114.212,244 116,245.792 116,248C116,250.208 114.212,252 112,252Z" style="fill:rgb(245,245,245);fill-rule:nonzero;"/>
        <path d="M112,232L60,232C57.788,232 56,230.208 56,228C56,225.792 57.788,224 60,224L112,224C114.212,224 116,225.792 116,228C116,230.208 114.212,232 112,232Z" style="fill:rgb(245,245,245);fill-rule:nonzero;"/>
        <path d="M112,208L60,208C57.788,208 56,206.208 56,204C56,201.792 57.788,200 60,200L112,200C114.212,200 116,201.792 116,204C116,206.208 114.212,208 112,208Z" style="fill:rgb(245,245,245);fill-rule:nonzero;"/>
        <path d="M112,188L60,188C57.788,188 56,186.208 56,184C56,181.792 57.788,180 60,180L112,180C114.212,180 116,181.792 116,184C116,186.208 114.212,188 112,188Z" style="fill:rgb(245,245,245);fill-rule:nonzero;"/>
        <path d="M452,336L400,336C397.788,336 396,334.208 396,332C396,329.792 397.788,328 400,328L452,328C454.212,328 456,329.792 456,332C456,334.208 454.212,336 452,336Z" style="fill:rgb(245,245,245);fill-rule:nonzero;"/>
        <path d="M452,316L400,316C397.788,316 396,314.208 396,312C396,309.792 397.788,308 400,308L452,308C454.212,308 456,309.792 456,312C456,314.208 454.212,316 452,316Z" style="fill:rgb(245,245,245);fill-rule:nonzero;"/>
        <path d="M452,292L400,292C397.788,292 396,290.208 396,288C396,285.792 397.788,284 400,284L452,284C454.212,284 456,285.792 456,288C456,290.208 454.212,292 452,292Z" style="fill:rgb(245,245,245);fill-rule:nonzero;"/>
        <path d="M452,272L400,272C397.788,272 396,270.208 396,268C396,265.792 397.788,264 400,264L452,264C454.212,264 456,265.792 456,268C456,270.208 454.212,272 452,272Z" style="fill:rgb(245,245,245);fill-rule:nonzero;"/>
        <path d="M452,252L400,252C397.788,252 396,250.208 396,248C396,245.792 397.788,244 400,244L452,244C454.212,244 456,245.792 456,248C456,250.208 454.212,252 452,252Z" style="fill:rgb(245,245,245);fill-rule:nonzero;"/>
        <path d="M452,232L400,232C397.788,232 396,230.208 396,228C396,225.792 397.788,224 400,224L452,224C454.212,224 456,225.792 456,228C456,230.208 454.212,232 452,232Z" style="fill:rgb(245,245,245);fill-rule:nonzero;"/>
        <path d="M452,208L400,208C397.788,208 396,206.208 396,204C396,201.792 397.788,200 400,200L452,200C454.212,200 456,201.792 456,204C456,206.208 454.212,208 452,208Z" style="fill:rgb(245,245,245);fill-rule:nonzero;"/>
        <path d="M452,188L400,188C397.788,188 396,186.208 396,184C396,181.792 397.788,180 400,180L452,180C454.212,180 456,181.792 456,184C456,186.208 454.212,188 452,188Z" style="fill:rgb(245,245,245);fill-rule:nonzero;"/>
    </g>
    <g>
        <path d="M344,136L344,120C344,115.6 340.4,112 336,112L176,112C171.6,112 168,115.6 168,120L168,136L344,136Z" style="fill:rgb(204,204,204);fill-rule:nonzero;"/>
        <path d="M344,376L344,392C344,396.4 340.4,400 336,400L176,400C171.6,400 168,396.4 168,392L168,376L344,376Z" style="fill:rgb(204,204,204);fill-rule:nonzero;"/>
        <path d="M136,168L120,168C115.6,168 112,171.6 112,176L112,336C112,340.4 115.6,344 120,344L136,344L136,168Z" style="fill:rgb(204,204,204);fill-rule:nonzero;"/>
        <path d="M376,168L392,168C396.404,168 400,171.6 400,176L400,336C400,340.4 396.404,344 392,344L376,344L376,168Z" style="fill:rgb(204,204,204);fill-rule:nonzero;"/>
    </g>
    <g>
        <rect x="168" y="132" width="176" height="4" style="fill:rgb(179,179,179);"/>
        <rect x="168" y="376" width="176" height="4" style="fill:rgb(179,179,179);"/>
        <rect x="132" y="168" width="4" height="176" style="fill:rgb(179,179,179);"/>
        <rect x="376" y="168" width="4" height="176" style="fill:rgb(179,179,179);"/>
    </g>
</svg>
