<?xml version="1.0" encoding="UTF-8" standalone="no"?>
<!DOCTYPE svg PUBLIC "-//W3C//DTD SVG 1.1//EN" "http://www.w3.org/Graphics/SVG/1.1/DTD/svg11.dtd">
<svg width="100%" height="100%" viewBox="0 0 512 512" version="1.1" xmlns="http://www.w3.org/2000/svg" xmlns:xlink="http://www.w3.org/1999/xlink" xml:space="preserve" xmlns:serif="http://www.serif.com/" style="fill-rule:evenodd;clip-rule:evenodd;stroke-linejoin:round;stroke-miterlimit:2;">
    <g>
        <path d="M512,52.966L512,494.345C511.971,504.084 504.084,511.972 494.345,512L17.655,512C7.916,511.971 0.029,504.084 0,494.345L0,52.966L512,52.966Z" style="fill:rgb(56,69,79);fill-rule:nonzero;"/>
        <path d="M512,17.655L512,70.621L0,70.621L0,17.655C0.028,7.916 7.916,0.028 17.655,0L494.345,0C504.084,0.028 511.972,7.916 512,17.655Z" style="fill:rgb(165,165,164);fill-rule:nonzero;"/>
        <path d="M35.31,44.138C32.97,44.121 30.725,43.205 29.042,41.578C28.263,40.719 27.636,39.734 27.188,38.664C26.245,36.526 26.245,34.091 27.188,31.953C27.593,30.863 28.225,29.871 29.042,29.043C29.459,28.662 29.9,28.308 30.361,27.983C30.855,27.648 31.391,27.379 31.956,27.186C32.455,26.932 32.99,26.755 33.542,26.66C35.262,26.299 37.052,26.483 38.663,27.186C39.744,27.613 40.733,28.244 41.577,29.044C44.991,32.525 44.991,38.098 41.577,41.579C41.137,41.932 40.689,42.286 40.163,42.635C39.713,42.986 39.205,43.255 38.663,43.432C37.603,43.884 36.464,44.124 35.31,44.138Z" style="fill:rgb(230,76,60);fill-rule:nonzero;"/>
        <path d="M70.621,44.138C68.284,44.103 66.046,43.189 64.353,41.578C63.574,40.719 62.947,39.734 62.499,38.664C62.047,37.603 61.807,36.464 61.793,35.31C61.807,32.969 62.724,30.724 64.353,29.042C66.878,26.496 70.694,25.73 74.006,27.105C77.318,28.48 79.469,31.723 79.448,35.309C79.413,37.646 78.499,39.883 76.888,41.577C75.204,43.202 72.96,44.118 70.621,44.138Z" style="fill:rgb(240,196,25);fill-rule:nonzero;"/>
        <path d="M105.931,44.138C103.583,44.161 101.324,43.238 99.664,41.578C98.004,39.918 97.081,37.659 97.104,35.311C97.135,32.973 98.049,30.734 99.664,29.043C101.777,27.024 104.728,26.138 107.604,26.66C108.19,26.741 108.758,26.919 109.285,27.186C109.847,27.38 110.38,27.648 110.871,27.983C111.335,28.308 111.779,28.662 112.199,29.043C115.613,32.524 115.613,38.097 112.199,41.577C111.779,41.956 111.336,42.309 110.871,42.633C110.38,42.968 109.847,43.236 109.285,43.43C108.757,43.696 108.189,43.875 107.604,43.96C107.052,44.062 106.492,44.122 105.931,44.138Z" style="fill:rgb(20,160,133);fill-rule:nonzero;"/>
        <g>
            <path d="M317.793,44.138L194.207,44.138C189.332,44.138 185.379,40.186 185.379,35.31C185.379,30.434 189.331,26.482 194.207,26.482L317.793,26.482C322.668,26.482 326.621,30.434 326.621,35.31C326.621,40.186 322.668,44.138 317.793,44.138Z" style="fill:rgb(230,231,232);fill-rule:nonzero;"/>
            <path d="M476.69,44.138L467.862,44.138C462.987,44.138 459.034,40.186 459.034,35.31C459.034,30.434 462.986,26.482 467.862,26.482L476.69,26.482C481.565,26.482 485.518,30.434 485.518,35.31C485.518,40.186 481.565,44.138 476.69,44.138Z" style="fill:rgb(230,231,232);fill-rule:nonzero;"/>
            <path d="M432.552,44.138L423.724,44.138C418.849,44.138 414.896,40.186 414.896,35.31C414.896,30.434 418.848,26.482 423.724,26.482L432.552,26.482C437.427,26.482 441.38,30.434 441.38,35.31C441.38,40.186 437.427,44.138 432.552,44.138Z" style="fill:rgb(230,231,232);fill-rule:nonzero;"/>
        </g>
        <g>
            <path d="M229.517,141.241L171.379,141.241L147.483,117.345C144.03,113.935 138.471,113.952 135.04,117.384C131.608,120.816 131.591,126.374 135.001,129.827L146.415,141.241L88.276,141.241C83.401,141.241 79.448,145.193 79.448,150.069C79.448,154.945 83.4,158.897 88.276,158.897L146.414,158.897L135,170.311C132.747,172.536 131.858,175.798 132.672,178.858C133.485,181.918 135.876,184.309 138.936,185.122C141.997,185.935 145.258,185.046 147.483,182.793L171.38,158.897L229.518,158.897C234.393,158.897 238.346,154.945 238.346,150.069C238.346,145.193 234.393,141.241 229.517,141.241Z" style="fill:rgb(92,114,130);fill-rule:nonzero;"/>
            <path d="M476.69,141.241L353.103,141.241C348.228,141.241 344.275,145.193 344.275,150.069C344.275,154.945 348.227,158.897 353.103,158.897L467.862,158.897L467.862,264.828L303.793,264.828L315.207,253.414C317.46,251.189 318.349,247.927 317.535,244.867C316.722,241.807 314.331,239.416 311.271,238.603C308.21,237.79 304.949,238.679 302.724,240.932L278.827,264.828L238.344,264.828C233.469,264.828 229.516,268.78 229.516,273.656C229.516,278.532 233.468,282.484 238.344,282.484L278.827,282.484L302.723,306.38C306.176,309.79 311.735,309.773 315.166,306.341C318.597,302.909 318.615,297.351 315.205,293.898L303.791,282.484L476.69,282.484C479.031,282.485 481.277,281.555 482.933,279.899C484.589,278.243 485.518,275.998 485.518,273.656L485.518,150.069C485.519,147.728 484.589,145.482 482.933,143.826C481.277,142.171 479.031,141.241 476.69,141.241Z" style="fill:rgb(92,114,130);fill-rule:nonzero;"/>
            <path d="M423.724,423.724L383.241,423.724L359.345,399.828C355.892,396.418 350.333,396.435 346.902,399.867C343.471,403.299 343.453,408.857 346.863,412.31L358.277,423.724L211.862,423.724C206.987,423.724 203.034,427.676 203.034,432.552C203.034,437.428 206.986,441.38 211.862,441.38L358.276,441.38L346.862,452.794C344.609,455.019 343.72,458.281 344.534,461.341C345.347,464.401 347.738,466.792 350.798,467.605C353.859,468.418 357.12,467.529 359.345,465.276L383.242,441.38L423.725,441.38C428.6,441.38 432.553,437.428 432.553,432.552C432.553,427.676 428.599,423.724 423.724,423.724Z" style="fill:rgb(92,114,130);fill-rule:nonzero;"/>
            <path d="M187.966,338.035L176.552,349.449L176.552,300.139C176.552,295.264 172.6,291.311 167.724,291.311C162.848,291.311 158.896,295.263 158.896,300.139L158.896,349.449L147.482,338.035C144.029,334.625 138.47,334.643 135.039,338.074C131.607,341.506 131.59,347.064 135,350.517L158.896,374.414L158.896,414.897C158.896,419.772 154.021,432.552 158.896,432.552C166.966,429.357 173.356,422.967 176.551,414.897L176.551,374.414L200.447,350.518C203.857,347.065 203.84,341.506 200.408,338.075C196.978,334.642 191.419,334.625 187.966,338.035Z" style="fill:rgb(92,114,130);fill-rule:nonzero;"/>
        </g>
        <g>
            <circle cx="70.621" cy="150.069" r="35.31" style="fill:rgb(76,128,86);stroke:rgb(56,69,79);stroke-width:10px;"/>
            <circle cx="441.379" cy="432.552" r="35.31" style="fill:rgb(76,128,86);stroke:rgb(56,69,79);stroke-width:10px;"/>
        </g>
        <path d="M220.69,114.759L361.931,114.759C366.806,114.759 370.759,118.711 370.759,123.587L370.759,176.553C370.759,181.428 366.807,185.381 361.931,185.381L220.69,185.381C215.815,185.381 211.862,181.429 211.862,176.553L211.862,123.587C211.862,118.711 215.814,114.759 220.69,114.759Z" style="fill:rgb(210,31,11);fill-rule:nonzero;stroke:rgb(56,69,79);stroke-width:10px;"/>
        <path d="M97.103,238.345L238.344,238.345C243.219,238.345 247.172,242.297 247.172,247.173L247.172,300.139C247.172,305.014 243.22,308.967 238.344,308.967L97.103,308.967C92.228,308.967 88.275,305.015 88.275,300.139L88.275,247.173C88.276,242.297 92.228,238.345 97.103,238.345Z" style="fill:rgb(136,197,204);fill-rule:nonzero;stroke:rgb(56,69,79);stroke-width:10px;"/>
        <path d="M211.862,467.862L88.276,467.862L123.586,397.241L247.172,397.241L211.862,467.862Z" style="fill:rgb(210,31,11);fill-rule:nonzero;stroke:rgb(56,69,79);stroke-width:10px;"/>
    </g>
</svg>
