<?xml version="1.0" encoding="UTF-8" standalone="no"?>
<!DOCTYPE svg PUBLIC "-//W3C//DTD SVG 1.1//EN" "http://www.w3.org/Graphics/SVG/1.1/DTD/svg11.dtd">
<svg width="100%" height="100%" viewBox="0 0 512 512" version="1.1" xmlns="http://www.w3.org/2000/svg" xmlns:xlink="http://www.w3.org/1999/xlink" xml:space="preserve" xmlns:serif="http://www.serif.com/" style="fill-rule:evenodd;clip-rule:evenodd;stroke-linejoin:round;stroke-miterlimit:2;">
    <g>
        <g>
            <path d="M361.931,494.345L150.069,494.345C150.069,474.845 165.879,459.035 185.379,459.035L326.62,459.035C346.121,459.034 361.931,474.845 361.931,494.345" style="fill:rgb(208,218,220);fill-rule:nonzero;"/>
            <path d="M317.793,459.034L194.207,459.034L211.862,388.414L300.138,388.414L317.793,459.034Z" style="fill:rgb(176,182,187);fill-rule:nonzero;"/>
            <path d="M512.001,317.793L0,317.793L0,48.552C0,31.488 13.833,17.655 30.897,17.655L481.104,17.655C498.168,17.655 512.001,31.488 512.001,48.552L512.001,317.793Z" style="fill:rgb(56,69,79);fill-rule:nonzero;"/>
            <path d="M481.103,388.414L30.897,388.414C13.833,388.414 0,374.581 0,357.517L0,317.793L512,317.793L512,357.517C512,374.581 498.167,388.414 481.103,388.414" style="fill:rgb(208,218,220);fill-rule:nonzero;"/>
            <g>
                <path d="M432.552,282.483L300.138,282.483C295.256,282.483 291.31,278.528 291.31,273.655C291.31,268.782 295.256,264.827 300.138,264.827L432.552,264.827C437.434,264.827 441.38,268.782 441.38,273.655C441.379,278.528 437.433,282.483 432.552,282.483" style="fill:rgb(210,31,11);fill-rule:nonzero;"/>
                <path d="M167.724,229.517L79.448,229.517C74.566,229.517 70.62,225.562 70.62,220.689C70.62,215.816 74.566,211.861 79.448,211.861L167.724,211.861C172.606,211.861 176.552,215.816 176.552,220.689C176.552,225.562 172.606,229.517 167.724,229.517" style="fill:rgb(210,31,11);fill-rule:nonzero;"/>
                <path d="M388.414,229.517L256,229.517C251.118,229.517 247.172,225.562 247.172,220.689C247.172,215.816 251.118,211.861 256,211.861L388.414,211.861C393.296,211.861 397.242,215.816 397.242,220.689C397.241,225.562 393.295,229.517 388.414,229.517" style="fill:rgb(210,31,11);fill-rule:nonzero;"/>
                <path d="M211.862,229.517C210.714,229.517 209.567,229.252 208.508,228.811C207.36,228.37 206.478,227.752 205.595,226.957C203.997,225.28 203.035,223.073 203.035,220.689C203.035,218.305 203.997,216.099 205.595,214.421C206.478,213.627 207.361,213.009 208.508,212.567C211.677,211.243 215.658,211.949 218.13,214.421C219.719,216.098 220.69,218.393 220.69,220.689C220.69,222.984 219.719,225.279 218.13,226.957C216.452,228.546 214.157,229.517 211.862,229.517" style="fill:rgb(210,31,11);fill-rule:nonzero;"/>
                <path d="M256,282.483L123.586,282.483C118.704,282.483 114.758,278.528 114.758,273.655C114.758,268.782 118.704,264.827 123.586,264.827L256,264.827C260.882,264.827 264.828,268.782 264.828,273.655C264.828,278.528 260.882,282.483 256,282.483" style="fill:rgb(210,31,11);fill-rule:nonzero;"/>
                <path d="M79.448,282.483C78.3,282.483 77.153,282.218 76.094,281.777C75.035,281.336 74.064,280.718 73.181,279.923C71.583,278.246 70.621,276.039 70.621,273.655C70.621,272.507 70.886,271.36 71.327,270.301C71.768,269.153 72.386,268.271 73.181,267.388C75.3,265.358 78.301,264.475 81.117,265.005C81.744,265.093 82.265,265.27 82.803,265.535C83.324,265.712 83.862,265.976 84.304,266.329C84.825,266.682 85.275,267.035 85.716,267.388C86.51,268.271 87.128,269.154 87.57,270.301C88.011,271.36 88.276,272.508 88.276,273.655C88.276,276.038 87.305,278.245 85.716,279.923C85.275,280.276 84.824,280.629 84.304,280.982C83.863,281.335 83.324,281.6 82.803,281.776C82.265,282.041 81.744,282.217 81.117,282.306C80.596,282.394 79.978,282.483 79.448,282.483" style="fill:rgb(210,31,11);fill-rule:nonzero;"/>
                <path d="M432.552,229.517C432.014,229.517 431.404,229.429 430.875,229.34C430.257,229.252 429.727,229.075 429.198,228.81C428.668,228.633 428.139,228.369 427.6,228.016C427.167,227.663 426.726,227.31 426.285,226.957C424.687,225.28 423.725,222.985 423.725,220.689C423.725,218.394 424.687,216.099 426.285,214.421L427.6,213.362C428.139,213.009 428.668,212.744 429.198,212.568C429.728,212.303 430.257,212.127 430.875,212.038C433.7,211.42 436.781,212.391 438.82,214.421C439.173,214.862 439.526,215.304 439.879,215.833C440.232,216.274 440.488,216.804 440.673,217.334C440.938,217.864 441.114,218.393 441.194,219.011C441.291,219.541 441.379,220.159 441.379,220.688C441.379,221.217 441.291,221.836 441.194,222.454C441.115,222.984 440.938,223.513 440.673,224.043C440.488,224.573 440.232,225.102 439.879,225.632C439.526,226.073 439.173,226.515 438.82,226.956C438.379,227.309 437.928,227.662 437.496,228.015C436.966,228.368 436.428,228.633 435.907,228.809C435.369,229.074 434.848,229.25 434.221,229.339C433.699,229.429 433.081,229.517 432.552,229.517" style="fill:rgb(210,31,11);fill-rule:nonzero;"/>
                <path d="M432.552,123.586L300.138,123.586C295.256,123.586 291.31,119.631 291.31,114.758C291.31,109.885 295.256,105.93 300.138,105.93L432.552,105.93C437.434,105.93 441.38,109.885 441.38,114.758C441.38,119.631 437.433,123.586 432.552,123.586" style="fill:rgb(210,31,11);fill-rule:nonzero;"/>
                <path d="M432.552,176.552L344.276,176.552C339.394,176.552 335.448,172.597 335.448,167.724C335.448,162.851 339.394,158.896 344.276,158.896L432.552,158.896C437.434,158.896 441.38,162.851 441.38,167.724C441.38,172.597 437.433,176.552 432.552,176.552" style="fill:rgb(210,31,11);fill-rule:nonzero;"/>
                <path d="M273.655,176.552L256,176.552C251.118,176.552 247.172,172.597 247.172,167.724C247.172,162.851 251.118,158.896 256,158.896L273.655,158.896C278.537,158.896 282.483,162.851 282.483,167.724C282.483,172.597 278.537,176.552 273.655,176.552" style="fill:rgb(210,31,11);fill-rule:nonzero;"/>
                <path d="M388.414,70.621L256,70.621C251.118,70.621 247.172,66.666 247.172,61.793C247.172,56.92 251.118,52.965 256,52.965L388.414,52.965C393.296,52.965 397.242,56.92 397.242,61.793C397.242,66.666 393.295,70.621 388.414,70.621" style="fill:rgb(210,31,11);fill-rule:nonzero;"/>
                <path d="M432.552,70.621C432.014,70.621 431.404,70.533 430.875,70.444C430.257,70.356 429.727,70.179 429.198,69.914C428.668,69.737 428.139,69.473 427.6,69.12C427.167,68.767 426.726,68.414 426.285,68.061C424.687,66.384 423.725,64.089 423.725,61.793C423.725,59.498 424.687,57.203 426.285,55.525L427.6,54.466C428.139,54.113 428.668,53.848 429.198,53.672C429.728,53.407 430.257,53.231 430.875,53.142C433.7,52.524 436.781,53.495 438.82,55.525C439.173,55.966 439.526,56.408 439.879,56.937C440.232,57.378 440.488,57.908 440.673,58.438C440.938,58.968 441.114,59.497 441.194,60.115C441.291,60.645 441.379,61.263 441.379,61.792C441.379,62.321 441.291,62.94 441.194,63.558C441.115,64.088 440.938,64.617 440.673,65.147C440.488,65.677 440.232,66.206 439.879,66.736C439.526,67.177 439.173,67.619 438.82,68.06C438.379,68.413 437.928,68.766 437.496,69.119C436.966,69.472 436.428,69.737 435.907,69.913C435.369,70.178 434.848,70.354 434.221,70.443C433.699,70.532 433.081,70.621 432.552,70.621" style="fill:rgb(210,31,11);fill-rule:nonzero;"/>
                <path d="M264.828,123.586C262.533,123.586 260.229,122.615 258.56,121.026C257.766,120.143 257.148,119.172 256.706,118.113C256.264,117.054 256,115.906 256,114.759C256,113.611 256.265,112.464 256.706,111.405C257.147,110.346 257.765,109.375 258.56,108.492C260.59,106.462 263.68,105.579 266.496,106.109C267.123,106.197 267.644,106.374 268.182,106.639C268.703,106.816 269.241,107.08 269.683,107.433C270.204,107.786 270.654,108.139 271.007,108.492C271.89,109.375 272.508,110.346 272.949,111.405C273.39,112.464 273.655,113.612 273.655,114.759C273.655,115.907 273.39,117.054 272.949,118.113C272.508,119.172 271.89,120.143 271.007,121.026C270.654,121.379 270.204,121.732 269.683,122.085C269.242,122.438 268.703,122.703 268.182,122.879C267.644,123.144 267.123,123.32 266.496,123.409C265.975,123.498 265.357,123.586 264.828,123.586" style="fill:rgb(210,31,11);fill-rule:nonzero;"/>
                <path d="M308.966,176.552C306.574,176.552 304.367,175.581 302.698,173.992C301.1,172.315 300.138,170.02 300.138,167.724C300.138,165.429 301.1,163.134 302.698,161.456C305.964,158.19 311.967,158.19 315.233,161.456C316.822,163.133 317.793,165.428 317.793,167.724C317.793,168.342 317.705,168.872 317.608,169.49C317.529,170.02 317.352,170.549 317.087,171.079C316.902,171.609 316.646,172.138 316.293,172.668C315.94,173.109 315.587,173.551 315.234,173.992C313.556,175.581 311.349,176.552 308.966,176.552" style="fill:rgb(210,31,11);fill-rule:nonzero;"/>
            </g>
            <rect x="79.448" y="52.966" width="123.586" height="123.586" style="fill:rgb(136,197,204);fill-rule:nonzero;"/>
        </g>
    </g>
</svg>
