<?xml version="1.0" encoding="UTF-8"?>
<!DOCTYPE svg PUBLIC "-//W3C//DTD SVG 1.1//EN" "http://www.w3.org/Graphics/SVG/1.1/DTD/svg11.dtd">
<svg version="1.1" xmlns="http://www.w3.org/2000/svg" xmlns:xlink="http://www.w3.org/1999/xlink" x="0" y="0" width="174" height="210" viewBox="0, 0, 174, 210">
  <g id="Ebene_2" transform="translate(-203.62, -788.652)">
    <g>
      <g>
        <path d="M225.12,810.152 L357.12,810.152 L357.12,978.152 L225.12,978.152 L225.12,810.152 z" fill="#FFFFFF"/>
        <path d="M225.12,810.152 L357.12,810.152 L357.12,978.152 L225.12,978.152 L225.12,810.152 z" fill-opacity="0" stroke="#C40000" stroke-width="10"/>
      </g>
      <g>
        <path d="M229.567,944.194 L351.645,944.194 L351.645,972.693 L229.567,972.693 L229.567,944.194 z" fill="#151515"/>
        <text transform="matrix(1, 0, 0, 1, 290.73, 961.927)">
          <tspan x="-46.312" y="1.745" font-family="AmericanTypewriter" font-size="14" fill="#FFFFFF">Rule The Bots</tspan>
        </text>
      </g>
      <path d="M285.34,924.156 C285.34,924.156 284.539,923.927 283.362,923.411 C282.126,924.179 281.303,925.645 281.303,927.317 C281.303,929.79 283.115,931.795 285.34,931.795 C287.576,931.795 289.377,929.79 289.377,927.317 C289.377,926.126 288.953,925.038 288.259,924.236 L285.34,924.156 z M320.367,841.686 L307.196,841.686 L317.872,828.55 C318.272,828.699 318.707,828.768 319.155,828.768 C321.462,828.768 323.333,826.706 323.333,824.152 C323.333,821.621 321.462,819.56 319.155,819.56 C316.848,819.56 314.976,821.621 314.976,824.175 C314.976,825.195 315.271,826.134 315.788,826.901 L303.76,841.686 L279.419,841.686 C280.573,840.552 281.303,838.903 281.303,837.071 C281.303,833.647 278.772,830.875 275.641,830.875 C272.51,830.875 269.98,833.647 269.98,837.071 C269.98,838.903 270.71,840.552 271.863,841.686 L261.094,841.686 C253.655,841.686 247.617,847.584 247.617,854.857 L251.654,889.901 C251.654,897.174 257.692,903.072 265.131,903.072 L316.33,903.072 C323.768,903.072 329.806,897.174 329.806,889.901 L333.843,854.857 C333.843,847.584 327.817,841.686 320.367,841.686 z M271.063,880.419 C268.979,880.419 267.285,878.769 267.285,876.731 C267.285,874.692 268.979,873.043 271.063,873.043 C273.146,873.043 274.829,874.692 274.829,876.731 C274.829,878.769 273.146,880.419 271.063,880.419 z M308.515,881.472 C306.278,881.472 304.478,879.938 304.478,878.048 C304.478,876.158 306.29,874.624 308.515,874.624 C310.751,874.624 312.552,876.158 312.552,878.048 C312.552,879.938 310.751,881.472 308.515,881.472 z M270.145,904.652 C269.697,905.431 269.45,906.267 269.45,907.16 C269.45,909.749 271.616,911.993 274.347,913.116 C274.347,913.138 274.358,913.161 274.358,913.184 C274.323,912.818 274.299,912.428 274.299,912.039 C274.076,910.585 273.652,907.618 275.335,904.664 L270.145,904.664 z M280.902,922.152 C280.573,921.957 280.231,921.739 279.89,921.499 C280.22,921.728 280.549,921.945 280.902,922.152 z M307.196,904.652 C307.691,906.278 308.303,908.97 308.032,911.925 C310.386,910.985 312.552,908.386 312.552,905.316 C312.552,905.099 312.54,904.87 312.516,904.652 L307.196,904.652 z M299.311,923.377 C295.591,924.156 295.591,924.419 295.591,924.419 L294.555,924.396 C294.026,925.118 293.708,926.046 293.708,927.053 C293.708,929.378 295.403,931.268 297.486,931.268 C299.569,931.268 301.264,929.378 301.264,927.053 C301.241,925.473 300.464,924.099 299.311,923.377 z M277.242,904.652 C276.218,906.37 275.641,908.34 275.641,910.447 C275.641,916.998 281.255,922.301 288.176,922.301 L294.108,922.301 C301.029,922.301 306.643,916.987 306.643,910.447 C306.643,908.34 306.055,906.359 305.042,904.652 L277.242,904.652 z" fill="#151515" id="bfb1b9d7662c3164ff89a70ce68fefc8"/>
    </g>
  </g>
</svg>
