<?xml version="1.0" encoding="UTF-8"?>
<!DOCTYPE svg PUBLIC "-//W3C//DTD SVG 1.1//EN" "http://www.w3.org/Graphics/SVG/1.1/DTD/svg11.dtd">
<svg version="1.1" xmlns="http://www.w3.org/2000/svg" xmlns:xlink="http://www.w3.org/1999/xlink" x="0" y="0" width="136.872" height="182.622" viewBox="0, 0, 136.872, 182.622">
  <g id="Ebene_2" transform="translate(-415.021, -825.137)">
    <path d="M478.067,929.733 C478.067,929.733 477.266,929.504 476.089,928.988 C474.853,929.756 474.03,931.221 474.03,932.893 C474.03,935.367 475.842,937.371 478.067,937.371 C480.303,937.371 482.104,935.367 482.104,932.893 C482.104,931.702 481.68,930.614 480.986,929.813 L478.067,929.733 z M513.094,847.263 L499.923,847.263 L510.599,834.127 C510.999,834.276 511.434,834.345 511.882,834.345 C514.189,834.345 516.06,832.283 516.06,829.729 C516.06,827.198 514.189,825.137 511.882,825.137 C509.575,825.137 507.703,827.198 507.703,829.752 C507.703,830.771 507.998,831.71 508.515,832.478 L496.487,847.263 L472.146,847.263 C473.3,846.129 474.03,844.48 474.03,842.648 C474.03,839.223 471.499,836.452 468.368,836.452 C465.237,836.452 462.707,839.223 462.707,842.648 C462.707,844.48 463.437,846.129 464.59,847.263 L453.821,847.263 C446.382,847.263 440.344,853.161 440.344,860.433 L444.381,895.478 C444.381,902.75 450.419,908.648 457.858,908.648 L509.057,908.648 C516.495,908.648 522.533,902.75 522.533,895.478 L526.57,860.433 C526.57,853.161 520.544,847.263 513.094,847.263 z M463.79,885.995 C461.706,885.995 460.012,884.346 460.012,882.308 C460.012,880.269 461.706,878.62 463.79,878.62 C465.873,878.62 467.556,880.269 467.556,882.308 C467.556,884.346 465.873,885.995 463.79,885.995 z M501.242,887.049 C499.005,887.049 497.205,885.514 497.205,883.625 C497.205,881.735 499.017,880.2 501.242,880.2 C503.478,880.2 505.279,881.735 505.279,883.625 C505.279,885.514 503.478,887.049 501.242,887.049 z M462.872,910.229 C462.424,911.008 462.177,911.844 462.177,912.737 C462.177,915.325 464.343,917.57 467.074,918.692 C467.074,918.715 467.085,918.738 467.085,918.761 C467.05,918.395 467.026,918.005 467.026,917.616 C466.803,916.161 466.379,913.195 468.062,910.24 L462.872,910.24 z M473.629,927.728 C473.3,927.534 472.958,927.316 472.617,927.076 C472.947,927.305 473.276,927.522 473.629,927.728 z M499.923,910.229 C500.418,911.855 501.03,914.547 500.759,917.501 C503.113,916.562 505.279,913.962 505.279,910.893 C505.279,910.676 505.267,910.447 505.243,910.229 L499.923,910.229 z M492.038,928.954 C488.318,929.733 488.318,929.996 488.318,929.996 L487.283,929.973 C486.753,930.695 486.435,931.622 486.435,932.63 C486.435,934.955 488.13,936.845 490.213,936.845 C492.296,936.845 493.991,934.955 493.991,932.63 C493.968,931.05 493.191,929.675 492.038,928.954 z M469.969,910.229 C468.945,911.947 468.368,913.917 468.368,916.024 C468.368,922.575 473.982,927.877 480.903,927.877 L486.835,927.877 C493.756,927.877 499.37,922.563 499.37,916.024 C499.37,913.917 498.782,911.935 497.77,910.229 L469.969,910.229 z" fill="#990000" id="bfb1b9d7662c3164ff89a70ce68fefc8"/>
    <g>
      <path d="M415.021,952.895 L551.893,952.895 L551.893,1007.732 L415.021,1007.732 L415.021,952.895 z" fill="#151515"/>
      <text transform="matrix(1, 0, 0, 1, 482.458, 982.759)">
        <tspan x="-44.478" y="-6" font-family="AmericanTypewriter-Semibold" font-size="21" fill="#FFFFFF">Rule The</tspan>
        <tspan x="-22.365" y="18" font-family="AmericanTypewriter-Semibold" font-size="21" fill="#FFFFFF">Bots</tspan>
      </text>
    </g>
  </g>
</svg>
