<?xml version="1.0" encoding="UTF-8"?>
<!DOCTYPE svg PUBLIC "-//W3C//DTD SVG 1.1//EN" "http://www.w3.org/Graphics/SVG/1.1/DTD/svg11.dtd">
<svg version="1.1" xmlns="http://www.w3.org/2000/svg" xmlns:xlink="http://www.w3.org/1999/xlink" x="0" y="0" width="86.226" height="112.235" viewBox="0, 0, 86.226, 112.235">
  <g id="Ebene_2" transform="translate(-180.89, -219.366)">
    <path d="M218.613,323.962 C218.613,323.962 217.813,323.733 216.636,323.218 C215.4,323.985 214.576,325.451 214.576,327.123 C214.576,329.597 216.388,331.601 218.613,331.601 C220.849,331.601 222.65,329.597 222.65,327.123 C222.65,325.932 222.226,324.844 221.532,324.042 L218.613,323.962 z M253.64,241.492 L240.47,241.492 L251.145,228.356 C251.545,228.505 251.981,228.574 252.428,228.574 C254.735,228.574 256.606,226.512 256.606,223.959 C256.606,221.428 254.735,219.366 252.428,219.366 C250.121,219.366 248.25,221.428 248.25,223.981 C248.25,225.001 248.544,225.94 249.062,226.707 L237.033,241.492 L212.693,241.492 C213.846,240.359 214.576,238.709 214.576,236.877 C214.576,233.453 212.045,230.681 208.914,230.681 C205.784,230.681 203.253,233.453 203.253,236.877 C203.253,238.709 203.983,240.359 205.136,241.492 L194.367,241.492 C186.928,241.492 180.89,247.39 180.89,254.663 L184.927,289.708 C184.927,296.98 190.965,302.878 198.404,302.878 L249.603,302.878 C257.042,302.878 263.08,296.98 263.08,289.708 L267.117,254.663 C267.117,247.39 261.091,241.492 253.64,241.492 z M204.336,280.225 C202.253,280.225 200.558,278.576 200.558,276.537 C200.558,274.499 202.253,272.849 204.336,272.849 C206.419,272.849 208.102,274.499 208.102,276.537 C208.102,278.576 206.419,280.225 204.336,280.225 z M241.788,281.278 C239.552,281.278 237.751,279.744 237.751,277.854 C237.751,275.964 239.563,274.43 241.788,274.43 C244.024,274.43 245.825,275.964 245.825,277.854 C245.825,279.744 244.024,281.278 241.788,281.278 z M203.418,304.458 C202.971,305.237 202.723,306.073 202.723,306.966 C202.723,309.555 204.889,311.799 207.62,312.922 C207.62,312.945 207.632,312.968 207.632,312.991 C207.596,312.624 207.573,312.235 207.573,311.845 C207.349,310.391 206.925,307.425 208.608,304.47 L203.418,304.47 z M214.176,321.958 C213.846,321.763 213.505,321.546 213.163,321.305 C213.493,321.534 213.823,321.752 214.176,321.958 z M240.47,304.458 C240.964,306.085 241.576,308.776 241.305,311.731 C243.659,310.792 245.825,308.192 245.825,305.123 C245.825,304.905 245.813,304.676 245.79,304.458 L240.47,304.458 z M232.584,323.183 C228.864,323.962 228.864,324.225 228.864,324.225 L227.829,324.203 C227.299,324.924 226.981,325.852 226.981,326.859 C226.981,329.184 228.676,331.074 230.759,331.074 C232.843,331.074 234.538,329.184 234.538,326.859 C234.514,325.279 233.737,323.905 232.584,323.183 z M210.515,304.458 C209.491,306.176 208.914,308.146 208.914,310.253 C208.914,316.804 214.529,322.107 221.449,322.107 L227.381,322.107 C234.302,322.107 239.916,316.793 239.916,310.253 C239.916,308.146 239.328,306.165 238.316,304.458 L210.515,304.458 z" fill="#C40000" id="bfb1b9d7662c3164ff89a70ce68fefc8"/>
  </g>
</svg>
