<?xml version="1.0" encoding="UTF-8" standalone="no"?><!DOCTYPE svg PUBLIC "-//W3C//DTD SVG 1.1//EN" "http://www.w3.org/Graphics/SVG/1.1/DTD/svg11.dtd"><svg width="100%" height="100%" viewBox="0 0 2134 2134" version="1.1" xmlns="http://www.w3.org/2000/svg" xmlns:xlink="http://www.w3.org/1999/xlink" xml:space="preserve" xmlns:serif="http://www.serif.com/" style="fill-rule:evenodd;clip-rule:evenodd;stroke-linejoin:round;stroke-miterlimit:2;"><g><path d="M1508.05,2059.77l-882.759,0c0,-81.25 65.875,-147.125 147.125,-147.125l588.505,0c81.254,-0.004 147.129,65.875 147.129,147.125" style="fill:#d0dadc;fill-rule:nonzero;"/><path d="M1324.14,1912.64l-514.942,0l73.562,-294.25l367.817,0l73.563,294.25Z" style="fill:#b0b6bb;fill-rule:nonzero;"/><path d="M2133.33,1324.14l-2133.33,0l0,-1121.84c0,-71.1 57.638,-128.737 128.738,-128.737l1875.86,0c71.1,0 128.737,57.637 128.737,128.737l0.001,1121.84l-0.005,0Z" style="fill:#38454f;fill-rule:nonzero;"/><path d="M2004.6,1618.39l-1875.86,0c-71.099,0 -128.737,-57.638 -128.737,-128.738l0,-165.516l2133.33,0l0,165.516c0,71.1 -57.637,128.738 -128.737,128.738" style="fill:#d0dadc;fill-rule:nonzero;"/><g><path d="M1802.3,1177.01l-551.725,0c-20.342,0 -36.783,-16.48 -36.783,-36.784c0,-20.304 16.441,-36.783 36.783,-36.783l551.725,0c20.342,0 36.783,16.479 36.783,36.783c-0.004,20.304 -16.445,36.784 -36.783,36.784" style="fill:#ea6148;fill-rule:nonzero;"/><path d="M698.85,956.321l-367.817,0c-20.341,0 -36.783,-16.479 -36.783,-36.784c0,-20.304 16.442,-36.783 36.783,-36.783l367.817,0c20.342,0 36.783,16.479 36.783,36.784c0,20.304 -16.441,36.783 -36.783,36.783" style="fill:#ea6148;fill-rule:nonzero;"/><path d="M1618.39,956.321l-551.725,0c-20.342,0 -36.784,-16.479 -36.784,-36.784c0,-20.304 16.442,-36.783 36.784,-36.783l551.725,0c20.341,0 36.783,16.479 36.783,36.784c-0.004,20.304 -16.446,36.783 -36.783,36.783" style="fill:#ea6148;fill-rule:nonzero;"/><path d="M882.758,956.321c-4.783,0 -9.562,-1.104 -13.975,-2.942c-4.783,-1.837 -8.458,-4.412 -12.137,-7.725c-6.659,-6.987 -10.667,-16.183 -10.667,-26.116c0,-9.934 4.008,-19.125 10.667,-26.117c3.679,-3.309 7.358,-5.884 12.137,-7.725c13.205,-5.517 29.792,-2.575 40.092,7.725c6.621,6.987 10.667,16.55 10.667,26.116c0,9.563 -4.046,19.125 -10.667,26.117c-6.992,6.621 -16.554,10.667 -26.117,10.667" style="fill:#ea6148;fill-rule:nonzero;"/><path d="M1066.67,1177.01l-551.725,0c-20.342,0 -36.784,-16.48 -36.784,-36.784c0,-20.304 16.442,-36.783 36.784,-36.783l551.725,0c20.341,0 36.783,16.479 36.783,36.783c0,20.304 -16.442,36.784 -36.783,36.784" style="fill:#ea6148;fill-rule:nonzero;"/><path d="M331.033,1177.01c-4.783,0 -9.562,-1.105 -13.975,-2.942c-4.412,-1.838 -8.458,-4.413 -12.137,-7.725c-6.659,-6.988 -10.667,-16.183 -10.667,-26.117c0,-4.783 1.104,-9.562 2.942,-13.975c1.837,-4.783 4.412,-8.458 7.725,-12.137c8.829,-8.459 21.333,-12.138 33.066,-9.929c2.613,0.366 4.784,1.104 7.025,2.208c2.171,0.737 4.413,1.837 6.255,3.308c2.171,1.471 4.046,2.942 5.883,4.413c3.308,3.679 5.883,7.358 7.725,12.137c1.838,4.413 2.942,9.196 2.942,13.975c0,9.929 -4.046,19.125 -10.667,26.117c-1.838,1.471 -3.717,2.942 -5.883,4.412c-1.838,1.471 -4.084,2.575 -6.255,3.309c-2.241,1.104 -4.412,1.837 -7.025,2.208c-2.17,0.367 -4.745,0.737 -6.954,0.737" style="fill:#ea6148;fill-rule:nonzero;"/><path d="M1802.3,956.321c-2.242,0 -4.783,-0.367 -6.987,-0.738c-2.575,-0.366 -4.784,-1.104 -6.988,-2.208c-2.208,-0.737 -4.412,-1.837 -6.658,-3.308c-1.804,-1.471 -3.642,-2.942 -5.479,-4.413c-6.659,-6.987 -10.667,-16.55 -10.667,-26.116c0,-9.563 4.008,-19.125 10.667,-26.117l5.479,-4.413c2.245,-1.471 4.45,-2.575 6.658,-3.308c2.208,-1.104 4.413,-1.838 6.988,-2.208c11.77,-2.575 24.608,1.47 33.104,9.929c1.471,1.837 2.941,3.679 4.412,5.883c1.471,1.838 2.538,4.046 3.309,6.254c1.104,2.209 1.837,4.413 2.17,6.988c0.405,2.208 0.771,4.783 0.771,6.987c0,2.204 -0.366,4.784 -0.771,7.359c-0.329,2.208 -1.066,4.412 -2.17,6.62c-0.771,2.209 -1.838,4.413 -3.309,6.621c-1.471,1.838 -2.941,3.679 -4.412,5.517c-1.838,1.471 -3.717,2.942 -5.517,4.412c-2.208,1.471 -4.45,2.575 -6.621,3.309c-2.241,1.104 -4.412,1.837 -7.025,2.208c-2.175,0.375 -4.75,0.742 -6.954,0.742" style="fill:#ea6148;fill-rule:nonzero;"/><path d="M1802.3,514.942l-551.725,0c-20.342,0 -36.783,-16.479 -36.783,-36.784c0,-20.304 16.441,-36.783 36.783,-36.783l551.725,0c20.342,0 36.783,16.479 36.783,36.783c0,20.305 -16.445,36.784 -36.783,36.784" style="fill:#ea6148;fill-rule:nonzero;"/><path d="M1802.3,735.633l-367.817,0c-20.341,0 -36.783,-16.479 -36.783,-36.783c0,-20.304 16.442,-36.783 36.783,-36.783l367.817,0c20.342,0 36.783,16.479 36.783,36.783c0,20.304 -16.445,36.783 -36.783,36.783" style="fill:#ea6148;fill-rule:nonzero;"/><path d="M1140.23,735.633l-73.562,0c-20.342,0 -36.784,-16.479 -36.784,-36.783c0,-20.304 16.442,-36.783 36.784,-36.783l73.562,0c20.342,0 36.783,16.479 36.783,36.783c0,20.304 -16.441,36.783 -36.783,36.783" style="fill:#ea6148;fill-rule:nonzero;"/><path d="M1618.39,294.254l-551.725,0c-20.342,0 -36.784,-16.479 -36.784,-36.783c0,-20.304 16.442,-36.784 36.784,-36.784l551.725,0c20.341,0 36.783,16.48 36.783,36.784c0,20.304 -16.446,36.783 -36.783,36.783" style="fill:#ea6148;fill-rule:nonzero;"/><path d="M1802.3,294.254c-2.242,0 -4.783,-0.366 -6.987,-0.737c-2.575,-0.367 -4.784,-1.105 -6.988,-2.209c-2.208,-0.737 -4.412,-1.837 -6.658,-3.308c-1.804,-1.471 -3.642,-2.942 -5.479,-4.413c-6.659,-6.987 -10.667,-16.549 -10.667,-26.116c0,-9.563 4.008,-19.125 10.667,-26.117l5.479,-4.412c2.245,-1.471 4.45,-2.575 6.658,-3.309c2.208,-1.104 4.413,-1.837 6.988,-2.208c11.77,-2.575 24.608,1.471 33.104,9.929c1.471,1.838 2.941,3.679 4.412,5.883c1.471,1.838 2.538,4.046 3.309,6.255c1.104,2.208 1.837,4.412 2.17,6.987c0.405,2.208 0.771,4.784 0.771,6.988c0,2.204 -0.366,4.783 -0.771,7.358c-0.329,2.208 -1.066,4.412 -2.17,6.621c-0.771,2.208 -1.838,4.412 -3.309,6.621c-1.471,1.837 -2.941,3.679 -4.412,5.516c-1.838,1.471 -3.717,2.942 -5.517,4.413c-2.208,1.471 -4.45,2.575 -6.621,3.308c-2.241,1.104 -4.412,1.838 -7.025,2.208c-2.175,0.371 -4.75,0.742 -6.954,0.742" style="fill:#ea6148;fill-rule:nonzero;"/><path d="M1103.45,514.942c-9.563,0 -19.163,-4.046 -26.117,-10.667c-3.308,-3.679 -5.883,-7.725 -7.725,-12.137c-1.841,-4.413 -2.941,-9.196 -2.941,-13.976c0,-4.783 1.104,-9.562 2.941,-13.974c1.838,-4.413 4.413,-8.459 7.725,-12.138c8.459,-8.458 21.334,-12.137 33.067,-9.929c2.612,0.366 4.783,1.104 7.025,2.208c2.171,0.738 4.412,1.838 6.254,3.308c2.171,1.471 4.046,2.942 5.517,4.413c3.679,3.679 6.254,7.725 8.091,12.137c1.838,4.413 2.942,9.196 2.942,13.975c0,4.784 -1.104,9.563 -2.942,13.975c-1.837,4.413 -4.412,8.459 -8.091,12.138c-1.471,1.471 -3.346,2.942 -5.517,4.412c-1.837,1.471 -4.083,2.575 -6.254,3.309c-2.242,1.104 -4.413,1.837 -7.025,2.208c-2.171,0.371 -4.746,0.738 -6.95,0.738" style="fill:#ea6148;fill-rule:nonzero;"/><path d="M1287.36,735.633c-9.966,0 -19.162,-4.046 -26.116,-10.666c-6.659,-6.988 -10.667,-16.55 -10.667,-26.117c0,-9.563 4.008,-19.125 10.667,-26.117c13.608,-13.608 38.621,-13.608 52.229,0c6.621,6.988 10.667,16.55 10.667,26.117c0,2.575 -0.367,4.783 -0.771,7.358c-0.329,2.209 -1.067,4.413 -2.171,6.621c-0.771,2.209 -1.838,4.413 -3.308,6.621c-1.471,1.838 -2.942,3.679 -4.413,5.517c-6.992,6.62 -16.187,10.666 -26.117,10.666" style="fill:#ea6148;fill-rule:nonzero;"/></g><path d="M331.033,735.633l514.942,0l0,-514.941l-514.942,0l0,514.941Z" style="fill:#45a8e1;fill-rule:nonzero;"/></g></svg>