<?xml version="1.0" encoding="UTF-8" standalone="no"?>
<!DOCTYPE svg PUBLIC "-//W3C//DTD SVG 1.1//EN" "http://www.w3.org/Graphics/SVG/1.1/DTD/svg11.dtd">
<svg width="100%" height="100%" viewBox="0 0 1623 317" version="1.1" xmlns="http://www.w3.org/2000/svg" xmlns:xlink="http://www.w3.org/1999/xlink" xml:space="preserve" xmlns:serif="http://www.serif.com/" style="fill-rule:evenodd;clip-rule:evenodd;stroke-linecap:round;stroke-linejoin:round;stroke-miterlimit:1.5;">
    <g transform="matrix(1,0,0,1,-121.32,-978.339)">
        <g transform="matrix(0.721336,0,0,1,79.1282,-9.13712)">
            <g transform="matrix(0.865567,0,0,0.692454,177.053,574.223)">
                <g transform="matrix(1.60163,-0,-0,1.44414,-136.976,596.796)">
                    <path d="M258.011,228.533L233.011,241.033L258.011,253.533C251.761,247.283 251.761,234.783 258.011,228.533Z"/>
                    <path d="M443.991,228.533L468.991,241.033L443.991,253.533C450.241,247.283 450.241,234.783 443.991,228.533Z"/>
                    <path d="M253.011,241.033L448.991,241.033" style="fill:none;stroke:black;stroke-width:4.17px;"/>
                </g>
            </g>
            <g transform="matrix(0.692454,0,0,0.692454,219.57,372.381)">
                <g transform="matrix(1.25,0,0,1,-59.0551,23.622)">
                    <path d="M236.22,1039.37L330.709,1039.37" style="fill:none;stroke:rgb(255,1,1);stroke-width:37.92px;stroke-linecap:butt;"/>
                </g>
                <g transform="matrix(1.25,0,0,1,-59.0551,23.622)">
                    <path d="M425.197,1039.37L519.685,1039.37" style="fill:none;stroke:rgb(255,1,1);stroke-width:37.92px;stroke-linecap:butt;"/>
                </g>
                <g transform="matrix(1.25,0,0,1,-59.0551,23.622)">
                    <path d="M614.173,1039.37L708.661,1039.37" style="fill:none;stroke:rgb(255,1,1);stroke-width:37.92px;stroke-linecap:butt;"/>
                </g>
                <g transform="matrix(1.25,0,0,1,-59.0551,23.622)">
                    <path d="M803.15,1039.37L897.638,1039.37" style="fill:none;stroke:rgb(255,1,1);stroke-width:37.92px;stroke-linecap:butt;"/>
                </g>
                <g transform="matrix(1.25,0,0,1,885.827,23.622)">
                    <path d="M236.22,1039.37L330.709,1039.37" style="fill:none;stroke:rgb(255,1,1);stroke-width:37.92px;stroke-linecap:butt;"/>
                </g>
                <g transform="matrix(1.25,0,0,1,1358.27,23.622)">
                    <path d="M236.22,1039.37L330.709,1039.37" style="fill:none;stroke:rgb(255,1,1);stroke-width:37.92px;stroke-linecap:butt;"/>
                </g>
                <g transform="matrix(1.25,0,0,1,1594.49,23.622)">
                    <path d="M236.22,1039.37L330.709,1039.37" style="fill:none;stroke:rgb(255,1,1);stroke-width:37.92px;stroke-linecap:butt;"/>
                </g>
                <g transform="matrix(1.25,0,0,1,885.827,23.622)">
                    <path d="M425.197,1039.37L519.685,1039.37" style="fill:none;stroke:rgb(255,1,1);stroke-width:37.92px;stroke-linecap:butt;"/>
                </g>
            </g>
            <g transform="matrix(0.692454,0,0,0.692454,55.9985,372.381)">
                <g transform="matrix(4,0,0,1,-3307.09,0)">
                    <path d="M944.882,1181.1L1062.99,1181.1" style="fill:none;stroke:rgb(56,184,7);stroke-width:16.72px;stroke-linecap:butt;"/>
                </g>
                <g transform="matrix(4,0,0,1,-2362.2,0)">
                    <path d="M944.882,1181.1L1062.99,1181.1" style="fill:none;stroke:rgb(56,184,7);stroke-width:16.72px;stroke-linecap:butt;"/>
                </g>
            </g>
            <g transform="matrix(0.692454,0,0,0.681618,55.9985,444.234)">
                <g transform="matrix(1,0,0,0.75,236.22,206.693)">
                    <path d="M236.22,1299.21L236.22,826.772" style="fill:none;stroke:black;stroke-width:12.37px;stroke-dasharray:24.73,24.73,0,0;"/>
                </g>
                <g transform="matrix(1,0,0,0.75,708.661,206.693)">
                    <path d="M236.22,1299.21L236.22,826.772" style="fill:none;stroke:black;stroke-width:12.37px;stroke-dasharray:24.73,24.73,0,0;"/>
                </g>
                <g transform="matrix(1,0,0,0.75,1181.1,206.693)">
                    <path d="M236.22,1299.21L236.22,826.772" style="fill:none;stroke:black;stroke-width:12.37px;stroke-dasharray:24.73,24.73,0,0;"/>
                </g>
                <g transform="matrix(1,0,0,0.75,1653.54,206.693)">
                    <path d="M236.22,1299.21L236.22,826.772" style="fill:none;stroke:black;stroke-width:12.37px;stroke-dasharray:24.73,24.73,0,0;"/>
                </g>
                <g transform="matrix(1,0,0,0.75,2125.98,206.693)">
                    <path d="M236.22,1299.21L236.22,826.772" style="fill:none;stroke:black;stroke-width:12.37px;stroke-dasharray:24.73,24.73,0,0;"/>
                </g>
                <g transform="matrix(1,0,0,0.75,2598.43,206.693)">
                    <path d="M236.22,1299.21L236.22,826.772" style="fill:none;stroke:black;stroke-width:12.37px;stroke-dasharray:24.73,24.73,0,0;"/>
                </g>
            </g>
            <g transform="matrix(1.38632,0,0,1,-6.45665,480.516)">
                <text x="309.392px" y="822.838px" style="font-family:'AvenirNext-Regular', 'Avenir Next', sans-serif;font-size:45.833px;">ca.<tspan x="367.325px 378.783px " y="822.838px 822.838px "> 1</tspan> sec</text>
            </g>
            <g transform="matrix(1.38632,0,0,1,1779.25,339.675)">
                <text x="285.741px" y="828.572px" style="font-family:'AvenirNext-Regular', 'Avenir Next', sans-serif;font-size:50px;">usw<tspan x="372.491px " y="828.572px ">.</tspan></text>
            </g>
            <g transform="matrix(1.38632,0,0,1,1303.45,339.675)">
                <text x="331.825px" y="828.572px" style="font-family:'AvenirNext-Italic', 'Avenir Next', sans-serif;font-style:italic;font-size:50px;">P<tspan x="357.825px 384.525px " y="828.572px 828.572px ">au</tspan>se</text>
            </g>
            <g transform="matrix(1.38632,0,0,1,-582.597,270.149)">
                <text x="710.466px" y="759.678px" style="font-family:'AvenirNext-Regular', 'Avenir Next', sans-serif;font-size:58.333px;">1</text>
            </g>
            <g transform="matrix(1.38632,0,0,1,-255.454,270.149)">
                <text x="710.466px" y="759.678px" style="font-family:'AvenirNext-Regular', 'Avenir Next', sans-serif;font-size:58.333px;">2</text>
            </g>
            <g transform="matrix(1.38632,0,0,1,71.6899,270.149)">
                <text x="710.466px" y="759.678px" style="font-family:'AvenirNext-Regular', 'Avenir Next', sans-serif;font-size:58.333px;">3</text>
            </g>
            <g transform="matrix(1.38632,0,0,1,398.833,270.149)">
                <text x="710.466px" y="759.678px" style="font-family:'AvenirNext-Regular', 'Avenir Next', sans-serif;font-size:58.333px;">4</text>
            </g>
            <g transform="matrix(1.38632,0,0,1,725.977,270.149)">
                <text x="710.466px" y="759.678px" style="font-family:'AvenirNext-Regular', 'Avenir Next', sans-serif;font-size:58.333px;">5</text>
            </g>
            <g transform="matrix(1.38632,0,0,1,1057.61,270.149)">
                <text x="710.466px" y="759.678px" style="font-family:'AvenirNext-Regular', 'Avenir Next', sans-serif;font-size:58.333px;">1</text>
            </g>
            <g transform="matrix(0.865567,0,0,0.692454,1814.39,388.738)">
                <path d="M236.22,1039.37L330.709,1039.37" style="fill:none;stroke:rgb(255,1,1);stroke-width:37.92px;stroke-linecap:butt;"/>
            </g>
            <g transform="matrix(1.17687,0,0,0.692454,906.852,372.381)">
                <path d="M944.882,1181.1L1062.99,1181.1" style="fill:none;stroke:rgb(56,184,7);stroke-width:32.27px;stroke-linecap:butt;"/>
            </g>
        </g>
        <g transform="matrix(1,0,0,1,-163.24,301.61)">
            <text x="279.86px" y="816.607px" style="font-family:'AvenirNext-Regular', 'Avenir Next', sans-serif;font-size:50px;">LED r<tspan x="402.41px 432.96px " y="816.607px 816.607px ">ot</tspan></text>
        </g>
        <g transform="matrix(1,0,0,1,-163.24,379.786)">
            <text x="279.86px" y="820.216px" style="font-family:'AvenirNext-Regular', 'Avenir Next', sans-serif;font-size:50px;">LED grün</text>
        </g>
    </g>
</svg>
