<?xml version="1.0" encoding="UTF-8"?>
<!DOCTYPE svg PUBLIC "-//W3C//DTD SVG 1.1//EN" "http://www.w3.org/Graphics/SVG/1.1/DTD/svg11.dtd">
<svg version="1.1" xmlns="http://www.w3.org/2000/svg" xmlns:xlink="http://www.w3.org/1999/xlink" x="0" y="0" width="276.8" height="162.049" viewBox="0, 0, 276.8, 162.049">
  <defs>
    <clipPath id="Clip_1">
      <path d="M164.958,833.017 L331.772,833.017 L331.772,975.182 L164.958,975.182 z M325.772,841.017 L170.958,841.017 L170.958,967.182 L325.772,967.182 L325.772,841.017 z"/>
    </clipPath>
    <filter id="Shadow_2">
      <feGaussianBlur in="SourceAlpha" stdDeviation="2.5"/>
      <feOffset dx="0" dy="2" result="offsetblur"/>
      <feFlood flood-color="#000000"/>
      <feComposite in2="offsetblur" operator="in"/>
    </filter>
    <clipPath id="Clip_3">
      <path d="M67.4,873.041 L170.507,873.041 L170.507,927.993 L67.4,927.993 z M123.132,881.041 C119.799,881.398 121.136,880.984 119.012,881.851 C114.046,884.568 112.662,893.014 115.636,899.161 C115.798,899.496 117.06,901.765 117.457,902.547 C118.308,904.22 118.895,905.7 119.196,907.086 C119.788,909.807 119.203,911.832 117.119,913.18 C113.21,915.71 109.532,915.845 105.729,913.973 C102.696,912.479 99.93,910.023 95.87,905.599 C95.726,905.443 93.09,902.54 92.342,901.74 C91.023,900.328 89.955,899.268 88.938,898.39 C86.37,896.169 84.171,895.172 82.002,895.544 C74.557,896.825 71.251,904.099 74.875,909.458 C75.112,909.809 75.356,910.142 75.609,910.461 C76.448,911.521 76.892,911.952 78.63,913.514 C80.273,914.991 81.073,915.925 81.877,917.532 C82.062,917.903 82.513,918.053 82.883,917.868 C83.254,917.683 83.404,917.232 83.218,916.862 C82.315,915.054 81.403,913.99 79.632,912.398 C77.96,910.896 77.552,910.499 76.785,909.53 C76.556,909.24 76.334,908.937 76.118,908.618 C73.115,904.177 75.867,898.122 82.256,897.023 C83.877,896.744 85.696,897.569 87.957,899.524 C88.926,900.362 89.961,901.388 91.247,902.764 C91.986,903.555 94.615,906.45 94.765,906.614 C98.945,911.168 101.816,913.718 105.067,915.319 C109.332,917.419 113.571,917.263 117.933,914.44 C120.606,912.711 121.375,910.046 120.662,906.767 C120.328,905.235 119.698,903.645 118.795,901.868 C118.377,901.046 117.125,898.795 116.986,898.508 C114.326,893.01 115.565,885.446 119.732,883.167 C124.924,880.327 137.937,887.237 141.141,894.052 C142.079,896.046 142.554,897.915 143.368,902.17 C143.451,902.604 143.49,902.806 143.535,903.04 C144.675,908.945 145.713,911.957 148.105,914.684 C151.22,918.237 156.197,920.039 163.762,919.992 C164.176,919.989 164.51,919.651 164.507,919.237 C164.505,918.823 164.167,918.489 163.753,918.492 C156.59,918.536 152.03,916.885 149.233,913.695 C147.072,911.231 146.099,908.409 145.008,902.755 C144.963,902.523 144.924,902.322 144.841,901.888 C144.003,897.508 143.508,895.562 142.499,893.414 C138.612,886.408 130.924,882.05 123.132,881.041 z"/>
    </clipPath>
    <filter id="Shadow_4">
      <feGaussianBlur in="SourceAlpha" stdDeviation="2.5"/>
      <feOffset dx="0" dy="2" result="offsetblur"/>
      <feFlood flood-color="#000000"/>
      <feComposite in2="offsetblur" operator="in"/>
    </filter>
    <clipPath id="Clip_5">
      <path d="M66.662,938.923 L80.162,938.923 L80.162,982.147 L66.662,982.147 z M74.162,946.923 L72.662,946.923 L72.662,974.147 L74.162,974.147 L74.162,946.923 z"/>
    </clipPath>
    <filter id="Shadow_6">
      <feGaussianBlur in="SourceAlpha" stdDeviation="2.5"/>
      <feOffset dx="0" dy="2" result="offsetblur"/>
      <feFlood flood-color="#000000"/>
      <feComposite in2="offsetblur" operator="in"/>
    </filter>
    <clipPath id="Clip_7">
      <path d="M53.722,947.68 L79.644,947.68 L79.644,972.958 L53.722,972.958 z M73.644,955.68 L59.722,955.68 L59.722,964.958 L73.644,964.958 L73.644,955.68 z"/>
    </clipPath>
    <filter id="Shadow_8">
      <feGaussianBlur in="SourceAlpha" stdDeviation="2.5"/>
      <feOffset dx="0" dy="2" result="offsetblur"/>
      <feFlood flood-color="#000000"/>
      <feComposite in2="offsetblur" operator="in"/>
    </filter>
  </defs>
  <g id="Ebene_1" transform="translate(-53.972, -835.017)">
    <g>
      <path d="M325.772,841.017 L325.772,967.182 L170.958,967.182 L170.958,841.017 L325.772,841.017 z" clip-path="url(#Clip_1)" filter="url(#Shadow_2)" fill="rgba(0,0,0,0.75)"/>
      <path d="M171.458,841.517 L325.272,841.517 L325.272,966.682 L171.458,966.682 L171.458,841.517 z" fill="#FFFFFF"/>
      <path d="M171.458,841.517 L325.272,841.517 L325.272,966.682 L171.458,966.682 L171.458,841.517 z" fill-opacity="0" stroke="#000000" stroke-width="1"/>
    </g>
    <g>
      <path d="M82.548,923.197 L82.548,991.566" fill-opacity="0" stroke="#000000" stroke-width="1"/>
      <path d="M80.426,918.076 C81.598,916.904 83.497,916.904 84.669,918.076 C85.841,919.247 85.841,921.147 84.669,922.318 C83.497,923.49 81.598,923.49 80.426,922.318 C79.255,921.147 79.255,919.247 80.426,918.076" fill-opacity="0" stroke="#000000" stroke-width="1" stroke-opacity="1"/>
    </g>
    <g>
      <path d="M160.964,919.367 L288.325,919.367" fill="#FFFFFF"/>
      <g>
        <path d="M166.964,919.367 L282.325,919.367" fill-opacity="0" stroke="#000000" stroke-width="1"/>
        <path d="M161.843,921.489 C160.671,920.317 160.671,918.417 161.843,917.246 C163.014,916.074 164.914,916.074 166.085,917.246 C167.257,918.417 167.257,920.317 166.085,921.489 C164.914,922.66 163.014,922.66 161.843,921.489" fill="#000000" fill-opacity="1" stroke="#000000" stroke-width="1" stroke-opacity="1"/>
        <path d="M282.325,919.367 L280.325,922.367 L288.325,919.367 L280.325,916.367 z" fill="#000000" fill-opacity="1" stroke="#000000" stroke-width="1" stroke-opacity="1"/>
      </g>
    </g>
    <path d="M76.604,991.644 L88.211,991.644" fill-opacity="0" stroke="#000000" stroke-width="1"/>
    <text transform="matrix(1, 0, 0, 1, 110.049, 987.7)">
      <tspan x="-13.212" y="2" font-family="AmericanTypewriter" font-size="12" fill="#000000">GND</tspan>
    </text>
    <g>
      <path d="M181.25,908.484 L217.955,908.484 L217.955,931.175 L181.25,931.175 L181.25,908.484 z" fill="#FFFFFF"/>
      <text transform="matrix(1, 0, 0, 1, 199.602, 919.83)">
        <tspan x="-14.826" y="3.5" font-family="AmericanTypewriter" font-size="12" fill="#000000">Pin 3</tspan>
      </text>
    </g>
    <g>
      <path d="M231.455,856.156 L231.455,916.466" fill-opacity="0" stroke="#000000" stroke-width="1"/>
      <path d="M229.334,851.034 C230.505,849.863 232.405,849.863 233.576,851.034 C234.748,852.206 234.748,854.106 233.576,855.277 C232.405,856.449 230.505,856.449 229.334,855.277 C228.162,854.106 228.162,852.206 229.334,851.034" fill-opacity="0" stroke="#000000" stroke-width="1" stroke-opacity="1"/>
      <path d="M233.576,921.587 C232.405,922.759 230.505,922.759 229.334,921.587 C228.162,920.416 228.162,918.516 229.334,917.345 C230.505,916.173 232.405,916.173 233.576,917.345 C234.748,918.516 234.748,920.416 233.576,921.587" fill="#000000" fill-opacity="1" stroke="#000000" stroke-width="1" stroke-opacity="1"/>
    </g>
    <g>
      <path d="M224.064,869.977 L238.758,869.977 L238.758,898.47 L224.064,898.47 L224.064,869.977 z" fill="#FF5555"/>
      <path d="M224.064,869.977 L238.758,869.977 L238.758,898.47 L224.064,898.47 L224.064,869.977 z" fill-opacity="0" stroke="#D11D00" stroke-width="1.5"/>
    </g>
    <text transform="matrix(1, 0, 0, 1, 210.804, 853.721)">
      <tspan x="-10.488" y="3.5" font-family="AmericanTypewriter" font-size="12" fill="#000000">Vcc</tspan>
    </text>
    <text transform="matrix(1, 0, 0, 1, 279.594, 887.216)">
      <tspan x="-34.826" y="-14.134" font-family="AvenirNext-Regular" font-size="12" fill="#000000">interner</tspan>
      <tspan x="-34.826" y="1.866" font-family="AvenirNext-Regular" font-size="12" fill="#000000">Pullup</tspan>
      <tspan x="-34.826" y="17.866" font-family="AvenirNext-Regular" font-size="12" fill="#000000">Widerstand</tspan>
    </text>
    <g>
      <path d="M123.132,881.041 C130.924,882.05 138.612,886.408 142.499,893.414 C143.508,895.562 144.003,897.508 144.841,901.888 C144.924,902.322 144.963,902.523 145.008,902.755 C146.099,908.409 147.072,911.231 149.233,913.695 C152.03,916.885 156.59,918.536 163.753,918.492 C164.167,918.489 164.505,918.823 164.507,919.237 C164.51,919.651 164.176,919.989 163.762,919.992 C156.197,920.039 151.22,918.237 148.105,914.684 C145.713,911.957 144.675,908.945 143.535,903.04 C143.49,902.806 143.451,902.604 143.368,902.17 C142.554,897.915 142.079,896.046 141.141,894.052 C137.937,887.237 124.924,880.327 119.732,883.167 C115.565,885.446 114.326,893.01 116.986,898.508 C117.125,898.795 118.377,901.046 118.795,901.868 C119.698,903.645 120.328,905.235 120.662,906.767 C121.375,910.046 120.606,912.711 117.933,914.44 C113.571,917.263 109.332,917.419 105.067,915.319 C101.816,913.718 98.945,911.168 94.765,906.614 C94.615,906.45 91.986,903.555 91.247,902.764 C89.961,901.388 88.926,900.362 87.957,899.524 C85.696,897.569 83.877,896.744 82.256,897.023 C75.867,898.122 73.115,904.177 76.118,908.618 C76.334,908.937 76.556,909.24 76.785,909.53 C77.552,910.499 77.96,910.896 79.632,912.398 C81.403,913.99 82.315,915.054 83.218,916.862 C83.404,917.232 83.254,917.683 82.883,917.868 C82.513,918.053 82.062,917.903 81.877,917.532 C81.073,915.925 80.273,914.991 78.63,913.514 C76.892,911.952 76.448,911.521 75.609,910.461 C75.356,910.142 75.112,909.809 74.875,909.458 C71.251,904.099 74.557,896.825 82.002,895.544 C84.171,895.172 86.37,896.169 88.938,898.39 C89.955,899.268 91.023,900.328 92.342,901.74 C93.09,902.54 95.726,905.443 95.87,905.599 C99.93,910.023 102.696,912.479 105.729,913.973 C109.532,915.845 113.21,915.71 117.119,913.18 C119.203,911.832 119.788,909.807 119.196,907.086 C118.895,905.7 118.308,904.22 117.457,902.547 C117.06,901.765 115.798,899.496 115.636,899.161 C112.662,893.014 114.046,884.568 119.012,881.851 C121.136,880.984 119.799,881.398 123.132,881.041 z" clip-path="url(#Clip_3)" filter="url(#Shadow_4)" fill="rgba(0,0,0,0.75)"/>
      <path d="M163.757,919.242 C141.707,919.379 146.364,903.398 141.82,893.733 C138.67,887.034 125.328,879.251 119.372,882.509 C114.594,885.123 113.638,893.31 116.311,898.835 C117.565,901.427 123.535,909.922 117.526,913.81 C101.651,924.082 91.469,894.677 82.129,896.284 C74.759,897.552 72.433,904.507 75.497,909.038 C78.013,912.76 80.594,913.289 82.548,917.197" fill-opacity="0" stroke="#000000" stroke-width="1.5" stroke-linecap="round" stroke-linejoin="round"/>
    </g>
    <g>
      <path d="M77.053,949.88 L88.44,949.88 L88.44,971.055 L77.053,971.055 L77.053,949.88 z" fill="#FFFFFF"/>
      <g>
        <path d="M82.729,952.973 C81.299,952.973 80.141,952.006 80.141,950.812 C80.141,949.619 81.299,948.652 82.729,948.652 C84.158,948.652 85.317,949.619 85.317,950.812 C85.317,952.006 84.158,952.973 82.729,952.973 z" fill="#FFFFFF"/>
        <path d="M82.729,952.973 C81.299,952.973 80.141,952.006 80.141,950.812 C80.141,949.619 81.299,948.652 82.729,948.652 C84.158,948.652 85.317,949.619 85.317,950.812 C85.317,952.006 84.158,952.973 82.729,952.973 z" fill-opacity="0" stroke="#000000" stroke-width="1"/>
      </g>
      <g>
        <path d="M83.176,973.657 C81.746,973.657 80.588,972.689 80.588,971.496 C80.588,970.303 81.746,969.335 83.176,969.335 C84.605,969.335 85.764,970.303 85.764,971.496 C85.764,972.689 84.605,973.657 83.176,973.657 z" fill="#FFFFFF"/>
        <path d="M83.176,973.657 C81.746,973.657 80.588,972.689 80.588,971.496 C80.588,970.303 81.746,969.335 83.176,969.335 C84.605,969.335 85.764,970.303 85.764,971.496 C85.764,972.689 84.605,973.657 83.176,973.657 z" fill-opacity="0" stroke="#000000" stroke-width="1"/>
      </g>
      <g>
        <g>
          <path d="M74.162,946.923 L74.162,974.147 L72.662,974.147 L72.662,946.923 L74.162,946.923 z" clip-path="url(#Clip_5)" filter="url(#Shadow_6)" fill="rgba(0,0,0,0.75)"/>
          <path d="M73.412,946.923 L73.412,974.148" fill-opacity="0" stroke="#000000" stroke-width="1.5"/>
        </g>
        <g>
          <path d="M73.644,955.68 L73.644,964.958 L59.722,964.958 L59.722,955.68 L73.644,955.68 z" clip-path="url(#Clip_7)" filter="url(#Shadow_8)" fill="rgba(0,0,0,0.75)"/>
          <path d="M60.472,956.43 L72.894,956.43 L72.894,964.208 L60.472,964.208 L60.472,956.43 z" fill="#FFFFFF"/>
          <path d="M60.472,956.43 L72.894,956.43 L72.894,964.208 L60.472,964.208 L60.472,956.43 z" fill-opacity="0" stroke="#000000" stroke-width="1.5"/>
        </g>
      </g>
    </g>
    <path d="M291.73,957.726 L290.14,962.914 L291.391,962.914 L291.678,961.947 L293.228,961.947 L293.508,962.914 L294.868,962.914 L293.278,957.726 L291.73,957.726 z M291.992,960.904 L292.464,959.29 L292.931,960.904 L291.992,960.904 z M297.856,960.547 C297.838,960.528 297.818,960.509 297.798,960.49 C297.838,960.476 297.876,960.46 297.913,960.443 C298.06,960.376 298.194,960.282 298.307,960.167 C298.421,960.049 298.509,959.909 298.567,959.756 C298.628,959.6 298.659,959.421 298.659,959.224 C298.659,958.953 298.61,958.718 298.513,958.526 C298.417,958.334 298.273,958.17 298.094,958.051 C297.919,957.933 297.706,957.848 297.461,957.799 C297.225,957.751 296.959,957.726 296.672,957.726 L295.049,957.726 L295.049,962.914 L296.294,962.914 L296.294,960.887 L296.331,960.887 C296.467,960.887 296.58,960.917 296.677,960.979 C296.774,961.04 296.848,961.13 296.904,961.255 L297.656,962.914 L299.104,962.914 L298.19,961.063 C298.079,960.839 297.97,960.67 297.856,960.547 z M297.315,959.552 C297.279,959.621 297.226,959.68 297.162,959.724 C297.092,959.773 297.004,959.811 296.902,959.836 C296.794,959.863 296.671,959.877 296.536,959.877 L296.294,959.877 L296.294,958.785 L296.567,958.785 C296.852,958.785 297.064,958.83 297.196,958.918 C297.312,958.995 297.368,959.124 297.368,959.314 C297.368,959.406 297.35,959.484 297.315,959.552 z M302.749,958.342 C302.54,958.132 302.275,957.974 301.964,957.874 C301.66,957.776 301.303,957.726 300.902,957.726 L299.256,957.726 L299.256,962.914 L300.688,962.914 C301.151,962.914 301.555,962.851 301.89,962.727 C302.23,962.601 302.515,962.418 302.735,962.184 C302.954,961.951 303.118,961.665 303.221,961.336 C303.322,961.014 303.373,960.651 303.373,960.258 C303.373,959.83 303.322,959.455 303.221,959.142 C303.117,958.822 302.959,958.553 302.749,958.342 z M301.732,961.495 C301.516,961.735 301.202,961.852 300.774,961.852 L300.5,961.852 L300.5,958.789 L300.84,958.789 C301.079,958.789 301.281,958.823 301.438,958.89 C301.59,958.954 301.708,959.046 301.798,959.169 C301.89,959.295 301.957,959.454 301.996,959.64 C302.038,959.837 302.059,960.065 302.059,960.318 C302.059,960.858 301.949,961.254 301.732,961.495 z M306.37,961.026 C306.37,961.205 306.354,961.358 306.321,961.48 C306.29,961.593 306.246,961.686 306.187,961.755 C306.132,961.822 306.06,961.872 305.978,961.899 C305.886,961.932 305.768,961.949 305.628,961.949 C305.479,961.949 305.357,961.93 305.263,961.892 C305.178,961.859 305.102,961.804 305.043,961.734 C304.985,961.663 304.942,961.574 304.918,961.469 C304.891,961.353 304.877,961.217 304.877,961.064 L304.877,957.726 L303.633,957.726 L303.633,961.12 C303.633,961.401 303.668,961.658 303.736,961.885 C303.807,962.121 303.924,962.325 304.085,962.491 C304.245,962.657 304.455,962.785 304.708,962.872 C304.954,962.957 305.252,963 305.593,963 C305.897,963 306.177,962.957 306.423,962.872 C306.675,962.786 306.892,962.655 307.069,962.483 C307.245,962.311 307.382,962.094 307.476,961.839 C307.568,961.588 307.614,961.295 307.614,960.966 L307.614,957.726 L306.37,957.726 L306.37,961.026 M308.251,958.77 L309.367,958.77 L309.367,961.863 L308.251,961.863 L308.251,962.914 L311.744,962.914 L311.744,961.863 L310.627,961.863 L310.627,958.77 L311.744,958.77 L311.744,957.726 L308.251,957.726 L308.251,958.77 M315.206,960.682 L313.815,957.726 L312.407,957.726 L312.407,962.914 L313.566,962.914 L313.566,959.902 L314.964,962.914 L316.365,962.914 L316.365,957.726 L315.206,957.726 L315.206,960.682 M320.393,958.34 C320.03,957.878 319.485,957.644 318.775,957.644 C318.471,957.644 318.181,957.698 317.913,957.804 C317.641,957.912 317.401,958.079 317.199,958.303 C316.999,958.524 316.84,958.809 316.727,959.148 C316.616,959.484 316.559,959.886 316.559,960.345 C316.559,961.191 316.739,961.849 317.094,962.302 C317.457,962.765 318.002,963 318.712,963 C319.017,963 319.307,962.946 319.575,962.84 C319.846,962.732 320.086,962.564 320.288,962.342 C320.488,962.12 320.647,961.836 320.76,961.496 C320.871,961.16 320.928,960.758 320.928,960.299 C320.928,959.451 320.748,958.791 320.393,958.34 z M319.574,961.036 C319.538,961.227 319.483,961.388 319.409,961.515 C319.339,961.636 319.252,961.725 319.143,961.786 C319.035,961.847 318.901,961.878 318.744,961.878 C318.433,961.878 318.216,961.762 318.081,961.524 C317.933,961.263 317.858,960.851 317.858,960.299 C317.858,960.041 317.876,959.808 317.913,959.609 C317.949,959.418 318.005,959.256 318.08,959.129 C318.151,959.008 318.238,958.919 318.346,958.858 C318.453,958.797 318.586,958.766 318.744,958.766 C319.057,958.766 319.274,958.882 319.408,959.119 C319.555,959.381 319.63,959.793 319.63,960.345 C319.63,960.604 319.611,960.837 319.574,961.036 z M319.131,942.632 L319.352,942.632 L319.352,943.213 L319.508,943.213 L319.508,942.632 L319.731,942.632 L319.731,942.488 L319.131,942.488 L319.131,942.632 M320.275,942.488 L320.124,942.982 L319.968,942.488 L319.764,942.488 L319.764,943.213 L319.911,943.213 L319.911,942.75 L320.057,943.213 L320.192,943.213 L320.33,942.762 L320.33,943.213 L320.477,943.213 L320.477,942.488 L320.275,942.488 M313.071,956.507 C311.099,956.507 309.412,955.842 307.928,954.482 C307.011,953.642 306.255,952.613 305.56,951.543 C304.864,952.613 304.108,953.642 303.192,954.482 C301.597,955.943 299.769,956.602 297.603,956.496 C293.474,956.478 290.12,953.219 290.12,949.217 C290.12,945.203 293.492,941.937 297.637,941.937 C299.906,941.937 301.816,942.688 303.475,944.232 C304.273,944.974 304.946,945.834 305.56,946.734 C306.174,945.834 306.847,944.974 307.644,944.232 C309.304,942.688 311.214,941.937 313.482,941.937 C317.628,941.937 321,945.203 321,949.217 C321,953.219 317.646,956.478 313.516,956.496 C313.368,956.503 313.22,956.507 313.071,956.507 z M307.07,949.12 C307.893,950.454 308.691,951.696 309.664,952.588 C310.762,953.594 311.919,954.008 313.415,953.929 L313.482,953.927 C316.211,953.927 318.431,951.814 318.431,949.217 C318.431,946.62 316.211,944.507 313.482,944.507 C311.872,944.507 310.573,945.017 309.394,946.113 C308.514,946.932 307.788,947.98 307.07,949.12 z M297.637,944.507 C294.909,944.507 292.689,946.62 292.689,949.217 C292.689,951.814 294.909,953.927 297.637,953.927 L297.705,953.929 C299.201,954.008 300.358,953.594 301.456,952.588 C302.428,951.696 303.227,950.454 304.05,949.12 C303.332,947.98 302.605,946.932 301.725,946.113 C300.547,945.017 299.248,944.507 297.637,944.507 z" fill="#00979C"/>
  </g>
</svg>
