<?xml version="1.0" encoding="UTF-8"?>
<!DOCTYPE svg PUBLIC "-//W3C//DTD SVG 1.1//EN" "http://www.w3.org/Graphics/SVG/1.1/DTD/svg11.dtd">
<svg version="1.1" xmlns="http://www.w3.org/2000/svg" xmlns:xlink="http://www.w3.org/1999/xlink" x="0" y="0" width="390.969" height="188.898" viewBox="0, 0, 390.969, 188.898">
  <defs>
    <clipPath id="Clip_1">
      <path d="M119.451,407.201 L196.363,407.201 L196.363,491.077 L119.451,491.077 z M190.363,415.201 L125.451,415.201 L125.451,483.077 L190.363,483.077 L190.363,415.201 z"/>
    </clipPath>
    <filter id="Shadow_2">
      <feGaussianBlur in="SourceAlpha" stdDeviation="2.5"/>
      <feOffset dx="0" dy="2" result="offsetblur"/>
      <feFlood flood-color="#000000"/>
      <feComposite in2="offsetblur" operator="in"/>
    </filter>
    <clipPath id="Clip_3">
      <path d="M54.6,361.816 L68.1,361.816 L68.1,405.04 L54.6,405.04 z M62.1,369.816 L60.6,369.816 L60.6,397.04 L62.1,397.04 L62.1,369.816 z"/>
    </clipPath>
    <filter id="Shadow_4">
      <feGaussianBlur in="SourceAlpha" stdDeviation="2.5"/>
      <feOffset dx="0" dy="2" result="offsetblur"/>
      <feFlood flood-color="#000000"/>
      <feComposite in2="offsetblur" operator="in"/>
    </filter>
    <clipPath id="Clip_5">
      <path d="M41.66,370.573 L67.582,370.573 L67.582,395.851 L41.66,395.851 z M61.582,378.573 L47.66,378.573 L47.66,387.851 L61.582,387.851 L61.582,378.573 z"/>
    </clipPath>
    <filter id="Shadow_6">
      <feGaussianBlur in="SourceAlpha" stdDeviation="2.5"/>
      <feOffset dx="0" dy="2" result="offsetblur"/>
      <feFlood flood-color="#000000"/>
      <feComposite in2="offsetblur" operator="in"/>
    </filter>
    <clipPath id="Clip_7">
      <path d="M339.041,407.776 L415.952,407.776 L415.952,491.652 L339.041,491.652 z M409.952,415.776 L345.041,415.776 L345.041,483.652 L409.952,483.652 L409.952,415.776 z"/>
    </clipPath>
    <filter id="Shadow_8">
      <feGaussianBlur in="SourceAlpha" stdDeviation="2.5"/>
      <feOffset dx="0" dy="2" result="offsetblur"/>
      <feFlood flood-color="#000000"/>
      <feComposite in2="offsetblur" operator="in"/>
    </filter>
    <clipPath id="Clip_9">
      <path d="M269.663,455.703 L295.585,455.703 L295.585,480.981 L269.663,480.981 z M289.585,463.703 L275.663,463.703 L275.663,472.981 L289.585,472.981 L289.585,463.703 z"/>
    </clipPath>
    <filter id="Shadow_10">
      <feGaussianBlur in="SourceAlpha" stdDeviation="2.5"/>
      <feOffset dx="0" dy="2" result="offsetblur"/>
      <feFlood flood-color="#000000"/>
      <feComposite in2="offsetblur" operator="in"/>
    </filter>
  </defs>
  <g id="Ebene_1" transform="translate(-41.91, -334.789)">
    <g>
      <g>
        <g>
          <path d="M190.363,415.201 L190.363,483.077 L125.451,483.077 L125.451,415.201 L190.363,415.201 z" clip-path="url(#Clip_1)" filter="url(#Shadow_2)" fill="rgba(0,0,0,0.75)"/>
          <path d="M125.451,415.201 L190.363,415.201 L190.363,483.077 L125.451,483.077 L125.451,415.201 z" fill="#FFFFFF"/>
        </g>
        <g>
          <text transform="matrix(1, 0, 0, 1, 160.096, 433.965)">
            <tspan x="-14.826" y="3.5" font-family="AmericanTypewriter" font-size="12" fill="#000000">Pin 3</tspan>
          </text>
        </g>
        <g id="arduino-logo-svg-vector">
          <path d="M157.305,475.147 L155.716,480.335 L156.967,480.335 L157.253,479.368 L158.804,479.368 L159.083,480.335 L160.443,480.335 L158.854,475.147 L157.305,475.147 z M157.568,478.325 L158.04,476.711 L158.507,478.325 L157.568,478.325 z M163.431,477.968 C163.413,477.948 163.394,477.929 163.374,477.911 C163.413,477.897 163.451,477.881 163.489,477.864 C163.636,477.797 163.77,477.703 163.883,477.588 C163.996,477.47 164.085,477.33 164.143,477.177 C164.203,477.021 164.234,476.842 164.234,476.645 C164.234,476.374 164.185,476.139 164.089,475.947 C163.993,475.755 163.848,475.591 163.67,475.472 C163.494,475.354 163.281,475.269 163.036,475.22 C162.8,475.172 162.535,475.147 162.247,475.147 L160.625,475.147 L160.625,480.335 L161.869,480.335 L161.869,478.308 L161.906,478.308 C162.042,478.308 162.156,478.338 162.253,478.4 C162.349,478.461 162.423,478.551 162.479,478.676 L163.231,480.335 L164.679,480.335 L163.766,478.484 C163.655,478.26 163.545,478.091 163.431,477.968 z M162.89,476.973 C162.854,477.042 162.802,477.101 162.738,477.145 C162.667,477.194 162.58,477.232 162.478,477.257 C162.37,477.284 162.247,477.298 162.112,477.298 L161.869,477.298 L161.869,476.206 L162.143,476.206 C162.427,476.206 162.639,476.251 162.772,476.339 C162.887,476.416 162.943,476.545 162.943,476.735 C162.943,476.827 162.926,476.905 162.89,476.973 z M168.325,475.763 C168.115,475.553 167.851,475.395 167.539,475.295 C167.236,475.197 166.878,475.147 166.477,475.147 L164.831,475.147 L164.831,480.335 L166.264,480.335 C166.726,480.335 167.13,480.272 167.466,480.148 C167.806,480.022 168.09,479.839 168.31,479.605 C168.53,479.372 168.693,479.086 168.796,478.757 C168.897,478.434 168.948,478.072 168.948,477.679 C168.948,477.251 168.897,476.876 168.796,476.563 C168.693,476.243 168.534,475.974 168.325,475.763 z M167.307,478.916 C167.091,479.156 166.778,479.273 166.349,479.273 L166.076,479.273 L166.076,476.21 L166.415,476.21 C166.655,476.21 166.856,476.243 167.013,476.31 C167.166,476.375 167.284,476.467 167.374,476.59 C167.466,476.716 167.532,476.875 167.572,477.061 C167.613,477.258 167.635,477.486 167.635,477.739 C167.635,478.279 167.524,478.675 167.307,478.916 z M171.946,478.447 C171.946,478.626 171.929,478.779 171.896,478.901 C171.866,479.014 171.821,479.107 171.763,479.176 C171.707,479.243 171.635,479.292 171.554,479.32 C171.462,479.353 171.344,479.37 171.203,479.37 C171.055,479.37 170.932,479.351 170.839,479.313 C170.753,479.28 170.678,479.225 170.619,479.155 C170.56,479.084 170.518,478.995 170.494,478.89 C170.466,478.774 170.453,478.638 170.453,478.485 L170.453,475.147 L169.209,475.147 L169.209,478.541 C169.209,478.821 169.243,479.079 169.312,479.306 C169.383,479.542 169.5,479.746 169.66,479.912 C169.82,480.078 170.03,480.206 170.284,480.293 C170.53,480.378 170.828,480.421 171.168,480.421 C171.473,480.421 171.752,480.378 171.999,480.293 C172.25,480.207 172.468,480.076 172.644,479.904 C172.821,479.732 172.958,479.515 173.051,479.26 C173.143,479.009 173.19,478.716 173.19,478.387 L173.19,475.147 L171.946,475.147 L171.946,478.447 M173.826,476.191 L174.943,476.191 L174.943,479.284 L173.826,479.284 L173.826,480.335 L177.319,480.335 L177.319,479.284 L176.202,479.284 L176.202,476.191 L177.319,476.191 L177.319,475.147 L173.826,475.147 L173.826,476.191 M180.781,478.103 L179.391,475.147 L177.982,475.147 L177.982,480.335 L179.141,480.335 L179.141,477.323 L180.539,480.335 L181.94,480.335 L181.94,475.147 L180.781,475.147 L180.781,478.103 M185.968,475.761 C185.605,475.299 185.061,475.065 184.35,475.065 C184.046,475.065 183.756,475.119 183.488,475.225 C183.217,475.333 182.977,475.5 182.775,475.724 C182.575,475.945 182.416,476.23 182.303,476.569 C182.191,476.905 182.134,477.307 182.134,477.766 C182.134,478.612 182.315,479.27 182.67,479.723 C183.033,480.186 183.577,480.421 184.288,480.421 C184.592,480.421 184.882,480.367 185.15,480.261 C185.422,480.153 185.662,479.985 185.863,479.763 C186.063,479.541 186.222,479.257 186.335,478.917 C186.447,478.581 186.504,478.179 186.504,477.72 C186.504,476.872 186.323,476.212 185.968,475.761 z M185.15,478.457 C185.114,478.648 185.058,478.809 184.984,478.936 C184.914,479.057 184.827,479.146 184.719,479.207 C184.611,479.268 184.476,479.299 184.319,479.299 C184.008,479.299 183.791,479.183 183.656,478.945 C183.508,478.684 183.433,478.272 183.433,477.72 C183.433,477.462 183.452,477.229 183.489,477.03 C183.524,476.839 183.58,476.677 183.655,476.55 C183.727,476.429 183.814,476.34 183.922,476.279 C184.028,476.218 184.162,476.187 184.319,476.187 C184.632,476.187 184.85,476.303 184.983,476.54 C185.131,476.802 185.205,477.214 185.205,477.766 C185.205,478.025 185.186,478.258 185.15,478.457 z M184.706,460.053 L184.927,460.053 L184.927,460.634 L185.084,460.634 L185.084,460.053 L185.306,460.053 L185.306,459.909 L184.706,459.909 L184.706,460.053 M185.851,459.909 L185.7,460.403 L185.544,459.909 L185.339,459.909 L185.339,460.634 L185.487,460.634 L185.487,460.171 L185.633,460.634 L185.767,460.634 L185.906,460.183 L185.906,460.634 L186.052,460.634 L186.052,459.909 L185.851,459.909 M178.646,473.928 C176.674,473.928 174.988,473.263 173.503,471.903 C172.587,471.063 171.831,470.034 171.135,468.964 C170.44,470.034 169.684,471.063 168.767,471.903 C167.172,473.364 165.344,474.023 163.179,473.917 C159.049,473.899 155.695,470.64 155.695,466.638 C155.695,462.624 159.068,459.358 163.213,459.358 C165.481,459.358 167.391,460.109 169.051,461.653 C169.848,462.394 170.521,463.255 171.135,464.155 C171.749,463.255 172.422,462.394 173.22,461.653 C174.879,460.109 176.789,459.358 179.058,459.358 C183.203,459.358 186.575,462.624 186.575,466.638 C186.575,470.64 183.222,473.899 179.092,473.917 C178.944,473.924 178.795,473.928 178.646,473.928 z M172.645,466.54 C173.468,467.875 174.267,469.117 175.239,470.009 C176.337,471.015 177.494,471.429 178.99,471.349 L179.058,471.348 C181.786,471.348 184.006,469.235 184.006,466.638 C184.006,464.04 181.786,461.927 179.058,461.927 C177.447,461.927 176.148,462.438 174.97,463.534 C174.09,464.353 173.363,465.401 172.645,466.54 z M163.213,461.927 C160.484,461.927 158.265,464.04 158.265,466.638 C158.265,469.235 160.484,471.348 163.213,471.348 L163.28,471.349 C164.776,471.429 165.933,471.015 167.031,470.009 C168.004,469.117 168.802,467.875 169.625,466.54 C168.907,465.401 168.181,464.353 167.301,463.534 C166.123,462.438 164.824,461.927 163.213,461.927 z" fill="#00979C"/>
          <path d="M179.398,465.704 L179.398,464.311 L177.947,464.311 L177.947,465.704 L176.554,465.704 L176.554,467.147 L177.947,467.147 L177.947,468.55 L179.398,468.55 L179.398,467.147 L180.791,467.147 L180.791,465.704 L179.398,465.704 M161.127,465.686 L165.706,465.686 L165.706,467.175 L161.127,467.175 L161.127,465.686 z" fill="#00979C"/>
        </g>
        <path d="M190.863,415.701 L125.951,415.701" fill-opacity="0" stroke="#000000" stroke-width="1"/>
        <path d="M125.951,415.701 L125.951,483.578" fill-opacity="0" stroke="#000000" stroke-width="1"/>
        <path d="M125.951,483.578 L190.863,483.578" fill-opacity="0" stroke="#000000" stroke-width="1"/>
      </g>
      <g>
        <path d="M70.192,347.289 L70.192,433.266" fill-opacity="0" stroke="#000000" stroke-width="1"/>
        <path d="M68.07,342.167 C69.242,340.996 71.141,340.996 72.313,342.167 C73.484,343.339 73.484,345.238 72.313,346.41 C71.141,347.581 69.242,347.581 68.07,346.41 C66.899,345.238 66.899,343.339 68.07,342.167" fill-opacity="0" stroke="#000000" stroke-width="1" stroke-opacity="1"/>
      </g>
      <g>
        <path d="M67.414,433.353 L139.129,433.353" fill="#FFFFFF"/>
        <g>
          <path d="M73.414,433.353 L133.129,433.353" fill-opacity="0" stroke="#000000" stroke-width="1"/>
          <path d="M68.292,435.475 C67.121,434.303 67.121,432.404 68.292,431.232 C69.464,430.06 71.363,430.06 72.535,431.232 C73.706,432.404 73.706,434.303 72.535,435.475 C71.363,436.646 69.464,436.646 68.292,435.475" fill="#000000" fill-opacity="1" stroke="#000000" stroke-width="1" stroke-opacity="1"/>
          <path d="M133.129,433.353 L131.129,436.353 L139.129,433.353 L131.129,430.353 z" fill="#000000" fill-opacity="1" stroke="#000000" stroke-width="1" stroke-opacity="1"/>
        </g>
      </g>
      <text transform="matrix(1, 0, 0, 1, 104.333, 347.091)">
        <tspan x="-24.678" y="2.681" font-family="AmericanTypewriter" font-size="12" fill="#000000">Vcc = 5V</tspan>
      </text>
      <g>
        <path d="M64.991,372.773 L76.378,372.773 L76.378,393.947 L64.991,393.947 L64.991,372.773 z" fill="#FFFFFF"/>
        <g>
          <path d="M70.667,375.866 C69.237,375.866 68.079,374.898 68.079,373.705 C68.079,372.512 69.237,371.544 70.667,371.544 C72.096,371.544 73.255,372.512 73.255,373.705 C73.255,374.898 72.096,375.866 70.667,375.866 z" fill="#FFFFFF"/>
          <path d="M70.667,375.866 C69.237,375.866 68.079,374.898 68.079,373.705 C68.079,372.512 69.237,371.544 70.667,371.544 C72.096,371.544 73.255,372.512 73.255,373.705 C73.255,374.898 72.096,375.866 70.667,375.866 z" fill-opacity="0" stroke="#000000" stroke-width="1"/>
        </g>
        <g>
          <path d="M71.114,396.549 C69.684,396.549 68.526,395.582 68.526,394.389 C68.526,393.195 69.684,392.228 71.114,392.228 C72.543,392.228 73.702,393.195 73.702,394.389 C73.702,395.582 72.543,396.549 71.114,396.549 z" fill="#FFFFFF"/>
          <path d="M71.114,396.549 C69.684,396.549 68.526,395.582 68.526,394.389 C68.526,393.195 69.684,392.228 71.114,392.228 C72.543,392.228 73.702,393.195 73.702,394.389 C73.702,395.582 72.543,396.549 71.114,396.549 z" fill-opacity="0" stroke="#000000" stroke-width="1"/>
        </g>
        <g>
          <g>
            <path d="M62.1,369.816 L62.1,397.04 L60.6,397.04 L60.6,369.816 L62.1,369.816 z" clip-path="url(#Clip_3)" filter="url(#Shadow_4)" fill="rgba(0,0,0,0.75)"/>
            <path d="M61.35,369.816 L61.35,397.04" fill-opacity="0" stroke="#000000" stroke-width="1.5"/>
          </g>
          <g>
            <path d="M61.582,378.573 L61.582,387.851 L47.66,387.851 L47.66,378.573 L61.582,378.573 z" clip-path="url(#Clip_5)" filter="url(#Shadow_6)" fill="rgba(0,0,0,0.75)"/>
            <path d="M48.41,379.323 L60.832,379.323 L60.832,387.101 L48.41,387.101 L48.41,379.323 z" fill="#FFFFFF"/>
            <path d="M48.41,379.323 L60.832,379.323 L60.832,387.101 L48.41,387.101 L48.41,379.323 z" fill-opacity="0" stroke="#000000" stroke-width="1.5"/>
          </g>
        </g>
      </g>
      <text transform="matrix(1, -0.001, 0.001, 1, 138.484, 387.441)">
        <tspan x="-56.652" y="-13.004" font-family="AvenirNext-Medium" font-size="11" fill="#C40000">Bei offenem Taster ist </tspan>
        <tspan x="-56.652" y="1.996" font-family="AvenirNext-Medium" font-size="11" fill="#C40000">die Eingangspannung</tspan>
        <tspan x="-56.652" y="16.996" font-family="AvenirNext-Medium" font-size="11" fill="#C40000">undefiniert (floating)!</tspan>
      </text>
    </g>
    <g>
      <g>
        <g>
          <path d="M409.952,415.776 L409.952,483.652 L345.041,483.652 L345.041,415.776 L409.952,415.776 z" clip-path="url(#Clip_7)" filter="url(#Shadow_8)" fill="rgba(0,0,0,0.75)"/>
          <path d="M345.041,415.776 L409.952,415.776 L409.952,483.653 L345.041,483.653 L345.041,415.776 z" fill="#FFFFFF"/>
        </g>
        <g>
          <text transform="matrix(1, 0, 0, 1, 379.685, 434.54)">
            <tspan x="-14.826" y="3.5" font-family="AmericanTypewriter" font-size="12" fill="#000000">Pin 3</tspan>
          </text>
        </g>
        <g id="arduino-logo-svg-vector">
          <path d="M376.895,475.722 L375.306,480.91 L376.556,480.91 L376.843,479.943 L378.394,479.943 L378.673,480.91 L380.033,480.91 L378.444,475.722 L376.895,475.722 z M377.157,478.9 L377.629,477.286 L378.096,478.9 L377.157,478.9 z M383.021,478.543 C383.003,478.524 382.984,478.505 382.964,478.486 C383.003,478.472 383.041,478.456 383.078,478.439 C383.226,478.372 383.359,478.278 383.472,478.163 C383.586,478.045 383.674,477.905 383.733,477.752 C383.793,477.596 383.824,477.417 383.824,477.22 C383.824,476.949 383.775,476.714 383.678,476.522 C383.583,476.33 383.438,476.166 383.259,476.047 C383.084,475.929 382.871,475.844 382.626,475.795 C382.39,475.747 382.125,475.722 381.837,475.722 L380.215,475.722 L380.215,480.91 L381.459,480.91 L381.459,478.883 L381.496,478.883 C381.632,478.883 381.745,478.913 381.843,478.975 C381.939,479.036 382.013,479.126 382.069,479.251 L382.821,480.91 L384.269,480.91 L383.355,479.059 C383.245,478.835 383.135,478.666 383.021,478.543 z M382.48,477.548 C382.444,477.617 382.391,477.676 382.327,477.72 C382.257,477.769 382.17,477.807 382.067,477.832 C381.96,477.859 381.836,477.873 381.701,477.873 L381.459,477.873 L381.459,476.781 L381.732,476.781 C382.017,476.781 382.229,476.826 382.361,476.914 C382.477,476.991 382.533,477.12 382.533,477.31 C382.533,477.402 382.516,477.48 382.48,477.548 z M387.914,476.338 C387.705,476.128 387.441,475.97 387.129,475.87 C386.825,475.772 386.468,475.722 386.067,475.722 L384.421,475.722 L384.421,480.91 L385.854,480.91 C386.316,480.91 386.72,480.847 387.055,480.723 C387.396,480.597 387.68,480.414 387.9,480.18 C388.119,479.947 388.283,479.661 388.386,479.332 C388.487,479.01 388.538,478.647 388.538,478.254 C388.538,477.826 388.487,477.451 388.386,477.138 C388.282,476.818 388.124,476.549 387.914,476.338 z M386.897,479.491 C386.681,479.731 386.368,479.848 385.939,479.848 L385.665,479.848 L385.665,476.785 L386.005,476.785 C386.245,476.785 386.446,476.819 386.603,476.885 C386.755,476.95 386.873,477.042 386.963,477.165 C387.055,477.292 387.122,477.45 387.162,477.636 C387.203,477.833 387.224,478.061 387.224,478.314 C387.224,478.854 387.114,479.25 386.897,479.491 z M391.536,479.022 C391.536,479.201 391.519,479.354 391.486,479.476 C391.456,479.589 391.411,479.682 391.352,479.752 C391.297,479.818 391.225,479.867 391.143,479.895 C391.051,479.928 390.933,479.945 390.793,479.945 C390.644,479.945 390.522,479.926 390.429,479.888 C390.343,479.855 390.267,479.8 390.209,479.73 C390.15,479.659 390.108,479.57 390.083,479.465 C390.056,479.349 390.043,479.213 390.043,479.06 L390.043,475.722 L388.798,475.722 L388.798,479.116 C388.798,479.397 388.833,479.654 388.901,479.881 C388.972,480.117 389.09,480.321 389.25,480.487 C389.41,480.653 389.62,480.781 389.873,480.868 C390.12,480.953 390.417,480.996 390.758,480.996 C391.062,480.996 391.342,480.953 391.588,480.868 C391.84,480.782 392.057,480.651 392.234,480.479 C392.41,480.307 392.547,480.09 392.641,479.835 C392.733,479.584 392.78,479.291 392.78,478.962 L392.78,475.722 L391.536,475.722 L391.536,479.022 M393.416,476.766 L394.532,476.766 L394.532,479.859 L393.416,479.859 L393.416,480.91 L396.909,480.91 L396.909,479.859 L395.792,479.859 L395.792,476.766 L396.909,476.766 L396.909,475.722 L393.416,475.722 L393.416,476.766 M400.371,478.678 L398.98,475.722 L397.572,475.722 L397.572,480.91 L398.731,480.91 L398.731,477.898 L400.129,480.91 L401.53,480.91 L401.53,475.722 L400.371,475.722 L400.371,478.678 M405.558,476.336 C405.195,475.874 404.65,475.64 403.94,475.64 C403.636,475.64 403.346,475.694 403.078,475.8 C402.806,475.908 402.566,476.075 402.365,476.299 C402.165,476.52 402.006,476.805 401.893,477.145 C401.781,477.48 401.724,477.882 401.724,478.341 C401.724,479.187 401.904,479.845 402.259,480.298 C402.623,480.761 403.167,480.996 403.878,480.996 C404.182,480.996 404.472,480.942 404.74,480.836 C405.012,480.728 405.251,480.56 405.453,480.338 C405.653,480.116 405.812,479.832 405.925,479.492 C406.037,479.156 406.093,478.754 406.093,478.296 C406.093,477.447 405.913,476.787 405.558,476.336 z M404.739,479.032 C404.704,479.223 404.648,479.384 404.574,479.511 C404.504,479.632 404.417,479.721 404.309,479.782 C404.201,479.843 404.066,479.874 403.909,479.874 C403.598,479.874 403.381,479.758 403.246,479.52 C403.098,479.259 403.023,478.847 403.023,478.296 C403.023,478.037 403.041,477.804 403.078,477.605 C403.114,477.414 403.17,477.252 403.245,477.125 C403.317,477.004 403.404,476.915 403.512,476.854 C403.618,476.793 403.752,476.762 403.909,476.762 C404.222,476.762 404.44,476.878 404.573,477.115 C404.72,477.377 404.795,477.789 404.795,478.341 C404.795,478.6 404.776,478.833 404.739,479.032 z M404.296,460.628 L404.517,460.628 L404.517,461.209 L404.673,461.209 L404.673,460.628 L404.896,460.628 L404.896,460.484 L404.296,460.484 L404.296,460.628 M405.441,460.484 L405.29,460.978 L405.133,460.484 L404.929,460.484 L404.929,461.209 L405.076,461.209 L405.076,460.746 L405.222,461.209 L405.357,461.209 L405.495,460.758 L405.495,461.209 L405.642,461.209 L405.642,460.484 L405.441,460.484 M398.236,474.503 C396.264,474.503 394.577,473.838 393.093,472.478 C392.176,471.638 391.42,470.609 390.725,469.539 C390.03,470.609 389.274,471.638 388.357,472.478 C386.762,473.939 384.934,474.598 382.768,474.492 C378.639,474.474 375.285,471.215 375.285,467.213 C375.285,463.199 378.657,459.933 382.803,459.933 C385.071,459.933 386.981,460.684 388.641,462.228 C389.438,462.97 390.111,463.83 390.725,464.73 C391.339,463.83 392.012,462.97 392.809,462.228 C394.469,460.684 396.379,459.933 398.647,459.933 C402.793,459.933 406.165,463.199 406.165,467.213 C406.165,471.215 402.811,474.474 398.682,474.492 C398.533,474.499 398.385,474.503 398.236,474.503 z M392.235,467.116 C393.058,468.45 393.856,469.692 394.829,470.584 C395.927,471.59 397.084,472.004 398.58,471.925 L398.647,471.923 C401.376,471.923 403.596,469.81 403.596,467.213 C403.596,464.616 401.376,462.503 398.647,462.503 C397.037,462.503 395.738,463.013 394.559,464.109 C393.679,464.928 392.953,465.976 392.235,467.116 z M382.803,462.503 C380.074,462.503 377.854,464.616 377.854,467.213 C377.854,469.81 380.074,471.923 382.803,471.923 L382.87,471.925 C384.366,472.004 385.523,471.59 386.621,470.584 C387.594,469.692 388.392,468.45 389.215,467.116 C388.497,465.976 387.771,464.928 386.891,464.109 C385.712,463.013 384.413,462.503 382.803,462.503 z" fill="#00979C"/>
          <path d="M398.987,466.279 L398.987,464.886 L397.537,464.886 L397.537,466.279 L396.144,466.279 L396.144,467.722 L397.537,467.722 L397.537,469.125 L398.987,469.125 L398.987,467.722 L400.381,467.722 L400.381,466.279 L398.987,466.279 M380.716,466.262 L385.296,466.262 L385.296,467.75 L380.716,467.75 L380.716,466.262 z" fill="#00979C"/>
        </g>
        <path d="M410.452,416.276 L345.541,416.276" fill-opacity="0" stroke="#000000" stroke-width="1"/>
        <path d="M345.541,416.276 L345.541,484.153" fill-opacity="0" stroke="#000000" stroke-width="1"/>
        <path d="M345.541,484.153 L410.452,484.153" fill-opacity="0" stroke="#000000" stroke-width="1"/>
      </g>
      <g>
        <path d="M289.091,347.289 L289.091,505.552" fill-opacity="0" stroke="#000000" stroke-width="1"/>
        <path d="M286.969,342.167 C288.141,340.996 290.04,340.996 291.212,342.167 C292.384,343.339 292.384,345.238 291.212,346.41 C290.04,347.582 288.141,347.582 286.969,346.41 C285.798,345.238 285.798,343.339 286.969,342.167" fill-opacity="0" stroke="#000000" stroke-width="1" stroke-opacity="1"/>
      </g>
      <g>
        <path d="M286.313,433.353 L358.013,433.353" fill="#FFFFFF"/>
        <g>
          <path d="M292.313,433.353 L352.013,433.353" fill-opacity="0" stroke="#000000" stroke-width="1"/>
          <path d="M287.191,435.475 C286.02,434.303 286.02,432.404 287.191,431.232 C288.363,430.061 290.262,430.061 291.434,431.232 C292.606,432.404 292.606,434.303 291.434,435.475 C290.262,436.646 288.363,436.646 287.191,435.475" fill="#000000" fill-opacity="1" stroke="#000000" stroke-width="1" stroke-opacity="1"/>
          <path d="M352.013,433.353 L350.013,436.353 L358.013,433.353 L350.013,430.353 z" fill="#000000" fill-opacity="1" stroke="#000000" stroke-width="1" stroke-opacity="1"/>
        </g>
      </g>
      <path d="M283.147,505.63 L294.754,505.63" fill-opacity="0" stroke="#000000" stroke-width="1"/>
      <text transform="matrix(1, 0, 0, 1, 288.592, 514.686)">
        <tspan x="-13.212" y="2" font-family="AmericanTypewriter" font-size="12" fill="#000000">GND</tspan>
      </text>
      <text transform="matrix(1, 0, 0, 1, 325.232, 347.091)">
        <tspan x="-24.678" y="2.681" font-family="AmericanTypewriter" font-size="12" fill="#000000">Vcc = 5V</tspan>
      </text>
      <g>
        <g>
          <path d="M289.669,460.996 C288.24,460.996 287.081,460.028 287.081,458.835 C287.081,457.642 288.24,456.674 289.669,456.674 C291.099,456.674 292.257,457.642 292.257,458.835 C292.257,460.028 291.099,460.996 289.669,460.996 z" fill="#FFFFFF"/>
          <path d="M289.669,460.996 C288.24,460.996 287.081,460.028 287.081,458.835 C287.081,457.642 288.24,456.674 289.669,456.674 C291.099,456.674 292.257,457.642 292.257,458.835 C292.257,460.028 291.099,460.996 289.669,460.996 z" fill-opacity="0" stroke="#000000" stroke-width="1"/>
        </g>
        <g>
          <path d="M290.116,481.679 C288.687,481.679 287.529,480.712 287.529,479.518 C287.529,478.325 288.687,477.358 290.116,477.358 C291.546,477.358 292.704,478.325 292.704,479.518 C292.704,480.712 291.546,481.679 290.116,481.679 z" fill="#FFFFFF"/>
          <path d="M290.116,481.679 C288.687,481.679 287.529,480.712 287.529,479.518 C287.529,478.325 288.687,477.358 290.116,477.358 C291.546,477.358 292.704,478.325 292.704,479.518 C292.704,480.712 291.546,481.679 290.116,481.679 z" fill-opacity="0" stroke="#000000" stroke-width="1"/>
        </g>
        <g>
          <g>
            <path d="M289.585,463.703 L289.585,472.981 L275.663,472.981 L275.663,463.703 L289.585,463.703 z" clip-path="url(#Clip_9)" filter="url(#Shadow_10)" fill="rgba(0,0,0,0.75)"/>
            <path d="M276.413,464.453 L288.835,464.453 L288.835,472.231 L276.413,472.231 L276.413,464.453 z" fill="#FFFFFF"/>
            <path d="M276.413,464.453 L288.835,464.453 L288.835,472.231 L276.413,472.231 L276.413,464.453 z" fill-opacity="0" stroke="#000000" stroke-width="1.5"/>
          </g>
        </g>
      </g>
      <text transform="matrix(1, -0.001, 0.001, 1, 364.86, 387.198)">
        <tspan x="-67.995" y="-13.525" font-family="AvenirNext-Medium" font-size="11" fill="#C40000">Bei geschlossenem Taster </tspan>
        <tspan x="-67.995" y="1.475" font-family="AvenirNext-Medium" font-size="11" fill="#C40000">wird die Spannungsquelle </tspan>
        <tspan x="-67.995" y="16.475" font-family="AvenirNext-Medium" font-size="11" fill="#C40000">Vcc kurzgeschlossen</tspan>
      </text>
    </g>
  </g>
</svg>
