<?xml version="1.0" encoding="UTF-8"?>
<!DOCTYPE svg PUBLIC "-//W3C//DTD SVG 1.1//EN" "http://www.w3.org/Graphics/SVG/1.1/DTD/svg11.dtd">
<svg version="1.1" xmlns="http://www.w3.org/2000/svg" xmlns:xlink="http://www.w3.org/1999/xlink" x="0" y="0" width="367.947" height="188.897" viewBox="0, 0, 367.947, 188.897">
  <defs>
    <clipPath id="Clip_1">
      <path d="M334.555,626.603 L411.466,626.603 L411.466,710.479 L334.555,710.479 z M405.466,634.603 L340.555,634.603 L340.555,702.479 L405.466,702.479 L405.466,634.603 z"/>
    </clipPath>
    <filter id="Shadow_2">
      <feGaussianBlur in="SourceAlpha" stdDeviation="2.5"/>
      <feOffset dx="0" dy="2" result="offsetblur"/>
      <feFlood flood-color="#000000"/>
      <feComposite in2="offsetblur" operator="in"/>
    </filter>
    <clipPath id="Clip_3">
      <path d="M267.127,675.253 L293.049,675.253 L293.049,700.531 L267.127,700.531 z M287.049,683.253 L273.127,683.253 L273.127,692.531 L287.049,692.531 L287.049,683.253 z"/>
    </clipPath>
    <filter id="Shadow_4">
      <feGaussianBlur in="SourceAlpha" stdDeviation="2.5"/>
      <feOffset dx="0" dy="2" result="offsetblur"/>
      <feFlood flood-color="#000000"/>
      <feComposite in2="offsetblur" operator="in"/>
    </filter>
    <clipPath id="Clip_5">
      <path d="M119.823,626.909 L196.734,626.909 L196.734,710.785 L119.823,710.785 z M190.734,634.909 L125.823,634.909 L125.823,702.785 L190.734,702.785 L190.734,634.909 z"/>
    </clipPath>
    <filter id="Shadow_6">
      <feGaussianBlur in="SourceAlpha" stdDeviation="2.5"/>
      <feOffset dx="0" dy="2" result="offsetblur"/>
      <feFlood flood-color="#000000"/>
      <feComposite in2="offsetblur" operator="in"/>
    </filter>
    <clipPath id="Clip_7">
      <path d="M55.209,666.496 L68.709,666.496 L68.709,709.72 L55.209,709.72 z M62.709,674.496 L61.209,674.496 L61.209,701.72 L62.709,701.72 L62.709,674.496 z"/>
    </clipPath>
    <filter id="Shadow_8">
      <feGaussianBlur in="SourceAlpha" stdDeviation="2.5"/>
      <feOffset dx="0" dy="2" result="offsetblur"/>
      <feFlood flood-color="#000000"/>
      <feComposite in2="offsetblur" operator="in"/>
    </filter>
    <clipPath id="Clip_9">
      <path d="M42.269,675.253 L68.191,675.253 L68.191,700.531 L42.269,700.531 z M62.191,683.253 L48.269,683.253 L48.269,692.531 L62.191,692.531 L62.191,683.253 z"/>
    </clipPath>
    <filter id="Shadow_10">
      <feGaussianBlur in="SourceAlpha" stdDeviation="2.5"/>
      <feOffset dx="0" dy="2" result="offsetblur"/>
      <feFlood flood-color="#000000"/>
      <feComposite in2="offsetblur" operator="in"/>
    </filter>
  </defs>
  <g id="Ebene_1" transform="translate(-42.519, -554.339)">
    <g>
      <g>
        <g>
          <path d="M405.466,634.603 L405.466,702.479 L340.555,702.479 L340.555,634.603 L405.466,634.603 z" clip-path="url(#Clip_1)" filter="url(#Shadow_2)" fill="rgba(0,0,0,0.75)"/>
          <path d="M340.555,634.603 L405.466,634.603 L405.466,702.479 L340.555,702.479 L340.555,634.603 z" fill="#FFFFFF"/>
        </g>
        <g>
          <text transform="matrix(1, 0, 0, 1, 375.199, 653.366)">
            <tspan x="-14.826" y="3.5" font-family="AmericanTypewriter" font-size="12" fill="#000000">Pin 3</tspan>
          </text>
        </g>
        <g id="arduino-logo-svg-vector">
          <path d="M372.409,694.549 L370.819,699.737 L372.07,699.737 L372.357,698.77 L373.907,698.77 L374.186,699.737 L375.547,699.737 L373.957,694.549 L372.409,694.549 z M372.671,697.726 L373.143,696.113 L373.61,697.726 L372.671,697.726 z M378.535,697.37 C378.516,697.35 378.497,697.331 378.477,697.313 C378.517,697.298 378.555,697.282 378.592,697.265 C378.739,697.198 378.873,697.105 378.986,696.989 C379.1,696.871 379.188,696.732 379.246,696.579 C379.307,696.423 379.338,696.244 379.338,696.047 C379.338,695.775 379.289,695.54 379.192,695.348 C379.096,695.156 378.952,694.992 378.773,694.873 C378.598,694.756 378.385,694.671 378.139,694.621 C377.904,694.573 377.638,694.549 377.351,694.549 L375.728,694.549 L375.728,699.737 L376.973,699.737 L376.973,697.71 L377.009,697.71 C377.146,697.71 377.259,697.74 377.356,697.801 C377.453,697.862 377.527,697.953 377.583,698.078 L378.335,699.737 L379.783,699.737 L378.869,697.886 C378.758,697.661 378.649,697.493 378.535,697.37 z M377.994,696.375 C377.957,696.443 377.905,696.502 377.841,696.546 C377.771,696.596 377.683,696.634 377.581,696.659 C377.473,696.686 377.35,696.7 377.215,696.7 L376.973,696.7 L376.973,695.608 L377.246,695.608 C377.531,695.608 377.742,695.652 377.875,695.741 C377.991,695.817 378.047,695.947 378.047,696.137 C378.047,696.229 378.029,696.306 377.994,696.375 z M383.428,695.165 C383.219,694.954 382.954,694.797 382.643,694.697 C382.339,694.599 381.982,694.549 381.58,694.549 L379.935,694.549 L379.935,699.737 L381.367,699.737 C381.83,699.737 382.234,699.674 382.569,699.549 C382.909,699.424 383.193,699.241 383.413,699.007 C383.633,698.773 383.797,698.488 383.9,698.158 C384.001,697.836 384.052,697.474 384.052,697.081 C384.052,696.653 384.001,696.277 383.899,695.965 C383.796,695.645 383.638,695.376 383.428,695.165 z M382.411,698.318 C382.195,698.558 381.881,698.674 381.453,698.674 L381.179,698.674 L381.179,695.611 L381.518,695.611 C381.758,695.611 381.96,695.645 382.117,695.712 C382.269,695.777 382.387,695.868 382.477,695.992 C382.569,696.118 382.636,696.277 382.675,696.463 C382.717,696.66 382.738,696.888 382.738,697.141 C382.738,697.681 382.628,698.077 382.411,698.318 z M387.049,697.849 C387.049,698.028 387.033,698.18 387,698.302 C386.969,698.416 386.924,698.509 386.866,698.578 C386.811,698.644 386.739,698.694 386.657,698.722 C386.565,698.755 386.447,698.772 386.307,698.772 C386.158,698.772 386.035,698.753 385.942,698.715 C385.857,698.681 385.781,698.627 385.722,698.556 C385.663,698.485 385.621,698.397 385.597,698.292 C385.57,698.176 385.556,698.04 385.556,697.886 L385.556,694.549 L384.312,694.549 L384.312,697.943 C384.312,698.223 384.347,698.48 384.415,698.708 C384.486,698.944 384.603,699.148 384.764,699.314 C384.924,699.48 385.134,699.608 385.387,699.695 C385.633,699.78 385.931,699.823 386.272,699.823 C386.576,699.823 386.856,699.78 387.102,699.695 C387.354,699.608 387.571,699.477 387.747,699.306 C387.924,699.133 388.061,698.917 388.155,698.661 C388.247,698.411 388.293,698.117 388.293,697.789 L388.293,694.549 L387.049,694.549 L387.049,697.849 M388.93,695.593 L390.046,695.593 L390.046,698.685 L388.93,698.685 L388.93,699.737 L392.422,699.737 L392.422,698.685 L391.306,698.685 L391.306,695.593 L392.422,695.593 L392.422,694.549 L388.93,694.549 L388.93,695.593 M395.885,697.505 L394.494,694.549 L393.086,694.549 L393.086,699.737 L394.244,699.737 L394.244,696.724 L395.643,699.737 L397.044,699.737 L397.044,694.549 L395.885,694.549 L395.885,697.505 M401.072,695.163 C400.709,694.701 400.164,694.467 399.454,694.467 C399.15,694.467 398.86,694.521 398.592,694.627 C398.32,694.734 398.08,694.902 397.878,695.125 C397.678,695.346 397.519,695.631 397.406,695.971 C397.295,696.307 397.238,696.709 397.238,697.167 C397.238,698.013 397.418,698.672 397.773,699.125 C398.136,699.588 398.681,699.823 399.391,699.823 C399.695,699.823 399.986,699.769 400.253,699.662 C400.525,699.555 400.765,699.387 400.967,699.164 C401.167,698.943 401.325,698.658 401.439,698.318 C401.55,697.983 401.607,697.581 401.607,697.122 C401.607,696.273 401.427,695.614 401.072,695.163 z M400.253,697.858 C400.217,698.05 400.162,698.211 400.088,698.338 C400.018,698.459 399.931,698.548 399.822,698.609 C399.714,698.67 399.58,698.701 399.423,698.701 C399.112,698.701 398.895,698.585 398.76,698.347 C398.612,698.085 398.536,697.673 398.536,697.122 C398.536,696.863 398.555,696.631 398.592,696.431 C398.628,696.24 398.684,696.079 398.759,695.952 C398.83,695.831 398.917,695.742 399.025,695.68 C399.132,695.62 399.265,695.589 399.423,695.589 C399.736,695.589 399.953,695.704 400.087,695.942 C400.234,696.203 400.309,696.616 400.309,697.167 C400.309,697.427 400.29,697.659 400.253,697.858 z M399.81,679.455 L400.03,679.455 L400.03,680.035 L400.187,680.035 L400.187,679.455 L400.41,679.455 L400.41,679.311 L399.81,679.311 L399.81,679.455 M400.954,679.311 L400.803,679.805 L400.647,679.311 L400.443,679.311 L400.443,680.035 L400.59,680.035 L400.59,679.573 L400.736,680.035 L400.871,680.035 L401.009,679.585 L401.009,680.035 L401.156,680.035 L401.156,679.311 L400.954,679.311 M393.75,693.329 C391.777,693.329 390.091,692.664 388.607,691.304 C387.69,690.464 386.934,689.435 386.239,688.365 C385.543,689.435 384.787,690.464 383.871,691.304 C382.276,692.766 380.448,693.425 378.282,693.318 C374.153,693.3 370.798,690.042 370.798,686.039 C370.798,682.025 374.171,678.76 378.316,678.76 C380.585,678.76 382.494,679.511 384.154,681.054 C384.952,681.796 385.625,682.656 386.239,683.557 C386.853,682.656 387.526,681.796 388.323,681.054 C389.983,679.511 391.893,678.76 394.161,678.76 C398.307,678.76 401.679,682.025 401.679,686.039 C401.679,690.042 398.325,693.3 394.195,693.318 C394.047,693.326 393.898,693.329 393.75,693.329 z M387.749,685.942 C388.572,687.277 389.37,688.519 390.343,689.41 C391.441,690.416 392.598,690.83 394.094,690.751 L394.161,690.749 C396.89,690.749 399.109,688.636 399.109,686.039 C399.109,683.442 396.89,681.329 394.161,681.329 C392.55,681.329 391.251,681.84 390.073,682.935 C389.193,683.754 388.467,684.803 387.749,685.942 z M378.316,681.329 C375.588,681.329 373.368,683.442 373.368,686.039 C373.368,688.636 375.588,690.749 378.316,690.749 L378.384,690.751 C379.88,690.83 381.037,690.416 382.135,689.41 C383.107,688.519 383.906,687.277 384.728,685.942 C384.011,684.803 383.284,683.754 382.404,682.935 C381.226,681.84 379.927,681.329 378.316,681.329 z" fill="#00979C"/>
          <path d="M394.501,685.106 L394.501,683.712 L393.051,683.712 L393.051,685.106 L391.658,685.106 L391.658,686.549 L393.051,686.549 L393.051,687.952 L394.501,687.952 L394.501,686.549 L395.894,686.549 L395.894,685.106 L394.501,685.106 M376.23,685.088 L380.81,685.088 L380.81,686.576 L376.23,686.576 L376.23,685.088 z" fill="#00979C"/>
        </g>
        <path d="M405.966,635.103 L341.055,635.103" fill-opacity="0" stroke="#000000" stroke-width="1"/>
        <path d="M341.055,635.103 L341.055,702.979" fill-opacity="0" stroke="#000000" stroke-width="1"/>
        <path d="M341.055,702.979 L405.966,702.979" fill-opacity="0" stroke="#000000" stroke-width="1"/>
      </g>
      <g>
        <path d="M286.554,566.839 L286.554,725.103" fill-opacity="0" stroke="#000000" stroke-width="1"/>
        <path d="M284.433,561.718 C285.604,560.546 287.504,560.546 288.676,561.718 C289.847,562.889 289.847,564.789 288.676,565.96 C287.504,567.132 285.604,567.132 284.433,565.96 C283.261,564.789 283.261,562.889 284.433,561.718" fill-opacity="0" stroke="#000000" stroke-width="1" stroke-opacity="1"/>
      </g>
      <g>
        <path d="M283.776,652.904 L355.476,652.904" fill="#FFFFFF"/>
        <g>
          <path d="M289.776,652.904 L349.476,652.904" fill-opacity="0" stroke="#000000" stroke-width="1"/>
          <path d="M284.655,655.025 C283.483,653.854 283.483,651.954 284.655,650.782 C285.826,649.611 287.726,649.611 288.897,650.782 C290.069,651.954 290.069,653.854 288.897,655.025 C287.726,656.197 285.826,656.197 284.655,655.025" fill="#000000" fill-opacity="1" stroke="#000000" stroke-width="1" stroke-opacity="1"/>
          <path d="M349.476,652.904 L347.476,655.904 L355.476,652.904 L347.476,649.904 z" fill="#000000" fill-opacity="1" stroke="#000000" stroke-width="1" stroke-opacity="1"/>
        </g>
      </g>
      <path d="M280.611,725.18 L292.217,725.18" fill-opacity="0" stroke="#000000" stroke-width="1"/>
      <text transform="matrix(1, 0, 0, 1, 286.056, 734.236)">
        <tspan x="-13.212" y="2" font-family="AmericanTypewriter" font-size="12" fill="#000000">GND</tspan>
      </text>
      <text transform="matrix(1, 0, 0, 1, 322.696, 566.642)">
        <tspan x="-24.678" y="2.681" font-family="AmericanTypewriter" font-size="12" fill="#000000">Vcc = 5V</tspan>
      </text>
      <g>
        <path d="M279.152,583.998 L295.6,583.998 L295.6,618.791 L279.152,618.791 L279.152,583.998 z" fill="#FF8080"/>
        <path d="M279.152,583.998 L295.6,583.998 L295.6,618.791 L279.152,618.791 L279.152,583.998 z" fill-opacity="0" stroke="#D11D00" stroke-width="1.5"/>
      </g>
      <g>
        <g>
          <path d="M286.134,680.546 C284.704,680.546 283.546,679.578 283.546,678.385 C283.546,677.192 284.704,676.225 286.134,676.225 C287.563,676.225 288.722,677.192 288.722,678.385 C288.722,679.578 287.563,680.546 286.134,680.546 z" fill="#FFFFFF"/>
          <path d="M286.134,680.546 C284.704,680.546 283.546,679.578 283.546,678.385 C283.546,677.192 284.704,676.225 286.134,676.225 C287.563,676.225 288.722,677.192 288.722,678.385 C288.722,679.578 287.563,680.546 286.134,680.546 z" fill-opacity="0" stroke="#000000" stroke-width="1"/>
        </g>
        <g>
          <path d="M286.581,701.229 C285.152,701.229 283.993,700.262 283.993,699.069 C283.993,697.875 285.152,696.908 286.581,696.908 C288.01,696.908 289.169,697.875 289.169,699.069 C289.169,700.262 288.01,701.229 286.581,701.229 z" fill="#FFFFFF"/>
          <path d="M286.581,701.229 C285.152,701.229 283.993,700.262 283.993,699.069 C283.993,697.875 285.152,696.908 286.581,696.908 C288.01,696.908 289.169,697.875 289.169,699.069 C289.169,700.262 288.01,701.229 286.581,701.229 z" fill-opacity="0" stroke="#000000" stroke-width="1"/>
        </g>
        <g>
          <g>
            <path d="M287.049,683.253 L287.049,692.531 L273.127,692.531 L273.127,683.253 L287.049,683.253 z" clip-path="url(#Clip_3)" filter="url(#Shadow_4)" fill="rgba(0,0,0,0.75)"/>
            <path d="M273.877,684.003 L286.299,684.003 L286.299,691.781 L273.877,691.781 L273.877,684.003 z" fill="#FFFFFF"/>
            <path d="M273.877,684.003 L286.299,684.003 L286.299,691.781 L273.877,691.781 L273.877,684.003 z" fill-opacity="0" stroke="#000000" stroke-width="1.5"/>
          </g>
        </g>
      </g>
      <text transform="matrix(1, 0, 0, 1, 339.733, 600.574)">
        <tspan x="-34.278" y="-5" font-family="AvenirNext-Medium" font-size="12" fill="#2B2B2B">Pullup- </tspan>
        <tspan x="-34.278" y="11" font-family="AvenirNext-Medium" font-size="12" fill="#2B2B2B">Widerstand</tspan>
      </text>
      <g>
        <path d="M297.742,672.539 L297.394,714.327" fill-opacity="0" stroke="#000000" stroke-width="0.75"/>
        <path d="M297.394,714.327 L295.157,712.808 L297.356,718.827 L299.656,712.846 z" fill="#000000" fill-opacity="1" stroke="#000000" stroke-width="0.75" stroke-opacity="1"/>
      </g>
      <g id="Layer_1">
        <path d="M311.315,683.173 C311.315,682.97 311.375,681.763 311.411,681.595 L311.327,681.523 L309.306,681.523 L309.211,681.607 L309.235,681.846 C309.402,681.846 310.287,681.99 310.287,682.468 C310.287,682.707 310.287,682.934 310.287,683.173 C310.287,684.106 310.263,685.05 310.263,685.971 C310.263,686.7 310.275,687.585 310.359,688.135 C310.502,688.84 310.897,689.76 312.558,689.76 C313.551,689.76 314.507,689.354 315.344,688.816 L315.439,688.888 C315.439,689.246 315.368,689.713 315.834,689.713 C316.205,689.713 317.053,689.462 317.663,689.27 L317.723,689.187 L317.675,688.983 C317.436,689.007 317.221,689.079 316.982,689.079 C316.408,689.079 316.408,688.218 316.408,687.238 C316.408,685.301 316.42,682.803 316.599,681.44 L316.527,681.356 L315.475,681.774 C315.451,683.95 315.427,686.138 315.427,688.326 C314.782,688.708 314.065,689.031 313.323,689.031 C312.164,689.031 311.219,688.445 311.219,686.437 z" fill="#000000"/>
        <path d="M320.296,688.165 C320.296,687.73 320.087,687.504 319.71,687.504 C319.334,687.504 318.823,687.83 318.388,688.132 L318.514,688.282 C318.74,688.157 319.058,688.015 319.267,688.015 C319.518,688.015 319.593,688.291 319.593,688.726 L319.543,690.575 C319.543,691.395 319.878,691.513 320.305,691.513 C320.832,691.513 321.309,691.077 321.627,690.701 L321.627,690.609 L321.501,690.525 C321.242,690.726 320.991,690.902 320.639,690.902 C320.296,690.902 320.229,690.542 320.229,689.923 z M320.422,686.215 C320.422,685.964 320.238,685.73 319.92,685.73 C319.635,685.73 319.317,685.914 319.317,686.199 C319.317,686.466 319.568,686.684 319.861,686.684 C320.162,686.684 320.413,686.491 320.422,686.215 z" fill="#000000"/>
        <path d="M324.177,691.295 C324.161,690.96 324.152,690.709 324.152,690.475 C324.152,689.864 324.186,689.128 324.211,688.525 C324.554,688.274 324.989,688.015 325.424,688.015 C326.086,688.015 326.278,688.492 326.278,689.362 L326.236,690.793 C326.236,691.211 326.404,691.529 326.914,691.529 C327.358,691.529 327.968,691.161 328.395,690.785 L328.312,690.609 L328.194,690.609 C327.952,690.768 327.65,690.944 327.433,690.944 C327.04,690.944 326.981,690.701 326.981,690.023 C326.981,689.797 326.981,689.529 326.981,689.303 C326.981,688.768 326.981,687.964 326.788,687.763 C326.613,687.579 326.345,687.521 326.06,687.521 C325.45,687.521 324.797,687.839 324.278,688.123 L324.194,688.073 C324.161,687.755 323.968,687.504 323.508,687.504 C323.165,687.504 322.629,687.847 322.244,688.098 L322.403,688.282 C322.68,688.123 322.914,687.989 323.115,687.989 C323.408,687.989 323.466,688.358 323.466,688.902 C323.466,689.563 323.408,691.002 323.374,691.437 L323.525,691.496 z" fill="#000000"/>
        <path d="M309.147,704.25 L309.218,703.772 L301.316,703.772 L301.232,704.25 z M309.147,706.605 L309.218,706.127 L301.316,706.127 L301.232,706.605 z" fill="#000000"/>
        <path d="M318.003,704.071 C318.003,705.218 317.895,707.562 316.221,707.562 C314.524,707.562 314.464,705.195 314.464,704.071 C314.464,702.947 314.512,700.544 316.221,700.544 C317.907,700.544 318.003,702.983 318.003,704.071 z M318.851,704.071 C318.839,702.325 318.445,699.767 316.221,699.767 C313.986,699.767 313.603,702.349 313.603,704.071 C313.603,705.816 314.01,708.351 316.221,708.351 C318.433,708.351 318.851,705.816 318.851,704.071 z" fill="#000000"/>
        <path d="M329.252,699.91 L328.212,699.91 L325.463,706.031 L322.653,699.91 L321.637,699.91 L325.463,708.351 z" fill="#000000"/>
      </g>
    </g>
    <g>
      <g>
        <g>
          <path d="M190.734,634.909 L190.734,702.785 L125.823,702.785 L125.823,634.909 L190.734,634.909 z" clip-path="url(#Clip_5)" filter="url(#Shadow_6)" fill="rgba(0,0,0,0.75)"/>
          <path d="M125.823,634.909 L190.734,634.909 L190.734,702.785 L125.823,702.785 L125.823,634.909 z" fill="#FFFFFF"/>
        </g>
        <g>
          <text transform="matrix(1, 0, 0, 1, 160.467, 653.672)">
            <tspan x="-14.826" y="3.5" font-family="AmericanTypewriter" font-size="12" fill="#000000">Pin 3</tspan>
          </text>
        </g>
        <g id="arduino-logo-svg-vector">
          <path d="M157.677,694.855 L156.087,700.042 L157.338,700.042 L157.625,699.076 L159.175,699.076 L159.454,700.042 L160.814,700.042 L159.225,694.855 L157.677,694.855 z M157.939,698.032 L158.411,696.419 L158.878,698.032 L157.939,698.032 z M163.803,697.676 C163.784,697.656 163.765,697.637 163.745,697.619 C163.784,697.604 163.823,697.588 163.86,697.571 C164.007,697.504 164.141,697.411 164.254,697.295 C164.368,697.177 164.456,697.037 164.514,696.885 C164.575,696.729 164.605,696.55 164.605,696.353 C164.605,696.081 164.556,695.846 164.46,695.654 C164.364,695.462 164.22,695.298 164.041,695.179 C163.866,695.062 163.653,694.977 163.407,694.927 C163.172,694.879 162.906,694.855 162.619,694.855 L160.996,694.855 L160.996,700.042 L162.24,700.042 L162.24,698.015 L162.277,698.015 C162.413,698.015 162.527,698.045 162.624,698.107 C162.721,698.168 162.795,698.258 162.851,698.383 L163.603,700.042 L165.05,700.042 L164.137,698.192 C164.026,697.967 163.917,697.798 163.803,697.676 z M163.261,696.68 C163.225,696.749 163.173,696.808 163.109,696.852 C163.039,696.901 162.951,696.939 162.849,696.965 C162.741,696.992 162.618,697.005 162.483,697.005 L162.24,697.005 L162.24,695.913 L162.514,695.913 C162.799,695.913 163.01,695.958 163.143,696.046 C163.258,696.123 163.315,696.253 163.315,696.443 C163.315,696.534 163.297,696.612 163.261,696.68 z M168.696,695.471 C168.486,695.26 168.222,695.103 167.911,695.002 C167.607,694.904 167.249,694.855 166.848,694.855 L165.203,694.855 L165.203,700.042 L166.635,700.042 C167.097,700.042 167.502,699.979 167.837,699.855 C168.177,699.729 168.461,699.547 168.681,699.313 C168.901,699.079 169.065,698.793 169.168,698.464 C169.269,698.142 169.32,697.779 169.32,697.387 C169.32,696.959 169.269,696.583 169.167,696.271 C169.064,695.951 168.905,695.682 168.696,695.471 z M167.679,698.623 C167.463,698.863 167.149,698.98 166.721,698.98 L166.447,698.98 L166.447,695.917 L166.786,695.917 C167.026,695.917 167.228,695.951 167.385,696.018 C167.537,696.083 167.655,696.174 167.745,696.297 C167.837,696.424 167.904,696.582 167.943,696.769 C167.985,696.965 168.006,697.194 168.006,697.447 C168.006,697.986 167.896,698.382 167.679,698.623 z M172.317,698.155 C172.317,698.334 172.301,698.486 172.268,698.608 C172.237,698.722 172.192,698.815 172.134,698.884 C172.079,698.95 172.006,699 171.925,699.028 C171.833,699.061 171.715,699.077 171.574,699.077 C171.426,699.077 171.303,699.058 171.21,699.021 C171.125,698.987 171.049,698.933 170.99,698.862 C170.931,698.791 170.889,698.702 170.865,698.598 C170.838,698.482 170.824,698.346 170.824,698.192 L170.824,694.855 L169.58,694.855 L169.58,698.248 C169.58,698.529 169.615,698.786 169.683,699.013 C169.754,699.249 169.871,699.453 170.031,699.619 C170.192,699.785 170.401,699.914 170.655,700 C170.901,700.085 171.199,700.128 171.54,700.128 C171.844,700.128 172.124,700.085 172.37,700 C172.622,699.914 172.839,699.783 173.015,699.611 C173.192,699.439 173.329,699.222 173.422,698.967 C173.514,698.717 173.561,698.423 173.561,698.095 L173.561,694.855 L172.317,694.855 L172.317,698.155 M174.197,695.898 L175.314,695.898 L175.314,698.991 L174.197,698.991 L174.197,700.042 L177.69,700.042 L177.69,698.991 L176.574,698.991 L176.574,695.898 L177.69,695.898 L177.69,694.855 L174.197,694.855 L174.197,695.898 M181.153,697.811 L179.762,694.855 L178.354,694.855 L178.354,700.042 L179.512,700.042 L179.512,697.03 L180.911,700.042 L182.312,700.042 L182.312,694.855 L181.153,694.855 L181.153,697.811 M186.34,695.469 C185.976,695.007 185.432,694.772 184.721,694.772 C184.417,694.772 184.128,694.826 183.86,694.932 C183.588,695.04 183.348,695.208 183.146,695.431 C182.946,695.652 182.787,695.937 182.674,696.277 C182.562,696.612 182.506,697.015 182.506,697.473 C182.506,698.319 182.686,698.978 183.041,699.43 C183.404,699.894 183.949,700.128 184.659,700.128 C184.963,700.128 185.253,700.074 185.521,699.968 C185.793,699.861 186.033,699.693 186.235,699.47 C186.434,699.249 186.593,698.964 186.707,698.624 C186.818,698.289 186.875,697.886 186.875,697.428 C186.875,696.579 186.695,695.92 186.34,695.469 z M185.521,698.164 C185.485,698.355 185.43,698.517 185.356,698.644 C185.285,698.765 185.198,698.853 185.09,698.914 C184.982,698.975 184.848,699.006 184.69,699.006 C184.379,699.006 184.163,698.891 184.028,698.653 C183.879,698.391 183.804,697.979 183.804,697.428 C183.804,697.169 183.823,696.936 183.86,696.737 C183.896,696.546 183.952,696.385 184.027,696.258 C184.098,696.136 184.185,696.047 184.293,695.986 C184.4,695.925 184.533,695.895 184.69,695.895 C185.004,695.895 185.221,696.01 185.355,696.248 C185.502,696.509 185.576,696.922 185.576,697.473 C185.576,697.732 185.558,697.965 185.521,698.164 z M185.078,679.761 L185.298,679.761 L185.298,680.341 L185.455,680.341 L185.455,679.761 L185.677,679.761 L185.677,679.617 L185.078,679.617 L185.078,679.761 M186.222,679.617 L186.071,680.11 L185.915,679.617 L185.711,679.617 L185.711,680.341 L185.858,680.341 L185.858,679.878 L186.004,680.341 L186.138,680.341 L186.277,679.89 L186.277,680.341 L186.424,680.341 L186.424,679.617 L186.222,679.617 M179.018,693.635 C177.045,693.635 175.359,692.97 173.875,691.61 C172.958,690.77 172.202,689.741 171.507,688.671 C170.811,689.741 170.055,690.77 169.138,691.61 C167.544,693.071 165.715,693.73 163.55,693.624 C159.42,693.606 156.066,690.348 156.066,686.345 C156.066,682.331 159.439,679.066 163.584,679.066 C165.853,679.066 167.762,679.816 169.422,681.36 C170.22,682.102 170.893,682.962 171.507,683.862 C172.121,682.962 172.794,682.102 173.591,681.36 C175.251,679.816 177.161,679.066 179.429,679.066 C183.574,679.066 186.947,682.331 186.947,686.345 C186.947,690.348 183.593,693.606 179.463,693.624 C179.315,693.632 179.166,693.635 179.018,693.635 z M173.017,686.248 C173.84,687.583 174.638,688.825 175.611,689.716 C176.709,690.722 177.866,691.136 179.362,691.057 L179.429,691.055 C182.157,691.055 184.377,688.942 184.377,686.345 C184.377,683.748 182.157,681.635 179.429,681.635 C177.818,681.635 176.519,682.145 175.341,683.241 C174.461,684.06 173.734,685.109 173.017,686.248 z M163.584,681.635 C160.856,681.635 158.636,683.748 158.636,686.345 C158.636,688.942 160.856,691.055 163.584,691.055 L163.652,691.057 C165.148,691.136 166.305,690.722 167.402,689.716 C168.375,688.825 169.174,687.583 169.996,686.248 C169.279,685.109 168.552,684.06 167.672,683.241 C166.494,682.145 165.195,681.635 163.584,681.635 z" fill="#00979C"/>
          <path d="M179.769,685.411 L179.769,684.018 L178.319,684.018 L178.319,685.411 L176.925,685.411 L176.925,686.854 L178.319,686.854 L178.319,688.258 L179.769,688.258 L179.769,686.854 L181.162,686.854 L181.162,685.411 L179.769,685.411 M161.498,685.394 L166.077,685.394 L166.077,686.882 L161.498,686.882 L161.498,685.394 z" fill="#00979C"/>
        </g>
        <path d="M191.234,635.409 L126.323,635.409" fill-opacity="0" stroke="#000000" stroke-width="1"/>
        <path d="M126.323,635.409 L126.323,703.285" fill-opacity="0" stroke="#000000" stroke-width="1"/>
        <path d="M126.323,703.285 L191.234,703.285" fill-opacity="0" stroke="#000000" stroke-width="1"/>
      </g>
      <g>
        <path d="M71.697,566.839 L71.697,725.103" fill-opacity="0" stroke="#000000" stroke-width="1"/>
        <path d="M69.576,561.718 C70.748,560.546 72.647,560.546 73.819,561.718 C74.99,562.889 74.99,564.789 73.819,565.96 C72.647,567.132 70.748,567.132 69.576,565.96 C68.404,564.789 68.404,562.889 69.576,561.718" fill-opacity="0" stroke="#000000" stroke-width="1" stroke-opacity="1"/>
      </g>
      <g>
        <path d="M68.919,652.904 L140.619,652.904" fill="#FFFFFF"/>
        <g>
          <path d="M74.919,652.904 L134.619,652.904" fill-opacity="0" stroke="#000000" stroke-width="1"/>
          <path d="M69.798,655.025 C68.626,653.854 68.626,651.954 69.798,650.782 C70.969,649.611 72.869,649.611 74.041,650.782 C75.212,651.954 75.212,653.854 74.041,655.025 C72.869,656.197 70.969,656.197 69.798,655.025" fill="#000000" fill-opacity="1" stroke="#000000" stroke-width="1" stroke-opacity="1"/>
          <path d="M134.619,652.904 L132.619,655.904 L140.619,652.904 L132.619,649.904 z" fill="#000000" fill-opacity="1" stroke="#000000" stroke-width="1" stroke-opacity="1"/>
        </g>
      </g>
      <path d="M65.754,725.18 L77.361,725.18" fill-opacity="0" stroke="#000000" stroke-width="1"/>
      <text transform="matrix(1, 0, 0, 1, 72.199, 734.236)">
        <tspan x="-13.212" y="2" font-family="AmericanTypewriter" font-size="12" fill="#000000">GND</tspan>
      </text>
      <text transform="matrix(1, 0, 0, 1, 107.839, 566.642)">
        <tspan x="-24.678" y="2.681" font-family="AmericanTypewriter" font-size="12" fill="#000000">Vcc = 5V</tspan>
      </text>
      <g>
        <path d="M64.295,583.998 L80.743,583.998 L80.743,618.791 L64.295,618.791 L64.295,583.998 z" fill="#FF8080"/>
        <path d="M64.295,583.998 L80.743,583.998 L80.743,618.791 L64.295,618.791 L64.295,583.998 z" fill-opacity="0" stroke="#D11D00" stroke-width="1.5"/>
      </g>
      <g>
        <path d="M65.6,677.453 L76.987,677.453 L76.987,698.628 L65.6,698.628 L65.6,677.453 z" fill="#FFFFFF"/>
        <g>
          <path d="M71.276,680.546 C69.846,680.546 68.688,679.579 68.688,678.385 C68.688,677.192 69.846,676.225 71.276,676.225 C72.705,676.225 73.864,677.192 73.864,678.385 C73.864,679.579 72.705,680.546 71.276,680.546 z" fill="#FFFFFF"/>
          <path d="M71.276,680.546 C69.846,680.546 68.688,679.579 68.688,678.385 C68.688,677.192 69.846,676.225 71.276,676.225 C72.705,676.225 73.864,677.192 73.864,678.385 C73.864,679.579 72.705,680.546 71.276,680.546 z" fill-opacity="0" stroke="#000000" stroke-width="1"/>
        </g>
        <g>
          <path d="M71.723,701.229 C70.293,701.229 69.135,700.262 69.135,699.069 C69.135,697.875 70.293,696.908 71.723,696.908 C73.152,696.908 74.311,697.875 74.311,699.069 C74.311,700.262 73.152,701.229 71.723,701.229 z" fill="#FFFFFF"/>
          <path d="M71.723,701.229 C70.293,701.229 69.135,700.262 69.135,699.069 C69.135,697.875 70.293,696.908 71.723,696.908 C73.152,696.908 74.311,697.875 74.311,699.069 C74.311,700.262 73.152,701.229 71.723,701.229 z" fill-opacity="0" stroke="#000000" stroke-width="1"/>
        </g>
        <g>
          <g>
            <path d="M62.709,674.496 L62.709,701.72 L61.209,701.72 L61.209,674.496 L62.709,674.496 z" clip-path="url(#Clip_7)" filter="url(#Shadow_8)" fill="rgba(0,0,0,0.75)"/>
            <path d="M61.959,674.496 L61.959,701.72" fill-opacity="0" stroke="#000000" stroke-width="1.5"/>
          </g>
          <g>
            <path d="M62.191,683.253 L62.191,692.531 L48.269,692.531 L48.269,683.253 L62.191,683.253 z" clip-path="url(#Clip_9)" filter="url(#Shadow_10)" fill="rgba(0,0,0,0.75)"/>
            <path d="M49.019,684.003 L61.441,684.003 L61.441,691.781 L49.019,691.781 L49.019,684.003 z" fill="#FFFFFF"/>
            <path d="M49.019,684.003 L61.441,684.003 L61.441,691.781 L49.019,691.781 L49.019,684.003 z" fill-opacity="0" stroke="#000000" stroke-width="1.5"/>
          </g>
        </g>
      </g>
      <text transform="matrix(1, 0, 0, 1, 124.876, 600.574)">
        <tspan x="-34.278" y="-5" font-family="AvenirNext-Medium" font-size="12" fill="#2B2B2B">Pullup- </tspan>
        <tspan x="-34.278" y="11" font-family="AvenirNext-Medium" font-size="12" fill="#2B2B2B">Widerstand</tspan>
      </text>
      <g>
        <path d="M80.75,669.398 L80.401,711.186" fill-opacity="0" stroke="#000000" stroke-width="0.75"/>
        <path d="M80.401,711.186 L78.164,709.667 L80.364,715.686 L82.664,709.705 z" fill="#000000" fill-opacity="1" stroke="#000000" stroke-width="0.75" stroke-opacity="1"/>
      </g>
      <g id="Layer_1">
        <path d="M96.331,682.224 C96.331,682.021 96.391,680.814 96.427,680.646 L96.343,680.574 L94.323,680.574 L94.227,680.658 L94.251,680.897 C94.419,680.897 95.303,681.041 95.303,681.519 C95.303,681.758 95.303,681.985 95.303,682.224 C95.303,683.157 95.279,684.101 95.279,685.022 C95.279,685.751 95.291,686.636 95.375,687.186 C95.518,687.891 95.913,688.812 97.575,688.812 C98.567,688.812 99.523,688.405 100.36,687.867 L100.456,687.939 C100.456,688.297 100.384,688.764 100.85,688.764 C101.221,688.764 102.07,688.513 102.68,688.321 L102.739,688.238 L102.692,688.034 C102.452,688.058 102.237,688.13 101.998,688.13 C101.424,688.13 101.424,687.269 101.424,686.289 C101.424,684.352 101.436,681.854 101.616,680.491 L101.544,680.407 L100.492,680.826 C100.468,683.001 100.444,685.189 100.444,687.377 C99.798,687.759 99.081,688.082 98.34,688.082 C97.18,688.082 96.236,687.496 96.236,685.488 z" fill="#000000"/>
        <path d="M105.313,687.216 C105.313,686.781 105.103,686.555 104.727,686.555 C104.35,686.555 103.84,686.881 103.405,687.183 L103.53,687.333 C103.756,687.208 104.074,687.066 104.283,687.066 C104.534,687.066 104.61,687.342 104.61,687.777 L104.559,689.626 C104.559,690.446 104.894,690.564 105.321,690.564 C105.848,690.564 106.325,690.128 106.643,689.752 L106.643,689.66 L106.518,689.576 C106.258,689.777 106.007,689.953 105.656,689.953 C105.313,689.953 105.246,689.593 105.246,688.974 z M105.438,685.266 C105.438,685.015 105.254,684.781 104.936,684.781 C104.652,684.781 104.334,684.965 104.334,685.25 C104.334,685.517 104.585,685.735 104.877,685.735 C105.179,685.735 105.43,685.542 105.438,685.266 z" fill="#000000"/>
        <path d="M109.194,690.346 C109.177,690.011 109.169,689.76 109.169,689.526 C109.169,688.915 109.202,688.179 109.227,687.576 C109.571,687.325 110.006,687.066 110.441,687.066 C111.102,687.066 111.294,687.543 111.294,688.413 L111.253,689.844 C111.253,690.262 111.42,690.58 111.93,690.58 C112.374,690.58 112.985,690.212 113.412,689.836 L113.328,689.66 L113.211,689.66 C112.968,689.819 112.667,689.995 112.449,689.995 C112.056,689.995 111.997,689.752 111.997,689.074 C111.997,688.848 111.997,688.58 111.997,688.354 C111.997,687.819 111.997,687.015 111.805,686.815 C111.629,686.63 111.361,686.572 111.077,686.572 C110.466,686.572 109.813,686.89 109.294,687.174 L109.211,687.124 C109.177,686.806 108.985,686.555 108.524,686.555 C108.181,686.555 107.646,686.898 107.261,687.149 L107.42,687.333 C107.696,687.174 107.93,687.04 108.131,687.04 C108.424,687.04 108.483,687.409 108.483,687.953 C108.483,688.614 108.424,690.053 108.391,690.488 L108.541,690.547 z" fill="#000000"/>
        <path d="M94.724,701.831 C94.724,701.58 94.641,701.472 94.557,701.472 C94.509,701.472 94.402,701.52 94.39,701.795 C94.342,702.62 93.505,703.11 92.728,703.11 C92.035,703.11 91.437,702.739 90.815,702.321 C90.17,701.89 89.524,701.46 88.747,701.46 C87.635,701.46 86.75,702.309 86.75,703.409 C86.75,703.672 86.846,703.767 86.918,703.767 C87.037,703.767 87.085,703.54 87.085,703.492 C87.145,702.488 88.125,702.129 88.747,702.129 C89.44,702.129 90.038,702.5 90.66,702.919 C91.305,703.349 91.951,703.779 92.728,703.779 C93.84,703.779 94.724,702.93 94.724,701.831 z M94.724,704.628 C94.724,704.281 94.581,704.257 94.557,704.257 C94.509,704.257 94.402,704.317 94.39,704.58 C94.342,705.405 93.505,705.895 92.728,705.895 C92.035,705.895 91.437,705.525 90.815,705.106 C90.17,704.676 89.524,704.246 88.747,704.246 C87.635,704.246 86.75,705.094 86.75,706.194 C86.75,706.457 86.846,706.553 86.918,706.553 C87.037,706.553 87.085,706.326 87.085,706.278 C87.145,705.274 88.125,704.915 88.747,704.915 C89.44,704.915 90.038,705.286 90.66,705.704 C91.305,706.134 91.951,706.565 92.728,706.565 C93.864,706.565 94.724,705.68 94.724,704.628 z" fill="#000000"/>
        <path d="M104.034,704.604 C104.011,702.919 102.97,701.819 101.285,701.819 L100.257,701.819 L100.257,699.834 L103.473,699.834 L103.473,698.961 L99.456,698.961 L99.456,702.679 L101.094,702.679 C102.313,702.679 103.174,703.337 103.174,704.604 C103.174,705.919 102.325,706.553 101.094,706.553 C100.281,706.553 99.719,706.385 99.121,706.015 L99.121,707.055 C99.671,707.246 100.472,707.402 101.117,707.402 C102.887,707.402 104.034,706.433 104.034,704.604 z" fill="#000000"/>
        <path d="M114.268,698.961 L113.228,698.961 L110.478,705.082 L107.669,698.961 L106.653,698.961 L110.478,707.402 z" fill="#000000"/>
      </g>
    </g>
  </g>
</svg>
