<svg viewBox="0 0 1623 317" xmlns="http://www.w3.org/2000/svg" fill-rule="evenodd" clip-rule="evenodd" stroke-linecap="round" stroke-linejoin="round" stroke-miterlimit="1.5"><path d="M258.011 228.534l-25 12.5 25 12.5c-6.25-6.25-6.25-18.75 0-25zm185.98 0l25 12.5-25 12.5c6.25-6.25 6.25-18.75 0-25z"/><path d="M253.011 241.033h195.98" fill="none" stroke="#000" stroke-width="4.17"/><path d="M236.22 1039.37h94.489m94.488 0h94.488m94.488 0h94.488m94.489 0h94.488" fill="none" stroke="#ff0101" stroke-width="37.92" stroke-linecap="butt" transform="matrix(.62436 0 0 .69245 86.694 -598.738)"/><path d="M236.22 1039.37h94.489" fill="none" stroke="#ff0101" stroke-width="37.92" stroke-linecap="butt" transform="matrix(.62436 0 0 .69245 558.655 -598.738)"/><path d="M236.22 1039.37h94.489" fill="none" stroke="#ff0101" stroke-width="37.92" stroke-linecap="butt" transform="matrix(.62436 0 0 .69245 794.637 -598.738)"/><path d="M236.22 1039.37h94.489" fill="none" stroke="#ff0101" stroke-width="37.92" stroke-linecap="butt" transform="matrix(.62436 0 0 .69245 912.627 -598.738)"/><path d="M425.197 1039.37h94.488" fill="none" stroke="#ff0101" stroke-width="37.92" stroke-linecap="butt" transform="matrix(.62436 0 0 .69245 558.655 -598.738)"/><path d="M944.882 1181.1h118.108" fill="none" stroke="#38b807" stroke-width="16.72" stroke-linecap="butt" transform="matrix(1.99797 0 0 .69245 -1653.663 -615.095)"/><path d="M944.882 1181.1h118.108" fill="none" stroke="#38b807" stroke-width="16.72" stroke-linecap="butt" transform="matrix(1.99797 0 0 .69245 -1181.698 -615.095)"/><path d="M236.22 1299.21V826.772" fill="none" stroke="#000" stroke-width="12.37" stroke-dasharray="24.73,24.73,0,0" transform="matrix(.4995 0 0 .51121 116.192 -402.356)"/><path d="M236.22 1299.21V826.772" fill="none" stroke="#000" stroke-width="12.37" stroke-dasharray="24.73,24.73,0,0" transform="matrix(.4995 0 0 .51121 352.172 -402.356)"/><path d="M236.22 1299.21V826.772" fill="none" stroke="#000" stroke-width="12.37" stroke-dasharray="24.73,24.73,0,0" transform="matrix(.4995 0 0 .51121 588.152 -402.356)"/><path d="M236.22 1299.21V826.772" fill="none" stroke="#000" stroke-width="12.37" stroke-dasharray="24.73,24.73,0,0" transform="matrix(.4995 0 0 .51121 824.132 -402.356)"/><path d="M236.22 1299.21V826.772" fill="none" stroke="#000" stroke-width="12.37" stroke-dasharray="24.73,24.73,0,0" transform="matrix(.4995 0 0 .51121 1060.112 -402.356)"/><path d="M236.22 1299.21V826.772" fill="none" stroke="#000" stroke-width="12.37" stroke-dasharray="24.73,24.73,0,0" transform="matrix(.4995 0 0 .51121 1296.097 -402.356)"/><text x="309.392" y="822.838" font-family="'AvenirNext-Regular','Avenir Next',sans-serif" font-size="45.833" transform="translate(-46.85 -506.96)">ca.<tspan x="367.325px 378.783px" y="822.838px 822.838px"> 1</tspan> sec</text><text x="285.741" y="828.572" font-family="'AvenirNext-Regular','Avenir Next',sans-serif" font-size="50" transform="translate(1241.245 -647.801)">usw<tspan x="372.491" y="828.572">.</tspan></text><text x="331.825" y="828.572" font-family="'AvenirNext-Italic','Avenir Next',sans-serif" font-style="italic" font-size="50" transform="translate(898.034 -647.801)">P<tspan x="357.825px 384.525px" y="828.572px 828.572px">au</tspan>se</text><text x="710.466" y="759.678" font-family="'AvenirNext-Regular','Avenir Next',sans-serif" font-size="58.333" transform="translate(-462.44 -717.327)">1</text><text x="710.466" y="759.678" font-family="'AvenirNext-Regular','Avenir Next',sans-serif" font-size="58.333" transform="translate(-226.46 -717.327)">2</text><text x="710.466" y="759.678" font-family="'AvenirNext-Regular','Avenir Next',sans-serif" font-size="58.333" transform="translate(9.52 -717.327)">3</text><text x="710.466" y="759.678" font-family="'AvenirNext-Regular','Avenir Next',sans-serif" font-size="58.333" transform="translate(245.5 -717.327)">4</text><text x="710.466" y="759.678" font-family="'AvenirNext-Regular','Avenir Next',sans-serif" font-size="58.333" transform="translate(481.482 -717.327)">5</text><text x="710.466" y="759.678" font-family="'AvenirNext-Regular','Avenir Next',sans-serif" font-size="58.333" transform="translate(720.7 -717.327)">1</text><path d="M236.22 1039.37h94.489" fill="none" stroke="#ff0101" stroke-width="37.92" stroke-linecap="butt" transform="matrix(.62436 0 0 .69245 1266.593 -598.738)"/><path d="M944.882 1181.1h118.108" fill="none" stroke="#38b807" stroke-width="32.27" stroke-linecap="butt" transform="matrix(.84892 0 0 .69245 611.953 -615.095)"/><text x="279.86" y="816.607" font-family="'AvenirNext-Regular','Avenir Next',sans-serif" font-size="50" transform="translate(-284.56 -676.729)">LED r<tspan x="402.41px 432.96px" y="816.607px 816.607px">ot</tspan></text><text x="279.86" y="820.216" font-family="'AvenirNext-Regular','Avenir Next',sans-serif" font-size="50" transform="translate(-284.56 -598.553)">LED grün</text></svg>