<svg xmlns="http://www.w3.org/2000/svg" width="276.8" height="162.049" viewBox="0 0 276.8 162.049"><defs><clipPath id="a"><path d="M164.958 833.017h166.814v142.165H164.958zm160.814 8H170.958v126.165h154.814V841.017z"/></clipPath><filter id="b"><feGaussianBlur in="SourceAlpha" stdDeviation="2.5"/><feOffset dy="2" result="offsetblur"/><feFlood flood-color="#000"/><feComposite in2="offsetblur" operator="in"/></filter><clipPath id="c"><path d="M67.4 873.041h103.107v54.952H67.4zm55.732 8c-3.333.357-1.996-.057-4.12.81-4.966 2.717-6.35 11.163-3.376 17.31.162.335 1.424 2.604 1.821 3.386.851 1.673 1.438 3.153 1.739 4.539.592 2.721.007 4.746-2.077 6.094-3.909 2.53-7.587 2.665-11.39.793-3.033-1.494-5.799-3.95-9.859-8.374-.144-.156-2.78-3.059-3.528-3.859-1.319-1.412-2.387-2.472-3.404-3.35-2.568-2.221-4.767-3.218-6.936-2.846-7.445 1.281-10.751 8.555-7.127 13.914.237.351.481.684.734 1.003.839 1.06 1.283 1.491 3.021 3.053 1.643 1.477 2.443 2.411 3.247 4.018a.75.75 0 1 0 1.341-.67c-.903-1.808-1.815-2.872-3.586-4.464-1.672-1.502-2.08-1.899-2.847-2.868-.229-.29-.451-.593-.667-.912-3.003-4.441-.251-10.496 6.138-11.595 1.621-.279 3.44.546 5.701 2.501.969.838 2.004 1.864 3.29 3.24.739.791 3.368 3.686 3.518 3.85 4.18 4.554 7.051 7.104 10.302 8.705 4.265 2.1 8.504 1.944 12.866-.879 2.673-1.729 3.442-4.394 2.729-7.673-.334-1.532-.964-3.122-1.867-4.899-.418-.822-1.67-3.073-1.809-3.36-2.66-5.498-1.421-13.062 2.746-15.341 5.192-2.84 18.205 4.07 21.409 10.885.938 1.994 1.413 3.863 2.227 8.118l.167.87c1.14 5.905 2.178 8.917 4.57 11.644 3.115 3.553 8.092 5.355 15.657 5.308a.75.75 0 0 0-.009-1.5c-7.163.044-11.723-1.607-14.52-4.797-2.161-2.464-3.134-5.286-4.225-10.94l-.167-.867c-.838-4.38-1.333-6.326-2.342-8.474-3.887-7.006-11.575-11.364-19.367-12.373z"/></clipPath><filter id="d"><feGaussianBlur in="SourceAlpha" stdDeviation="2.5"/><feOffset dy="2" result="offsetblur"/><feFlood flood-color="#000"/><feComposite in2="offsetblur" operator="in"/></filter><clipPath id="e"><path d="M66.662 938.923h13.5v43.224h-13.5zm7.5 8h-1.5v27.224h1.5v-27.224z"/></clipPath><filter id="f"><feGaussianBlur in="SourceAlpha" stdDeviation="2.5"/><feOffset dy="2" result="offsetblur"/><feFlood flood-color="#000"/><feComposite in2="offsetblur" operator="in"/></filter><clipPath id="g"><path d="M53.722 947.68h25.922v25.278H53.722zm19.922 8H59.722v9.278h13.922v-9.278z"/></clipPath><filter id="h"><feGaussianBlur in="SourceAlpha" stdDeviation="2.5"/><feOffset dy="2" result="offsetblur"/><feFlood flood-color="#000"/><feComposite in2="offsetblur" operator="in"/></filter></defs><path d="M325.772 841.017v126.165H170.958V841.017h154.814z" clip-path="url(#a)" filter="url(#b)" fill="rgba(0,0,0,0.75)" transform="translate(-53.972 -835.017)"/><path d="M117.486 6.5H271.3v125.165H117.486V6.5z" fill="#FFF"/><path d="M117.486 6.5H271.3v125.165H117.486V6.5zm-88.91 81.68v68.369m-2.122-73.49a3 3 0 1 1 4.243 4.241 3 3 0 0 1-4.243-4.241" stroke="#000" fill="none"/><path d="M106.992 84.35h127.361" fill="#FFF"/><g stroke="#000"><path d="M112.992 84.35h115.361" fill="none"/><path d="M107.871 86.472a3 3 0 1 1 4.241-4.243 3 3 0 0 1-4.241 4.243m120.482-2.122l-2 3 8-3-8-3z"/></g><path d="M22.632 156.627h11.607" stroke="#000" fill="none"/><text transform="translate(56.077 152.683)"><tspan x="-13.212" y="2" font-family="AmericanTypewriter" font-size="12">GND</tspan></text><path d="M127.278 73.467h36.705v22.691h-36.705V73.467z" fill="#FFF"/><text transform="translate(145.63 84.813)"><tspan x="-14.826" y="3.5" font-family="AmericanTypewriter" font-size="12">Pin 3</tspan></text><g stroke="#000"><path d="M177.483 21.139v60.31m-2.121-65.432a3 3 0 1 1 4.242 4.244 3 3 0 0 1-4.242-4.244" fill="none"/><path d="M179.604 86.57a2.998 2.998 0 0 1-4.242 0 2.998 2.998 0 0 1 0-4.242 2.998 2.998 0 0 1 4.242 0 2.998 2.998 0 0 1 0 4.242"/></g><path d="M170.092 34.96h14.694v28.493h-14.694V34.96z" fill="#F55"/><path d="M170.092 34.96h14.694v28.493h-14.694V34.96z" stroke="#D11D00" stroke-width="1.5" fill="none"/><text transform="translate(156.832 18.704)"><tspan x="-10.488" y="3.5" font-family="AmericanTypewriter" font-size="12">Vcc</tspan></text><text transform="translate(225.622 52.199)"><tspan x="-34.826" y="-14.134" font-family="AvenirNext-Regular" font-size="12">interner</tspan> <tspan x="-34.826" y="1.866" font-family="AvenirNext-Regular" font-size="12">Pullup</tspan> <tspan x="-34.826" y="17.866" font-family="AvenirNext-Regular" font-size="12">Widerstand</tspan></text><path d="M123.132 881.041c7.792 1.009 15.48 5.367 19.367 12.373 1.009 2.148 1.504 4.094 2.342 8.474l.167.867c1.091 5.654 2.064 8.476 4.225 10.94 2.797 3.19 7.357 4.841 14.52 4.797a.749.749 0 1 1 .009 1.5c-7.565.047-12.542-1.755-15.657-5.308-2.392-2.727-3.43-5.739-4.57-11.644l-.167-.87c-.814-4.255-1.289-6.124-2.227-8.118-3.204-6.815-16.217-13.725-21.409-10.885-4.167 2.279-5.406 9.843-2.746 15.341.139.287 1.391 2.538 1.809 3.36.903 1.777 1.533 3.367 1.867 4.899.713 3.279-.056 5.944-2.729 7.673-4.362 2.823-8.601 2.979-12.866.879-3.251-1.601-6.122-4.151-10.302-8.705-.15-.164-2.779-3.059-3.518-3.85-1.286-1.376-2.321-2.402-3.29-3.24-2.261-1.955-4.08-2.78-5.701-2.501-6.389 1.099-9.141 7.154-6.138 11.595.216.319.438.622.667.912.767.969 1.175 1.366 2.847 2.868 1.771 1.592 2.683 2.656 3.586 4.464a.749.749 0 1 1-1.341.67c-.804-1.607-1.604-2.541-3.247-4.018-1.738-1.562-2.182-1.993-3.021-3.053a16.192 16.192 0 0 1-.734-1.003c-3.624-5.359-.318-12.633 7.127-13.914 2.169-.372 4.368.625 6.936 2.846 1.017.878 2.085 1.938 3.404 3.35.748.8 3.384 3.703 3.528 3.859 4.06 4.424 6.826 6.88 9.859 8.374 3.803 1.872 7.481 1.737 11.39-.793 2.084-1.348 2.669-3.373 2.077-6.094-.301-1.386-.888-2.866-1.739-4.539-.397-.782-1.659-3.051-1.821-3.386-2.974-6.147-1.59-14.593 3.376-17.31 2.124-.867.787-.453 4.12-.81z" clip-path="url(#c)" filter="url(#d)" fill="rgba(0,0,0,0.75)" transform="translate(-53.972 -835.017)"/><path d="M109.785 84.225c-22.05.137-17.393-15.844-21.937-25.509-3.15-6.699-16.492-14.482-22.448-11.224-4.778 2.614-5.734 10.801-3.061 16.326 1.254 2.592 7.224 11.087 1.215 14.975C47.679 89.065 37.497 59.66 28.157 61.267c-7.37 1.268-9.696 8.223-6.632 12.754 2.516 3.722 5.097 4.251 7.051 8.159" stroke="#000" stroke-width="1.5" stroke-linecap="round" stroke-linejoin="round" fill="none"/><path d="M23.081 114.863h11.387v21.175H23.081v-21.175z" fill="#FFF"/><path d="M28.757 117.956c-1.43 0-2.588-.967-2.588-2.161 0-1.193 1.158-2.16 2.588-2.16 1.429 0 2.588.967 2.588 2.16 0 1.194-1.159 2.161-2.588 2.161z" fill="#FFF"/><path d="M28.757 117.956c-1.43 0-2.588-.967-2.588-2.161 0-1.193 1.158-2.16 2.588-2.16 1.429 0 2.588.967 2.588 2.16 0 1.194-1.159 2.161-2.588 2.161z" stroke="#000" fill="none"/><path d="M29.204 138.64c-1.43 0-2.588-.968-2.588-2.161s1.158-2.161 2.588-2.161c1.429 0 2.588.968 2.588 2.161s-1.159 2.161-2.588 2.161z" fill="#FFF"/><path d="M29.204 138.64c-1.43 0-2.588-.968-2.588-2.161s1.158-2.161 2.588-2.161c1.429 0 2.588.968 2.588 2.161s-1.159 2.161-2.588 2.161z" stroke="#000" fill="none"/><path d="M74.162 946.923v27.224h-1.5v-27.224h1.5z" clip-path="url(#e)" filter="url(#f)" fill="rgba(0,0,0,0.75)" transform="translate(-53.972 -835.017)"/><path d="M19.44 111.906v27.225" stroke="#000" stroke-width="1.5" fill="none"/><path d="M73.644 955.68v9.278H59.722v-9.278h13.922z" clip-path="url(#g)" filter="url(#h)" fill="rgba(0,0,0,0.75)" transform="translate(-53.972 -835.017)"/><path d="M6.5 121.413h12.422v7.778H6.5v-7.778z" fill="#FFF"/><path d="M6.5 121.413h12.422v7.778H6.5v-7.778z" stroke="#000" stroke-width="1.5" fill="none"/><path d="M237.758 122.709l-1.59 5.188h1.251l.287-.967h1.55l.28.967h1.36l-1.59-5.188h-1.548zm.262 3.178l.472-1.614.467 1.614h-.939zm5.864-.357l-.058-.057a1.322 1.322 0 0 0 .509-.323c.114-.118.202-.258.26-.411.061-.156.092-.335.092-.532a1.54 1.54 0 0 0-.146-.698 1.23 1.23 0 0 0-.419-.475 1.733 1.733 0 0 0-.633-.252 3.989 3.989 0 0 0-.789-.073h-1.623v5.188h1.245v-2.027h.037c.136 0 .249.03.346.092a.6.6 0 0 1 .227.276l.752 1.659h1.448l-.914-1.851a2.182 2.182 0 0 0-.334-.516zm-.541-.995a.478.478 0 0 1-.153.172.774.774 0 0 1-.26.112 1.517 1.517 0 0 1-.366.041h-.242v-1.092h.273c.285 0 .497.045.629.133.116.077.172.206.172.396a.51.51 0 0 1-.053.238zm5.434-1.21a1.924 1.924 0 0 0-.785-.468 3.48 3.48 0 0 0-1.062-.148h-1.646v5.188h1.432c.463 0 .867-.063 1.202-.187.34-.126.625-.309.845-.543.219-.233.383-.519.486-.848a3.61 3.61 0 0 0 .152-1.078c0-.428-.051-.803-.152-1.116a1.986 1.986 0 0 0-.472-.8zm-1.017 3.153c-.216.24-.53.357-.958.357h-.274v-3.063h.34c.239 0 .441.034.598.101.152.064.27.156.36.279.092.126.159.285.198.471.042.197.063.425.063.678 0 .54-.11.936-.327 1.177zm4.638-.469c0 .179-.016.332-.049.454a.707.707 0 0 1-.134.275.454.454 0 0 1-.209.144c-.092.033-.21.05-.35.05a.987.987 0 0 1-.365-.057.55.55 0 0 1-.22-.158.64.64 0 0 1-.125-.265 1.804 1.804 0 0 1-.041-.405v-3.338h-1.244v3.394c0 .281.035.538.103.765.071.236.188.44.349.606.16.166.37.294.623.381.246.085.544.128.885.128.304 0 .584-.043.83-.128.252-.086.469-.217.646-.389.176-.172.313-.389.407-.644a2.54 2.54 0 0 0 .138-.873v-3.24h-1.244v3.3m1.881-2.256h1.116v3.093h-1.116v1.051h3.493v-1.051h-1.117v-3.093h1.117v-1.044h-3.493v1.044m6.955 1.912l-1.391-2.956h-1.408v5.188h1.159v-3.012l1.398 3.012h1.401v-5.188h-1.159v2.956m5.187-2.342c-.363-.462-.908-.696-1.618-.696-.304 0-.594.054-.862.16a1.896 1.896 0 0 0-.714.499 2.36 2.36 0 0 0-.472.845 3.842 3.842 0 0 0-.168 1.197c0 .846.18 1.504.535 1.957.363.463.908.698 1.618.698.305 0 .595-.054.863-.16a1.92 1.92 0 0 0 .713-.498c.2-.222.359-.506.472-.846.111-.336.168-.738.168-1.197 0-.848-.18-1.508-.535-1.959zm-.819 2.696a1.51 1.51 0 0 1-.165.479.7.7 0 0 1-.266.271.804.804 0 0 1-.399.092c-.311 0-.528-.116-.663-.354-.148-.261-.223-.673-.223-1.225 0-.258.018-.491.055-.69.036-.191.092-.353.167-.48a.714.714 0 0 1 .266-.271.794.794 0 0 1 .398-.092c.313 0 .53.116.664.353.147.262.222.674.222 1.226 0 .259-.019.492-.056.691zm-.443-18.404h.221v.581h.156v-.581h.223v-.144h-.6v.144m1.144-.144l-.151.494-.156-.494h-.204v.725h.147v-.463l.146.463h.135l.138-.451v.451h.147v-.725h-.202m-7.204 14.019c-1.972 0-3.659-.665-5.143-2.025-.917-.84-1.673-1.869-2.368-2.939-.696 1.07-1.452 2.099-2.368 2.939-1.595 1.461-3.423 2.12-5.589 2.014-4.129-.018-7.483-3.277-7.483-7.279 0-4.014 3.372-7.28 7.517-7.28 2.269 0 4.179.751 5.838 2.295.798.742 1.471 1.602 2.085 2.502.614-.9 1.287-1.76 2.084-2.502 1.66-1.544 3.57-2.295 5.838-2.295 4.146 0 7.518 3.266 7.518 7.28 0 4.002-3.354 7.261-7.484 7.279a9.406 9.406 0 0 1-.445.011zm-6.001-7.387c.823 1.334 1.621 2.576 2.594 3.468 1.098 1.006 2.255 1.42 3.751 1.341l.067-.002c2.729 0 4.949-2.113 4.949-4.71s-2.22-4.71-4.949-4.71c-1.61 0-2.909.51-4.088 1.606-.88.819-1.606 1.867-2.324 3.007zm-9.433-4.613c-2.728 0-4.948 2.113-4.948 4.71s2.22 4.71 4.948 4.71l.068.002c1.496.079 2.653-.335 3.751-1.341.972-.892 1.771-2.134 2.594-3.468-.718-1.14-1.445-2.188-2.325-3.007-1.178-1.096-2.477-1.606-4.088-1.606z" fill="#00979C"/></svg>