<svg viewBox="0 0 1927 920" xmlns="http://www.w3.org/2000/svg" fill-rule="evenodd" clip-rule="evenodd" stroke-linecap="round" stroke-linejoin="round" stroke-miterlimit="10"><g font-family="'Avenir-Book','Avenir'"><text x="366.804" y="216.288" font-size="6.88" transform="translate(-951.43 -688.608) scale(5.586)">1</text><text x="370.628" y="216.288" font-size="6.88" transform="translate(-951.43 -688.608) scale(5.586)">0</text><text x="375.539" y="214.224" font-size="5.16" transform="translate(-951.43 -688.608) scale(5.586)">1</text></g><g font-family="'Avenir-Book','Avenir'"><text x="366.391" y="240.232" font-size="6.88" transform="translate(-951.43 -688.608) scale(5.586)">1</text><text x="370.215" y="240.232" font-size="6.88" transform="translate(-951.43 -688.608) scale(5.586)">0</text><text x="375.126" y="238.167" font-size="5.16" transform="translate(-951.43 -688.608) scale(5.586)">0</text></g><g font-family="'Avenir-Book','Avenir'"><text x="366.804" y="192.345" font-size="6.88" transform="translate(-951.43 -688.608) scale(5.586)">1</text><text x="370.628" y="192.345" font-size="6.88" transform="translate(-951.43 -688.608) scale(5.586)">0</text><text x="375.539" y="190.282" font-size="5.16" transform="translate(-951.43 -688.608) scale(5.586)">2</text></g><g font-family="'Avenir-Book','Avenir'"><text x="366.804" y="168.609" font-size="6.88" transform="translate(-951.43 -688.608) scale(5.586)">1</text><text x="370.628" y="168.609" font-size="6.88" transform="translate(-951.43 -688.608) scale(5.586)">0</text><text x="375.539" y="166.545" font-size="5.16" transform="translate(-951.43 -688.608) scale(5.586)">3</text></g><g font-family="'Avenir-Book','Avenir'"><text x="366.804" y="145.079" font-size="6.88" transform="translate(-951.43 -688.608) scale(5.586)">1</text><text x="370.628" y="145.079" font-size="6.88" transform="translate(-951.43 -688.608) scale(5.586)">0</text><text x="375.539" y="143.015" font-size="5.16" transform="translate(-951.43 -688.608) scale(5.586)">4</text></g><g font-family="'Avenir-Book','Avenir'"><text x="365.359" y="264.175" font-size="6.88" transform="translate(-951.43 -688.608) scale(5.586)">1</text><text x="369.183" y="264.175" font-size="6.88" transform="translate(-951.43 -688.608) scale(5.586)">0</text><text x="373.235" y="262.11" font-size="5.16" transform="translate(-951.43 -688.608) scale(5.586)">-1</text></g><path fill="none" stroke="#000" stroke-width="3.575" d="M1175.748 107.966h735.599v666.427h-735.599z"/><path d="M1267.984 774.393V107.966m91.086 666.427V107.966m92.236 666.427V107.966m92.247 666.427V107.966m91.074 666.427V107.966m92.242 666.427V107.966m92.242 666.427V107.966m-643.363 546.512h735.599m-735.599 16.138h735.599m-735.599 24.216h735.599m-735.599 40.353h735.599m-735.599-214.452h735.599m-735.599 17.294h735.599m-735.599 23.059h735.599m-735.599 40.359h735.599m-735.599-214.458h735.599m-735.599 17.294h735.599m-735.599 23.06h735.599m-735.599 40.352h735.599m-735.599-213.301h735.599m-735.599 16.143h735.599m-735.599 24.21h735.599m-735.599 39.203h735.599m-735.599-213.302h735.599m-735.599 16.144h735.599M1175.748 161h735.599m-735.599 40.353h735.599m-735.599 440.44h735.599m-735.599-133.74h735.599M1175.748 374.3h735.599m-735.599-133.746h735.599" fill="none" stroke="#000" stroke-width="1.788"/><path d="M1385.586 457.317l-44.961 313.604m44.961-313.604c18.982-131.556 126.859-239.517 273.212-273.407" fill="none" stroke="#000" stroke-width="5.363"/><g font-size="45.833"><text x="236.878" y="1190.79" font-family="'Avenir-Book','Avenir'" transform="rotate(-90 442.956 569.601)">V<tspan x="262.361px 289.54px" y="1190.79px 1190.79px">or</tspan>wärtsstr<tspan x="460.728px 487.907px" y="1190.79px 1190.79px">om</tspan></text><text x="539.699" y="1190.79" font-family="'Avenir-BookOblique','Avenir'" font-style="italic" transform="rotate(-90 442.956 569.601)">(forwar<tspan x="678.849px 706.853px" y="1190.79px 1190.79px">d </tspan>curr<tspan x="796.778px 822.261px" y="1190.79px 1190.79px">en</tspan>t)</text><text x="887.619" y="1190.79" font-family="'Avenir-Book','Avenir'" transform="rotate(-90 442.956 569.601)">in</text><text x="545.244" y="1236.63" font-family="'Avenir-Book','Avenir'" transform="rotate(-90 442.956 569.601)">mA</text></g><g font-size="45.833"><text x="214.809" y="1190.79" font-family="'Avenir-Book','Avenir'" transform="translate(888.672 -284.808)">V<tspan x="240.292px 267.472px" y="1190.79px 1190.79px">or</tspan>wärtsspannung</text><text x="603.522" y="1190.79" font-family="'Avenir-BookOblique','Avenir'" font-style="italic" transform="translate(888.672 -284.808)">(forwar<tspan x="742.672px 770.676px" y="1190.79px 1190.79px">d </tspan>voltage)</text><text x="960.838" y="1190.79" font-family="'Avenir-Book','Avenir'" transform="translate(888.672 -284.808)">in V</text></g><text x="1444.02" y="1585.58" font-family="'Avenir-Book','Avenir'" font-size="37.5" transform="translate(-276.83 -769.427)">0</text><text x="1444.02" y="1585.58" font-family="'Avenir-Book','Avenir'" font-size="37.5" transform="translate(-95.447 -769.427)">1</text><text x="1437.72" y="1585.58" font-family="'Avenir-Book','Avenir'" font-size="37.5" transform="translate(96.005 -769.427)">2</text><text x="1444.02" y="1585.58" font-family="'Avenir-Book','Avenir'" font-size="37.5" transform="translate(272.216 -769.427)">3</text><text x="1444.02" y="1585.58" font-family="'Avenir-Book','Avenir'" font-size="37.5" transform="translate(456.898 -754.292)">4</text><g font-size="45.833"><text x="411.531" y="1608.49" font-family="'Avenir-Medium','Avenir'" font-weight="500" transform="translate(866.582 -1573.833)">IR - LED</text><text x="590.74" y="1608.49" font-family="'Avenir-Book','Avenir'" transform="translate(866.582 -1573.833)">(V<tspan x="630.935px 641.935px" y="1608.49px 1608.49px">is</tspan>hay TSUS540)</text></g><path fill="none" stroke="#000" stroke-width="3.582" d="M202.212 123.91h701.34v636.986h-701.34z"/><path d="M271.468 760.896V123.91m70.352 636.986V123.91m70.352 636.986V123.91m69.256 636.986V123.91m70.358 636.986V123.91m70.352 636.986V123.91m70.352 636.986V123.91m69.256 636.986V123.91m70.352 636.986V123.91M201.11 634.157h701.34M201.11 506.323h701.34m-701.34-127.84h701.34m-701.34-127.84h701.34" fill="none" stroke="#000" stroke-width="1.818"/><path d="M649.614 314.562l53.869 130.043a1034.72 1034.72 0 0013.393 30.882c18.484 40.86 37.716 76.736 49.056 91.472m-.893-2.235c16.8 27.942 41.918 54.574 71.817 76.137 21.029 15.169 43.795 27.386 66.674 35.748M371.5 512.936c-6.25 15.521-15.928 35.54-27.001 55.83-15.5 28.38-31.658 53.515-42.212 65.663m157.156-320.968c-12.255 17.628-37.005 69.608-61.6 129.374-10.72 26.05-20.681 51.815-28.75 74.383m-64.652 112.527c-27.284 40.122-63.829 66.888-102.25 74.918m257.252-391.202c21.74-42.074 64.823-66 108.629-60.333 35.138 4.545 65.599 27.546 81.446 61.498" fill="none" stroke="#000" stroke-width="5.4"/><path fill="#fff" d="M437.457 668.133h229.748v48.677H437.457z"/><text x="156.387" y="628.766" font-family="'Avenir-Roman','Avenir',sans-serif" font-size="6.88" transform="matrix(5.88978 0 0 5.34671 -470.018 -2657.329)">I</text><text x="158.357" y="631.057" font-family="'Avenir-Roman','Avenir',sans-serif" font-size="4.011" transform="matrix(5.88989 0 0 5.34671 -471.11 -2657.329)">F</text><text x="162.727" y="628.766" font-family="'Avenir-Roman','Avenir',sans-serif" font-size="6.88" transform="matrix(5.88978 0 0 5.34671 -472.422 -2657.329)">= 100 mA</text><g font-size="45.833"><text x="261.462" y="1190.79" font-family="'Avenir-Book','Avenir'" transform="translate(-57.894 -284.808)">W<tspan x="303.904px 329.387px" y="1190.79px 1190.79px">el</tspan>lenlänge (</text><text x="540.771" y="1190.79" font-family="'Avenir-BookOblique','Avenir'" font-style="italic" transform="translate(-57.894 -284.808)">wavelength)</text><text x="800.554" y="1190.79" font-family="'Avenir-Book','Avenir'" transform="translate(-57.894 -284.808)">in nm</text></g><g font-size="45.833"><text x="213.992" y="1190.79" font-family="'Avenir-Book','Avenir'" transform="rotate(-90 -70.48 1085.663)">r<tspan x="228.384px 253.867px" y="1190.79px 1190.79px">el</tspan>ative spektrale Strahlungsleistung</text><text x="353.555" y="1236.63" font-family="'Avenir-BookOblique','Avenir'" font-style="italic" transform="rotate(-90 -70.48 1085.663)">(r<tspan x="379.863px 405.346px" y="1236.63px 1236.63px">el</tspan>ative radiant power)</text></g><text x="15.815" y="28.35" font-family="'Avenir-Book','Avenir'" font-size="37.5" transform="translate(845.611 788.232)">1050</text><text x="26.24" y="28.35" font-family="'Avenir-Book','Avenir'" font-size="37.5" transform="translate(494.492 788.232)">950</text><text x="26.24" y="28.35" font-family="'Avenir-Book','Avenir'" font-size="37.5" transform="translate(147.454 788.232)">900</text><text x="1464.46" y="1585.58" font-family="'Avenir-Book','Avenir'" font-size="37.5" transform="translate(-1329.7 -810.996)">0,0</text><text x="1443.61" y="1585.58" font-family="'Avenir-Book','Avenir'" font-size="37.5" transform="translate(-1329.7 -943.818)">0,25</text><text x="1443.61" y="1585.58" font-family="'Avenir-Book','Avenir'" font-size="37.5" transform="translate(-1329.7 -1447.508)">1,25</text><text x="1464.46" y="1585.58" font-family="'Avenir-Book','Avenir'" font-size="37.5" transform="translate(-1329.7 -1068.93)">0,5</text><text x="1443.61" y="1585.58" font-family="'Avenir-Book','Avenir'" font-size="37.5" transform="translate(-1329.7 -1196.962)">0,75</text><text x="1464.46" y="1585.58" font-family="'Avenir-Book','Avenir'" font-size="37.5" transform="translate(-1329.7 -1325.565)">1,0</text><g font-size="45.833"><text x="411.531" y="1608.49" font-family="'Avenir-Medium','Avenir'" font-weight="500" transform="translate(-124.761 -1573.838)">IR - LED</text><text x="590.74" y="1608.49" font-family="'Avenir-Book','Avenir'" transform="translate(-124.761 -1573.838)">(V<tspan x="630.935px 641.935px" y="1608.49px 1608.49px">is</tspan>hay TSUS540)</text></g></svg>