<svg viewBox="0 0 792 632" xmlns="http://www.w3.org/2000/svg" fill-rule="evenodd" clip-rule="evenodd" stroke-linecap="round" stroke-linejoin="bevel" stroke-miterlimit="1.5"><g transform="translate(-741.04 -127.625) scale(.73386)"><circle cx="1594.49" cy="389.764" r="59.055" fill="#f49e9e"/><path d="M1594.49 330.709c32.59 0 59.05 26.461 59.05 59.055 0 32.593-26.46 59.055-59.05 59.055-32.6 0-59.06-26.462-59.06-59.055 0-32.594 26.46-59.055 59.06-59.055zm0 5.677c29.46 0 53.38 23.918 53.38 53.378s-23.92 53.377-53.38 53.377-53.38-23.917-53.38-53.377 23.92-53.378 53.38-53.378z"/></g><path d="M446.442 180.257v23.622m0-70.866v-23.622" fill="none" stroke="#000" stroke-width="4.17"/><path fill="none" d="M389.523 135.083h47.244v47.244h-47.244z"/><path d="M413.143 133.013l.23 47.24" fill="none" stroke="#000" stroke-width="4.17" stroke-linecap="square" stroke-linejoin="round"/><path d="M413.143 144.823l33.3-11.81m-33.3 35.43l33.3 11.81" fill="none" stroke="#000" stroke-width="4.17" stroke-linecap="butt"/><path d="M428.9 167.007l10.16 10.588-14.567 1.776 4.406-12.364z"/><path d="M413.371 168.441l15.798 5.63" fill="none" stroke="#000" stroke-width="2.92" stroke-linecap="butt"/><path d="M377.808 132.205l3.267 10.438-10.935.214 7.668-10.652z"/><path d="M362.28 129.112l13.114 9.44" fill="none" stroke="#000" stroke-width="2.92"/><path d="M385.553 121.345l3.267 10.439-10.935.213 7.668-10.652z"/><path d="M370.025 118.253l13.114 9.441" fill="none" stroke="#000" stroke-width="2.92"/><g font-family="'Avenir-Book','Avenir'" font-size="41.667"><text x="334.668" y="1685.04" transform="translate(-169.12 -1095.334)">Näherungssensor mit</text><text x="340.522" y="1726.71" transform="translate(-169.12 -1095.334)">einem Fototransistor</text></g><path d="M234.302 392.856v70.87" fill="none" stroke="#000" stroke-width="4.17"/><path d="M198.871 463.721h70.87m-59.032 8.856h47.19" fill="none" stroke="#000" stroke-width="4.17" stroke-linecap="square" stroke-linejoin="round"/><path d="M1405.51 1057.09h29.53" fill="none" stroke="#000" stroke-width="4.56" stroke-linecap="square" stroke-linejoin="round" transform="matrix(.81905 0 0 1 -928.979 -575.649)"/><g fill="none" stroke="#000" stroke-width="4.17" stroke-linecap="butt"><path d="M124.527 44.771a6.254 6.254 0 01-6.25-6.25c0-3.45 2.801-6.25 6.25-6.25 3.45 0 6.25 2.8 6.25 6.25 0 3.449-2.8 6.25-6.25 6.25z" stroke-linejoin="miter" stroke-miterlimit="10"/><path d="M234.304 321.985V38.521H130.777"/></g><path d="M635.892 274.748c.807-.71 35.431-23.63 35.431-23.63H777.62v47.25H671.323s-36.238-22.91-35.431-23.62z" fill="#d9d9d9"/><path d="M635.892 274.748c.807-.71 35.431-23.63 35.431-23.63H777.62v47.25H671.323s-36.238-22.91-35.431-23.62zm36.639 19.45h100.921v-38.91H672.576c-4.4 2.91-21.535 14.24-29.645 19.67 8.196 5.65 25.262 16.49 29.6 19.24z"/><text x="912.681" y="1476.51" font-family="'ArialMT','Arial',sans-serif" font-size="33.333" transform="translate(-214.51 -1189.822)">A0</text><g transform="translate(.003 -.002)"><circle cx="446.9" cy="274.745" r="6.25"/><path d="M446.9 274.745h188.989" fill="none" stroke="#000" stroke-width="4.17"/></g><path d="M233.85 175.9l-35.43-53.145h70.86L233.85 175.9z" fill="#f49e9e"/><path d="M233.85 175.9l-35.43-53.145h70.86L233.85 175.9zm-27.645-48.975L233.85 168.4l27.645-41.475h-55.29z"/><path d="M269.28 175.9h-70.86" fill="none" stroke="#000" stroke-width="4.17"/><path d="M275.756 160.437l3.267 10.44-10.935.212 7.668-10.652z"/><path d="M260.228 157.345l13.114 9.441" fill="none" stroke="#000" stroke-width="2.92"/><path d="M283.5 149.579l3.268 10.438-10.935.214 7.668-10.652z"/><path d="M267.973 146.486l13.114 9.44" fill="none" stroke="#000" stroke-width="2.92"/><text x="330.709" y="1504.86" font-family="'Arial-ItalicMT','Arial',sans-serif" font-style="italic" font-size="41.667" transform="translate(317.9 -1144.34)">Arduino</text><text x="330.709" y="1507.23" font-family="'Arial-ItalicMT','Arial',sans-serif" font-style="italic" font-size="41.667" transform="translate(-333.086 -1374.21)">IR-Diode</text><text x="330.709" y="1507.23" font-family="'Arial-ItalicMT','Arial',sans-serif" font-style="italic" font-size="41.667" transform="translate(162.98 -1374.21)">Fototransistor</text><text x="283.465" y="1172.4" font-family="'ArialMT','Arial',sans-serif" font-size="41.667" transform="translate(-238.598 -1142.578)">5 V</text><g fill="none" stroke="#000" stroke-linecap="square" stroke-linejoin="round"><path d="M411.469 463.721h70.87m-59.032 8.856h47.19" stroke-width="4.17"/><path d="M1405.51 1057.09h29.53" stroke-width="4.56" transform="matrix(.81905 0 0 1 -716.381 -575.649)"/></g><path fill="#fff" d="M210.682 321.993h47.244v94.488h-47.244z"/><path d="M257.926 321.993h-47.244v94.49h47.244v-94.49zm-43.077 4.16v86.16h38.91v-86.16h-38.91z"/><path d="M234.302 38.526h212.14v70.86m-.002 94.493v259.842" fill="none" stroke="#000" stroke-width="4.17"/><path fill="#fff" d="M422.819 321.993h47.244v94.488h-47.244z"/><path d="M470.063 321.993h-47.244v94.49h47.244v-94.49zm-43.077 4.16v86.16h38.91v-86.16h-38.91z"/><path d="M502.165 394.916c0-.208.167-7.454.246-10.104.046-.783.17-1.075.5-1.075h1.654c3.23 0 6.917.87 6.917 4.842 0 4.929-4.392 6.954-8.946 6.954-.288 0-.371-.371-.371-.617zm4.47 1.613c4.922-.542 8.9-2.859 8.9-8.613 0-3.85-3.353-5.796-8.403-5.796h-11.259l-.245.25-.046.7c.379 0 3.191.542 3.191 1.871 0 2.354.121 6.496.121 7.117 0 6-.037 12.041-.37 18.046l.458.37 3.429-1.2c-.2-3.975-.2-7.987-.2-11.962.246 0 .617.167.825.375 1.2 1.2 6.45 7.942 10.304 12.87l4.096-1.074v-.375l-10.883-12.246.083-.333m32.396 19.948V396.21h-2.371l-6.68 12.004-6.82-12.004h-2.38v20.267h2.2v-16.23l7 12.28 6.859-12.28v16.23h2.192m-382.537-21.971c0-.208.167-7.454.246-10.104.046-.783.17-1.075.5-1.075h1.654c3.23 0 6.917.87 6.917 4.842 0 4.929-4.392 6.954-8.946 6.954-.288 0-.371-.371-.371-.617zm4.47 1.613c4.922-.542 8.9-2.859 8.9-8.613 0-3.85-3.353-5.796-8.403-5.796h-11.259l-.245.25-.046.7c.379 0 3.191.542 3.191 1.871 0 2.354.121 6.496.121 7.117 0 6-.037 12.041-.37 18.046l.458.37 3.429-1.2c-.2-3.975-.2-7.987-.2-11.962.246 0 .617.167.825.375 1.196 1.2 6.45 7.942 10.304 12.87l4.096-1.074v-.375l-10.883-12.246.083-.333m25.634 6.741h-2.022l-4.425 9.253-4.42-9.254h-2.025l6.445 13.617 6.446-13.617" fill-rule="nonzero"/></svg>