<svg viewBox="0 0 932 692" xmlns="http://www.w3.org/2000/svg" fill-rule="evenodd" clip-rule="evenodd" stroke-linecap="round" stroke-linejoin="bevel" stroke-miterlimit="1.5"><g transform="translate(-606.838 -105.484) scale(.73386)"><circle cx="1594.49" cy="389.764" r="59.055" fill="#c4c8ed"/><path d="M1594.49 330.709c32.59 0 59.05 26.461 59.05 59.055 0 32.593-26.46 59.055-59.05 59.055-32.6 0-59.06-26.462-59.06-59.055 0-32.594 26.46-59.055 59.06-59.055zm0 5.677c29.46 0 53.38 23.918 53.38 53.378s-23.92 53.377-53.38 53.377-53.38-23.917-53.38-53.377 23.92-53.378 53.38-53.378z"/></g><path d="M580.645 202.398v23.622m0-70.866v-23.622" fill="none" stroke="#000" stroke-width="4.17"/><path d="M547.346 155.154l.23 47.24" fill="none" stroke="#000" stroke-width="4.17" stroke-linecap="square" stroke-linejoin="round"/><path d="M547.346 166.964l33.3-11.81m-33.3 35.43l33.3 11.81" fill="none" stroke="#000" stroke-width="4.17" stroke-linecap="butt"/><path d="M563.553 186.988l13.548 14.116-19.422 2.37 5.874-16.486z"/><path d="M547.573 190.583s8.472 3.02 16.34 5.822" fill="none" stroke="#000" stroke-width="2.92" stroke-linecap="butt"/><path d="M512.01 154.347l3.268 10.438-10.935.214 7.668-10.652z"/><path d="M496.483 151.254l13.114 9.44" fill="none" stroke="#000" stroke-width="2.92"/><path d="M519.756 143.487l3.267 10.438-10.935.214 7.668-10.652z"/><path d="M504.228 140.395l13.114 9.441" fill="none" stroke="#000" stroke-width="2.92"/><path d="M63.11 619.587h11.513l-5.737-13.95-5.775 13.95zm-3.937 9.45h-3.15l11.55-26.55h2.625l11.55 26.55h-3.15l-2.925-6.975H62.098l-2.925 6.975zm41.287-8.775a8.22 8.22 0 00-.45-2.737 7.295 7.295 0 00-1.35-2.213c-.562-.637-1.274-1.125-2.062-1.5a7.316 7.316 0 00-2.775-.525 7.67 7.67 0 00-2.813.525 6.997 6.997 0 00-2.212 1.5 6.333 6.333 0 00-1.463 2.213 7.409 7.409 0 000 5.475 6.333 6.333 0 001.463 2.212 6.333 6.333 0 002.212 1.462 6.98 6.98 0 002.813.563c1.012 0 1.95-.187 2.775-.563a5.755 5.755 0 002.062-1.462 7.295 7.295 0 001.35-2.213c.3-.862.45-1.762.45-2.737zm-16.012-19.575h2.475v13.725h.075c.412-.6.862-1.125 1.425-1.537.562-.413 1.125-.788 1.725-1.05.6-.263 1.237-.488 1.875-.6.637-.113 1.237-.188 1.8-.188 1.387 0 2.625.225 3.787.675 1.125.488 2.1 1.125 2.925 1.95.825.825 1.463 1.8 1.95 2.925.45 1.125.675 2.362.675 3.675 0 1.313-.225 2.55-.675 3.675-.487 1.125-1.125 2.1-1.95 2.925a8.605 8.605 0 01-2.925 1.912c-1.162.488-2.4.713-3.787.713-.563 0-1.163-.075-1.8-.188-.638-.112-1.275-.337-1.875-.6-.6-.262-1.163-.637-1.725-1.05-.563-.412-1.013-.937-1.425-1.537h-.075v2.925h-2.475v-28.35zm38.926 19.575a8.22 8.22 0 00-.45-2.737 7.295 7.295 0 00-1.35-2.213c-.563-.637-1.275-1.125-2.063-1.5a7.316 7.316 0 00-2.775-.525 7.67 7.67 0 00-2.813.525 6.997 6.997 0 00-2.212 1.5 6.333 6.333 0 00-1.463 2.213 7.409 7.409 0 000 5.475 6.333 6.333 0 001.463 2.212 6.333 6.333 0 002.212 1.462 6.98 6.98 0 002.813.563c1.012 0 1.95-.187 2.775-.563a5.755 5.755 0 002.063-1.462 7.295 7.295 0 001.35-2.213c.3-.862.45-1.762.45-2.737zm-16.013-19.575h2.475v13.725h.075c.412-.6.862-1.125 1.425-1.537.563-.413 1.125-.788 1.725-1.05.6-.263 1.237-.488 1.875-.6.637-.113 1.237-.188 1.8-.188 1.387 0 2.625.225 3.787.675 1.125.488 2.1 1.125 2.925 1.95.825.825 1.463 1.8 1.95 2.925.45 1.125.675 2.362.675 3.675 0 1.313-.225 2.55-.675 3.675-.487 1.125-1.125 2.1-1.95 2.925a8.605 8.605 0 01-2.925 1.912c-1.162.488-2.4.713-3.787.713-.563 0-1.163-.075-1.8-.188-.638-.112-1.275-.337-1.875-.6-.6-.262-1.163-.637-1.725-1.05-.562-.412-1.012-.937-1.425-1.537h-.075v2.925h-2.475v-28.35zm27.449 26.55c0 .525-.187.975-.562 1.388a1.9 1.9 0 01-1.462.637 1.9 1.9 0 01-1.463-.637c-.375-.413-.562-.863-.562-1.388 0-.525.187-1.012.562-1.425.375-.412.863-.6 1.463-.6.6 0 1.087.188 1.462.6.375.413.563.9.563 1.425zm10.426 0c0 .525-.188.975-.563 1.388a1.9 1.9 0 01-1.462.637 1.9 1.9 0 01-1.463-.637c-.375-.413-.563-.863-.563-1.388 0-.525.188-1.012.563-1.425.375-.412.862-.6 1.463-.6.6 0 1.087.188 1.462.6.375.413.563.9.563 1.425zm0-13.912c0 .525-.188.975-.563 1.387a1.9 1.9 0 01-1.462.638 1.9 1.9 0 01-1.463-.638c-.375-.412-.563-.862-.563-1.387s.188-1.013.563-1.425c.375-.413.862-.6 1.463-.6.6 0 1.087.187 1.462.6.375.412.563.9.563 1.425zm36.412 11.662h.075v-22.5h2.7v26.55h-3.375l-15.825-22.725h-.075v22.725h-2.7v-26.55h3.375l15.825 22.5zm19.05-4.687c-.637 0-1.387.037-2.325.075-.937.075-1.837.225-2.7.45-.862.262-1.612.637-2.212 1.125-.638.487-.938 1.2-.938 2.062 0 .563.113 1.05.375 1.463.225.412.525.75.938 1.012.412.263.862.45 1.35.563.487.15.975.187 1.462.187.9 0 1.688-.15 2.363-.45.637-.3 1.2-.712 1.65-1.237.45-.488.787-1.088 1.012-1.8a8.02 8.02 0 00.3-2.175V620.3h-1.275zm1.275-2.025v-.45c0-3.038-1.5-4.538-4.5-4.538-2.062 0-3.825.675-5.362 2.062l-1.5-1.762c1.65-1.688 4.125-2.55 7.425-2.55.862 0 1.687.113 2.475.375.787.262 1.462.637 2.025 1.125a5.75 5.75 0 011.387 1.95c.338.788.525 1.688.525 2.775v7.838c0 .675.038 1.387.113 2.1.037.75.112 1.35.187 1.837h-2.4c-.075-.412-.112-.9-.15-1.387-.037-.488-.075-.975-.075-1.463h-.075c-.712 1.163-1.575 2.025-2.55 2.513-1.012.525-2.212.787-3.637.787a8.808 8.808 0 01-2.25-.3 5.852 5.852 0 01-1.913-1.012 4.33 4.33 0 01-1.35-1.613c-.337-.637-.525-1.35-.525-2.212 0-1.425.375-2.55 1.125-3.375.713-.788 1.65-1.388 2.775-1.8 1.088-.413 2.288-.638 3.563-.75 1.237-.113 2.4-.15 3.45-.15h1.237zm-2.512-13.5c0-.488.187-.938.525-1.35.337-.375.825-.563 1.387-.563.563 0 1.05.188 1.388.563.337.412.525.862.525 1.35 0 .487-.188.937-.525 1.312-.338.413-.825.6-1.388.6-.562 0-1.05-.187-1.387-.6a1.942 1.942 0 01-.525-1.312zm-7.2 0c0-.488.187-.938.525-1.35.337-.375.825-.563 1.387-.563.563 0 1.05.188 1.388.563.337.412.525.862.525 1.35 0 .487-.188.937-.525 1.312-.338.413-.825.6-1.388.6-.562 0-1.05-.187-1.387-.6a1.942 1.942 0 01-.525-1.312zm17.925-4.088h2.475v13.612h.075c.262-.487.637-.9 1.05-1.312.412-.413.9-.75 1.425-1.05a11.31 11.31 0 011.687-.675 6.81 6.81 0 011.725-.225c2.25 0 3.9.6 4.988 1.762 1.088 1.2 1.612 2.888 1.612 5.1v11.138h-2.475v-9.712c0-1.95-.337-3.45-1.012-4.5-.675-1.013-1.912-1.538-3.75-1.538-.112 0-.487.038-1.05.15-.563.113-1.163.375-1.8.825-.637.45-1.237 1.125-1.725 2.025-.488.9-.75 2.138-.75 3.75v9h-2.475v-28.35zm34.5 18.225c0-1.687-.488-3.037-1.5-4.087-1.013-1.013-2.4-1.538-4.2-1.538-.787 0-1.575.15-2.325.45-.75.338-1.387.75-1.95 1.275-.562.525-1.05 1.125-1.35 1.8-.337.675-.525 1.388-.525 2.1h11.85zm-11.925 2.025c.075.862.3 1.687.638 2.475.337.787.824 1.425 1.387 1.987a6.656 6.656 0 001.987 1.35c.75.338 1.575.488 2.438.488 1.312 0 2.475-.3 3.45-.937.937-.6 1.687-1.313 2.175-2.1l1.912 1.574c-1.05 1.313-2.212 2.288-3.45 2.85a9.984 9.984 0 01-4.087.863c-1.313 0-2.513-.225-3.6-.713-1.125-.45-2.1-1.087-2.888-1.912a9.103 9.103 0 01-1.875-2.925c-.487-1.125-.712-2.362-.712-3.675 0-1.312.225-2.55.675-3.675a9.103 9.103 0 011.875-2.925c.788-.825 1.725-1.462 2.813-1.95a9.03 9.03 0 013.487-.675c1.313 0 2.513.225 3.563.713 1.05.487 1.95 1.087 2.662 1.875a8.846 8.846 0 011.612 2.775 10.34 10.34 0 01.563 3.412v1.125h-14.625zm19.388-3.975c0-.788 0-1.575-.038-2.362a181.1 181.1 0 01-.112-3.113h2.437v3.263h.075c.188-.488.413-.938.75-1.388.338-.412.713-.825 1.2-1.162.45-.338.975-.638 1.612-.863a6.83 6.83 0 012.063-.3c.713 0 1.313.075 1.838.225l-.488 2.438c-.338-.113-.788-.188-1.425-.188-.937 0-1.762.188-2.437.525-.676.375-1.238.825-1.688 1.388-.45.6-.788 1.2-.975 1.837a5.668 5.668 0 00-.338 1.875v9.9h-2.475v-12.075zm24.862 12.075c-.038-.487-.075-.938-.075-1.425-.038-.45-.038-.9-.038-1.387h-.075c-.262.487-.637.9-1.05 1.312-.412.412-.9.75-1.425 1.013-.525.3-1.087.525-1.65.712-.6.15-1.2.225-1.762.225-2.25 0-3.9-.6-4.988-1.8-1.087-1.162-1.612-2.85-1.612-5.062v-11.138h2.475v9.713c0 .975.075 1.837.225 2.587.15.75.413 1.388.788 1.875.337.525.825.9 1.462 1.163.6.3 1.35.412 2.288.412.112 0 .487-.037 1.05-.15.562-.112 1.2-.375 1.837-.825.637-.45 1.2-1.125 1.687-2.025.488-.9.75-2.137.75-3.75v-9h2.475v13.688c0 .487.038 1.087.076 1.8.037.712.075 1.425.112 2.062h-2.55zm10.537-17.55c.038.488.075.938.113 1.388v1.425h.075c.262-.488.637-.9 1.05-1.313.412-.412.9-.75 1.425-1.05a11.31 11.31 0 011.688-.675 6.81 6.81 0 011.725-.225c2.25 0 3.9.6 4.987 1.763 1.088 1.2 1.613 2.887 1.613 5.1v11.137h-2.475v-9.712c0-1.95-.338-3.45-1.013-4.5-.675-1.013-1.912-1.538-3.75-1.538-.112 0-.487.038-1.05.15-.562.113-1.162.375-1.8.825-.637.45-1.237 1.125-1.725 2.025-.488.9-.75 2.138-.75 3.75v9h-2.475V615.35c0-.488 0-1.088-.038-1.8-.037-.713-.112-1.425-.15-2.063h2.55zm20.288 8.55c0 .937.188 1.8.525 2.587.3.825.787 1.538 1.388 2.138a5.755 5.755 0 002.062 1.463 5.776 5.776 0 002.55.562c.9 0 1.763-.15 2.588-.487a7.228 7.228 0 002.137-1.388 5.586 5.586 0 001.462-2.1c.338-.825.488-1.762.45-2.775 0-.938-.15-1.8-.45-2.625a6.99 6.99 0 00-1.312-2.137c-.563-.6-1.275-1.088-2.1-1.463a7.316 7.316 0 00-2.775-.525c-.938 0-1.763.188-2.55.525-.788.375-1.5.863-2.063 1.463-.6.637-1.087 1.35-1.387 2.137a6.832 6.832 0 00-.525 2.625zm-.45 12.525c.713.975 1.688 1.763 2.85 2.363 1.163.562 2.438.862 3.863.862 1.237 0 2.325-.188 3.187-.525.863-.375 1.575-.863 2.138-1.5.525-.638.9-1.35 1.162-2.175.225-.863.338-1.762.338-2.7v-3.15h-.075c-.788 1.2-1.763 2.062-2.925 2.55a9.286 9.286 0 01-3.638.75c-1.275 0-2.475-.225-3.562-.675a9.103 9.103 0 01-2.925-1.875c-.825-.787-1.463-1.725-1.95-2.812-.488-1.088-.713-2.288-.713-3.563 0-1.275.225-2.475.675-3.563a9.354 9.354 0 011.875-2.887c.75-.825 1.725-1.463 2.813-1.95 1.087-.45 2.25-.675 3.562-.675.525 0 1.088.037 1.688.15.562.112 1.162.262 1.762.525.563.262 1.163.6 1.725 1.012a8.69 8.69 0 011.613 1.688h.075v-2.925h2.475v17.4c0 .938-.113 1.95-.338 3.038a7.958 7.958 0 01-1.387 2.962c-.713.9-1.65 1.65-2.888 2.25-1.237.6-2.812.9-4.8.9-1.762 0-3.3-.3-4.687-.863-1.388-.562-2.625-1.462-3.75-2.662l1.837-1.95zm30.862-16.912c-.375-.713-.862-1.313-1.5-1.725-.637-.413-1.387-.638-2.287-.638-.413 0-.863.037-1.275.15a5 5 0 00-1.2.45c-.338.225-.638.488-.825.825-.225.338-.338.713-.338 1.2 0 .825.3 1.425.863 1.8.562.375 1.425.713 2.587.975l2.513.6c1.237.263 2.25.825 3.075 1.65.787.862 1.2 1.912 1.2 3.15 0 .938-.188 1.762-.563 2.438-.412.712-.9 1.275-1.537 1.687a6.227 6.227 0 01-2.213.975c-.825.187-1.65.3-2.512.3-1.35 0-2.625-.263-3.75-.787-1.163-.488-2.175-1.388-3-2.626l2.137-1.462a5.827 5.827 0 001.913 1.912c.75.488 1.65.713 2.7.713.487 0 1.012-.038 1.5-.187.487-.113.937-.263 1.35-.525a3.06 3.06 0 00.937-.9c.225-.375.338-.825.338-1.313 0-.862-.338-1.5-.975-1.912-.638-.375-1.425-.675-2.363-.9l-2.4-.563c-.3-.075-.712-.188-1.2-.375a6.394 6.394 0 01-1.5-.787 4.552 4.552 0 01-1.275-1.388c-.337-.563-.525-1.238-.525-2.063 0-.9.188-1.687.563-2.362a4.14 4.14 0 011.462-1.65 6.99 6.99 0 012.063-.975 10.26 10.26 0 012.4-.3c1.237 0 2.362.225 3.412.712 1.05.488 1.875 1.275 2.438 2.438l-2.213 1.463zm15.975 0c-.375-.713-.862-1.313-1.5-1.725-.637-.413-1.387-.638-2.287-.638-.413 0-.863.037-1.275.15a5 5 0 00-1.2.45c-.338.225-.638.488-.825.825-.225.338-.338.713-.338 1.2 0 .825.3 1.425.863 1.8.562.375 1.425.713 2.587.975l2.513.6c1.237.263 2.25.825 3.075 1.65.787.862 1.2 1.912 1.2 3.15 0 .938-.188 1.762-.563 2.438-.412.712-.9 1.275-1.537 1.687a6.227 6.227 0 01-2.213.975c-.825.187-1.65.3-2.512.3-1.35 0-2.625-.263-3.75-.787-1.163-.488-2.175-1.388-3-2.626l2.137-1.462a5.827 5.827 0 001.913 1.912c.75.488 1.65.713 2.7.713.487 0 1.012-.038 1.5-.187.487-.113.937-.263 1.35-.525a3.06 3.06 0 00.937-.9c.225-.375.338-.825.338-1.313 0-.862-.338-1.5-.975-1.912-.638-.375-1.425-.675-2.363-.9l-2.4-.563c-.3-.075-.712-.188-1.2-.375a6.394 6.394 0 01-1.5-.787 4.552 4.552 0 01-1.275-1.388c-.337-.563-.525-1.238-.525-2.063 0-.9.188-1.687.563-2.362a4.14 4.14 0 011.462-1.65 6.99 6.99 0 012.063-.975 10.26 10.26 0 012.4-.3c1.237 0 2.362.225 3.412.712 1.05.488 1.875 1.275 2.438 2.438l-2.213 1.463zm20.325 3.262c0-1.687-.488-3.037-1.5-4.087-1.013-1.013-2.4-1.538-4.2-1.538-.787 0-1.575.15-2.325.45-.75.338-1.388.75-1.95 1.275-.562.525-1.05 1.125-1.35 1.8-.338.675-.525 1.388-.525 2.1h11.85zm-11.925 2.025c.075.862.3 1.687.638 2.475.337.787.824 1.425 1.387 1.987a6.656 6.656 0 001.987 1.35c.75.338 1.575.488 2.438.488 1.313 0 2.475-.3 3.45-.937.937-.6 1.687-1.313 2.175-2.1l1.912 1.574c-1.05 1.313-2.212 2.288-3.45 2.85a9.984 9.984 0 01-4.087.863c-1.312 0-2.512-.225-3.6-.713-1.125-.45-2.1-1.087-2.888-1.912a9.103 9.103 0 01-1.874-2.925c-.488-1.125-.713-2.362-.713-3.675 0-1.312.225-2.55.675-3.675a9.103 9.103 0 011.875-2.925c.788-.825 1.725-1.462 2.813-1.95a9.03 9.03 0 013.487-.675c1.313 0 2.513.225 3.563.713 1.05.487 1.95 1.087 2.662 1.875a8.846 8.846 0 011.613 2.775 10.34 10.34 0 01.562 3.412v1.125h-14.625zm21.487-9.45c.038.488.075.938.113 1.388v1.425h.075c.262-.488.637-.9 1.05-1.313.412-.412.9-.75 1.425-1.05a11.31 11.31 0 011.688-.675 6.81 6.81 0 011.725-.225c2.25 0 3.9.6 4.987 1.763 1.088 1.2 1.613 2.887 1.613 5.1v11.137h-2.475v-9.712c0-1.95-.338-3.45-1.013-4.5-.675-1.013-1.912-1.538-3.75-1.538-.112 0-.487.038-1.05.15-.562.113-1.162.375-1.8.825-.637.45-1.237 1.125-1.725 2.025-.488.9-.75 2.138-.75 3.75v9h-2.475V615.35c0-.488 0-1.088-.038-1.8-.037-.713-.112-1.425-.15-2.063h2.55zm27.788 4.163c-.375-.713-.863-1.313-1.5-1.725-.638-.413-1.388-.638-2.288-.638-.412 0-.862.037-1.275.15a5 5 0 00-1.2.45c-.337.225-.637.488-.824.825-.225.338-.338.713-.338 1.2 0 .825.3 1.425.863 1.8.562.375 1.425.713 2.587.975l2.513.6c1.237.263 2.25.825 3.075 1.65.787.862 1.2 1.912 1.2 3.15 0 .938-.188 1.762-.563 2.438-.413.712-.9 1.275-1.537 1.687a6.227 6.227 0 01-2.213.975c-.825.187-1.65.3-2.513.3-1.35 0-2.624-.263-3.75-.787-1.162-.488-2.174-1.388-3-2.626l2.138-1.462a5.827 5.827 0 001.912 1.912c.75.488 1.65.713 2.7.713.488 0 1.013-.038 1.5-.187.488-.113.938-.263 1.35-.525a3.06 3.06 0 00.938-.9c.225-.375.338-.825.338-1.313 0-.862-.338-1.5-.975-1.912-.638-.375-1.425-.675-2.363-.9l-2.4-.563c-.3-.075-.713-.188-1.2-.375a6.394 6.394 0 01-1.5-.787 4.552 4.552 0 01-1.275-1.388c-.337-.563-.525-1.238-.525-2.063 0-.9.188-1.687.563-2.362a4.14 4.14 0 011.462-1.65 6.99 6.99 0 012.063-.975 10.26 10.26 0 012.4-.3c1.237 0 2.362.225 3.412.712 1.05.488 1.875 1.275 2.438 2.438l-2.213 1.463zm21.712 4.612a8.22 8.22 0 00-.45-2.737 7.295 7.295 0 00-1.35-2.213c-.562-.637-1.274-1.125-2.062-1.5a7.316 7.316 0 00-2.775-.525c-1.012 0-1.95.188-2.737.525-.825.375-1.5.863-2.063 1.5a6.54 6.54 0 00-1.312 2.213c-.338.862-.488 1.762-.488 2.737 0 .975.15 1.875.488 2.738.3.862.75 1.575 1.312 2.212a5.447 5.447 0 002.063 1.462c.787.375 1.725.563 2.737.563 1.013 0 1.95-.187 2.775-.563a5.755 5.755 0 002.063-1.462 7.295 7.295 0 001.35-2.213c.3-.862.45-1.762.45-2.737zm2.7 0c0 1.313-.224 2.55-.674 3.675-.488 1.125-1.125 2.1-1.95 2.925a8.605 8.605 0 01-2.925 1.912c-1.163.488-2.4.713-3.788.713-1.35 0-2.587-.225-3.712-.713a8.412 8.412 0 01-2.963-1.912 8.605 8.605 0 01-1.912-2.925c-.488-1.125-.713-2.362-.713-3.675 0-1.312.225-2.55.713-3.675a8.605 8.605 0 011.912-2.925c.825-.825 1.8-1.462 2.963-1.95 1.125-.45 2.362-.675 3.712-.675 1.388 0 2.625.225 3.788.675 1.125.488 2.1 1.125 2.925 1.95.825.825 1.462 1.8 1.95 2.925.45 1.125.675 2.363.675 3.675zm4.763-3.3c0-.788 0-1.575-.037-2.362a181.1 181.1 0 01-.113-3.113h2.438v3.263h.075c.187-.488.412-.938.75-1.388.337-.412.712-.825 1.2-1.162.45-.338.975-.638 1.612-.863a6.83 6.83 0 012.063-.3c.712 0 1.312.075 1.837.225l-.487 2.438c-.338-.113-.788-.188-1.425-.188-.938 0-1.763.188-2.438.525-.675.375-1.237.825-1.687 1.388-.45.6-.788 1.2-.975 1.837a5.668 5.668 0 00-.338 1.875v9.9h-2.475v-12.075zm22.613-1.575c0-.637 0-1.312-.038-1.95-.037-.638-.112-1.313-.15-1.95h2.663v2.663h.075a5.799 5.799 0 012.512-2.325c1.05-.526 2.1-.788 3.15-.788.488 0 .975.037 1.538.15.525.112 1.05.3 1.537.525.488.262.975.637 1.425 1.125a6.613 6.613 0 011.088 1.837c.488-1.125 1.312-2.025 2.4-2.662 1.087-.638 2.212-.975 3.375-.975 2.25 0 3.9.6 4.987 1.762 1.088 1.2 1.613 2.888 1.613 5.1v11.138h-2.475v-10.238c0-1.762-.3-3.15-.938-4.087-.637-.937-1.8-1.425-3.487-1.425-.938 0-1.688.188-2.325.525a4.313 4.313 0 00-1.5 1.463c-.413.6-.675 1.275-.863 2.025a10.237 10.237 0 00-.262 2.4v9.337h-2.475v-10.238c0-1.762-.3-3.15-.938-4.087-.637-.937-1.8-1.425-3.487-1.425-.15 0-.488.038-1.013.15-.562.113-1.125.375-1.687.825-.563.45-1.088 1.125-1.538 2.025-.487.9-.712 2.138-.712 3.75v9h-2.475v-13.65zm35.55-10.65c0 .525-.187.938-.562 1.275-.375.375-.788.525-1.238.525-.45 0-.862-.15-1.237-.525a1.624 1.624 0 01-.563-1.275c0-.525.188-.975.563-1.312a1.79 1.79 0 011.237-.488c.45 0 .863.15 1.238.488.375.337.562.787.562 1.312zm-.562 24.3h-2.475v-17.55h2.475v17.55zm15.037-15.3h-5.063v10.35c0 .638.075 1.2.188 1.575.113.413.3.75.525.975.225.225.487.375.825.45.3.113.637.15 1.012.15a5.54 5.54 0 001.313-.187c.45-.113.863-.3 1.238-.488l.112 2.288c-.938.412-2.025.637-3.338.637-.487 0-.975-.075-1.462-.187a3.41 3.41 0 01-1.425-.713 3.82 3.82 0 01-1.05-1.425c-.263-.6-.413-1.387-.413-2.362v-11.063h-3.712v-2.25h3.712v-4.95h2.475v4.95h5.063v2.25zm27.45 5.175c0-1.687-.487-3.037-1.5-4.087-1.012-1.013-2.4-1.538-4.2-1.538-.787 0-1.575.15-2.325.45-.75.338-1.388.75-1.95 1.275-.563.525-1.05 1.125-1.35 1.8-.338.675-.525 1.388-.525 2.1h11.85zm-11.925 2.025c.075.862.3 1.687.638 2.475.337.787.825 1.425 1.387 1.987a6.656 6.656 0 001.988 1.35c.75.338 1.575.488 2.437.488 1.313 0 2.475-.3 3.45-.937.938-.6 1.688-1.313 2.175-2.1l1.913 1.574c-1.05 1.313-2.213 2.288-3.45 2.85a9.984 9.984 0 01-4.088.863c-1.312 0-2.512-.225-3.6-.713-1.125-.45-2.1-1.087-2.887-1.912a9.103 9.103 0 01-1.875-2.925c-.488-1.125-.713-2.362-.713-3.675 0-1.312.225-2.55.675-3.675a9.103 9.103 0 011.875-2.925c.788-.825 1.725-1.462 2.813-1.95a9.03 9.03 0 013.487-.675c1.313 0 2.513.225 3.563.713 1.05.487 1.95 1.087 2.662 1.875a8.846 8.846 0 011.612 2.775 10.34 10.34 0 01.563 3.412v1.125h-14.625zm22.725-16.2c0 .525-.188.938-.563 1.275-.375.375-.787.525-1.237.525-.45 0-.862-.15-1.237-.525a1.624 1.624 0 01-.563-1.275c0-.525.188-.975.563-1.312a1.79 1.79 0 011.237-.488c.45 0 .863.15 1.238.488.375.337.562.787.562 1.312zm-.563 24.3h-2.475v-17.55h2.475v17.55zm8.326-17.55c.037.488.075.938.112 1.388v1.425h.075c.263-.488.638-.9 1.05-1.313.412-.412.9-.75 1.425-1.05a11.31 11.31 0 011.688-.675 6.81 6.81 0 011.725-.225c2.25 0 3.9.6 4.987 1.763 1.088 1.2 1.612 2.887 1.612 5.1v11.137h-2.475v-9.712c0-1.95-.337-3.45-1.012-4.5-.675-1.013-1.913-1.538-3.75-1.538-.113 0-.488.038-1.05.15-.563.113-1.163.375-1.8.825-.638.45-1.238 1.125-1.725 2.025-.488.9-.75 2.138-.75 3.75v9h-2.475V615.35c0-.488 0-1.088-.038-1.8-.037-.713-.112-1.425-.15-2.063h2.55zm32.137 7.425c0-1.687-.488-3.037-1.5-4.087-1.013-1.013-2.4-1.538-4.2-1.538-.787 0-1.575.15-2.325.45-.75.338-1.388.75-1.95 1.275-.563.525-1.05 1.125-1.35 1.8-.338.675-.525 1.388-.525 2.1h11.85zm-11.925 2.025c.075.862.3 1.687.638 2.475.337.787.825 1.425 1.387 1.987a6.656 6.656 0 001.988 1.35c.75.338 1.575.488 2.437.488 1.313 0 2.475-.3 3.45-.937.938-.6 1.688-1.313 2.175-2.1l1.913 1.574c-1.05 1.313-2.213 2.288-3.45 2.85a9.984 9.984 0 01-4.088.863c-1.312 0-2.512-.225-3.6-.713-1.125-.45-2.1-1.087-2.887-1.912a9.103 9.103 0 01-1.875-2.925c-.488-1.125-.713-2.362-.713-3.675 0-1.312.225-2.55.675-3.675a9.103 9.103 0 011.875-2.925c.788-.825 1.725-1.462 2.813-1.95a9.03 9.03 0 013.487-.675c1.313 0 2.513.225 3.563.713 1.05.487 1.95 1.087 2.662 1.875a8.846 8.846 0 011.612 2.775 10.34 10.34 0 01.563 3.412v1.125h-14.625zm19.125-5.55c0-.637 0-1.312-.038-1.95-.037-.638-.112-1.313-.15-1.95h2.663v2.663h.075a5.799 5.799 0 012.513-2.325c1.05-.526 2.1-.788 3.15-.788.487 0 .975.037 1.537.15.525.112 1.05.3 1.538.525.487.262.975.637 1.425 1.125a6.613 6.613 0 011.087 1.837c.488-1.125 1.313-2.025 2.4-2.662 1.088-.638 2.213-.975 3.375-.975 2.25 0 3.9.6 4.988 1.762 1.087 1.2 1.612 2.888 1.612 5.1v11.138h-2.475v-10.238c0-1.762-.3-3.15-.937-4.087-.638-.937-1.8-1.425-3.488-1.425-.937 0-1.687.188-2.325.525a4.313 4.313 0 00-1.5 1.463c-.413.6-.675 1.275-.862 2.025a10.237 10.237 0 00-.263 2.4v9.337h-2.475v-10.238c0-1.762-.3-3.15-.938-4.087-.637-.937-1.8-1.425-3.487-1.425-.15 0-.488.038-1.013.15-.562.113-1.125.375-1.687.825-.563.45-1.087 1.125-1.538 2.025-.487.9-.712 2.138-.712 3.75v9h-2.475v-13.65zm45.975 13.65h-2.7v-26.55h16.012v2.475h-13.312V614h12.375v2.475h-12.375v12.562zm32.287-8.775a8.22 8.22 0 00-.45-2.737 7.295 7.295 0 00-1.35-2.213c-.562-.637-1.275-1.125-2.062-1.5a7.316 7.316 0 00-2.775-.525c-1.013 0-1.95.188-2.738.525-.825.375-1.5.863-2.062 1.5a6.54 6.54 0 00-1.313 2.213c-.337.862-.487 1.762-.487 2.737 0 .975.15 1.875.488 2.738.3.862.75 1.575 1.312 2.212a5.447 5.447 0 002.062 1.462c.788.375 1.725.563 2.738.563 1.012 0 1.95-.187 2.775-.563a5.755 5.755 0 002.062-1.462 7.295 7.295 0 001.35-2.213c.3-.862.45-1.762.45-2.737zm2.7 0c0 1.313-.225 2.55-.675 3.675-.487 1.125-1.124 2.1-1.95 2.925a8.605 8.605 0 01-2.925 1.912c-1.162.488-2.4.713-3.787.713-1.35 0-2.587-.225-3.712-.713a8.412 8.412 0 01-2.963-1.912 8.605 8.605 0 01-1.912-2.925c-.488-1.125-.713-2.362-.713-3.675 0-1.312.225-2.55.713-3.675a8.605 8.605 0 011.912-2.925c.825-.825 1.8-1.462 2.963-1.95 1.125-.45 2.362-.675 3.712-.675 1.388 0 2.625.225 3.788.675 1.125.488 2.1 1.125 2.925 1.95.825.825 1.462 1.8 1.95 2.925.45 1.125.675 2.363.675 3.675zm13.575-6.525h-5.063v10.35c0 .638.075 1.2.188 1.575.113.413.3.75.525.975.225.225.487.375.825.45.3.113.637.15 1.012.15a5.54 5.54 0 001.313-.187c.45-.113.863-.3 1.238-.488l.112 2.288c-.938.412-2.025.637-3.338.637-.487 0-.975-.075-1.462-.187a3.41 3.41 0 01-1.425-.713 3.82 3.82 0 01-1.05-1.425c-.262-.6-.412-1.387-.412-2.362v-11.063h-3.713v-2.25h3.713v-4.95h2.475v4.95h5.062v2.25zm18.412 6.525a8.22 8.22 0 00-.45-2.737 7.295 7.295 0 00-1.35-2.213c-.562-.637-1.275-1.125-2.062-1.5a7.316 7.316 0 00-2.775-.525c-1.013 0-1.95.188-2.738.525-.825.375-1.5.863-2.062 1.5a6.54 6.54 0 00-1.313 2.213c-.337.862-.487 1.762-.487 2.737 0 .975.15 1.875.488 2.738.3.862.75 1.575 1.312 2.212a5.447 5.447 0 002.062 1.462c.788.375 1.725.563 2.738.563 1.012 0 1.95-.187 2.775-.563a5.755 5.755 0 002.062-1.462 7.295 7.295 0 001.35-2.213c.3-.862.45-1.762.45-2.737zm2.7 0c0 1.313-.225 2.55-.675 3.675-.487 1.125-1.124 2.1-1.95 2.925a8.605 8.605 0 01-2.925 1.912c-1.162.488-2.4.713-3.787.713-1.35 0-2.587-.225-3.712-.713a8.412 8.412 0 01-2.963-1.912 8.605 8.605 0 01-1.912-2.925c-.488-1.125-.713-2.362-.713-3.675 0-1.312.225-2.55.713-3.675a8.605 8.605 0 011.912-2.925c.825-.825 1.8-1.462 2.963-1.95 1.125-.45 2.362-.675 3.712-.675 1.388 0 2.625.225 3.788.675 1.125.488 2.1 1.125 2.925 1.95.825.825 1.462 1.8 1.95 2.925.45 1.125.675 2.363.675 3.675zm13.576-6.525h-5.063v10.35c0 .638.075 1.2.188 1.575.113.413.3.75.525.975.225.225.487.375.825.45.3.113.637.15 1.012.15a5.54 5.54 0 001.313-.187c.45-.113.863-.3 1.238-.488l.112 2.288c-.938.412-2.025.637-3.338.637-.487 0-.975-.075-1.462-.187a3.41 3.41 0 01-1.425-.713 3.82 3.82 0 01-1.05-1.425c-.262-.6-.412-1.387-.412-2.362v-11.063h-3.713v-2.25h3.713v-4.95h2.475v4.95h5.062v2.25zm3.637 3.225c0-.788 0-1.575-.037-2.362a181.1 181.1 0 01-.113-3.113h2.438v3.263h.075c.188-.488.413-.938.75-1.388.338-.412.713-.825 1.2-1.162.45-.338.975-.638 1.613-.863a6.83 6.83 0 012.062-.3c.713 0 1.313.075 1.838.225l-.488 2.438c-.337-.113-.787-.188-1.425-.188-.937 0-1.762.188-2.437.525-.675.375-1.238.825-1.688 1.388-.45.6-.787 1.2-.975 1.837a5.668 5.668 0 00-.337 1.875v9.9h-2.475v-12.075zm22.166 3.338c-.638 0-1.388.037-2.325.075-.938.075-1.838.225-2.7.45-.863.262-1.613.637-2.213 1.125-.637.487-.937 1.2-.937 2.062 0 .563.112 1.05.375 1.463.225.412.525.75.937 1.012.413.263.863.45 1.35.563.488.15.975.187 1.463.187.9 0 1.687-.15 2.362-.45.638-.3 1.2-.712 1.65-1.237.45-.488.788-1.088 1.013-1.8a8.02 8.02 0 00.3-2.175V620.3h-1.275zm1.275-2.025v-.45c0-3.038-1.5-4.538-4.5-4.538-2.063 0-3.825.675-5.363 2.062l-1.5-1.762c1.65-1.688 4.125-2.55 7.425-2.55.863 0 1.688.113 2.475.375.788.262 1.463.637 2.025 1.125a5.75 5.75 0 011.388 1.95c.338.788.525 1.688.525 2.775v7.838c0 .675.037 1.387.112 2.1.038.75.113 1.35.188 1.837h-2.4c-.075-.412-.113-.9-.15-1.387a18.856 18.856 0 01-.075-1.463h-.075c-.713 1.163-1.575 2.025-2.55 2.513-1.013.525-2.213.787-3.638.787a8.808 8.808 0 01-2.25-.3 5.852 5.852 0 01-1.912-1.012 4.33 4.33 0 01-1.35-1.613c-.338-.637-.525-1.35-.525-2.212 0-1.425.375-2.55 1.125-3.375.712-.788 1.65-1.388 2.775-1.8 1.087-.413 2.287-.638 3.562-.75 1.238-.113 2.4-.15 3.45-.15h1.238zm10.573-6.788c.037.488.075.938.112 1.388v1.425h.075c.262-.488.637-.9 1.05-1.313.412-.412.9-.75 1.425-1.05a11.31 11.31 0 011.687-.675 6.81 6.81 0 011.725-.225c2.25 0 3.9.6 4.988 1.763 1.087 1.2 1.612 2.887 1.612 5.1v11.137h-2.475v-9.712c0-1.95-.337-3.45-1.012-4.5-.675-1.013-1.913-1.538-3.75-1.538-.113 0-.488.038-1.05.15-.563.113-1.163.375-1.8.825-.638.45-1.238 1.125-1.725 2.025-.488.9-.75 2.138-.75 3.75v9h-2.475V615.35c0-.488 0-1.088-.038-1.8-.037-.713-.112-1.425-.15-2.063h2.55zm27.787 4.163c-.375-.713-.863-1.313-1.5-1.725-.638-.413-1.388-.638-2.288-.638-.412 0-.862.037-1.275.15a5 5 0 00-1.2.45c-.337.225-.637.488-.825.825-.225.338-.337.713-.337 1.2 0 .825.3 1.425.862 1.8.563.375 1.425.713 2.588.975l2.512.6c1.238.263 2.25.825 3.075 1.65.788.862 1.2 1.912 1.2 3.15 0 .938-.187 1.762-.562 2.438-.413.712-.9 1.275-1.538 1.687a6.227 6.227 0 01-2.212.975c-.825.187-1.65.3-2.513.3-1.35 0-2.625-.263-3.75-.787-1.162-.488-2.175-1.388-3-2.626l2.138-1.462a5.827 5.827 0 001.912 1.912c.75.488 1.65.713 2.7.713.488 0 1.013-.038 1.5-.187.488-.113.938-.263 1.35-.525a3.06 3.06 0 00.938-.9c.225-.375.338-.825.338-1.313 0-.862-.338-1.5-.975-1.912-.638-.375-1.425-.675-2.363-.9l-2.4-.563c-.3-.075-.713-.188-1.2-.375a6.394 6.394 0 01-1.5-.787 4.552 4.552 0 01-1.275-1.388c-.338-.563-.525-1.238-.525-2.063 0-.9.187-1.687.563-2.362a4.14 4.14 0 011.462-1.65 6.99 6.99 0 012.063-.975 10.26 10.26 0 012.4-.3c1.237 0 2.362.225 3.412.712 1.05.488 1.875 1.275 2.438 2.438l-2.213 1.463zm10.27-10.913c0 .525-.188.938-.563 1.275-.375.375-.787.525-1.237.525-.45 0-.862-.15-1.238-.525a1.624 1.624 0 01-.562-1.275c0-.525.188-.975.563-1.312a1.79 1.79 0 011.237-.488c.45 0 .862.15 1.238.488.374.337.562.787.562 1.312zm-.563 24.3h-2.475v-17.55h2.475v17.55zm15.263-13.387c-.375-.713-.863-1.313-1.5-1.725-.638-.413-1.388-.638-2.288-.638-.412 0-.862.037-1.275.15a5 5 0 00-1.2.45c-.337.225-.637.488-.825.825-.225.338-.337.713-.337 1.2 0 .825.3 1.425.862 1.8.563.375 1.425.713 2.588.975l2.512.6c1.238.263 2.25.825 3.075 1.65.788.862 1.2 1.912 1.2 3.15 0 .938-.187 1.762-.562 2.438-.413.712-.9 1.275-1.537 1.687a6.227 6.227 0 01-2.213.975c-.825.187-1.65.3-2.513.3-1.35 0-2.625-.263-3.75-.787-1.162-.488-2.175-1.388-3-2.626l2.138-1.462a5.827 5.827 0 001.912 1.912c.75.488 1.65.713 2.7.713.488 0 1.013-.038 1.5-.187.488-.113.938-.263 1.35-.525a3.06 3.06 0 00.938-.9c.225-.375.338-.825.338-1.313 0-.862-.338-1.5-.975-1.912-.638-.375-1.425-.675-2.363-.9l-2.4-.563c-.3-.075-.712-.188-1.2-.375a6.394 6.394 0 01-1.5-.787 4.552 4.552 0 01-1.275-1.388c-.338-.563-.525-1.238-.525-2.063 0-.9.188-1.687.563-2.362a4.14 4.14 0 011.462-1.65 6.99 6.99 0 012.063-.975 10.26 10.26 0 012.4-.3c1.237 0 2.362.225 3.412.712 1.05.488 1.875 1.275 2.438 2.438l-2.213 1.463zm15.755-1.913h-5.063v10.35c0 .638.075 1.2.188 1.575.113.413.3.75.525.975.225.225.487.375.825.45.3.113.637.15 1.012.15a5.54 5.54 0 001.313-.187c.45-.113.863-.3 1.238-.488l.112 2.288c-.938.412-2.025.637-3.338.637-.487 0-.975-.075-1.462-.187a3.41 3.41 0 01-1.425-.713 3.82 3.82 0 01-1.05-1.425c-.262-.6-.412-1.387-.412-2.362v-11.063h-3.713v-2.25h3.713v-4.95h2.475v4.95h5.062v2.25zm18.412 6.525a8.22 8.22 0 00-.45-2.737 7.295 7.295 0 00-1.35-2.213c-.562-.637-1.275-1.125-2.062-1.5a7.316 7.316 0 00-2.775-.525c-1.013 0-1.95.188-2.738.525-.825.375-1.5.863-2.062 1.5a6.54 6.54 0 00-1.313 2.213c-.337.862-.487 1.762-.487 2.737 0 .975.15 1.875.488 2.738.3.862.75 1.575 1.312 2.212a5.447 5.447 0 002.062 1.462c.788.375 1.725.563 2.738.563 1.012 0 1.95-.187 2.775-.563a5.755 5.755 0 002.062-1.462 7.295 7.295 0 001.35-2.213c.3-.862.45-1.762.45-2.737zm2.7 0c0 1.313-.225 2.55-.675 3.675-.487 1.125-1.124 2.1-1.95 2.925a8.605 8.605 0 01-2.925 1.912c-1.162.488-2.4.713-3.787.713-1.35 0-2.587-.225-3.712-.713a8.412 8.412 0 01-2.963-1.912 8.605 8.605 0 01-1.912-2.925c-.488-1.125-.713-2.362-.713-3.675 0-1.312.225-2.55.713-3.675a8.605 8.605 0 011.912-2.925c.825-.825 1.8-1.462 2.963-1.95 1.125-.45 2.362-.675 3.712-.675 1.388 0 2.625.225 3.788.675 1.125.488 2.1 1.125 2.925 1.95.825.825 1.462 1.8 1.95 2.925.45 1.125.675 2.363.675 3.675zm4.766-3.3c0-.788 0-1.575-.038-2.362a181.1 181.1 0 01-.113-3.113h2.438v3.263h.075c.188-.488.413-.938.75-1.388.338-.412.713-.825 1.2-1.162.45-.338.975-.638 1.613-.863a6.83 6.83 0 012.062-.3c.713 0 1.313.075 1.838.225l-.488 2.438c-.337-.113-.787-.188-1.425-.188-.937 0-1.762.188-2.437.525-.675.375-1.238.825-1.688 1.388-.45.6-.787 1.2-.975 1.837a5.668 5.668 0 00-.337 1.875v9.9h-2.475v-12.075zm13.274 10.275c0 .525-.187.975-.562 1.388a1.9 1.9 0 01-1.462.637 1.9 1.9 0 01-1.463-.637c-.375-.413-.563-.863-.563-1.388 0-.525.188-1.012.563-1.425.375-.412.862-.6 1.463-.6.6 0 1.087.188 1.462.6.375.413.563.9.563 1.425zm-781.703 42.35h11.512l-5.737-13.95-5.775 13.95zm-3.938 9.45h-3.15l11.55-26.55h2.625l11.55 26.55h-3.15l-2.925-6.975H90.885l-2.925 6.975zm25.275-13.65c0-.637 0-1.312-.037-1.95-.038-.638-.113-1.313-.15-1.95h2.662v2.663h.075a5.799 5.799 0 012.513-2.325c1.05-.526 2.1-.788 3.15-.788.487 0 .975.037 1.537.15.525.112 1.05.3 1.538.525.487.262.975.637 1.425 1.125a6.613 6.613 0 011.087 1.837c.488-1.125 1.313-2.025 2.4-2.662 1.088-.638 2.213-.975 3.375-.975 2.25 0 3.9.6 4.988 1.762 1.087 1.2 1.612 2.888 1.612 5.1v11.138h-2.475v-10.238c0-1.762-.3-3.15-.937-4.087-.638-.937-1.8-1.425-3.488-1.425-.937 0-1.687.188-2.325.525a4.313 4.313 0 00-1.5 1.463c-.412.6-.675 1.275-.862 2.025a10.237 10.237 0 00-.263 2.4v9.337h-2.475v-10.238c0-1.762-.3-3.15-.937-4.087-.638-.937-1.8-1.425-3.488-1.425-.15 0-.487.038-1.012.15-.563.113-1.125.375-1.688.825-.562.45-1.087 1.125-1.537 2.025-.488.9-.713 2.138-.713 3.75v9h-2.475v-13.65zm46.763 4.2h11.512l-5.737-13.95-5.775 13.95zm-3.938 9.45h-3.15l11.55-26.55h2.625l11.55 26.55h-3.15l-2.925-6.975h-13.575l-2.925 6.975zm27.637-17.55c.038.488.075.938.113 1.388v1.425h.075c.262-.488.637-.9 1.05-1.313.412-.412.9-.75 1.425-1.05a11.31 11.31 0 011.688-.675 6.81 6.81 0 011.725-.225c2.25 0 3.9.6 4.987 1.763 1.088 1.2 1.613 2.887 1.613 5.1v11.137h-2.475v-9.712c0-1.95-.338-3.45-1.013-4.5-.675-1.013-1.912-1.538-3.75-1.538-.112 0-.487.038-1.05.15-.562.113-1.162.375-1.8.825-.637.45-1.237 1.125-1.725 2.025-.487.9-.75 2.138-.75 3.75v9h-2.475V665.35c0-.488 0-1.088-.037-1.8-.038-.713-.113-1.425-.15-2.063h2.55zm28.463 8.813c-.637 0-1.387.037-2.325.075-.937.075-1.837.225-2.7.45-.862.262-1.612.637-2.212 1.125-.638.487-.938 1.2-.938 2.062 0 .563.113 1.05.375 1.463.225.412.525.75.938 1.012.412.263.862.45 1.35.563.487.15.975.187 1.462.187.9 0 1.688-.15 2.363-.45.637-.3 1.2-.712 1.65-1.237.45-.488.787-1.088 1.012-1.8a8.02 8.02 0 00.3-2.175V670.3h-1.275zm1.275-2.025v-.45c0-3.038-1.5-4.538-4.5-4.538-2.062 0-3.825.675-5.362 2.062l-1.5-1.762c1.65-1.688 4.125-2.55 7.425-2.55.862 0 1.687.113 2.475.375.787.262 1.462.637 2.025 1.125a5.75 5.75 0 011.387 1.95c.338.788.525 1.688.525 2.775v7.838c0 .675.038 1.387.113 2.1.037.75.112 1.35.187 1.837h-2.4c-.075-.412-.112-.9-.15-1.387-.037-.488-.075-.975-.075-1.463h-.075c-.712 1.163-1.575 2.025-2.55 2.513-1.012.525-2.212.787-3.637.787a8.808 8.808 0 01-2.25-.3 5.852 5.852 0 01-1.913-1.012 4.33 4.33 0 01-1.35-1.613c-.337-.637-.525-1.35-.525-2.212 0-1.425.375-2.55 1.125-3.375.713-.788 1.65-1.388 2.775-1.8 1.088-.413 2.288-.638 3.563-.75 1.237-.113 2.4-.15 3.45-.15h1.237zm8.775-17.588h2.474v28.35h-2.475zm23.475 19.575a8.22 8.22 0 00-.45-2.737 7.295 7.295 0 00-1.35-2.213c-.563-.637-1.275-1.125-2.063-1.5a7.316 7.316 0 00-2.775-.525c-1.012 0-1.95.188-2.737.525-.825.375-1.5.863-2.063 1.5a6.54 6.54 0 00-1.313 2.213c-.337.862-.487 1.762-.487 2.737 0 .975.15 1.875.488 2.738.3.862.75 1.575 1.312 2.212a5.447 5.447 0 002.062 1.462c.788.375 1.726.563 2.738.563 1.013 0 1.95-.187 2.775-.563a5.755 5.755 0 002.063-1.462 7.295 7.295 0 001.35-2.213c.3-.862.45-1.762.45-2.737zm2.7 0c0 1.313-.225 2.55-.675 3.675-.488 1.125-1.126 2.1-1.95 2.925a8.605 8.605 0 01-2.925 1.912c-1.163.488-2.4.713-3.788.713-1.35 0-2.587-.225-3.712-.713a8.412 8.412 0 01-2.963-1.912 8.605 8.605 0 01-1.913-2.925c-.487-1.125-.712-2.362-.712-3.675 0-1.312.225-2.55.712-3.675a8.605 8.605 0 011.913-2.925c.825-.825 1.8-1.462 2.962-1.95 1.125-.45 2.363-.675 3.713-.675 1.388 0 2.625.225 3.788.675 1.124.488 2.1 1.125 2.924 1.95.826.825 1.463 1.8 1.95 2.925.45 1.125.675 2.363.675 3.675zm6.3-.225c0 .937.188 1.8.525 2.587.3.825.787 1.538 1.388 2.138a5.755 5.755 0 002.062 1.463 5.776 5.776 0 002.55.562c.9 0 1.763-.15 2.588-.487a7.228 7.228 0 002.137-1.388c.638-.563 1.125-1.275 1.463-2.1.337-.825.487-1.762.45-2.775 0-.938-.15-1.8-.45-2.625-.3-.788-.75-1.5-1.313-2.137-.563-.6-1.275-1.088-2.1-1.463a7.316 7.316 0 00-2.775-.525c-.937 0-1.762.188-2.55.525-.788.375-1.5.863-2.063 1.463-.6.637-1.087 1.35-1.387 2.137a6.832 6.832 0 00-.525 2.625zm-.45 12.525c.713.975 1.688 1.763 2.85 2.363 1.163.562 2.438.862 3.863.862 1.237 0 2.325-.188 3.187-.525.863-.375 1.575-.863 2.138-1.5.525-.638.9-1.35 1.162-2.175.225-.863.338-1.762.338-2.7v-3.15h-.075c-.788 1.2-1.763 2.062-2.925 2.55a9.286 9.286 0 01-3.638.75c-1.275 0-2.475-.225-3.562-.675a9.103 9.103 0 01-2.925-1.875c-.825-.787-1.463-1.725-1.95-2.812-.488-1.088-.713-2.288-.713-3.563 0-1.275.225-2.475.675-3.563a9.354 9.354 0 011.875-2.887c.75-.825 1.725-1.463 2.813-1.95 1.087-.45 2.25-.675 3.562-.675.525 0 1.088.037 1.688.15.562.112 1.162.262 1.762.525.563.262 1.163.6 1.725 1.012a8.69 8.69 0 011.613 1.688h.075v-2.925h2.475v17.4c0 .938-.113 1.95-.338 3.038a7.958 7.958 0 01-1.387 2.962c-.713.9-1.65 1.65-2.888 2.25-1.237.6-2.812.9-4.8.9-1.762 0-3.3-.3-4.687-.863-1.388-.562-2.625-1.462-3.75-2.662l1.837-1.95zm35.212-13.65c0-1.687-.488-3.037-1.5-4.087-1.013-1.013-2.4-1.538-4.2-1.538-.787 0-1.575.15-2.325.45-.75.338-1.388.75-1.95 1.275-.562.525-1.05 1.125-1.35 1.8-.338.675-.525 1.388-.525 2.1h11.85zm-11.925 2.025c.075.862.3 1.687.638 2.475.337.787.824 1.425 1.387 1.987a6.656 6.656 0 001.987 1.35c.75.338 1.575.488 2.438.488 1.313 0 2.475-.3 3.45-.937.937-.6 1.687-1.313 2.175-2.1l1.912 1.574c-1.05 1.313-2.212 2.288-3.45 2.85a9.984 9.984 0 01-4.087.863c-1.312 0-2.512-.225-3.6-.713-1.125-.45-2.1-1.087-2.888-1.912a9.103 9.103 0 01-1.874-2.925c-.488-1.125-.713-2.362-.713-3.675 0-1.312.225-2.55.675-3.675a9.103 9.103 0 011.875-2.925c.788-.825 1.725-1.462 2.813-1.95a9.03 9.03 0 013.487-.675c1.313 0 2.513.225 3.563.713 1.05.487 1.95 1.087 2.662 1.875a8.846 8.846 0 011.613 2.775 10.34 10.34 0 01.562 3.412v1.125h-14.625zm22.725-16.2c0 .525-.188.938-.563 1.275-.375.375-.787.525-1.237.525-.45 0-.862-.15-1.238-.525a1.624 1.624 0 01-.562-1.275c0-.525.188-.975.563-1.312a1.79 1.79 0 011.237-.488c.45 0 .862.15 1.238.488.375.337.562.787.562 1.312zm-.563 24.3h-2.475v-17.55h2.475v17.55zm8.326-17.55c.037.488.075.938.112 1.388v1.425h.075c.262-.488.637-.9 1.05-1.313.412-.412.9-.75 1.425-1.05a11.31 11.31 0 011.688-.675 6.81 6.81 0 011.725-.225c2.25 0 3.9.6 4.987 1.763 1.088 1.2 1.613 2.887 1.613 5.1v11.137h-2.475v-9.712c0-1.95-.338-3.45-1.013-4.5-.675-1.013-1.912-1.538-3.75-1.538-.112 0-.487.038-1.05.15-.562.113-1.162.375-1.8.825-.637.45-1.237 1.125-1.725 2.025-.488.9-.75 2.138-.75 3.75v9h-2.475V665.35c0-.488 0-1.088-.038-1.8-.037-.713-.112-1.425-.15-2.063h2.55zm20.287 8.55c0 .937.188 1.8.525 2.587.3.825.787 1.538 1.388 2.138a5.755 5.755 0 002.062 1.463 5.776 5.776 0 002.55.562c.9 0 1.763-.15 2.588-.487a7.228 7.228 0 002.137-1.388 5.586 5.586 0 001.462-2.1c.338-.825.488-1.762.45-2.775 0-.938-.15-1.8-.45-2.625a6.99 6.99 0 00-1.312-2.137c-.563-.6-1.275-1.088-2.1-1.463a7.316 7.316 0 00-2.775-.525c-.938 0-1.763.188-2.55.525-.788.375-1.5.863-2.063 1.463-.6.637-1.087 1.35-1.387 2.137a6.832 6.832 0 00-.525 2.625zm-.45 12.525c.713.975 1.688 1.763 2.85 2.363 1.163.562 2.438.862 3.863.862 1.237 0 2.325-.188 3.187-.525.863-.375 1.575-.863 2.138-1.5.525-.638.9-1.35 1.162-2.175.225-.863.338-1.762.338-2.7v-3.15h-.075c-.788 1.2-1.763 2.062-2.925 2.55a9.286 9.286 0 01-3.638.75c-1.275 0-2.475-.225-3.562-.675a9.103 9.103 0 01-2.925-1.875c-.825-.787-1.463-1.725-1.95-2.812-.488-1.088-.713-2.288-.713-3.563 0-1.275.225-2.475.675-3.563a9.354 9.354 0 011.875-2.887c.75-.825 1.725-1.463 2.813-1.95 1.087-.45 2.25-.675 3.562-.675.525 0 1.088.037 1.688.15.562.112 1.162.262 1.762.525.563.262 1.163.6 1.725 1.012a8.69 8.69 0 011.613 1.688h.075v-2.925h2.475v17.4c0 .938-.113 1.95-.338 3.038a7.958 7.958 0 01-1.387 2.962c-.713.9-1.65 1.65-2.888 2.25-1.237.6-2.812.9-4.8.9-1.762 0-3.3-.3-4.687-.863-1.388-.562-2.625-1.462-3.75-2.662l1.837-1.95zm31.538-12.262c-.637 0-1.387.037-2.325.075-.937.075-1.837.225-2.7.45-.862.262-1.612.637-2.212 1.125-.638.487-.938 1.2-.938 2.062 0 .563.113 1.05.375 1.463.225.412.525.75.938 1.012.412.263.862.45 1.35.563.487.15.975.187 1.462.187.9 0 1.688-.15 2.363-.45.637-.3 1.2-.712 1.65-1.237.45-.488.787-1.088 1.012-1.8a8.02 8.02 0 00.3-2.175V670.3h-1.275zm1.275-2.025v-.45c0-3.038-1.5-4.538-4.5-4.538-2.062 0-3.825.675-5.363 2.062l-1.5-1.762c1.65-1.688 4.125-2.55 7.425-2.55.863 0 1.688.113 2.476.375.787.262 1.462.637 2.025 1.125a5.75 5.75 0 011.387 1.95c.338.788.525 1.688.525 2.775v7.838c0 .675.038 1.387.113 2.1.037.75.112 1.35.187 1.837h-2.4c-.075-.412-.113-.9-.15-1.387-.037-.488-.075-.975-.075-1.463h-.075c-.712 1.163-1.575 2.025-2.55 2.513-1.012.525-2.212.787-3.637.787a8.808 8.808 0 01-2.25-.3 5.852 5.852 0 01-1.913-1.012 4.33 4.33 0 01-1.35-1.613c-.338-.637-.525-1.35-.525-2.212 0-1.425.375-2.55 1.125-3.375.713-.788 1.65-1.388 2.775-1.8 1.087-.413 2.288-.638 3.563-.75 1.237-.113 2.4-.15 3.45-.15h1.237zm10.575-6.788c.037.488.075.938.112 1.388v1.425h.075c.262-.488.637-.9 1.05-1.313.413-.412.9-.75 1.425-1.05a11.31 11.31 0 011.688-.675 6.81 6.81 0 011.725-.225c2.25 0 3.9.6 4.987 1.763 1.088 1.2 1.613 2.887 1.613 5.1v11.137h-2.475v-9.712c0-1.95-.338-3.45-1.013-4.5-.675-1.013-1.912-1.538-3.75-1.538-.112 0-.487.038-1.05.15-.562.113-1.162.375-1.8.825-.637.45-1.237 1.125-1.725 2.025-.487.9-.75 2.138-.75 3.75v9h-2.475V665.35c0-.488 0-1.088-.038-1.8-.037-.713-.112-1.425-.15-2.063h2.55zm20.287 8.55c0 .937.188 1.8.525 2.587.3.825.787 1.538 1.388 2.138a5.755 5.755 0 002.062 1.463 5.776 5.776 0 002.55.562c.9 0 1.763-.15 2.588-.487a7.228 7.228 0 002.137-1.388c.638-.563 1.125-1.275 1.463-2.1.337-.825.487-1.762.45-2.775 0-.938-.15-1.8-.45-2.625-.3-.788-.75-1.5-1.313-2.137-.563-.6-1.275-1.088-2.1-1.463a7.316 7.316 0 00-2.775-.525c-.938 0-1.763.188-2.55.525-.788.375-1.5.863-2.063 1.463-.6.637-1.087 1.35-1.387 2.137a6.832 6.832 0 00-.525 2.625zm-.45 12.525c.713.975 1.688 1.763 2.85 2.363 1.163.562 2.438.862 3.863.862 1.237 0 2.325-.188 3.187-.525.863-.375 1.575-.863 2.138-1.5.525-.638.9-1.35 1.162-2.175.225-.863.338-1.762.338-2.7v-3.15h-.075c-.788 1.2-1.763 2.062-2.925 2.55a9.286 9.286 0 01-3.638.75c-1.275 0-2.475-.225-3.562-.675a9.103 9.103 0 01-2.925-1.875c-.825-.787-1.463-1.725-1.95-2.812-.488-1.088-.713-2.288-.713-3.563 0-1.275.225-2.475.675-3.563a9.354 9.354 0 011.875-2.887c.75-.825 1.725-1.463 2.813-1.95 1.087-.45 2.25-.675 3.562-.675.525 0 1.088.037 1.688.15.562.112 1.162.262 1.762.525.563.262 1.163.6 1.725 1.012a8.69 8.69 0 011.613 1.688h.075v-2.925h2.475v17.4c0 .938-.113 1.95-.338 3.038a7.958 7.958 0 01-1.387 2.962c-.713.9-1.65 1.65-2.888 2.25-1.237.6-2.812.9-4.8.9-1.762 0-3.3-.3-4.687-.863-1.388-.562-2.625-1.462-3.75-2.662l1.837-1.95zm32.551-31.875h2.475v28.35h-2.475zm12.037 4.05c0 .525-.188.938-.563 1.275-.374.375-.787.525-1.237.525-.45 0-.862-.15-1.238-.525a1.624 1.624 0 01-.562-1.275c0-.525.188-.975.563-1.312a1.79 1.79 0 011.237-.488c.45 0 .862.15 1.238.488.375.337.562.787.562 1.312zm-.563 24.3h-2.474v-17.55h2.475v17.55zm19.613-10.125c0-1.687-.487-3.037-1.5-4.087-1.012-1.013-2.4-1.538-4.2-1.538-.787 0-1.575.15-2.325.45-.75.338-1.387.75-1.95 1.275-.562.525-1.05 1.125-1.35 1.8-.337.675-.525 1.388-.525 2.1h11.85zm-11.925 2.025c.075.862.3 1.687.638 2.475.337.787.825 1.425 1.387 1.987a6.656 6.656 0 001.988 1.35c.75.338 1.575.488 2.437.488 1.313 0 2.475-.3 3.45-.937.937-.6 1.687-1.313 2.175-2.1l1.912 1.574c-1.05 1.313-2.212 2.288-3.45 2.85a9.984 9.984 0 01-4.087.863c-1.312 0-2.512-.225-3.6-.713-1.125-.45-2.1-1.087-2.887-1.912a9.103 9.103 0 01-1.875-2.925c-.488-1.125-.713-2.362-.713-3.675 0-1.312.225-2.55.675-3.675a9.103 9.103 0 011.875-2.925c.788-.825 1.725-1.462 2.813-1.95a9.03 9.03 0 013.487-.675c1.313 0 2.513.225 3.563.713 1.05.487 1.95 1.087 2.662 1.875a8.846 8.846 0 011.613 2.775 10.34 10.34 0 01.562 3.412v1.125h-14.625zm20.925-.9c0 .937.188 1.8.525 2.587.3.825.787 1.538 1.388 2.138a5.755 5.755 0 002.062 1.463 5.776 5.776 0 002.55.562c.9 0 1.763-.15 2.588-.487a7.228 7.228 0 002.137-1.388c.638-.563 1.125-1.275 1.463-2.1.337-.825.487-1.762.45-2.775 0-.938-.15-1.8-.45-2.625-.3-.788-.75-1.5-1.313-2.137-.563-.6-1.275-1.088-2.1-1.463a7.316 7.316 0 00-2.775-.525c-.938 0-1.763.188-2.55.525-.788.375-1.5.863-2.063 1.463-.6.637-1.087 1.35-1.387 2.137a6.832 6.832 0 00-.525 2.625zm-.45 12.525c.713.975 1.688 1.763 2.85 2.363 1.163.562 2.438.862 3.863.862 1.237 0 2.325-.188 3.187-.525.863-.375 1.575-.863 2.138-1.5.525-.638.9-1.35 1.162-2.175.225-.863.338-1.762.338-2.7v-3.15h-.075c-.788 1.2-1.763 2.062-2.925 2.55a9.286 9.286 0 01-3.638.75c-1.275 0-2.475-.225-3.562-.675a9.103 9.103 0 01-2.925-1.875c-.825-.787-1.463-1.725-1.95-2.812-.488-1.088-.713-2.288-.713-3.563 0-1.275.225-2.475.675-3.563a9.354 9.354 0 011.875-2.887c.75-.825 1.725-1.463 2.813-1.95 1.087-.45 2.25-.675 3.562-.675.525 0 1.088.037 1.688.15.562.112 1.162.262 1.762.525.563.262 1.163.6 1.725 1.012a8.69 8.69 0 011.613 1.688h.075v-2.925h2.475v17.4c0 .938-.113 1.95-.338 3.038a7.958 7.958 0 01-1.387 2.962c-.713.9-1.65 1.65-2.888 2.25-1.237.6-2.812.9-4.8.9-1.762 0-3.3-.3-4.687-.863-1.388-.562-2.625-1.462-3.75-2.662l1.837-1.95zm30.637-18.825h-5.062v10.35c0 .638.075 1.2.187 1.575.113.413.3.75.525.975.225.225.487.375.825.45.3.113.637.15 1.012.15a5.54 5.54 0 001.313-.187c.45-.113.863-.3 1.238-.488l.112 2.288c-.938.412-2.025.637-3.337.637-.488 0-.975-.075-1.463-.187a3.41 3.41 0 01-1.425-.713 3.82 3.82 0 01-1.05-1.425c-.262-.6-.412-1.387-.412-2.362v-11.063h-3.713v-2.25h3.713v-4.95h2.475v4.95h5.062v2.25zm15.3 6.525c0 .975.15 1.875.488 2.738.3.862.75 1.575 1.312 2.212a5.586 5.586 0 002.1 1.462c.788.375 1.725.563 2.738.563 1.012 0 1.95-.187 2.812-.563a6.333 6.333 0 002.212-1.462 6.333 6.333 0 001.463-2.213 7.409 7.409 0 000-5.474 6.333 6.333 0 00-1.463-2.213 6.997 6.997 0 00-2.212-1.5 7.658 7.658 0 00-2.813-.525c-1.012 0-1.95.188-2.737.525-.825.375-1.537.863-2.1 1.5a6.54 6.54 0 00-1.312 2.213c-.338.862-.488 1.762-.488 2.737zm16.013 8.775h-2.475v-2.925h-.075c-.413.6-.863 1.125-1.425 1.538-.563.412-1.125.787-1.725 1.05-.6.262-1.2.487-1.838.6-.638.112-1.275.187-1.838.187-1.387 0-2.624-.225-3.75-.712a8.412 8.412 0 01-2.962-1.913 8.605 8.605 0 01-1.912-2.925c-.488-1.125-.713-2.362-.713-3.675 0-1.312.225-2.55.713-3.675a8.605 8.605 0 011.912-2.925c.825-.825 1.8-1.462 2.963-1.95 1.125-.45 2.362-.675 3.75-.675.562 0 1.2.075 1.837.188.637.112 1.237.337 1.837.6.6.262 1.163.637 1.725 1.05.563.412 1.013.937 1.425 1.537h.075v-13.725h2.475v28.35zm9-24.3c0 .525-.188.938-.563 1.275-.375.375-.787.525-1.237.525-.45 0-.862-.15-1.238-.525a1.624 1.624 0 01-.562-1.275c0-.525.188-.975.563-1.312a1.79 1.79 0 011.237-.488c.45 0 .862.15 1.238.488.374.337.562.787.562 1.312zm-.563 24.3h-2.475v-17.55h2.475v17.55zm19.613-10.125c0-1.687-.488-3.037-1.5-4.087-1.013-1.013-2.4-1.538-4.2-1.538-.787 0-1.575.15-2.325.45-.75.338-1.388.75-1.95 1.275-.563.525-1.05 1.125-1.35 1.8-.338.675-.525 1.388-.525 2.1h11.85zm-11.925 2.025c.075.862.3 1.687.638 2.475.337.787.825 1.425 1.387 1.987a6.656 6.656 0 001.988 1.35c.75.338 1.575.488 2.437.488 1.313 0 2.475-.3 3.45-.937.938-.6 1.688-1.313 2.175-2.1l1.913 1.574c-1.05 1.313-2.213 2.288-3.45 2.85a9.984 9.984 0 01-4.088.863c-1.312 0-2.512-.225-3.6-.713-1.125-.45-2.1-1.087-2.887-1.912a9.103 9.103 0 01-1.875-2.925c-.488-1.125-.713-2.362-.713-3.675 0-1.312.225-2.55.675-3.675a9.103 9.103 0 011.875-2.925c.788-.825 1.725-1.462 2.813-1.95a9.03 9.03 0 013.487-.675c1.313 0 2.513.225 3.563.713 1.05.487 1.95 1.087 2.662 1.875a8.846 8.846 0 011.612 2.775 10.34 10.34 0 01.563 3.412v1.125h-14.625zm43.013-14.062c-1.163-1.725-2.888-2.588-5.138-2.588a7.59 7.59 0 00-2.062.263 5.719 5.719 0 00-1.8.862c-.563.413-.975.9-1.313 1.5-.337.638-.487 1.35-.487 2.175 0 1.2.337 2.138 1.012 2.775a7.51 7.51 0 002.513 1.65c1.012.412 2.1.787 3.3 1.125 1.162.338 2.25.788 3.262 1.35a7.61 7.61 0 012.513 2.25c.675.937 1.012 2.175 1.012 3.787 0 1.2-.262 2.288-.75 3.225-.525.975-1.2 1.8-2.025 2.438-.862.638-1.8 1.163-2.812 1.5-1.05.337-2.1.525-3.15.525-1.613 0-3.15-.3-4.613-.937-1.462-.6-2.737-1.613-3.75-3l2.438-1.763c.562.975 1.387 1.763 2.4 2.325 1.012.6 2.25.9 3.637.9a6.37 6.37 0 002.025-.338c.675-.187 1.275-.525 1.838-.937a5.04 5.04 0 001.312-1.5 4.11 4.11 0 00.525-2.062c0-.938-.187-1.688-.562-2.325-.413-.6-.9-1.126-1.538-1.538-.637-.413-1.387-.75-2.175-1.013-.825-.262-1.65-.562-2.512-.825-.863-.262-1.725-.6-2.513-.937-.825-.338-1.575-.788-2.175-1.35a5.589 5.589 0 01-1.537-2.025c-.413-.788-.6-1.8-.6-3.038 0-1.275.262-2.4.75-3.337a7.016 7.016 0 011.95-2.363c.787-.637 1.725-1.087 2.737-1.387a11.03 11.03 0 013.15-.45c1.5 0 2.85.225 4.088.712 1.237.488 2.362 1.313 3.412 2.513l-2.362 1.837zm23.399 13.387a8.22 8.22 0 00-.45-2.737 7.295 7.295 0 00-1.35-2.213c-.562-.637-1.275-1.125-2.062-1.5a7.316 7.316 0 00-2.775-.525 7.67 7.67 0 00-2.813.525 6.997 6.997 0 00-2.212 1.5 6.333 6.333 0 00-1.463 2.213 7.409 7.409 0 000 5.475 6.333 6.333 0 001.463 2.212 6.333 6.333 0 002.212 1.462 6.98 6.98 0 002.813.563c1.012 0 1.95-.187 2.775-.563a5.755 5.755 0 002.062-1.462 7.295 7.295 0 001.35-2.213c.3-.862.45-1.762.45-2.737zm-16.012-8.775h2.475v2.925h.075c.412-.6.862-1.125 1.425-1.537.562-.413 1.125-.788 1.725-1.05.6-.263 1.238-.488 1.875-.6.637-.113 1.237-.188 1.8-.188 1.387 0 2.625.225 3.787.675 1.125.488 2.1 1.125 2.925 1.95.825.825 1.463 1.8 1.95 2.925.45 1.125.675 2.362.675 3.675 0 1.313-.225 2.55-.675 3.675-.487 1.125-1.125 2.1-1.95 2.925a8.605 8.605 0 01-2.925 1.912c-1.162.488-2.4.713-3.787.713-.563 0-1.163-.075-1.8-.188-.638-.112-1.275-.337-1.875-.6-.6-.262-1.163-.637-1.725-1.05-.563-.412-1.013-.937-1.425-1.537h-.075v13.725h-2.475v-28.35zm32.887 8.813c-.638 0-1.388.037-2.325.075-.938.075-1.838.225-2.7.45-.863.262-1.613.637-2.213 1.125-.637.487-.937 1.2-.937 2.062 0 .563.112 1.05.375 1.463.225.412.525.75.937 1.012.413.263.863.45 1.35.563.488.15.975.187 1.463.187.9 0 1.687-.15 2.362-.45.638-.3 1.2-.712 1.65-1.237.45-.488.788-1.088 1.013-1.8a8.02 8.02 0 00.3-2.175V670.3h-1.275zm1.275-2.025v-.45c0-3.038-1.5-4.538-4.5-4.538-2.063 0-3.825.675-5.363 2.062l-1.5-1.762c1.65-1.688 4.125-2.55 7.425-2.55.863 0 1.688.113 2.475.375.788.262 1.463.637 2.025 1.125a5.75 5.75 0 011.388 1.95c.338.788.525 1.688.525 2.775v7.838c0 .675.038 1.387.113 2.1.037.75.112 1.35.187 1.837h-2.4c-.075-.412-.113-.9-.15-1.387a18.856 18.856 0 01-.075-1.463h-.075c-.713 1.163-1.575 2.025-2.55 2.513-1.013.525-2.213.787-3.638.787a8.808 8.808 0 01-2.25-.3 5.852 5.852 0 01-1.912-1.012 4.33 4.33 0 01-1.35-1.613c-.338-.637-.525-1.35-.525-2.212 0-1.425.375-2.55 1.125-3.375.712-.788 1.65-1.388 2.775-1.8 1.087-.413 2.287-.638 3.562-.75 1.238-.113 2.4-.15 3.45-.15h1.238zm10.575-6.788c.038.488.075.938.113 1.388v1.425h.075c.262-.488.637-.9 1.05-1.313.412-.412.9-.75 1.425-1.05a11.31 11.31 0 011.687-.675 6.81 6.81 0 011.725-.225c2.25 0 3.9.6 4.988 1.763 1.087 1.2 1.612 2.887 1.612 5.1v11.137h-2.475v-9.712c0-1.95-.337-3.45-1.012-4.5-.675-1.013-1.913-1.538-3.75-1.538-.113 0-.488.038-1.05.15-.563.113-1.163.375-1.8.825-.638.45-1.238 1.125-1.725 2.025-.488.9-.75 2.138-.75 3.75v9h-2.475V665.35c0-.488 0-1.088-.038-1.8-.037-.713-.112-1.425-.15-2.063h2.55zm20.85 0c.038.488.075.938.113 1.388v1.425h.075c.262-.488.637-.9 1.05-1.313.412-.412.9-.75 1.425-1.05a11.31 11.31 0 011.687-.675 6.81 6.81 0 011.725-.225c2.25 0 3.9.6 4.988 1.763 1.087 1.2 1.612 2.887 1.612 5.1v11.137h-2.475v-9.712c0-1.95-.337-3.45-1.012-4.5-.675-1.013-1.913-1.538-3.75-1.538-.113 0-.488.038-1.05.15-.563.113-1.163.375-1.8.825-.638.45-1.238 1.125-1.725 2.025-.488.9-.75 2.138-.75 3.75v9h-2.475V665.35c0-.488 0-1.088-.038-1.8-.037-.713-.112-1.425-.15-2.063h2.55zm31.163 17.55c-.038-.487-.075-.938-.075-1.425-.038-.45-.038-.9-.038-1.387h-.075c-.262.487-.637.9-1.05 1.312-.412.412-.9.75-1.425 1.013-.525.3-1.087.525-1.65.712-.6.15-1.2.225-1.762.225-2.25 0-3.9-.6-4.988-1.8-1.087-1.162-1.612-2.85-1.612-5.062v-11.138h2.475v9.713c0 .975.075 1.837.225 2.587.15.75.413 1.388.788 1.875.337.525.825.9 1.462 1.163.6.3 1.35.412 2.288.412.112 0 .487-.037 1.05-.15.562-.112 1.2-.375 1.837-.825.638-.45 1.2-1.125 1.688-2.025.487-.9.75-2.137.75-3.75v-9h2.475v13.688c0 .487.037 1.087.075 1.8.037.712.075 1.425.112 2.062h-2.55zm10.538-17.55c.037.488.075.938.112 1.388v1.425h.075c.262-.488.637-.9 1.05-1.313.412-.412.9-.75 1.425-1.05a11.31 11.31 0 011.688-.675 6.81 6.81 0 011.724-.225c2.25 0 3.9.6 4.988 1.763 1.087 1.2 1.612 2.887 1.612 5.1v11.137h-2.475v-9.712c0-1.95-.337-3.45-1.012-4.5-.675-1.013-1.913-1.538-3.75-1.538-.113 0-.488.038-1.05.15-.563.113-1.163.375-1.8.825-.638.45-1.238 1.125-1.725 2.025-.488.9-.75 2.138-.75 3.75v9h-2.475V665.35c0-.488 0-1.088-.038-1.8-.037-.713-.112-1.425-.15-2.063h2.55zm20.287 8.55c0 .937.188 1.8.525 2.587.3.825.787 1.538 1.388 2.138a5.755 5.755 0 002.062 1.463 5.776 5.776 0 002.55.562c.9 0 1.763-.15 2.588-.487a7.228 7.228 0 002.137-1.388c.638-.563 1.125-1.275 1.463-2.1.337-.825.487-1.762.45-2.775 0-.938-.15-1.8-.45-2.625-.3-.788-.75-1.5-1.313-2.137-.563-.6-1.275-1.088-2.1-1.463a7.316 7.316 0 00-2.775-.525c-.937 0-1.762.188-2.55.525-.787.375-1.5.863-2.062 1.463-.6.637-1.088 1.35-1.388 2.137a6.832 6.832 0 00-.525 2.625zm-.45 12.525c.713.975 1.688 1.763 2.85 2.363 1.163.562 2.438.862 3.862.862 1.238 0 2.325-.188 3.188-.525.863-.375 1.575-.863 2.137-1.5.525-.638.9-1.35 1.163-2.175.225-.863.338-1.762.338-2.7v-3.15h-.075c-.788 1.2-1.763 2.062-2.925 2.55a9.286 9.286 0 01-3.638.75c-1.275 0-2.475-.225-3.562-.675a9.103 9.103 0 01-2.925-1.875c-.825-.787-1.463-1.725-1.95-2.812-.488-1.088-.713-2.288-.713-3.563 0-1.275.225-2.475.675-3.563a9.354 9.354 0 011.875-2.887c.75-.825 1.725-1.463 2.813-1.95 1.087-.45 2.25-.675 3.562-.675.525 0 1.088.037 1.688.15.562.112 1.162.262 1.762.525.563.262 1.162.6 1.725 1.012a8.69 8.69 0 011.613 1.688h.075v-2.925h2.475v17.4c0 .938-.113 1.95-.338 3.038a7.958 7.958 0 01-1.387 2.962c-.713.9-1.65 1.65-2.888 2.25-1.237.6-2.812.9-4.8.9-1.762 0-3.3-.3-4.687-.863-1.388-.562-2.625-1.462-3.75-2.662l1.837-1.95zm51.859-13.425c0 1.088-.113 2.25-.375 3.488-.3 1.275-.788 2.4-1.5 3.45-.713 1.05-1.725 1.912-2.963 2.587-1.274.712-2.887 1.05-4.874 1.05-1.988 0-3.638-.337-4.875-1.05-1.238-.675-2.25-1.537-2.963-2.588-.712-1.05-1.237-2.174-1.462-3.45-.263-1.237-.413-2.4-.413-3.487v-16.65h2.7v16.35c0 1.275.113 2.363.375 3.263.263.937.6 1.687 1.013 2.325.412.637.862 1.125 1.387 1.462a5.726 5.726 0 001.538.863c.487.187.975.337 1.462.375.488.075.9.112 1.238.112.337 0 .75-.037 1.237-.112.488-.038.975-.188 1.5-.375.488-.188 1.013-.488 1.538-.863a5.222 5.222 0 001.387-1.462c.413-.638.713-1.388.975-2.325.263-.9.375-1.988.375-3.263v-16.35h2.7v16.65zm6.828 13.744h2.798c.7 0 1.29-.065 1.793-.218.481-.153.875-.35 1.159-.59.284-.241.503-.525.634-.853a2.8 2.8 0 00.197-1.05 2.8 2.8 0 00-.197-1.049 2.183 2.183 0 00-.634-.853c-.284-.24-.678-.437-1.159-.59-.503-.131-1.093-.197-1.793-.197h-2.798v5.4zm0 8.636h-1.574v-15.479h4.766c1.574 0 2.82.35 3.738 1.028.897.678 1.356 1.727 1.356 3.104 0 1.072-.328 1.99-1.006 2.711-.678.744-1.661 1.18-2.951 1.29l4.46 7.346h-1.924l-4.242-7.193h-2.623v7.193zm32.392-21.217c-.637 0-1.387.037-2.325.075-.938.075-1.838.225-2.7.45-.862.262-1.612.637-2.212 1.125-.638.487-.938 1.2-.938 2.062 0 .563.113 1.05.375 1.463.225.412.525.75.937 1.012.413.263.863.45 1.35.563.488.15.975.187 1.463.187.9 0 1.688-.15 2.362-.45.638-.3 1.2-.712 1.65-1.237.45-.488.788-1.088 1.013-1.8a8.02 8.02 0 00.3-2.175V670.3h-1.275zm1.275-2.025v-.45c0-3.038-1.5-4.538-4.5-4.538-2.062 0-3.825.675-5.363 2.062l-1.5-1.762c1.65-1.688 4.126-2.55 7.426-2.55.862 0 1.687.113 2.475.375.787.262 1.462.637 2.025 1.125a5.75 5.75 0 011.387 1.95c.338.788.525 1.688.525 2.775v7.838c0 .675.038 1.387.113 2.1.037.75.112 1.35.187 1.837h-2.4c-.075-.412-.113-.9-.15-1.387-.037-.488-.075-.975-.075-1.463h-.075c-.713 1.163-1.575 2.025-2.55 2.513-1.012.525-2.212.787-3.638.787a8.808 8.808 0 01-2.25-.3 5.852 5.852 0 01-1.912-1.012 4.33 4.33 0 01-1.35-1.613c-.338-.637-.525-1.35-.525-2.212 0-1.425.375-2.55 1.125-3.375.713-.788 1.65-1.388 2.775-1.8 1.087-.413 2.287-.638 3.562-.75 1.238-.113 2.4-.15 3.45-.15h1.238zm10.572-6.788c.038.488.075.938.113 1.388v1.425h.075c.262-.488.637-.9 1.05-1.313.412-.412.9-.75 1.425-1.05a11.31 11.31 0 011.687-.675 6.81 6.81 0 011.725-.225c2.25 0 3.9.6 4.988 1.763 1.087 1.2 1.612 2.887 1.612 5.1v11.137h-2.475v-9.712c0-1.95-.337-3.45-1.012-4.5-.675-1.013-1.913-1.538-3.75-1.538-.113 0-.488.038-1.05.15-.563.113-1.163.375-1.8.825-.638.45-1.238 1.125-1.725 2.025-.488.9-.75 2.138-.75 3.75v9h-2.475V665.35c0-.488 0-1.088-.038-1.8-.037-.713-.112-1.425-.15-2.063h2.55zm23.026 15.75c0 .525-.188.975-.563 1.388a1.9 1.9 0 01-1.462.637 1.9 1.9 0 01-1.463-.637c-.375-.413-.562-.863-.562-1.388 0-.525.187-1.012.562-1.425.375-.412.863-.6 1.463-.6.6 0 1.087.188 1.462.6.375.413.563.9.563 1.425z" fill-rule="nonzero"/><path d="M248.502 462.241v70.87" fill="none" stroke="#000" stroke-width="4.17"/><g fill="none" stroke="#000" stroke-linecap="square" stroke-linejoin="round"><path d="M213.071 533.106h70.87m-59.032 8.856h47.19" stroke-width="4.17"/><path d="M1405.51 1057.09h29.53" stroke-width="4.56" transform="matrix(.81905 0 0 1 -914.779 -506.264)"/></g><path d="M248.502 391.377V60.667H130.394" fill="none" stroke="#000" stroke-width="4.17" stroke-linecap="butt"/><path d="M789.512 320.511c.807-.71 35.431-23.63 35.431-23.63H931.24v47.25H824.943s-36.238-22.91-35.431-23.62z" fill="#d9d9d9"/><path d="M789.512 320.511c.807-.71 35.431-23.63 35.431-23.63H931.24v47.25H824.943s-36.238-22.91-35.431-23.62zm36.639 19.45h100.921v-38.91H826.196c-4.4 2.91-21.535 14.24-29.645 19.67 8.196 5.65 25.262 16.49 29.6 19.24z"/><path d="M851.758 332.451l9.133-23.867h3.4l9.767 23.867h-3.567l-2.8-7.233h-9.967l-2.633 7.233h-3.333zm6.866-9.8h8.1l-2.5-6.6c-.766-2-1.333-3.667-1.7-4.967a32.07 32.07 0 01-1.266 4.567l-2.634 7zm16.8-1.967c0-2.833.267-5.1.867-6.8.566-1.733 1.433-3.066 2.566-4 1.167-.933 2.6-1.4 4.334-1.4 1.266 0 2.4.267 3.366.767a6.683 6.683 0 012.4 2.233c.634.967 1.1 2.167 1.467 3.567.367 1.4.533 3.267.533 5.633 0 2.8-.266 5.067-.866 6.767-.567 1.733-1.434 3.067-2.567 4-1.133.933-2.6 1.4-4.333 1.4-2.3 0-4.1-.833-5.434-2.467-1.566-2-2.333-5.233-2.333-9.7zm3 0c0 3.9.467 6.534 1.367 7.834.933 1.266 2.066 1.933 3.4 1.933 1.333 0 2.466-.667 3.4-1.967.9-1.3 1.366-3.9 1.366-7.8 0-3.933-.466-6.533-1.366-7.833-.934-1.3-2.067-1.933-3.434-1.933-1.333 0-2.433.566-3.233 1.7-1 1.466-1.5 4.133-1.5 8.066z" fill-rule="nonzero"/><path d="M141.727 60.671c-.807-.71-35.431-23.63-35.431-23.63H0v47.25h106.296s36.238-22.91 35.431-23.62z" fill="#c4c8ed"/><path d="M141.727 60.671c-.807-.71-35.431-23.63-35.431-23.63H0v47.25h106.296s36.238-22.91 35.431-23.62zm-36.684-19.46H4.167v38.91h100.921c4.335-2.74 21.403-13.59 29.6-19.24-8.112-5.44-25.247-16.76-29.645-19.67z"/><path d="M25.034 66.344l3.066-.233c.234 1.5.734 2.6 1.567 3.367.833.766 1.833 1.133 3 1.133 1.433 0 2.633-.533 3.6-1.6.967-1.067 1.467-2.467 1.467-4.233 0-1.667-.467-3-1.4-3.967-.967-.933-2.167-1.433-3.7-1.433-.934 0-1.8.2-2.567.633-.733.433-1.333 1-1.767 1.667l-2.766-.334 2.3-12.266H39.7v2.8h-9.5l-1.3 6.4c1.434-1 2.934-1.5 4.5-1.5 2.1 0 3.867.733 5.3 2.166 1.434 1.467 2.134 3.3 2.134 5.567 0 2.167-.634 4.033-1.9 5.6-1.5 1.933-3.6 2.9-6.267 2.9-2.167 0-3.933-.6-5.3-1.8-1.367-1.233-2.167-2.833-2.333-4.867zm35.8 6.267l-9.267-23.867H55l6.2 17.334c.5 1.4.9 2.7 1.267 3.9.367-1.3.767-2.6 1.267-3.9L70.2 48.744h3.2l-9.333 23.867h-3.233z" fill-rule="nonzero"/><g transform="translate(.003 .001)"><circle cx="580.641" cy="320.508" r="6.25"/><path d="M580.641 320.508h210.706" fill="none" stroke="#000" stroke-width="4.17"/></g><path d="M248.05 198.041l-35.43-53.145h70.86l-35.43 53.145z" fill="#c4c8ed"/><path d="M248.05 198.041l-35.43-53.145h70.86l-35.43 53.145zm-27.645-48.975l27.645 41.475 27.645-41.475h-55.29z"/><path d="M283.48 198.041h-70.86" fill="none" stroke="#000" stroke-width="4.17"/><path d="M289.956 182.58l3.267 10.437-10.935.214 7.668-10.652z"/><path d="M274.428 179.487l13.114 9.441" fill="none" stroke="#000" stroke-width="2.92"/><path d="M297.7 171.71l3.268 10.439-10.935.214 7.668-10.652z"/><path d="M282.173 168.618l13.114 9.44" fill="none" stroke="#000" stroke-width="2.92"/><path d="M794.509 26.841l15.225-26.85h4.237l4.425 26.85h-3.487l-1.313-7.725H802.76l-4.313 7.725h-3.937zm9.787-10.5h8.888l-1.05-6.713c-.412-2.7-.675-4.912-.75-6.712a48.213 48.213 0 01-2.7 5.475l-4.387 7.95zm17.212 10.5l4.088-19.463h2.925l-.825 3.975c.975-1.5 1.987-2.587 2.925-3.3.975-.75 1.95-1.087 2.925-1.087.675 0 1.5.225 2.437.712l-1.35 3.075c-.562-.412-1.2-.637-1.875-.637-1.162 0-2.362.637-3.562 1.95-1.238 1.275-2.175 3.6-2.888 6.975l-1.65 7.8h-3.15zm25.613-2.813c-1.912 2.175-3.862 3.263-5.925 3.263-1.875 0-3.375-.675-4.612-2.063-1.237-1.35-1.837-3.337-1.837-5.925 0-2.362.487-4.537 1.462-6.487.938-1.95 2.175-3.413 3.638-4.388 1.462-.975 2.925-1.462 4.387-1.462 2.4 0 4.238 1.162 5.475 3.487l2.175-10.462h3.3l-5.587 26.85h-3.075l.6-2.813zm-9.075-5.325c0 1.35.113 2.4.375 3.188.3.787.75 1.425 1.388 1.95.637.525 1.425.787 2.325.787 1.5 0 2.85-.787 4.087-2.362 1.65-2.063 2.438-4.613 2.438-7.688 0-1.537-.375-2.737-1.2-3.6-.788-.862-1.8-1.312-3.038-1.312-.787 0-1.5.187-2.175.562-.637.338-1.275.938-1.95 1.8-.637.825-1.162 1.913-1.612 3.225-.45 1.313-.638 2.438-.638 3.45zm30.081 4.613c-2.325 2.662-4.725 3.975-7.163 3.975-1.5 0-2.7-.45-3.638-1.313-.9-.862-1.35-1.912-1.35-3.15 0-.825.188-2.212.6-4.2l2.363-11.25h3.3l-2.588 12.45c-.225 1.05-.337 1.838-.337 2.4 0 .75.225 1.313.675 1.725.45.413 1.087.6 1.95.6.937 0 1.838-.225 2.737-.675a7.604 7.604 0 002.288-1.8 9.255 9.255 0 001.537-2.737c.3-.675.6-1.875.938-3.525l1.762-8.438h3.338l-4.088 19.463h-3.037l.713-3.525zm12.306-19.575l.787-3.75h3.3l-.788 3.75h-3.3zm-4.838 23.1l4.05-19.463h3.337l-4.087 19.463h-3.3zm8.443 0l4.088-19.463h3l-.713 3.413c1.275-1.35 2.513-2.325 3.638-2.925 1.162-.6 2.287-.9 3.487-.9 1.575 0 2.813.412 3.713 1.275.9.862 1.35 1.987 1.35 3.412 0 .713-.15 1.875-.488 3.413l-2.475 11.775h-3.3l2.588-12.338c.262-1.2.375-2.062.375-2.625 0-.675-.225-1.2-.675-1.575-.45-.412-1.087-.637-1.912-.637-1.726 0-3.226.637-4.538 1.837-1.35 1.238-2.325 3.338-2.925 6.3l-1.875 9.038h-3.337zm21.456-7.388c0-3.787 1.125-6.937 3.338-9.412 1.837-2.063 4.275-3.075 7.275-3.075 2.325 0 4.2.712 5.662 2.175 1.425 1.462 2.138 3.45 2.138 5.962 0 2.213-.45 4.313-1.35 6.225-.9 1.913-2.175 3.375-3.863 4.425-1.65 1.013-3.412 1.538-5.25 1.538-1.537 0-2.887-.338-4.125-.975-1.237-.638-2.212-1.575-2.85-2.738-.637-1.2-.975-2.55-.975-4.125zm3.3-.337c0 1.837.45 3.225 1.313 4.2.9.937 2.025 1.387 3.375 1.387a5.24 5.24 0 002.1-.412c.675-.3 1.35-.713 1.95-1.313.6-.6 1.087-1.237 1.5-1.987a11.7 11.7 0 001.05-2.438c.375-1.2.562-2.362.562-3.487 0-1.763-.45-3.113-1.35-4.088-.862-.975-1.987-1.462-3.337-1.462-1.05 0-1.988.262-2.85.75-.825.487-1.613 1.2-2.288 2.175-.712.937-1.2 2.062-1.537 3.3-.3 1.275-.488 2.4-.488 3.375zm-720.082 7.725l5.625-26.85h3.562l-5.587 26.85h-3.6zm10.043 0l5.625-26.85h11.25c2.213 0 3.9.188 5.063.563 1.125.375 2.025 1.087 2.7 2.1.637 1.012.975 2.325.975 3.862 0 2.213-.713 4.013-2.138 5.475-1.425 1.425-3.75 2.363-6.937 2.775.975.713 1.725 1.425 2.212 2.138a25.196 25.196 0 012.738 4.875l2.025 5.062h-4.013l-1.912-4.987c-.675-1.8-1.5-3.375-2.362-4.688-.638-.937-1.238-1.537-1.876-1.8-.637-.3-1.687-.45-3.112-.45h-4.163l-2.475 11.925h-3.6zm6.675-14.85h4.95c2.325 0 3.788 0 4.5-.075 1.35-.15 2.475-.45 3.338-.9.863-.487 1.538-1.125 2.025-1.95.45-.787.713-1.65.713-2.587 0-.788-.188-1.463-.525-2.025-.376-.6-.826-.975-1.426-1.2-.562-.188-1.537-.3-2.925-.3h-8.737l-1.913 9.037zm20.369 6.788l.713-3.3h10.087l-.675 3.3h-10.125zm12.263 8.062l5.587-26.85h3.6l-4.95 23.813h13.913l-.637 3.037h-17.513zm21.044 0l5.625-26.85h19.35l-.638 3.075h-15.787l-1.725 8.325h15.375l-.638 3.075h-15.413l-1.912 9.338h16.875l-.638 3.037h-20.475zm24.974 0l5.625-26.85h8.1c1.913 0 3.413.15 4.425.413 1.462.412 2.737 1.05 3.75 2.025 1.05.975 1.838 2.212 2.362 3.637.526 1.463.788 3.075.788 4.913 0 2.137-.337 4.125-.975 5.887-.675 1.763-1.5 3.338-2.587 4.688-1.05 1.35-2.138 2.4-3.3 3.187-1.163.75-2.513 1.313-4.088 1.688-1.2.262-2.662.412-4.425.412h-9.675zm4.237-3.037h4.275c1.913 0 3.6-.188 5.1-.525.9-.225 1.725-.563 2.363-.975a9.882 9.882 0 002.363-2.175 14.88 14.88 0 002.25-4.088c.525-1.537.825-3.3.825-5.25 0-2.175-.375-3.825-1.163-4.987-.75-1.163-1.687-1.95-2.887-2.325-.863-.3-2.213-.413-4.05-.413h-4.725l-4.35 20.738zm162.43 3.037l5.625-26.85h17.437l-.637 3.075h-13.875l-1.763 8.55h14.138l-.675 3.038h-14.1l-2.55 12.187h-3.6zm23.056-7.387c0-3.788 1.125-6.938 3.337-9.413 1.838-2.062 4.275-3.075 7.275-3.075 2.325 0 4.2.713 5.663 2.175 1.425 1.463 2.137 3.45 2.137 5.963 0 2.212-.45 4.312-1.35 6.225-.9 1.912-2.175 3.375-3.862 4.425-1.65 1.012-3.413 1.537-5.25 1.537-1.538 0-2.888-.337-4.125-.975-1.238-.637-2.213-1.575-2.85-2.737-.638-1.2-.975-2.55-.975-4.125zm3.3-.338c0 1.838.45 3.225 1.312 4.2.9.938 2.025 1.388 3.375 1.388a5.24 5.24 0 002.1-.413 6.38 6.38 0 001.95-1.312c.6-.6 1.088-1.238 1.5-1.988.45-.787.788-1.575 1.05-2.437.375-1.2.563-2.363.563-3.488 0-1.762-.45-3.112-1.35-4.087-.863-.975-1.988-1.463-3.338-1.463-1.05 0-1.987.263-2.85.75-.825.488-1.612 1.2-2.287 2.175-.713.938-1.2 2.063-1.538 3.3-.3 1.275-.487 2.4-.487 3.375zm24.718 5.025l-.562 2.7a8.45 8.45 0 01-2.288.338c-1.35 0-2.4-.338-3.15-.975-.6-.488-.9-1.163-.9-1.988 0-.45.15-1.425.488-2.962l2.362-11.288h-2.625l.525-2.587h2.625l1.013-4.763 3.787-2.287-1.5 7.05h3.263l-.525 2.587h-3.263l-2.25 10.725c-.262 1.388-.412 2.213-.412 2.475 0 .375.112.675.337.9.225.188.6.3 1.125.3a7.95 7.95 0 001.95-.225zm3.257-4.687c0-3.788 1.125-6.938 3.337-9.413 1.838-2.062 4.275-3.075 7.275-3.075 2.325 0 4.2.713 5.662 2.175 1.426 1.463 2.138 3.45 2.138 5.963 0 2.212-.45 4.312-1.35 6.225-.9 1.912-2.175 3.375-3.862 4.425-1.65 1.012-3.413 1.537-5.25 1.537-1.538 0-2.888-.337-4.125-.975-1.238-.637-2.213-1.575-2.85-2.737-.638-1.2-.975-2.55-.975-4.125zm3.3-.338c0 1.838.45 3.225 1.312 4.2.9.938 2.025 1.388 3.375 1.388a5.24 5.24 0 002.1-.413 6.38 6.38 0 001.95-1.312c.6-.6 1.088-1.238 1.5-1.988.45-.787.788-1.575 1.05-2.437.375-1.2.563-2.363.563-3.488 0-1.762-.45-3.112-1.35-4.087-.863-.975-1.988-1.463-3.338-1.463-1.05 0-1.987.263-2.85.75-.825.488-1.612 1.2-2.287 2.175-.713.938-1.2 2.063-1.538 3.3-.3 1.275-.487 2.4-.487 3.375zm24.717 5.025l-.562 2.7a8.45 8.45 0 01-2.288.338c-1.35 0-2.4-.338-3.15-.975-.6-.488-.9-1.163-.9-1.988 0-.45.15-1.425.488-2.962l2.362-11.288h-2.625l.525-2.587h2.625l1.012-4.763L534.37.329l-1.5 7.05h3.263l-.525 2.587h-3.263l-2.25 10.725c-.262 1.388-.412 2.213-.412 2.475 0 .375.112.675.337.9.225.188.6.3 1.125.3a7.95 7.95 0 001.95-.225zm2.657 2.7l4.087-19.462h2.925l-.825 3.975c.975-1.5 1.987-2.588 2.925-3.3.975-.75 1.95-1.088 2.925-1.088.675 0 1.5.225 2.437.713l-1.35 3.075c-.562-.413-1.2-.638-1.875-.638-1.162 0-2.362.638-3.562 1.95-1.238 1.275-2.175 3.6-2.888 6.975l-1.65 7.8h-3.15zm25.613-2.4c-1.163.975-2.25 1.688-3.338 2.138-1.05.487-2.175.712-3.375.712-1.8 0-3.262-.525-4.35-1.612-1.087-1.05-1.65-2.4-1.65-4.05a5.71 5.71 0 01.75-2.888c.488-.825 1.125-1.5 1.95-1.987.825-.525 1.838-.863 3-1.088.75-.15 2.175-.262 4.238-.375 2.1-.075 3.6-.3 4.5-.637.262-.9.375-1.65.375-2.25 0-.788-.3-1.388-.825-1.838-.788-.6-1.913-.9-3.375-.9-1.388 0-2.55.3-3.413.938-.9.6-1.537 1.462-1.95 2.625l-3.337-.3c.675-1.95 1.762-3.413 3.225-4.425 1.5-1.05 3.375-1.538 5.625-1.538 2.4 0 4.312.563 5.7 1.725 1.087.825 1.612 1.95 1.612 3.3 0 1.05-.15 2.25-.45 3.638l-1.088 4.837c-.337 1.538-.487 2.775-.487 3.75 0 .6.113 1.463.375 2.625h-3.337c-.188-.637-.3-1.425-.375-2.4zm1.237-7.462a9.91 9.91 0 01-1.5.45 54.06 54.06 0 01-2.662.3c-1.95.15-3.3.375-4.088.637-.787.263-1.387.675-1.8 1.275-.412.563-.6 1.2-.6 1.875 0 .938.3 1.688.938 2.288.675.6 1.575.9 2.737.9a6.086 6.086 0 003.188-.863c1.012-.562 1.8-1.387 2.4-2.437.6-1.013 1.05-2.513 1.387-4.425zm6.493 9.862l4.087-19.462h3l-.712 3.412c1.275-1.35 2.512-2.325 3.637-2.925 1.163-.6 2.288-.9 3.488-.9 1.575 0 2.812.413 3.712 1.275.9.863 1.35 1.988 1.35 3.413 0 .712-.15 1.875-.487 3.412l-2.475 11.775h-3.3l2.587-12.337c.263-1.2.375-2.063.375-2.625 0-.675-.225-1.2-.675-1.575-.45-.413-1.087-.638-1.912-.638-1.725 0-3.225.638-4.538 1.838-1.35 1.237-2.325 3.337-2.925 6.3l-1.875 9.037h-3.337zm21.193-6.637l3.3-.225c0 .975.15 1.762.45 2.437.263.675.825 1.238 1.613 1.65.787.45 1.687.638 2.737.638 1.463 0 2.588-.263 3.3-.863.75-.6 1.088-1.275 1.088-2.062 0-.6-.188-1.125-.638-1.65-.45-.488-1.575-1.125-3.3-1.875-1.762-.75-2.887-1.275-3.375-1.575-.825-.525-1.425-1.125-1.837-1.8-.413-.675-.638-1.425-.638-2.325 0-1.538.638-2.85 1.838-3.938 1.237-1.125 2.925-1.65 5.137-1.65 2.438 0 4.275.563 5.55 1.688 1.312 1.125 1.95 2.625 1.987 4.462l-3.225.225c-.037-1.2-.45-2.1-1.237-2.812-.788-.675-1.875-1.013-3.338-1.013-1.125 0-2.025.263-2.662.788-.638.525-.937 1.087-.937 1.687 0 .638.262 1.163.825 1.613.375.337 1.312.825 2.812 1.5 2.55 1.087 4.163 1.95 4.8 2.587 1.05 1.013 1.575 2.25 1.575 3.675 0 .975-.3 1.913-.863 2.85-.6.938-1.5 1.688-2.737 2.25-1.2.525-2.625.825-4.275.825-2.25 0-4.162-.562-5.737-1.687-1.575-1.088-2.325-2.925-2.213-5.4zm23.138-16.463l.787-3.75h3.3l-.787 3.75h-3.3zm-4.838 23.1l4.05-19.462h3.338l-4.088 19.462h-3.3zm8.782-6.637l3.3-.225c0 .975.15 1.762.45 2.437.263.675.825 1.238 1.613 1.65.787.45 1.687.638 2.737.638 1.462 0 2.588-.263 3.3-.863.75-.6 1.088-1.275 1.088-2.062 0-.6-.188-1.125-.638-1.65-.45-.488-1.575-1.125-3.3-1.875-1.763-.75-2.888-1.275-3.375-1.575-.825-.525-1.425-1.125-1.837-1.8-.413-.675-.638-1.425-.638-2.325 0-1.538.637-2.85 1.837-3.938 1.238-1.125 2.925-1.65 5.138-1.65 2.438 0 4.275.563 5.55 1.688 1.312 1.125 1.95 2.625 1.987 4.462l-3.225.225c-.037-1.2-.45-2.1-1.237-2.812-.788-.675-1.875-1.013-3.338-1.013-1.125 0-2.025.263-2.662.788-.638.525-.938 1.087-.938 1.687 0 .638.263 1.163.825 1.613.375.337 1.313.825 2.813 1.5 2.55 1.087 4.162 1.95 4.8 2.587 1.05 1.013 1.575 2.25 1.575 3.675 0 .975-.3 1.913-.863 2.85-.6.938-1.5 1.688-2.737 2.25-1.2.525-2.625.825-4.275.825-2.25 0-4.163-.562-5.737-1.687-1.575-1.088-2.325-2.925-2.213-5.4zm26.175 3.937l-.562 2.7a8.45 8.45 0 01-2.288.338c-1.35 0-2.4-.338-3.15-.975-.6-.488-.9-1.163-.9-1.988 0-.45.15-1.425.488-2.962l2.362-11.288h-2.625l.525-2.587h2.625l1.013-4.763L644.82.329l-1.5 7.05h3.263l-.525 2.587h-3.263l-2.25 10.725c-.262 1.388-.412 2.213-.412 2.475 0 .375.112.675.337.9.225.188.6.3 1.125.3a7.95 7.95 0 001.95-.225zm3.255-4.687c0-3.788 1.126-6.938 3.338-9.413 1.838-2.062 4.275-3.075 7.275-3.075 2.325 0 4.2.713 5.663 2.175 1.425 1.463 2.137 3.45 2.137 5.963 0 2.212-.45 4.312-1.35 6.225-.9 1.912-2.175 3.375-3.862 4.425-1.65 1.012-3.413 1.537-5.25 1.537-1.538 0-2.888-.337-4.125-.975-1.238-.637-2.213-1.575-2.85-2.737-.638-1.2-.975-2.55-.975-4.125zm3.3-.338c0 1.838.45 3.225 1.313 4.2.9.938 2.025 1.388 3.375 1.388a5.24 5.24 0 002.1-.413 6.38 6.38 0 001.95-1.312c.6-.6 1.088-1.238 1.5-1.988.45-.787.788-1.575 1.05-2.437.375-1.2.563-2.363.563-3.488 0-1.762-.45-3.112-1.35-4.087-.863-.975-1.988-1.463-3.338-1.463-1.05 0-1.987.263-2.85.75-.825.488-1.612 1.2-2.287 2.175-.713.938-1.2 2.063-1.538 3.3-.3 1.275-.487 2.4-.487 3.375zm16.957 7.725l4.087-19.462h2.925l-.825 3.975c.975-1.5 1.987-2.588 2.925-3.3.975-.75 1.95-1.088 2.925-1.088.675 0 1.5.225 2.437.713l-1.35 3.075c-.562-.413-1.2-.638-1.875-.638-1.162 0-2.362.638-3.562 1.95-1.238 1.275-2.175 3.6-2.888 6.975l-1.65 7.8h-3.15z" fill="#595959" fill-rule="nonzero"/><g fill="none" stroke="#000" stroke-linecap="square" stroke-linejoin="round"><path d="M545.672 533.106h70.87m-59.032 8.856h47.19" stroke-width="4.17"/><path d="M1405.51 1057.09h29.53" stroke-width="4.56" transform="matrix(.81905 0 0 1 -582.178 -506.264)"/></g><path fill="#fff" d="M224.882 391.378h47.244v94.488h-47.244z"/><path d="M272.126 391.378h-47.244v94.49h47.244v-94.49zm-43.077 4.16v86.16h38.91v-86.16h-38.91z"/><g transform="translate(.004 -.003)"><circle cx="248.501" cy="60.666" r="6.25"/><path d="M248.501 60.666h332.14v70.866" fill="none" stroke="#000" stroke-width="4.17" stroke-linejoin="round"/></g><path d="M580.643 226.02v307.087" fill="none" stroke="#000" stroke-width="4.17"/><path fill="#fff" d="M557.022 391.378h47.244v94.488h-47.244z"/><path d="M604.266 391.378h-47.244v94.49h47.244v-94.49zm-43.077 4.16v86.16h38.91v-86.16h-38.91z"/><path d="M644.585 482.11l-9.375 18.75-9.375-18.75c4.688 4.687 14.063 4.687 18.75 0z" fill="#337bcc"/><path d="M635.21 391.371v94.489" fill="none" stroke="#337bcc" stroke-width="4.17"/><path d="M644.588 207.134l-9.375 18.75-9.375-18.75c4.688 4.688 14.063 4.688 18.75 0z" fill="#337bcc"/><path d="M635.213 131.532v79.352" fill="none" stroke="#337bcc" stroke-width="4.17"/><path d="M457.353 482.102l-9.375 18.75-9.375-18.75c4.688 4.687 14.063 4.687 18.75 0z" fill="#337bcc"/><path d="M447.979 131.52v354.331" fill="none" stroke="#337bcc" stroke-width="4.17"/><path d="M419.949 397.995h-.001z" fill="none"/><path d="M401.572 468.92c.584.084 12.334 2.65 15.938 3.354 1.533.33 3.062.788 4.591.909 3.475.208 6.125-1.321 7.58-3.559 2.812-4.345.866-10.22-2.571-13.616-1.363-1.325-2.975-2.4-4.763-3.063-1.612-.583-3.35-.829-5.046-1.2l-12.541-2.65-1.942-.416c-.417-.08-.833-.2-1.246-.246v2.65c.584.083 4.021.825 5.134 1.07l9.895 2.117c3.096.659 6.413 1.038 8.938 3.1 2.233 1.867 3.517 4.842 3.229 7.742-.208 2.03-1.158 3.892-3.067 4.72-1.9.872-4.008.455-6.004 0-.654-.124-1.32-.25-1.983-.416l-10.471-2.187c-.825-.209-5.004-1.163-5.67-1.205v2.896m15.297-26.333c.088.7.205 1.37.496 2.017 1.171 3.045 5.159 4.133 9.084 4.133.612 0 1.196 0 1.816-.033 2.721-.084 5.388-.7 7.03-2.25 1.316-1.292 1.87-3.196 1.691-4.984-.116-1.087-.52-2.025-1.02-2.812-1.759-2.492-5.392-3.08-9.317-3.08-3.221 0-6.121.563-7.875 2.142-1.317 1.2-2.08 3.075-1.904 4.867zm2.138-2.496a5.4 5.4 0 01.646-.846c1.079-1.087 3.187-1.437 5.12-1.496.413 0 .797-.029 1.205-.029h1.492c2.52 0 4.954.238 6.445 1.35 1.909 1.463 1.967 4.571.059 6.121-.409.35-.88.583-1.375.758-1.496.53-3.371.646-5.246.646h-1.492c-.383 0-.733-.025-1.112-.025-2.317 0-4.604-.587-5.6-2.141-.704-1.142-.904-2.93-.142-4.338m-4.435-22.741a.807.807 0 001.575-.084c.08-.246.042-.542.042-.787v-24.875c0-.334 0-.667-.25-.913-.454-.496-1.325-.162-1.404.5-.046.58 0 1.158 0 1.738v23.72c0 .2-.046.492.037.7zm8.408.495c.455.288 1.071 0 1.196-.496.084-.254.038-.5.038-.745v-25.042c0-.33 0-.625-.246-.87-.496-.534-1.321-.163-1.404.54-.042.58 0 1.16 0 1.738v23.634c0 .537-.042.95.416 1.241m-19.828-45.116h14.817v-1.571c0-.209.046-.5-.042-.663-.12-.208-.454-.333-.617-.454-.37-.296-.704-.58-.995-.912-1.655-1.9-1.946-5.255-.371-7.08 1.196-1.529 3.104-1.983 4.966-2.108 2.48-.254 4.8.496 6.042 1.617 2.358 2.146 2.317 5.916.95 8.566-.658 1.321-1.654 2.396-2.896 3.221v.046c.209.125 1.659 1.075 1.909 1.075.162 0 .329-.162.454-.246 2.15-1.825 3.762-4.637 3.637-8.404-.162-2.73-1.487-5.296-3.637-6.954-3.104-2.396-7.534-2.442-10.809-.333-1.237.787-2.316 1.908-2.975 3.229-1.366 2.775-.787 6.17 1.284 8.446h-9.525v-11.755h-2.192v14.28m-1.571-25.559c.909-.254 1.775-.704 2.65-1.037l13.659-5.546 11.008-4.475 1.196-.492c.17-.087.416-.125.458-.333.046-.246 0-.542 0-.788v-1.445c0-.625.083-.871-.58-1.034l-1.2-.504c-4.84-2.025-26.7-10.883-27.19-11.008 0 .912 0 1.825.037 2.65l.416.246 5.338 2.195c6.792 2.65 13.367 5.509 20.279 8.034v.079c-.787.125-1.442.542-2.146.787l-3.808 1.492c-1.492.58-19.788 7.95-19.996 8.113-.208.166-.12.579-.12.787v2.28" fill-rule="nonzero"/><path d="M520.013 469.717v-.001z" fill="none"/><path d="M506.972 450.894l-6.088 28.721c.954 0 1.988.042 2.813-.083l.125-.288 2.733-12.954h5.796c.704 0 1.492-.037 2.029.125.538.95.954 1.984 1.408 3.021 1.617 3.313 2.984 6.867 4.721 10.096.867.125 1.863.083 2.85.083L517.026 466c.912-.125 1.783-.413 2.65-.746 2.07-.746 4.1-1.984 5.508-3.721 1.367-1.663 1.984-3.896 1.196-5.921a8.136 8.136 0 00-.742-1.325c-1.737-2.15-4.387-3.183-7.825-3.392-.866-.045-1.691 0-2.566 0h-8.275zm.041 13.325l2.355-11.133h6.212c1.988 0 4.096.042 5.917.913 1.246.616 2.07 1.445 2.441 3.02.459 2.605-1.566 4.921-3.762 6.005-1.7.779-3.521 1.07-5.383 1.195-.742.038-1.446 0-2.196 0h-5.584m40.5 21.644v-20.267h-2.37l-6.68 12.004-6.82-12.004h-2.38v20.267h2.2v-16.23l7 12.28 6.859-12.28v16.23h2.191" fill-rule="nonzero"/><path d="M688.24 220.844v-.001z" fill="none"/><path d="M668.548 202.395c-.083.58-2.65 12.334-3.354 15.938-.329 1.533-.787 3.062-.908 4.591-.208 3.475 1.32 6.125 3.558 7.58 4.346 2.812 10.221.866 13.617-2.571 1.325-1.363 2.4-2.98 3.062-4.763.584-1.612.83-3.35 1.2-5.046l2.65-12.545.417-1.938c.08-.417.2-.833.246-1.246h-2.65c-.083.58-.825 4.017-1.071 5.134l-2.117 9.895c-.658 3.096-1.037 6.413-3.1 8.938-1.866 2.233-4.841 3.517-7.741 3.229-2.03-.208-3.892-1.158-4.721-3.067-.871-1.9-.454-4.008 0-6.004.125-.654.25-1.32.417-1.983l2.187-10.471c.208-.825 1.163-5.004 1.204-5.67h-2.896m36.512 33.489v-2.667c-1.79 1.788-3.574 2.575-6.328 2.575-5.567 0-7.734-3.717-7.734-8.496.084-4.746 2.05-8.546 7.734-8.546 2.779 0 4.629.846 6.329 2.63v-2.746c-1.85-1.204-4.017-1.875-6.388-1.875-6.737 0-9.845 4.679-9.845 10.537 0 5.863 3.166 10.488 9.845 10.488 2.225 0 4.688-.7 6.388-1.9m15.421 1.49v-2.109h-10.746v-7.616h10.017v-2.113h-10.017v-6.291h10.487v-2.138h-12.691v20.267h12.95" fill-rule="nonzero"/><path d="M590.064 262.915l-9.375 28.125-9.375-28.125h18.75z" fill="#e82424"/><path d="M580.687 267.949v.591" fill="none" stroke="#e82424" stroke-width="4.17"/><path d="M715.45 311.064l28.125 9.375-28.125 9.375v-18.75z" fill="#595959"/><path d="M720.483 320.438h.591" fill="none" stroke="#595959" stroke-width="4.17"/><path d="M718.824 296.933h.001zm-71.405-20.304l-.562 2.65-4.576 21.613h1.82c.17 0 .518.07.627-.1.104-.179.14-.457.174-.671.11-.448 4.934-23.184 4.964-23.492h-2.447m6.301 27.511v-7.57c.618-.264 1.175-.413 2.194-.413 2.646.05 3.94 1.587 3.94 4.213 0 2.552-1.338 4.208-3.94 4.208-.994-.05-1.557-.174-2.193-.438zm-1.82 7.585h1.82v-5.904a8.575 8.575 0 002.294.309c3.576 0 5.665-2.263 5.665-5.76-.045-3.432-2.02-5.765-5.55-5.765-1.458 0-2.751.194-4.229.9v16.22m13.43-22.693c-.582 0-1.07.557-1.07 1.144 0 .582.488 1.14 1.07 1.14.587 0 1.074-.558 1.074-1.14 0-.587-.487-1.144-1.074-1.144zm.905 16.832v-10.973h-1.825v10.973h1.825m12.605 0v-6.61c0-2.607-1.11-4.626-3.91-4.626-1.438 0-2.875.537-3.746 1.75v-1.511h-1.8v10.997h1.8v-6.198c.045-2.094 1.358-3.432 3.303-3.432 1.92 0 2.581 1.12 2.581 3.064v6.566h1.771m15.713-18.26a.681.681 0 00.07 1.328c.213.07.462.04.67.04h21.016c.278 0 .557 0 .77-.214.418-.388.14-1.12-.422-1.189-.488-.035-.98 0-1.467 0h-20.035c-.18 0-.423-.035-.602.035zm-.418 7.103c-.239.378 0 .91.418 1.01.214.07.423.04.631.04h21.154c.279 0 .528 0 .742-.215.447-.417.139-1.114-.463-1.188-.487-.035-.975 0-1.467 0h-19.966c-.452 0-.8-.035-1.05.353m39.777-16.261c-2.377 1.64-3.258 4.68-3.536 7.406-.07.631-.14 1.263-.14 1.89 0 .631-.03 1.298-.03 1.93 0 4.014.588 7.724 2.617 9.823 1.79 1.92 4.9 2.587 7.386 1.428 1.846-.801 3.005-2.368 3.706-4.258.91-2.487.98-5.148.98-7.734 0-3.736-.632-7.342-2.447-9.332-2.14-2.452-5.74-2.94-8.536-1.153zm6.954 2.059c.532.562.84 1.263 1.119 1.99.701 1.999.672 4.197.672 6.296 0 3.08 0 6.924-1.473 8.993-.766 1.12-1.994 1.85-3.322 1.96-1.542.1-3.04-.672-3.92-1.89-1.427-2.07-1.497-5.566-1.497-8.675 0-2.974 0-6.222 1.428-8.222 1.507-2.198 5.038-2.546 6.993-.452m16.891 7.345h-.034v-3.463h-2.134v16.504h2.238v-7.625c0-1.746-.104-3.527.666-5.133.383-.811.98-1.542 1.781-1.96.667-.318 1.368-.348 2.1-.279 1.014.07 2.028.348 2.695 1.19.94 1.188.701 2.899.701 4.297v9.51h2.239v-7.625c0-1.746-.11-3.527.656-5.133.393-.811.98-1.542 1.79-1.96.662-.318 1.359-.348 2.1-.279 1.01.07 2.024.348 2.686 1.19.94 1.188.701 2.899.701 4.297v9.51h2.238v-9.262c0-2.139.21-4.516-1.089-6.018-.8-1.015-2.03-1.368-3.278-1.468-.95-.07-1.93 0-2.8.383-1.438.667-2.557 1.925-3.114 3.358-.104-.313-.14-.662-.244-.98-.626-1.681-1.885-2.621-3.984-2.76-.602-.04-1.188-.07-1.79.07-1.328.243-2.477 1.078-3.288 2.128-.308.458-.696.98-.836 1.507m23.865 13.043h1.577l.632-.07.278-.522 2.552-6.715c3.636.07 7.59-.14 11.047.07l.283.452c.836 2.279 1.677 4.547 2.627 6.715.77.1 1.676.07 2.546.07-.8-2.268-9.301-24.193-9.301-24.193-.07-.14-.1-.348-.279-.388-.208-.03-.422 0-.631 0h-1.189c-.517 0-.731-.07-.87.487-.14.353-9.162 23.815-9.272 24.094zm10.634-22.035c1.508 4.377 3.253 8.575 4.825 12.873h-9.684l4.86-12.873" fill="#595959" fill-rule="nonzero"/><path d="M537.59 265.223l-.662 3.141-5.425 25.58h2.158c.2 0 .617.087.742-.121.12-.209.167-.542.208-.788.121-.541 5.834-27.441 5.88-27.812h-2.9m21.07 33.48v-2.667c-1.791 1.788-3.575 2.575-6.329 2.575-5.567 0-7.733-3.717-7.733-8.496.083-4.746 2.05-8.546 7.733-8.546 2.78 0 4.63.846 6.33 2.63v-2.746c-1.85-1.204-4.017-1.875-6.388-1.875-6.738 0-9.846 4.679-9.846 10.537 0 5.863 3.167 10.488 9.846 10.488 2.225 0 4.687-.7 6.387-1.9" fill="#e82424" fill-rule="nonzero" stroke="#e82424" stroke-linecap="butt" stroke-linejoin="round" stroke-miterlimit="2"/><path d="M177.66 456.683v-.001z" fill="none"/><path d="M161.577 438.235l-6.088 28.721c.954 0 1.988.042 2.813-.083l.125-.288 2.733-12.954h5.796c.704 0 1.492-.037 2.033.125.534.95.95 1.984 1.404 3.021 1.613 3.313 2.984 6.867 4.721 10.096.867.125 1.863.083 2.85.083l-6.333-13.616c.912-.125 1.783-.413 2.65-.746 2.07-.746 4.1-1.984 5.508-3.721 1.367-1.663 1.984-3.896 1.196-5.921a8.136 8.136 0 00-.742-1.325c-1.737-2.15-4.387-3.183-7.825-3.392-.866-.045-1.691 0-2.566 0h-8.275zm.041 13.325l2.355-11.133h6.212c1.988 0 4.096.042 5.917.913 1.246.616 2.07 1.445 2.441 3.02.459 2.605-1.566 4.921-3.762 6.005-1.7.779-3.521 1.07-5.383 1.195-.742.038-1.446 0-2.196 0h-5.584m39.184 1.379h-2.542l-6.742 14.991-6.887-14.991h-2.488l9.375 20.675 9.284-20.675m464.768 15.239c-.083.58-2.65 12.334-3.354 15.938-.33 1.533-.788 3.062-.908 4.591-.209 3.475 1.32 6.125 3.558 7.58 4.346 2.812 10.225.866 13.617-2.571 1.325-1.363 2.4-2.98 3.066-4.763.58-1.612.825-3.35 1.196-5.046l2.65-12.545.417-1.938c.079-.417.2-.833.246-1.246h-2.65c-.084.58-.825 4.017-1.071 5.134l-2.117 9.895c-.658 3.096-1.037 6.413-3.1 8.938-1.867 2.233-4.842 3.517-7.742 3.23-2.029-.21-3.891-1.16-4.72-3.068-.871-1.9-.455-4.008 0-6.004.125-.654.25-1.32.416-1.983l2.188-10.471c.208-.825 1.162-5.004 1.204-5.67h-2.896m29.942 20.446c0 2.575-1.7 3.837-4.454 3.837h-2.638v-7.558h2.638c2.662.058 4.454 1.058 4.454 3.72zm5.008 14.529c-1.433-3.459-4.48-7.817-7.267-9.225 3.371-.88 4.425-2.904 4.425-5.304 0-4.038-2.491-5.738-6.591-5.738h-4.867v20.267h2.2v-8.638l1.583.025c2.521 0 7.796 6.504 8.321 8.613h2.196m17.038-21.98a.807.807 0 00.083 1.575c.246.079.542.041.787.041h24.875c.334 0 .667 0 .913-.25.496-.454.162-1.325-.5-1.404-.58-.046-1.158 0-1.738 0h-23.72c-.2 0-.492-.046-.7.038zm-.496 8.404c-.288.458 0 1.075.496 1.2.254.083.5.037.745.037h25.042c.33 0 .625 0 .87-.246.534-.495.163-1.32-.54-1.404-.58-.041-1.16 0-1.738 0h-23.634c-.537 0-.95-.041-1.241.413m51.45-21.396l-6.088 28.72c.954 0 1.988.042 2.813-.083l.125-.287 2.733-12.954h5.796c.704 0 1.492-.038 2.03.125.537.95.953 1.983 1.407 3.02 1.617 3.313 2.984 6.867 4.721 10.096.867.125 1.863.084 2.85.084l-6.333-13.617c.912-.125 1.783-.412 2.65-.746 2.07-.746 4.1-1.983 5.508-3.72 1.367-1.663 1.984-3.896 1.196-5.921a8.136 8.136 0 00-.742-1.325c-1.737-2.15-4.387-3.184-7.825-3.392-.866-.046-1.691 0-2.566 0h-8.275zm.041 13.325l2.355-11.133h6.212c1.988 0 4.096.041 5.917.912 1.246.617 2.07 1.446 2.441 3.02.459 2.605-1.566 4.922-3.762 6.005-1.7.78-3.52 1.07-5.383 1.196-.742.037-1.446 0-2.196 0h-5.584m40.5 21.647v-20.267h-2.37l-6.68 12.004-6.82-12.004h-2.38v20.267h2.2v-16.23l7 12.28 6.859-12.28v16.23h2.191m16.875-18.211c-.662 1.283.084 2.9 1.53 3.183.75.125 1.283-.083 1.737-.408 1.038-.75 1.163-2.28.296-3.23-.296-.333-.704-.541-1.158-.662-1.121-.162-2.034.33-2.405 1.117m27.167-16.762l-.662 3.142-5.425 25.58h2.158c.2 0 .617.087.742-.122.12-.208.166-.541.208-.787.12-.542 5.833-27.442 5.88-27.813h-2.9m21.07 33.481v-2.666c-1.792 1.787-3.575 2.575-6.33 2.575-5.566 0-7.733-3.717-7.733-8.496.084-4.746 2.05-8.546 7.734-8.546 2.779 0 4.629.846 6.329 2.63v-2.747c-1.85-1.204-4.017-1.875-6.388-1.875-6.737 0-9.845 4.68-9.845 10.538 0 5.862 3.166 10.487 9.845 10.487 2.226 0 4.688-.7 6.388-1.9" fill-rule="nonzero"/></svg>