<svg viewBox="0 0 261 259" xmlns="http://www.w3.org/2000/svg" fill-rule="evenodd" clip-rule="evenodd"><path d="M32.566 59.28h72.92" fill="none" stroke="#000" stroke-width="2"/><path d="M49.083 51.864h-1.136l2-11.328h1.136l-2 11.328zM81.66 104.9c-.688 0-1.264-.096-1.728-.304-.48-.208-.864-.464-1.168-.8a2.746 2.746 0 01-.64-1.104 3.624 3.624 0 01-.208-1.232c0-.368.032-.736.096-1.072l1.248-7.104h1.136l-1.232 6.976a5.3 5.3 0 00-.096.976c0 .368.048.704.144 1.024.08.32.24.608.448.848.208.24.48.432.816.576.336.16.752.224 1.248.224.592 0 1.104-.096 1.536-.304a3.082 3.082 0 001.056-.8c.272-.336.496-.72.672-1.168.16-.432.288-.896.368-1.376l1.232-6.976h1.136l-1.248 7.104a8.78 8.78 0 01-.416 1.488 5.191 5.191 0 01-.848 1.472 4.477 4.477 0 01-1.424 1.104c-.576.304-1.28.448-2.128.448zM47 63.136l7.8-3.9-7.8-3.9v7.8z" fill-rule="nonzero"/><path d="M48.56 59.236h-4.337" fill="none" stroke="#000" stroke-width="1.3"/><path d="M91.82 45.89v26.777" fill="none" stroke="#000" stroke-width="2"/><path d="M91.82 59.28L65.322 72.67V45.893L91.82 59.28z" fill="#c4c8ed" fill-rule="nonzero" stroke="#131313" stroke-width="1.5"/><path d="M76.407 39.048l-1.837 5.29 5.334-1.705-3.497-3.585z" fill-rule="nonzero"/><path d="M77.439 41.54l6.784-6.618" fill="none" stroke="#000"/><path d="M81.101 43.741l-1.837 5.29 5.334-1.705-3.497-3.585z" fill-rule="nonzero"/><path d="M82.133 46.233l6.784-6.618" fill="none" stroke="#000"/><path d="M81.105 81.626l10.8 3.6-10.8 3.6v-7.2z" fill-rule="nonzero"/><path d="M49.932 85.226h33.333" fill="none" stroke="#000" stroke-width="1.6"/><path d="M126.602 23.517h-1.136l2-11.328h1.136l-2 11.328zm117.651 97.095l6.75 3.375-6.75 3.375v-6.75z" fill-rule="nonzero"/><path d="M9.545 123.987h236.058" fill="none" stroke="#000" stroke-width="1.5"/><path d="M143.156 19.513l-3.375-6.75-3.375 6.75h6.75z" fill-rule="nonzero"/><path d="M139.78 18.163v230.55" fill="none" stroke="#000" stroke-width="1.5"/><g fill="none" stroke="#5b69cd" stroke-width="2.4" stroke-linejoin="round"><path d="M21.266 161.735c4.798-18.294 10.194-27.058 16.846-31.264 6.654-4.204 14.568-3.85 24.4-3.91 33.426-.204 46.362-.172 77.348-.666 28.236-.45 58.584-11.786 69.708-24.914 7.244-8.552 17.758-25.206 23.96-44.364 6.2-19.156 11.256-39.785 12.206-55.415"/><path d="M21.266 194.908c4.798-18.294 10.196-26.928 16.85-31.066 6.656-4.14 14.564-4.028 24.396-4.108 26.418-.22 47.186.11 77.184-.548 29.052-.64 54.274-14.54 67.712-27.986 7.92-7.928 18.794-24.916 25.516-43.084 6.72-18.166 12.094-50.978 13.044-66.61"/><path d="M21.266 229.056c4.798-18.294 10.194-26.98 16.848-31.146 6.654-4.166 14.566-3.99 24.398-4.028 40.198-.16 48.29-.214 76.826-.592 30.638-.404 58.478-19.638 67.512-29.58 10.688-11.762 21.834-29.27 27.998-46.742 6.162-17.474 10.17-51.712 11.12-67.342"/></g><path d="M246.372 145.963c-.688 0-1.264-.096-1.728-.304-.48-.208-.864-.464-1.168-.8a2.746 2.746 0 01-.64-1.104 3.624 3.624 0 01-.208-1.232c0-.368.032-.736.096-1.072l1.248-7.104h1.136l-1.232 6.976a5.3 5.3 0 00-.096.976c0 .368.048.704.144 1.024.08.32.24.608.448.848.208.24.48.432.816.576.336.16.752.224 1.248.224.592 0 1.104-.096 1.536-.304a3.082 3.082 0 001.056-.8c.272-.336.496-.72.672-1.168.16-.432.288-.896.368-1.376l1.232-6.976h1.136l-1.248 7.104a8.78 8.78 0 01-.416 1.488 5.191 5.191 0 01-.848 1.472 4.477 4.477 0 01-1.424 1.104c-.576.304-1.28.448-2.128.448z" fill-rule="nonzero"/><path fill="#fff" fill-opacity=".73" d="M138.144 162.415V191.8H48.666v-29.384z"/><path d="M51.37 164.281h2.953c.378 0 .756.042 1.134.112.378.084.728.224 1.036.406.294.196.546.462.742.784.182.322.28.742.28 1.232 0 .518-.154.98-.476 1.358-.322.392-.742.644-1.274.77v.028c.644.07 1.176.322 1.61.742.42.434.63 1.008.63 1.736 0 .406-.084.784-.252 1.12-.182.35-.42.644-.742.868-.322.238-.7.434-1.162.56a5.788 5.788 0 01-1.54.196h-2.94v-9.912zm1.007 4.34h2.03c.238 0 .49-.028.742-.084a2.05 2.05 0 00.672-.294c.21-.126.378-.308.504-.532.112-.224.182-.504.182-.826 0-.322-.07-.588-.182-.812a1.706 1.706 0 00-.518-.532 2.314 2.314 0 00-.756-.308 4.93 4.93 0 00-.924-.084h-1.75v3.472zm0 4.704h1.876c.364 0 .714-.042 1.05-.112.322-.07.616-.182.868-.336a1.86 1.86 0 00.588-.602c.154-.238.224-.532.224-.882 0-.658-.224-1.148-.658-1.47-.448-.322-1.078-.476-1.89-.476h-2.058v3.878zm12.838-2.912c-.028-.616-.224-1.134-.588-1.54-.378-.406-.896-.602-1.582-.602a2.25 2.25 0 00-.882.168c-.266.126-.504.28-.714.476a2.57 2.57 0 00-.49.686 2.115 2.115 0 00-.21.812h4.466zm.966.308v.21c0 .07 0 .154-.014.238h-5.432c.014.322.07.63.196.924.126.294.294.546.504.756.21.21.462.392.756.504.294.14.602.196.938.196.49 0 .924-.112 1.288-.35.35-.224.63-.49.812-.784l.714.56c-.392.49-.826.854-1.288 1.064-.476.21-.98.322-1.526.322-.49 0-.938-.084-1.344-.266a3.026 3.026 0 01-1.078-.714 3.398 3.398 0 01-.7-1.092 3.426 3.426 0 01-.266-1.372c0-.49.084-.952.252-1.372a3.282 3.282 0 011.75-1.82c.406-.168.84-.252 1.302-.252.518 0 .966.084 1.358.252.392.182.714.406.98.7.266.294.462.644.602 1.036.126.392.196.812.196 1.26zm5.53-1.526a1.8 1.8 0 00-.63-.672 1.928 1.928 0 00-.98-.252c-.168 0-.336.014-.504.056a1.433 1.433 0 00-.448.182.965.965 0 00-.308.322.814.814 0 00-.126.462c0 .308.126.546.378.7.252.168.644.308 1.19.42.77.154 1.344.392 1.722.686.364.308.546.714.546 1.232 0 .378-.07.686-.21.938a1.785 1.785 0 01-.574.63c-.238.168-.49.294-.784.364-.294.07-.602.098-.896.098-.49 0-.98-.098-1.442-.308a2.736 2.736 0 01-1.148-.966l.756-.56c.168.294.42.532.742.728.322.196.686.294 1.078.294.21 0 .406-.014.588-.056.182-.042.35-.098.49-.196s.252-.21.336-.364c.084-.14.126-.322.126-.532 0-.35-.168-.602-.49-.784-.336-.168-.812-.322-1.442-.476-.196-.042-.406-.112-.616-.182a1.958 1.958 0 01-.616-.308 1.607 1.607 0 01-.462-.504c-.126-.21-.182-.462-.182-.77 0-.336.07-.63.196-.868s.308-.42.532-.588c.21-.154.462-.266.742-.336.28-.07.574-.112.868-.112.462 0 .896.098 1.33.308.434.21.756.49.966.868l-.728.546zm5.684-.755h-1.848v3.821c0 .238.028.448.07.602.042.154.112.28.21.364a.538.538 0 00.308.182c.126.042.252.056.392.056.126 0 .266-.014.42-.056.14-.042.28-.084.406-.154l.042.826c-.168.07-.336.112-.518.154a4.064 4.064 0 01-.602.042c-.182 0-.364-.028-.56-.07a1.417 1.417 0 01-.546-.266 1.317 1.317 0 01-.406-.532c-.112-.224-.168-.518-.168-.882v-4.088h-1.358v-.798h1.358v-1.848h.952v1.848h1.848v.798zm1.485.643c0-.182 0-.406-.015-.686-.014-.28-.028-.532-.042-.756h.91l.042.588c.014.21.014.392.014.532h.028c.182-.378.462-.7.84-.938.378-.224.798-.35 1.26-.35a2.173 2.173 0 01.63.07l-.126.896c-.056-.014-.154-.042-.28-.056a3.69 3.69 0 00-.392-.028c-.252 0-.49.042-.728.14a1.547 1.547 0 00-.602.434c-.182.21-.322.462-.42.77-.112.322-.168.7-.168 1.134v3.36h-.952v-5.11zm9.001.882c0-.574-.154-.994-.448-1.274-.294-.28-.728-.42-1.302-.42-.392 0-.756.07-1.092.21-.336.14-.616.322-.854.56l-.532-.63c.266-.266.63-.49 1.078-.672.434-.182.938-.266 1.498-.266.35 0 .686.056.994.14.308.098.574.252.812.448.238.196.42.448.546.742.126.294.196.644.196 1.05v2.87c0 .252.014.518.028.784s.042.504.084.686h-.854a5.164 5.164 0 01-.07-.518c-.014-.182-.028-.364-.028-.546h-.028c-.294.434-.644.756-1.008.938-.378.196-.84.294-1.372.294-.252 0-.504-.028-.77-.098a2.07 2.07 0 01-.728-.35 1.79 1.79 0 01-.546-.616c-.154-.252-.224-.56-.224-.924 0-.504.126-.91.392-1.204.252-.294.588-.504 1.022-.658.434-.14.924-.238 1.484-.28.546-.042 1.12-.056 1.722-.056v-.21zm-.28.952a16.5 16.5 0 00-1.176.042 5.706 5.706 0 00-1.078.196 2.18 2.18 0 00-.798.434c-.21.182-.308.434-.308.742 0 .238.042.434.14.588a.913.913 0 00.35.378c.154.112.322.182.504.21.182.042.364.07.546.07.336 0 .63-.056.896-.182.266-.112.476-.266.658-.476.182-.196.308-.42.406-.686.098-.266.14-.532.14-.826v-.49h-.28zm4.635-2.197c.182-.379.476-.687.882-.91a2.707 2.707 0 011.316-.337c.826 0 1.456.252 1.876.742.406.49.616 1.148.616 1.96v4.018h-.952v-3.626c0-.35-.028-.658-.084-.938a2.255 2.255 0 00-.28-.728 1.462 1.462 0 00-.546-.462c-.238-.112-.518-.168-.868-.168-.252 0-.49.056-.728.154a1.716 1.716 0 00-.644.462c-.182.21-.336.476-.448.798a3.543 3.543 0 00-.168 1.148v3.36h-.952V163.61h.952v5.11h.028zm7.182-5.11h.952v10.583h-.952zm8.26 10.583a57.993 57.993 0 01-.042-.588 7.694 7.694 0 01-.014-.532h-.028c-.182.378-.49.686-.91.924-.42.252-.868.364-1.33.364-.826 0-1.456-.252-1.862-.742-.42-.49-.63-1.148-.63-1.96v-4.018h.952v3.626c0 .35.028.658.084.938.056.28.154.518.294.714.126.21.308.364.546.476.224.112.504.168.854.168.252 0 .504-.056.742-.154.224-.098.448-.266.63-.476.182-.21.336-.476.448-.798.112-.308.168-.7.168-1.134v-3.36h.952v5.11c0 .182 0 .406.014.686s.028.532.042.756h-.91zm4.228-6.552l.042.588c.014.21.014.392.014.532h.028c.182-.378.49-.7.91-.938.42-.224.868-.35 1.33-.35.826 0 1.456.252 1.876.742.406.49.616 1.148.616 1.96v4.018h-.952v-3.626c0-.35-.028-.658-.084-.938a2.255 2.255 0 00-.28-.728 1.462 1.462 0 00-.546-.462c-.238-.112-.518-.168-.868-.168-.252 0-.49.056-.728.154a1.716 1.716 0 00-.644.462c-.182.21-.336.476-.448.798a3.543 3.543 0 00-.168 1.148v3.36h-.952v-5.11c0-.182 0-.406-.014-.686s-.028-.532-.042-.756h.91zm7.63 7.869c.266.335.616.615 1.078.853.448.238.924.35 1.428.35.462 0 .868-.07 1.19-.196.322-.14.588-.322.798-.56.196-.238.336-.504.434-.812a3.44 3.44 0 00.14-1.008v-1.232h-.028a2.516 2.516 0 01-1.064.952 3.224 3.224 0 01-1.414.336c-.518 0-.98-.084-1.386-.252a3 3 0 01-1.064-.7 2.793 2.793 0 01-.686-1.05 3.462 3.462 0 01-.252-1.33c0-.462.084-.91.252-1.316.154-.406.378-.77.686-1.078.28-.308.644-.546 1.064-.728.406-.182.868-.266 1.386-.266.476 0 .938.112 1.4.336.462.224.812.546 1.078.966h.028v-1.134h.952v6.496c0 .35-.042.728-.14 1.134-.098.406-.28.77-.546 1.106a3.2 3.2 0 01-1.092.84c-.462.224-1.05.336-1.778.336a4.375 4.375 0 01-3.15-1.316l.686-.728zm.182-4.677c0 .35.056.672.168.98.112.308.28.574.49.812.21.238.462.42.77.546.308.14.658.21 1.05.21.364 0 .7-.056 1.008-.182.308-.126.574-.294.798-.518a2.34 2.34 0 00.532-.812 2.73 2.73 0 00.182-1.036c0-.35-.056-.672-.182-.98a2.633 2.633 0 00-.532-.812 2.49 2.49 0 00-1.806-.77c-.392 0-.742.07-1.05.21-.308.14-.56.322-.77.56a2.52 2.52 0 00-.49.812c-.112.308-.168.63-.168.98zm11.802-1.638a1.8 1.8 0 00-.63-.672 1.928 1.928 0 00-.98-.252c-.168 0-.336.014-.504.056a1.433 1.433 0 00-.448.182.965.965 0 00-.308.322.814.814 0 00-.126.462c0 .308.126.546.378.7.252.168.644.308 1.19.42.77.154 1.344.392 1.722.686.364.308.546.714.546 1.232 0 .378-.07.686-.21.938a1.785 1.785 0 01-.574.63c-.238.168-.49.294-.784.364-.294.07-.602.098-.896.098-.49 0-.98-.098-1.442-.308a2.736 2.736 0 01-1.148-.966l.756-.56c.168.294.42.532.742.728.322.196.686.294 1.078.294.21 0 .406-.014.588-.056.182-.042.35-.098.49-.196s.252-.21.336-.364c.084-.14.126-.322.126-.532 0-.35-.168-.602-.49-.784-.336-.168-.812-.322-1.442-.476-.196-.042-.406-.112-.616-.182a1.958 1.958 0 01-.616-.308 1.607 1.607 0 01-.462-.504c-.126-.21-.182-.462-.182-.77 0-.336.07-.63.196-.868s.308-.42.532-.588c.21-.154.462-.266.742-.336.28-.07.574-.112.868-.112.462 0 .896.098 1.33.308.434.21.756.49.966.868l-.728.546zm2.142 1.205h3.136v.797h-3.136zM54.8 185.195a1.8 1.8 0 00-.63-.672 1.928 1.928 0 00-.98-.252c-.169 0-.337.014-.505.056a1.433 1.433 0 00-.448.182.965.965 0 00-.308.322.814.814 0 00-.126.462c0 .308.126.546.378.7.252.168.644.308 1.19.42.77.154 1.344.392 1.722.686.364.308.546.714.546 1.232 0 .378-.07.686-.21.938a1.785 1.785 0 01-.574.63c-.238.168-.49.294-.784.364-.294.07-.602.098-.896.098-.49 0-.98-.098-1.442-.308a2.736 2.736 0 01-1.148-.966l.756-.56c.168.294.42.532.742.728.322.196.686.294 1.078.294.21 0 .406-.014.588-.056.182-.042.35-.098.49-.196s.252-.21.336-.364c.084-.14.126-.322.126-.532 0-.35-.168-.602-.49-.784-.336-.168-.812-.322-1.442-.476-.196-.042-.406-.112-.616-.182a1.958 1.958 0 01-.616-.308 1.607 1.607 0 01-.462-.504c-.126-.21-.182-.462-.182-.77 0-.336.07-.63.196-.868s.308-.42.532-.588c.21-.154.462-.266.742-.336.28-.07.574-.112.868-.112.462 0 .896.098 1.33.308.434.21.756.49.966.868l-.728.546zm5.683-.755h-1.848v3.821c0 .238.028.448.07.602.042.154.112.28.21.364a.538.538 0 00.308.182c.126.042.252.056.392.056.126 0 .266-.014.42-.056.14-.042.28-.084.406-.154l.042.826c-.168.07-.336.112-.518.154a4.064 4.064 0 01-.602.042c-.182 0-.364-.028-.56-.07a1.417 1.417 0 01-.546-.266 1.317 1.317 0 01-.406-.532c-.112-.224-.168-.518-.168-.882v-4.088h-1.358v-.798h1.358v-1.848h.952v1.848h1.848v.798zm5.614 1.525c0-.574-.154-.994-.448-1.274-.294-.28-.728-.42-1.302-.42-.392 0-.756.07-1.092.21-.336.14-.616.322-.854.56l-.532-.63c.266-.266.63-.49 1.078-.672.434-.182.938-.266 1.498-.266.35 0 .686.056.994.14.308.098.574.252.812.448.238.196.42.448.546.742.126.294.196.644.196 1.05v2.87c0 .252.014.518.028.784s.042.504.084.686h-.854a5.164 5.164 0 01-.07-.518c-.014-.182-.028-.364-.028-.546h-.028c-.294.434-.644.756-1.008.938-.378.196-.84.294-1.372.294-.252 0-.504-.028-.77-.098a2.07 2.07 0 01-.728-.35 1.79 1.79 0 01-.546-.616c-.154-.252-.224-.56-.224-.924 0-.504.126-.91.392-1.204.252-.294.588-.504 1.022-.658.434-.14.924-.238 1.484-.28.546-.042 1.12-.056 1.722-.056v-.21zm-.28.952a16.5 16.5 0 00-1.176.042 5.706 5.706 0 00-1.078.196 2.18 2.18 0 00-.798.434c-.21.182-.308.434-.308.742 0 .238.042.434.14.588a.913.913 0 00.35.378c.154.112.322.182.504.21.182.042.364.07.546.07.336 0 .63-.056.896-.182.266-.112.476-.266.658-.476.182-.196.308-.42.406-.686.098-.266.14-.532.14-.826v-.49h-.28zm-3.444-5.782c0-.182.07-.35.196-.504a.675.675 0 01.518-.21c.21 0 .392.07.518.21a.787.787 0 01.196.504c0 .182-.07.35-.196.49-.126.154-.308.224-.518.224-.21 0-.392-.07-.518-.224a.725.725 0 01-.196-.49zm2.688 0c0-.182.07-.35.196-.504a.675.675 0 01.518-.21c.21 0 .392.07.518.21a.787.787 0 01.196.504c0 .182-.07.35-.196.49-.126.154-.308.224-.518.224-.21 0-.392-.07-.518-.224a.725.725 0 01-.196-.49zm4.382 3.948c0-.182 0-.406-.014-.686s-.028-.532-.042-.756h.91l.042.588c.014.21.014.392.014.532h.028c.182-.378.462-.7.84-.938.378-.224.798-.35 1.26-.35a2.173 2.173 0 01.63.07l-.126.896c-.056-.014-.154-.042-.28-.056a3.69 3.69 0 00-.392-.028c-.252 0-.49.042-.728.14a1.547 1.547 0 00-.602.434c-.182.21-.322.462-.42.77-.112.322-.168.7-.168 1.134v3.36h-.952v-5.11zm6.02 1.512h.042l3.024-2.954h1.372l-3.304 2.996 3.64 3.556h-1.4l-3.332-3.444h-.042v3.444h-.952V179.61h.952v6.986zm10.907-.182c-.029-.616-.225-1.134-.589-1.54-.378-.406-.896-.602-1.582-.602a2.25 2.25 0 00-.882.168c-.266.126-.504.28-.714.476a2.57 2.57 0 00-.49.686 2.115 2.115 0 00-.21.812h4.466zm.965.308v.21c0 .07 0 .154-.014.238H81.89c.014.322.07.63.196.924.126.294.294.546.504.756.21.21.462.392.756.504.294.14.602.196.938.196.49 0 .924-.112 1.288-.35.35-.224.63-.49.812-.784l.714.56c-.392.49-.826.854-1.288 1.064-.476.21-.98.322-1.526.322-.49 0-.938-.084-1.344-.266a3.026 3.026 0 01-1.078-.714 3.398 3.398 0 01-.7-1.092 3.426 3.426 0 01-.266-1.372c0-.49.084-.952.252-1.372a3.282 3.282 0 011.75-1.82c.406-.168.84-.252 1.302-.252.518 0 .966.084 1.358.252.392.182.714.406.98.7.266.294.462.644.602 1.036.126.392.196.812.196 1.26z" fill-rule="nonzero"/><path d="M152.807 226.075c-.336-.644-.924-.966-1.778-.966-.266 0-.518.028-.784.098a2.37 2.37 0 00-.714.322c-.224.154-.42.336-.574.56a1.948 1.948 0 00-.294.812c-.042.336-.014.616.098.826.112.224.28.406.504.56.21.154.462.28.756.378.294.098.588.21.896.308.294.112.588.238.882.364.28.126.532.294.742.504.196.21.364.462.462.756.098.308.126.686.056 1.134-.07.448-.224.854-.462 1.204a3.216 3.216 0 01-.882.91 4.083 4.083 0 01-2.324.756 3.97 3.97 0 01-1.68-.35c-.518-.224-.924-.602-1.232-1.12l1.008-.658c.154.364.42.658.77.868.35.224.798.336 1.316.336.252 0 .504-.042.77-.126.266-.07.504-.196.728-.35.224-.154.42-.336.574-.56.154-.224.266-.476.308-.77.042-.35.014-.63-.098-.868a1.605 1.605 0 00-.49-.574 3.035 3.035 0 00-.77-.378c-.294-.098-.588-.21-.882-.308a8.262 8.262 0 01-.882-.35 2.32 2.32 0 01-.742-.504 1.75 1.75 0 01-.476-.756c-.098-.294-.126-.672-.056-1.134.07-.476.21-.896.448-1.246.238-.35.518-.644.854-.882a3.277 3.277 0 011.092-.518 4.461 4.461 0 011.204-.168c.56 0 1.064.084 1.498.266.434.182.812.49 1.134.938l-.98.686zm7.669 4.998c.056-.364.042-.7-.028-1.022a2.035 2.035 0 00-.378-.826 1.97 1.97 0 00-.7-.56 2.537 2.537 0 00-1.008-.196c-.378 0-.728.07-1.05.196a2.74 2.74 0 00-.854.56 2.989 2.989 0 00-.602.826 3.627 3.627 0 00-.322 1.022c-.056.364-.042.7.028 1.022.07.322.196.588.378.826a1.7 1.7 0 00.7.546c.28.14.616.21.994.21s.742-.07 1.064-.21c.322-.126.602-.308.854-.546.238-.238.448-.504.602-.826.154-.322.266-.658.322-1.022zm1.008 0c-.07.49-.224.952-.448 1.372a4.15 4.15 0 01-.868 1.092 4.031 4.031 0 01-1.204.714 3.897 3.897 0 01-1.456.266c-.504 0-.952-.084-1.358-.266a2.591 2.591 0 01-.994-.714 2.727 2.727 0 01-.574-1.092c-.112-.42-.126-.882-.056-1.372.07-.49.21-.952.448-1.372a4.119 4.119 0 012.072-1.82 4.033 4.033 0 011.428-.252c.518 0 .966.084 1.372.252.406.182.742.42 1.008.728s.448.672.56 1.092c.112.42.14.882.07 1.372zm2.354 3.277h-.924l1.484-10.585h.924l-1.484 10.584zm6.412-3.263c-.238 0-.518.014-.868.028-.35.028-.7.084-1.036.168a2.86 2.86 0 00-.882.42c-.266.182-.42.448-.462.77-.028.21-.014.392.056.546a.9.9 0 00.308.378c.126.098.28.168.462.21.182.056.364.07.546.07.336 0 .644-.056.91-.168.266-.112.49-.266.672-.462a2.38 2.38 0 00.462-.672c.112-.252.196-.518.238-.812l.07-.476h-.476zm.574-.756l.028-.168c.154-1.134-.336-1.694-1.442-1.694-.77 0-1.47.252-2.114.77l-.462-.658a3.63 3.63 0 011.246-.714 5.47 5.47 0 011.652-.238c.322 0 .616.042.896.14s.518.238.714.42c.182.196.322.434.42.728.084.294.098.63.042 1.036l-.406 2.926c-.042.252-.07.518-.07.784-.014.28-.028.504-.028.686h-.896c-.014-.154 0-.336.014-.518s.028-.364.056-.546h-.028c-.322.434-.686.756-1.092.938-.406.196-.868.294-1.4.294a3.18 3.18 0 01-.826-.112 1.694 1.694 0 01-.658-.378 1.557 1.557 0 01-.42-.602c-.098-.238-.112-.504-.07-.826.07-.532.266-.952.588-1.26.322-.294.7-.518 1.134-.672a5.445 5.445 0 011.358-.28c.476-.042.91-.056 1.302-.056h.462zm3.235-.49c.042-.294.07-.588.112-.882.028-.294.07-.686.126-1.162h.91l-.168 1.218h.028c.098-.182.21-.35.35-.518.14-.154.308-.308.504-.434.182-.126.406-.238.644-.322.238-.07.49-.112.784-.112.266 0 .49.028.686.084l-.322.91a1.523 1.523 0 00-.518-.07 2.2 2.2 0 00-.938.196 2.6 2.6 0 00-.7.518c-.196.224-.35.448-.462.686a2.034 2.034 0 00-.224.7l-.518 3.696h-.924l.63-4.508zm9.238-1.371l-4.55 5.04h3.976l-.112.84h-5.32l.098-.673 4.536-5.04h-3.64l.126-.84h4.984l-.098.672zm6.27 2.1c.084-.63-.028-1.135-.35-1.527-.322-.378-.812-.574-1.484-.574-.294 0-.588.056-.882.168-.294.126-.56.28-.798.476-.238.196-.448.42-.602.672a1.954 1.954 0 00-.308.784h4.424zm-4.564.755c-.014.322.014.63.112.924.098.294.238.532.42.742.182.21.406.378.672.504s.56.182.882.182c.49 0 .938-.112 1.33-.35.392-.224.7-.49.924-.784l.63.588c-.462.49-.938.854-1.442 1.064a4.028 4.028 0 01-1.568.322c-.49 0-.924-.084-1.302-.266a2.65 2.65 0 01-.98-.714 2.703 2.703 0 01-.56-1.092c-.112-.42-.126-.882-.056-1.372.07-.49.21-.952.448-1.372.224-.42.504-.784.854-1.092a3.906 3.906 0 011.148-.728c.42-.168.868-.252 1.33-.252.49 0 .924.084 1.302.266.364.182.658.406.882.7.224.294.378.644.476 1.036.084.406.098.826.028 1.274l-.07.42h-5.46zm7.855 3.025h-.924l1.484-10.585h.924l-1.484 10.584zm3.36 0h-.924l1.484-10.585h.924l-1.484 10.584zm7.854-3.78c.084-.63-.028-1.135-.35-1.527-.322-.378-.812-.574-1.484-.574-.294 0-.588.056-.882.168-.294.126-.56.28-.798.476-.238.196-.448.42-.602.672a1.954 1.954 0 00-.308.784h4.424zm-4.564.755c-.014.322.014.63.112.924.098.294.238.532.42.742.182.21.406.378.672.504s.56.182.882.182c.49 0 .938-.112 1.33-.35.392-.224.7-.49.924-.784l.63.588c-.462.49-.938.854-1.442 1.064a4.028 4.028 0 01-1.568.322c-.49 0-.924-.084-1.302-.266a2.65 2.65 0 01-.98-.714 2.703 2.703 0 01-.56-1.092c-.112-.42-.126-.882-.056-1.372.07-.49.21-.952.448-1.372.224-.42.504-.784.854-1.092a3.906 3.906 0 011.148-.728c.42-.168.868-.252 1.33-.252.49 0 .924.084 1.302.266.364.182.658.406.882.7.224.294.378.644.476 1.036.084.406.098.826.028 1.274l-.07.42h-5.46zm-135.73-2.507h1.624c.448 0 .84-.042 1.162-.14.322-.098.574-.224.798-.378a1.6 1.6 0 00.476-.546c.112-.21.182-.434.224-.672a2.132 2.132 0 00-.028-.672 1.122 1.122 0 00-.336-.546c-.168-.154-.406-.28-.7-.378-.294-.084-.672-.126-1.12-.126h-1.624l-.476 3.458zm-.392-4.382h2.884c1.008 0 1.778.224 2.296.658.518.434.714 1.106.588 1.988-.126.896-.518 1.568-1.148 2.002-.644.434-1.47.658-2.492.658h-1.876l-.644 4.606h-1.008l1.4-9.912zm7.784-.672h.923l-.714 5.082h.028c.126-.182.28-.336.462-.49.182-.154.378-.28.588-.392.196-.098.42-.182.658-.252.224-.056.448-.084.658-.084.84 0 1.428.224 1.778.658.336.448.448 1.078.336 1.904l-.588 4.158h-.924l.504-3.626a4.79 4.79 0 00.056-.966 1.784 1.784 0 00-.182-.714 1.14 1.14 0 00-.49-.434c-.21-.098-.49-.14-.84-.14-.042 0-.182.014-.392.056-.224.042-.462.14-.728.308-.266.168-.504.42-.742.756s-.392.798-.476 1.4l-.476 3.36h-.924l1.484-10.584zm12.377 7.308c.056-.364.042-.7-.028-1.022a2.035 2.035 0 00-.378-.826 1.97 1.97 0 00-.7-.56 2.537 2.537 0 00-1.008-.196c-.378 0-.728.07-1.05.196a2.74 2.74 0 00-.854.56 2.989 2.989 0 00-.602.826 3.627 3.627 0 00-.322 1.022c-.056.364-.042.7.028 1.022.07.322.196.588.378.826a1.7 1.7 0 00.7.546c.28.14.616.21.994.21s.742-.07 1.064-.21c.322-.126.602-.308.854-.546.238-.238.448-.504.602-.826.154-.322.266-.658.322-1.022zm1.008 0c-.07.49-.224.952-.448 1.372a4.15 4.15 0 01-.868 1.092 4.031 4.031 0 01-1.204.714 3.897 3.897 0 01-1.456.266c-.504 0-.952-.084-1.358-.266a2.591 2.591 0 01-.994-.714 2.727 2.727 0 01-.574-1.092c-.112-.42-.126-.882-.056-1.372.07-.49.21-.952.448-1.372a4.119 4.119 0 012.072-1.82 4.033 4.033 0 011.428-.252c.518 0 .966.084 1.372.252.406.182.742.42 1.008.728s.448.672.56 1.092c.112.42.14.882.07 1.372zm5.406-2.436h-1.89l-.532 3.864a1.69 1.69 0 00-.014.588c.014.154.07.28.14.364.07.084.154.14.28.168.112.042.238.056.378.056.154 0 .322-.028.504-.07.168-.042.322-.112.476-.182l-.07.854a3.354 3.354 0 01-1.288.238c-.182 0-.35-.028-.532-.07a1.05 1.05 0 01-.49-.266 1.182 1.182 0 01-.322-.532c-.07-.224-.084-.518-.028-.882l.574-4.13h-1.386l.126-.84h1.386l.252-1.848h.924l-.252 1.848h1.89l-.126.84zm6.536 2.436c.056-.364.042-.7-.028-1.022a2.035 2.035 0 00-.378-.826 1.97 1.97 0 00-.7-.56 2.537 2.537 0 00-1.008-.196c-.378 0-.728.07-1.05.196a2.74 2.74 0 00-.854.56 2.989 2.989 0 00-.602.826 3.627 3.627 0 00-.322 1.022c-.056.364-.042.7.028 1.022.07.322.196.588.378.826a1.7 1.7 0 00.7.546c.28.14.616.21.994.21s.742-.07 1.064-.21c.322-.126.602-.308.854-.546.238-.238.448-.504.602-.826.154-.322.266-.658.322-1.022zm1.008 0c-.07.49-.224.952-.448 1.372a4.15 4.15 0 01-.868 1.092 4.031 4.031 0 01-1.204.714 3.897 3.897 0 01-1.456.266c-.504 0-.952-.084-1.358-.266a2.591 2.591 0 01-.994-.714 2.727 2.727 0 01-.574-1.092c-.112-.42-.126-.882-.056-1.372.07-.49.21-.952.448-1.372a4.119 4.119 0 012.072-1.82 4.033 4.033 0 011.428-.252c.518 0 .966.084 1.372.252.406.182.742.42 1.008.728s.448.672.56 1.092c.112.42.14.882.07 1.372zm2.242 0c-.056.364-.056.7.028 1.022.07.322.196.588.378.826a1.7 1.7 0 00.7.546c.294.14.63.21 1.008.21s.728-.07 1.078-.21c.336-.126.644-.308.91-.546a3.49 3.49 0 00.658-.826 3.25 3.25 0 00.336-1.022c.056-.364.042-.7-.042-1.022a2.329 2.329 0 00-.434-.826 2.316 2.316 0 00-.756-.56 2.66 2.66 0 00-1.022-.196c-.378 0-.728.07-1.05.196a2.74 2.74 0 00-.854.56 2.772 2.772 0 00-.616.826 3.627 3.627 0 00-.322 1.022zm5.516 3.276h-.924l.154-1.092h-.028c-.182.224-.392.42-.616.574a3.862 3.862 0 01-.7.392c-.238.098-.49.182-.728.224-.238.042-.476.07-.686.07-.518 0-.966-.084-1.372-.266a2.49 2.49 0 01-.994-.714 2.563 2.563 0 01-.574-1.092c-.112-.42-.126-.882-.056-1.372.07-.49.21-.952.448-1.372.238-.42.518-.784.882-1.092.35-.308.742-.546 1.19-.728a4.055 4.055 0 011.442-.252c.21 0 .434.028.672.07.238.042.448.126.672.224.21.098.406.238.588.392.182.154.322.35.448.574h.028l.714-5.124h.924l-1.484 10.584zm4.634-9.072a.733.733 0 01-.28.476.71.71 0 01-.49.196.548.548 0 01-.434-.196c-.126-.126-.168-.28-.14-.476a.764.764 0 01.28-.49.762.762 0 01.49-.182c.168 0 .308.056.434.182s.168.294.14.49zm-1.484 9.072h-.924l.924-6.552h.924l-.924 6.552zm8.302-3.276c.056-.364.042-.7-.028-1.022a2.035 2.035 0 00-.378-.826 1.97 1.97 0 00-.7-.56 2.537 2.537 0 00-1.008-.196c-.378 0-.728.07-1.05.196a2.74 2.74 0 00-.854.56 2.989 2.989 0 00-.602.826 3.627 3.627 0 00-.322 1.022c-.056.364-.042.7.028 1.022.07.322.196.588.378.826a1.7 1.7 0 00.7.546c.28.14.616.21.994.21s.742-.07 1.064-.21c.322-.126.602-.308.854-.546.238-.238.448-.504.602-.826.154-.322.266-.658.322-1.022zm1.008 0c-.07.49-.224.952-.448 1.372a4.15 4.15 0 01-.868 1.092 4.031 4.031 0 01-1.204.714 3.897 3.897 0 01-1.456.266c-.504 0-.952-.084-1.358-.266a2.591 2.591 0 01-.994-.714 2.727 2.727 0 01-.574-1.092c-.112-.42-.126-.882-.056-1.372.07-.49.21-.952.448-1.372a4.119 4.119 0 012.072-1.82 4.033 4.033 0 011.428-.252c.518 0 .966.084 1.372.252.406.182.742.42 1.008.728s.448.672.56 1.092c.112.42.14.882.07 1.372zm2.237 0c-.056.364-.056.7.028 1.022.07.322.196.588.378.826a1.7 1.7 0 00.7.546c.294.14.63.21 1.008.21s.728-.07 1.078-.21c.336-.126.644-.308.91-.546a3.49 3.49 0 00.658-.826 3.25 3.25 0 00.336-1.022c.056-.364.042-.7-.042-1.022a2.329 2.329 0 00-.434-.826 2.316 2.316 0 00-.756-.56 2.66 2.66 0 00-1.022-.196c-.378 0-.728.07-1.05.196a2.74 2.74 0 00-.854.56 2.772 2.772 0 00-.616.826 3.627 3.627 0 00-.322 1.022zm5.516 3.276h-.924l.154-1.092h-.028c-.182.224-.392.42-.616.574a3.862 3.862 0 01-.7.392c-.238.098-.49.182-.728.224-.238.042-.476.07-.686.07-.518 0-.966-.084-1.372-.266a2.49 2.49 0 01-.994-.714 2.563 2.563 0 01-.574-1.092c-.112-.42-.126-.882-.056-1.372.07-.49.21-.952.448-1.372.238-.42.518-.784.882-1.092.35-.308.742-.546 1.19-.728a4.055 4.055 0 011.442-.252c.21 0 .434.028.672.07.238.042.448.126.672.224.21.098.406.238.588.392.182.154.322.35.448.574h.028l.714-5.124h.924l-1.484 10.584zm7.644-3.78c.084-.63-.028-1.134-.35-1.526-.322-.378-.812-.574-1.484-.574-.294 0-.588.056-.882.168-.294.126-.56.28-.798.476-.238.196-.448.42-.602.672a1.954 1.954 0 00-.308.784h4.424zm-4.564.756c-.014.322.014.63.112.924.098.294.238.532.42.742.182.21.406.378.672.504s.56.182.882.182c.49 0 .938-.112 1.33-.35.392-.224.7-.49.924-.784l.63.588c-.462.49-.938.854-1.442 1.064a4.028 4.028 0 01-1.568.322c-.49 0-.924-.084-1.302-.266a2.65 2.65 0 01-.98-.714 2.703 2.703 0 01-.56-1.092c-.112-.42-.126-.882-.056-1.372.07-.49.21-.952.448-1.372.224-.42.504-.784.854-1.092a3.906 3.906 0 011.148-.728c.42-.168.868-.252 1.33-.252.49 0 .924.084 1.302.266.364.182.658.406.882.7.224.294.378.644.476 1.036.084.406.098.826.028 1.274l-.07.42h-5.46z" fill="#404040" fill-rule="nonzero"/><path d="M49.769 205.285l-3.375 6.75-3.375-6.75h6.75z"/><path d="M46.394 127.266v79.37" fill="none" stroke="#000" stroke-width="1.5" stroke-linecap="round" stroke-linejoin="bevel" stroke-miterlimit="1.5" stroke-dasharray="3,3,0,0"/><path d="M147.949 36.94h1.96c.756 0 1.428-.112 2.016-.35a4.787 4.787 0 001.512-.91c.42-.378.756-.798 1.008-1.288.238-.476.406-.966.476-1.484a4.465 4.465 0 00-.056-1.498 3.027 3.027 0 00-.644-1.288c-.322-.378-.742-.672-1.26-.91-.518-.224-1.162-.336-1.918-.336h-1.96l-1.134 8.064zm.266-8.988h3.29c.616 0 1.218.098 1.82.308.588.21 1.106.518 1.54.924.434.42.77.938.994 1.554.21.63.266 1.344.154 2.17-.112.826-.364 1.554-.77 2.17a6.034 6.034 0 01-1.428 1.54 5.845 5.845 0 01-1.806.938 6.214 6.214 0 01-1.904.308h-3.29l1.4-9.912zm13.509 9.912l.042-.532c.014-.168.042-.336.07-.518h-.028c-.126.182-.28.336-.462.49-.182.154-.378.28-.588.378-.21.112-.434.196-.658.266a2.94 2.94 0 01-.672.084c-.84 0-1.428-.224-1.764-.672-.336-.434-.448-1.064-.336-1.89l.588-4.158h.924l-.518 3.626c-.042.364-.056.686-.042.966.014.28.084.518.196.7a.963.963 0 00.476.434c.21.112.49.154.84.154.028 0 .098-.014.224-.028.112-.014.252-.042.406-.098.154-.042.308-.126.49-.238.182-.098.35-.252.518-.434a3 3 0 00.434-.7c.112-.28.21-.616.266-1.022l.476-3.36h.924l-.728 5.11c-.014.182-.042.406-.056.672-.028.266-.056.532-.07.77h-.952zm3.776-4.508c.042-.294.07-.588.112-.882.028-.294.07-.686.126-1.162h.91l-.168 1.218h.028c.098-.182.21-.35.35-.518.14-.154.308-.308.504-.434.182-.126.406-.238.644-.322.238-.07.49-.112.784-.112.266 0 .49.028.686.084l-.322.91a1.523 1.523 0 00-.518-.07 2.2 2.2 0 00-.938.196 2.6 2.6 0 00-.7.518c-.196.224-.35.448-.462.686a2.034 2.034 0 00-.224.7l-.518 3.696h-.924l.63-4.508zm9.143-.504a1.6 1.6 0 00-.574-.616 1.708 1.708 0 00-.938-.252 2.593 2.593 0 00-1.05.182 2.48 2.48 0 00-.854.546 2.73 2.73 0 00-.602.826 3.671 3.671 0 00-.322 1.05c-.056.378-.042.714.028 1.036.07.336.182.602.364.84a1.7 1.7 0 00.7.546c.294.126.63.196 1.008.182.364 0 .7-.084 1.008-.252a2.33 2.33 0 00.742-.616l.686.574a3.863 3.863 0 01-1.232.84c-.434.196-.882.28-1.33.294-.532.014-.994-.07-1.4-.252a2.49 2.49 0 01-.994-.714 2.494 2.494 0 01-.546-1.106 3.72 3.72 0 01-.042-1.372c.07-.49.21-.952.434-1.386.224-.42.504-.784.854-1.092a3.775 3.775 0 011.19-.728 3.862 3.862 0 011.47-.238c.448.014.868.112 1.26.28.378.182.714.476.98.854l-.84.574zm2.759-5.572h.924l-.714 5.082h.028c.126-.182.28-.336.462-.49.182-.154.378-.28.588-.392.196-.098.42-.182.658-.252.224-.056.448-.084.658-.084.84 0 1.428.224 1.778.658.336.448.448 1.078.336 1.904l-.588 4.158h-.924l.504-3.626a4.79 4.79 0 00.056-.966 1.784 1.784 0 00-.182-.714 1.14 1.14 0 00-.49-.434c-.21-.098-.49-.14-.84-.14-.042 0-.182.014-.392.056-.224.042-.462.14-.728.308-.266.168-.504.42-.742.756s-.392.798-.476 1.4l-.476 3.36h-.924l1.484-10.584zm7.436 10.584h-.924l1.484-10.584h.924l-1.484 10.584zm6.412-3.262c-.238 0-.518.014-.868.028-.35.028-.7.084-1.036.168a2.86 2.86 0 00-.882.42c-.266.182-.42.448-.462.77-.028.21-.014.392.056.546a.9.9 0 00.308.378c.126.098.28.168.462.21.182.056.364.07.546.07.336 0 .644-.056.91-.168.266-.112.49-.266.672-.462a2.38 2.38 0 00.462-.672c.112-.252.196-.518.238-.812l.07-.476h-.476zm.574-.756l.028-.168c.154-1.134-.336-1.694-1.442-1.694-.77 0-1.47.252-2.114.77l-.462-.658a3.63 3.63 0 011.246-.714 5.47 5.47 0 011.652-.238c.322 0 .616.042.896.14s.518.238.714.42c.182.196.322.434.42.728.084.294.098.63.042 1.036l-.406 2.926c-.042.252-.07.518-.07.784-.014.28-.028.504-.028.686h-.896c-.014-.154 0-.336.014-.518s.028-.364.056-.546h-.028c-.322.434-.686.756-1.092.938-.406.196-.868.294-1.4.294a3.18 3.18 0 01-.826-.112 1.694 1.694 0 01-.658-.378 1.557 1.557 0 01-.42-.602c-.098-.238-.112-.504-.07-.826.07-.532.266-.952.588-1.26.322-.294.7-.518 1.134-.672a5.445 5.445 0 011.358-.28c.476-.042.91-.056 1.302-.056h.462zm6.679-.98a1.368 1.368 0 00-.462-.644c-.21-.154-.49-.238-.826-.238-.154 0-.322.014-.49.056a2.25 2.25 0 00-.462.168c-.14.084-.252.182-.35.308a.936.936 0 00-.196.448c-.042.308.028.532.224.672s.504.266.924.364l.91.224c.434.098.784.308 1.05.616.266.322.364.714.294 1.176a2.1 2.1 0 01-.35.91 2.058 2.058 0 01-.672.63 2.657 2.657 0 01-.868.364c-.322.07-.63.112-.952.112-.504 0-.966-.098-1.358-.294-.406-.182-.742-.518-.98-.98l.882-.546c.154.294.35.532.616.714.252.182.574.266.966.266.182 0 .378-.014.574-.07.182-.042.364-.098.518-.196.154-.084.294-.196.406-.336.098-.14.168-.308.196-.49a.973.973 0 00-.042-.42.751.751 0 00-.224-.294 1.768 1.768 0 00-.364-.196c-.154-.042-.308-.098-.476-.14l-.868-.21a3.69 3.69 0 01-.434-.14 1.828 1.828 0 01-.504-.294 1.37 1.37 0 01-.406-.518c-.098-.21-.126-.462-.084-.77.042-.336.154-.63.322-.882s.378-.462.63-.616c.238-.154.518-.28.826-.364a3.95 3.95 0 01.91-.112c.462 0 .868.084 1.246.266.364.182.63.476.784.91l-.91.546zm5.961 0a1.368 1.368 0 00-.462-.644c-.21-.154-.49-.238-.826-.238-.154 0-.322.014-.49.056a2.25 2.25 0 00-.462.168c-.14.084-.252.182-.35.308a.936.936 0 00-.196.448c-.042.308.028.532.224.672s.504.266.924.364l.91.224c.434.098.784.308 1.05.616.266.322.364.714.294 1.176a2.1 2.1 0 01-.35.91 2.058 2.058 0 01-.672.63 2.657 2.657 0 01-.868.364c-.322.07-.63.112-.952.112-.504 0-.966-.098-1.358-.294-.406-.182-.742-.518-.98-.98l.882-.546c.154.294.35.532.616.714.252.182.574.266.966.266.182 0 .378-.014.574-.07.182-.042.364-.098.518-.196.154-.084.294-.196.406-.336.098-.14.168-.308.196-.49a.973.973 0 00-.042-.42.751.751 0 00-.224-.294 1.768 1.768 0 00-.364-.196c-.154-.042-.308-.098-.476-.14l-.868-.21a3.69 3.69 0 01-.434-.14 1.828 1.828 0 01-.504-.294 1.37 1.37 0 01-.406-.518c-.098-.21-.126-.462-.084-.77.042-.336.154-.63.322-.882s.378-.462.63-.616c.238-.154.518-.28.826-.364a3.95 3.95 0 01.91-.112c.462 0 .868.084 1.246.266.364.182.63.476.784.91l-.91.546zm5.323 2.1h-3.598l.126-.924h3.598l-.126.924zM153.059 48.59c.056-.365.042-.7-.028-1.023a2.035 2.035 0 00-.378-.826 1.97 1.97 0 00-.7-.56 2.537 2.537 0 00-1.008-.196c-.378 0-.742.07-1.078.196-.336.14-.63.322-.896.56-.266.238-.49.504-.658.826a2.954 2.954 0 00-.35 1.022c-.056.364-.042.7.056 1.022.084.322.224.588.434.826.196.238.448.42.742.546.294.14.644.21 1.022.21s.742-.07 1.064-.21c.322-.126.602-.308.854-.546.238-.238.448-.504.602-.826.154-.322.266-.658.322-1.022zm-4.956-7.309h.924l-.714 5.124h.028a2.66 2.66 0 01.616-.574c.224-.154.462-.294.7-.392a3.502 3.502 0 011.4-.294c.518 0 .966.084 1.372.252.406.182.742.42 1.008.728s.448.672.56 1.092c.112.42.14.882.07 1.372-.07.49-.224.952-.448 1.372a4.15 4.15 0 01-.868 1.092c-.35.308-.756.546-1.204.714a3.897 3.897 0 01-1.456.266 3.63 3.63 0 01-.658-.07 2.691 2.691 0 01-1.26-.616 2.042 2.042 0 01-.448-.574h-.028l-.154 1.092h-.924l1.484-10.584zm12.697 6.804c.084-.63-.028-1.134-.35-1.526-.322-.378-.812-.574-1.484-.574-.294 0-.588.056-.882.168-.294.126-.56.28-.798.476-.238.196-.448.42-.602.672a1.954 1.954 0 00-.308.784h4.424zm-4.564.756c-.014.322.014.63.112.924.098.294.238.532.42.742.182.21.406.378.672.504s.56.182.882.182c.49 0 .938-.112 1.33-.35.392-.224.7-.49.924-.784l.63.588c-.462.49-.938.854-1.442 1.064a4.028 4.028 0 01-1.568.322c-.49 0-.924-.084-1.302-.266a2.65 2.65 0 01-.98-.714 2.703 2.703 0 01-.56-1.092c-.112-.42-.126-.882-.056-1.372.07-.49.21-.952.448-1.372.224-.42.504-.784.854-1.092a3.906 3.906 0 011.148-.728c.42-.168.868-.252 1.33-.252.49 0 .924.084 1.302.266.364.182.658.406.882.7.224.294.378.644.476 1.036.084.406.098.826.028 1.274l-.07.42h-5.46zm7.445-1.484c.042-.294.07-.588.112-.882.028-.294.07-.686.126-1.162h.91l-.168 1.218h.028c.098-.182.21-.35.35-.518.14-.154.308-.308.504-.434.182-.126.406-.238.644-.322.238-.07.49-.112.784-.112.266 0 .49.028.686.084l-.322.91a1.523 1.523 0 00-.518-.07 2.2 2.2 0 00-.938.196 2.6 2.6 0 00-.7.518c-.196.224-.35.448-.462.686a2.034 2.034 0 00-.224.7l-.518 3.696h-.924l.63-4.508zm9.297.728c.084-.63-.028-1.134-.35-1.526-.322-.378-.812-.574-1.484-.574-.294 0-.588.056-.882.168-.294.126-.56.28-.798.476-.238.196-.448.42-.602.672a1.954 1.954 0 00-.308.784h4.424zm-4.564.756c-.014.322.014.63.112.924.098.294.238.532.42.742.182.21.406.378.672.504s.56.182.882.182c.49 0 .938-.112 1.33-.35.392-.224.7-.49.924-.784l.63.588c-.462.49-.938.854-1.442 1.064a4.028 4.028 0 01-1.568.322c-.49 0-.924-.084-1.302-.266a2.65 2.65 0 01-.98-.714 2.703 2.703 0 01-.56-1.092c-.112-.42-.126-.882-.056-1.372.07-.49.21-.952.448-1.372.224-.42.504-.784.854-1.092a3.906 3.906 0 011.148-.728c.42-.168.868-.252 1.33-.252.49 0 .924.084 1.302.266.364.182.658.406.882.7.224.294.378.644.476 1.036.084.406.098.826.028 1.274l-.07.42h-5.46zm9.34-6.048a.733.733 0 01-.28.476.71.71 0 01-.49.196.548.548 0 01-.434-.196c-.126-.126-.168-.28-.14-.476a.764.764 0 01.28-.49.762.762 0 01.49-.182c.168 0 .308.056.434.182s.168.294.14.49zm-1.484 9.072h-.924l.924-6.552h.924l-.924 6.552zm7.7-5.012a1.6 1.6 0 00-.574-.616 1.708 1.708 0 00-.938-.252 2.593 2.593 0 00-1.05.182 2.48 2.48 0 00-.854.546 2.73 2.73 0 00-.602.826 3.671 3.671 0 00-.322 1.05c-.056.378-.042.714.028 1.036.07.336.182.602.364.84a1.7 1.7 0 00.7.546c.294.126.63.196 1.008.182.364 0 .7-.084 1.008-.252a2.33 2.33 0 00.742-.616l.686.574a3.863 3.863 0 01-1.232.84c-.434.196-.882.28-1.33.294-.532.014-.994-.07-1.4-.252a2.49 2.49 0 01-.994-.714 2.494 2.494 0 01-.546-1.106 3.72 3.72 0 01-.042-1.372c.07-.49.21-.952.434-1.386.224-.42.504-.784.854-1.092a3.775 3.775 0 011.19-.728 3.862 3.862 0 011.47-.238c.448.014.868.112 1.26.28.378.182.714.476.98.854l-.84.574zm2.758-5.572h.924l-.714 5.082h.028c.126-.182.28-.336.462-.49.182-.154.378-.28.588-.392.196-.098.42-.182.658-.252.224-.056.448-.084.658-.084.84 0 1.428.224 1.778.658.336.448.448 1.078.336 1.904l-.588 4.158h-.924l.504-3.626a4.79 4.79 0 00.056-.966 1.784 1.784 0 00-.182-.714 1.14 1.14 0 00-.49-.434c-.21-.098-.49-.14-.84-.14-.042 0-.182.014-.392.056-.224.042-.462.14-.728.308-.266.168-.504.42-.742.756s-.392.798-.476 1.4l-.476 3.36h-.924l1.484-10.584z" fill="#404040" fill-rule="nonzero"/></svg>