<svg viewBox="0 0 482 377" xmlns="http://www.w3.org/2000/svg" fill-rule="evenodd" clip-rule="evenodd" stroke-linecap="round" stroke-linejoin="bevel" stroke-miterlimit="1.5"><path d="M180.754 374.767h7.26l-.198 1.452h-8.844l2.2-15.576h1.584l-2.002 14.124zm11 0h8.338l-.198 1.452h-9.922l2.2-15.576h9.658l-.22 1.452h-8.074l-.748 5.302h7.546l-.198 1.452h-7.546l-.836 5.918zm12.826 0h3.08c1.188 0 2.244-.176 3.168-.55a7.522 7.522 0 002.376-1.43 7.019 7.019 0 001.584-2.024c.374-.748.638-1.518.748-2.332a7.017 7.017 0 00-.088-2.354 4.757 4.757 0 00-1.012-2.024c-.506-.594-1.166-1.056-1.98-1.43-.814-.352-1.826-.528-3.014-.528h-3.08l-1.782 12.672zm.418-14.124h5.17c.968 0 1.914.154 2.86.484.924.33 1.738.814 2.42 1.452a6.39 6.39 0 011.562 2.442c.33.99.418 2.112.242 3.41s-.572 2.442-1.21 3.41-1.386 1.782-2.244 2.42a9.186 9.186 0 01-2.838 1.474 9.765 9.765 0 01-2.992.484h-5.17l2.2-15.576zm21.032 7.567c.066-.373.11-.77.132-1.143.022-.374.066-.77.088-1.144h1.562l-.22 1.562h.044c.22-.286.462-.55.748-.792a4.81 4.81 0 011.87-.924c.33-.066.638-.11.946-.11.286 0 .572.022.88.088.308.066.594.176.88.308.264.154.506.374.726.66.22.286.396.638.506 1.078.198-.33.418-.616.704-.88s.572-.484.902-.682c.33-.198.66-.33 1.012-.44a4.34 4.34 0 011.056-.132c1.32 0 2.244.352 2.794 1.034.528.704.704 1.694.528 2.992l-.924 6.534h-1.452l.836-6.006c.066-.528.11-.99.088-1.386a2.373 2.373 0 00-.286-1.012c-.154-.286-.396-.484-.704-.638-.33-.132-.726-.198-1.232-.198-.55 0-1.012.11-1.408.308-.396.22-.726.506-1.012.858a3.923 3.923 0 00-.66 1.188 6.287 6.287 0 00-.352 1.408l-.77 5.478h-1.452l.836-6.006c.066-.528.11-.99.088-1.386-.044-.396-.132-.726-.286-1.012-.154-.286-.396-.484-.704-.638-.33-.132-.726-.198-1.232-.198-.088 0-.286.022-.616.088s-.66.22-1.034.484-.748.66-1.078 1.188c-.352.528-.594 1.254-.726 2.2l-.748 5.28h-1.452l1.122-8.008zm21.736-6.247c-.044.308-.198.55-.44.748-.242.22-.506.308-.77.308a.862.862 0 01-.682-.308c-.198-.198-.264-.44-.22-.748a1.2 1.2 0 01.44-.77c.242-.198.506-.286.77-.286s.484.088.682.286c.198.198.264.462.22.77zm-2.332 14.256h-1.452l1.452-10.296h1.452l-1.452 10.296zm10.076-8.976h-2.97l-.836 6.072c-.066.374-.066.704-.022.924.022.242.11.44.22.572.11.132.242.22.44.264.176.066.374.088.594.088.242 0 .506-.044.792-.11.264-.066.506-.176.748-.286l-.11 1.342c-.594.242-1.254.374-2.024.374-.286 0-.55-.044-.836-.11-.308-.066-.55-.22-.77-.418-.22-.198-.396-.484-.506-.836-.11-.352-.132-.814-.044-1.386l.902-6.49h-2.178l.198-1.32h2.178l.396-2.904h1.452l-.396 2.904h2.97l-.198 1.32zm12.232 6.6h.044l6.974-13.2h1.716l-8.272 15.576h-1.584l-3.718-15.576h1.76l3.08 13.2zm16.39-2.773c.088-.571.066-1.1-.044-1.605a3.198 3.198 0 00-.594-1.298 3.096 3.096 0 00-1.1-.88 3.987 3.987 0 00-1.584-.308c-.594 0-1.144.11-1.65.308-.506.22-.968.506-1.342.88a4.696 4.696 0 00-.946 1.298 5.7 5.7 0 00-.506 1.606c-.088.572-.066 1.1.044 1.606s.308.924.594 1.298.638.66 1.1.858c.44.22.968.33 1.562.33a4.2 4.2 0 001.672-.33 4.114 4.114 0 001.342-.858c.374-.374.704-.792.946-1.298a5.7 5.7 0 00.506-1.606zm1.584 0a6.54 6.54 0 01-.704 2.157c-.374.66-.814 1.232-1.364 1.716a6.335 6.335 0 01-1.892 1.122 6.123 6.123 0 01-2.288.418c-.792 0-1.496-.132-2.134-.418a4.072 4.072 0 01-1.562-1.122 4.285 4.285 0 01-.902-1.716c-.176-.66-.198-1.386-.088-2.156.11-.77.33-1.496.704-2.156a6.599 6.599 0 011.386-1.716 6.473 6.473 0 011.87-1.144 6.338 6.338 0 012.244-.396c.814 0 1.518.132 2.156.396.638.286 1.166.66 1.584 1.144.418.484.704 1.056.88 1.716.176.66.22 1.386.11 2.156zm3.058-1.935c.066-.462.11-.924.176-1.386.044-.462.11-1.078.198-1.826h1.43l-.264 1.914h.044c.154-.286.33-.55.55-.814.22-.242.484-.484.792-.682a4.351 4.351 0 011.012-.506 4.27 4.27 0 011.232-.176c.418 0 .77.044 1.078.132l-.506 1.43c-.176-.066-.44-.11-.814-.11-.55 0-1.056.11-1.474.308-.418.22-.792.484-1.1.814-.308.352-.55.704-.726 1.078a3.197 3.197 0 00-.352 1.1l-.814 5.808h-1.452l.99-7.084zm8.052-3.212l1.188 8.36h.044l3.938-8.36h1.496l1.562 8.36h.044l3.564-8.36h1.716l-4.708 10.296h-1.628l-1.54-8.448h-.044l-3.916 8.448h-1.628l-1.804-10.296h1.716zm18.106-3.96c-.044.308-.198.55-.44.748-.242.22-.506.308-.77.308a.862.862 0 01-.682-.308c-.198-.198-.264-.44-.22-.748a1.2 1.2 0 01.44-.77c.242-.198.506-.286.77-.286s.484.088.682.286c.198.198.264.462.22.77zm-2.332 14.256h-1.452l1.452-10.296h1.452l-1.452 10.296zm5.104-5.149c-.088.573-.088 1.1.044 1.607.11.506.308.924.594 1.298s.638.66 1.1.858c.462.22.99.33 1.584.33.594 0 1.144-.11 1.694-.33a4.506 4.506 0 001.43-.858 5.485 5.485 0 001.034-1.298c.264-.506.44-1.034.528-1.606a3.91 3.91 0 00-.066-1.606 3.66 3.66 0 00-.682-1.298 3.639 3.639 0 00-1.188-.88 4.179 4.179 0 00-1.606-.308c-.594 0-1.144.11-1.65.308-.506.22-.968.506-1.342.88a4.356 4.356 0 00-.968 1.298 5.7 5.7 0 00-.506 1.606zm8.668 5.149h-1.452l.242-1.716h-.044c-.286.352-.616.66-.968.902a6.068 6.068 0 01-1.1.616c-.374.154-.77.286-1.144.352a6.4 6.4 0 01-1.078.11c-.814 0-1.518-.132-2.156-.418-.638-.264-1.166-.638-1.562-1.122-.44-.484-.726-1.056-.902-1.716-.176-.66-.198-1.386-.088-2.156.11-.77.33-1.496.704-2.156.374-.66.814-1.232 1.386-1.716a6.473 6.473 0 011.87-1.144 6.372 6.372 0 012.266-.396c.33 0 .682.044 1.056.11s.704.198 1.056.352c.33.154.638.374.924.616.286.242.506.55.704.902h.044l1.122-8.052h1.452l-2.332 16.632zm12.012-5.94c.132-.99-.044-1.782-.55-2.398-.506-.594-1.276-.902-2.332-.902a3.87 3.87 0 00-1.386.264c-.462.198-.88.44-1.254.748s-.704.66-.946 1.056a3.07 3.07 0 00-.484 1.232h6.952zm-7.172 1.188c-.022.506.022.99.176 1.452.154.462.374.836.66 1.166.286.33.638.594 1.056.792.418.198.88.286 1.386.286.77 0 1.474-.176 2.09-.55.616-.352 1.1-.77 1.452-1.232l.99.924c-.726.77-1.474 1.342-2.266 1.672a6.33 6.33 0 01-2.464.506c-.77 0-1.452-.132-2.046-.418a4.165 4.165 0 01-1.54-1.122c-.418-.484-.704-1.056-.88-1.716-.176-.66-.198-1.386-.088-2.156.11-.77.33-1.496.704-2.156a6.032 6.032 0 011.342-1.716 6.138 6.138 0 011.804-1.144 5.603 5.603 0 012.09-.396c.77 0 1.452.132 2.046.418.572.286 1.034.638 1.386 1.1.352.462.594 1.012.748 1.628.132.638.154 1.298.044 2.002l-.11.66h-8.58zm11.704-2.332c.066-.462.11-.924.176-1.386.044-.462.11-1.078.198-1.826h1.43l-.264 1.914h.044c.154-.286.33-.55.55-.814.22-.242.484-.484.792-.682a4.351 4.351 0 011.012-.506 4.27 4.27 0 011.232-.176c.418 0 .77.044 1.078.132l-.506 1.43c-.176-.066-.44-.11-.814-.11-.55 0-1.056.11-1.474.308-.418.22-.792.484-1.1.814-.308.352-.55.704-.726 1.078a3.197 3.197 0 00-.352 1.1l-.814 5.808h-1.452l.99-7.084zm12.716-.77c-.154-.418-.396-.77-.726-1.012-.33-.242-.77-.374-1.298-.374-.242 0-.506.022-.77.088a3.536 3.536 0 00-.726.264c-.22.132-.396.286-.55.484a1.47 1.47 0 00-.308.704c-.066.484.044.836.352 1.056.308.22.792.418 1.452.572l1.43.352c.682.154 1.232.484 1.65.968.418.506.572 1.122.462 1.848-.088.55-.264 1.034-.55 1.43a3.234 3.234 0 01-1.056.99 4.175 4.175 0 01-1.364.572c-.506.11-.99.176-1.496.176-.792 0-1.518-.154-2.134-.462-.638-.286-1.166-.814-1.54-1.54l1.386-.858c.242.462.55.836.968 1.122.396.286.902.418 1.518.418.286 0 .594-.022.902-.11.286-.066.572-.154.814-.308.242-.132.462-.308.638-.528.154-.22.264-.484.308-.77.022-.264 0-.484-.066-.66a1.18 1.18 0 00-.352-.462 2.778 2.778 0 00-.572-.308c-.242-.066-.484-.154-.748-.22l-1.364-.33a5.799 5.799 0 01-.682-.22 2.873 2.873 0 01-.792-.462 2.152 2.152 0 01-.638-.814c-.154-.33-.198-.726-.132-1.21.066-.528.242-.99.506-1.386.264-.396.594-.726.99-.968.374-.242.814-.44 1.298-.572.462-.11.946-.176 1.43-.176.726 0 1.364.132 1.958.418.572.286.99.748 1.232 1.43l-1.43.858zm9.394-1.122h-2.97l-.836 6.072c-.066.374-.066.704-.022.924.022.242.11.44.22.572.11.132.242.22.44.264.176.066.374.088.594.088.242 0 .506-.044.792-.11.264-.066.506-.176.748-.286l-.11 1.342c-.594.242-1.254.374-2.024.374-.286 0-.55-.044-.836-.11-.308-.066-.55-.22-.77-.418-.22-.198-.396-.484-.506-.836-.11-.352-.132-.814-.044-1.386l.902-6.49h-2.178l.198-1.32h2.178l.396-2.904h1.452l-.396 2.904h2.97l-.198 1.32zm7.304 3.85c-.374 0-.814.022-1.364.044-.55.044-1.1.132-1.628.264-.528.154-.99.374-1.386.66-.418.286-.66.704-.726 1.21-.044.33-.022.616.088.858.11.242.264.44.484.594.198.154.44.264.726.33.286.088.572.11.858.11.528 0 1.012-.088 1.43-.264.418-.176.77-.418 1.056-.726a3.74 3.74 0 00.726-1.056 4.77 4.77 0 00.374-1.276l.11-.748h-.748zm.902-1.188l.044-.264c.242-1.782-.528-2.662-2.266-2.662-1.21 0-2.31.396-3.322 1.21l-.726-1.034a5.706 5.706 0 011.958-1.122c.77-.242 1.628-.374 2.596-.374.506 0 .968.066 1.408.22.44.154.814.374 1.122.66.286.308.506.682.66 1.144.132.462.154.99.066 1.628l-.638 4.598c-.066.396-.11.814-.11 1.232-.022.44-.044.792-.044 1.078h-1.408c-.022-.242 0-.528.022-.814.022-.286.044-.572.088-.858h-.044c-.506.682-1.078 1.188-1.716 1.474-.638.308-1.364.462-2.2.462-.462 0-.88-.066-1.298-.176a2.662 2.662 0 01-1.034-.594 2.447 2.447 0 01-.66-.946c-.154-.374-.176-.792-.11-1.298.11-.836.418-1.496.924-1.98a5.178 5.178 0 011.782-1.056 8.556 8.556 0 012.134-.44 23.15 23.15 0 012.046-.088h.726zm6.776-3.982c-.022.286-.044.55-.066.814-.022.286-.066.55-.11.836h.044c.198-.286.44-.528.726-.77s.594-.44.924-.616c.308-.154.66-.286 1.034-.396a4.3 4.3 0 011.034-.132c1.32 0 2.244.352 2.794 1.034.528.704.704 1.694.528 2.992l-.924 6.534h-1.452l.792-5.698c.088-.572.11-1.078.088-1.518a2.804 2.804 0 00-.286-1.122 1.792 1.792 0 00-.77-.682c-.33-.154-.77-.22-1.32-.22-.066 0-.286.022-.616.088-.352.066-.726.22-1.144.484-.418.264-.792.66-1.166 1.188-.374.528-.616 1.254-.748 2.2l-.748 5.28h-1.452l1.122-8.03c.044-.286.088-.638.132-1.056.022-.418.066-.836.088-1.21h1.496zm11 5.147c-.088.573-.088 1.1.044 1.607.11.506.308.924.594 1.298s.638.66 1.1.858c.462.22.99.33 1.584.33.594 0 1.144-.11 1.694-.33a4.506 4.506 0 001.43-.858 5.485 5.485 0 001.034-1.298c.264-.506.44-1.034.528-1.606a3.91 3.91 0 00-.066-1.606 3.66 3.66 0 00-.682-1.298 3.639 3.639 0 00-1.188-.88 4.179 4.179 0 00-1.606-.308c-.594 0-1.144.11-1.65.308-.506.22-.968.506-1.342.88a4.356 4.356 0 00-.968 1.298 5.7 5.7 0 00-.506 1.606zm8.668 5.149h-1.452l.242-1.716h-.044c-.286.352-.616.66-.968.902a6.068 6.068 0 01-1.1.616c-.374.154-.77.286-1.144.352a6.4 6.4 0 01-1.078.11c-.814 0-1.518-.132-2.156-.418-.638-.264-1.166-.638-1.562-1.122-.44-.484-.726-1.056-.902-1.716-.176-.66-.198-1.386-.088-2.156.11-.77.33-1.496.704-2.156.374-.66.814-1.232 1.386-1.716a6.473 6.473 0 011.87-1.144 6.372 6.372 0 012.266-.396c.33 0 .682.044 1.056.11s.704.198 1.056.352c.33.154.638.374.924.616.286.242.506.55.704.902h.044l1.122-8.052h1.452l-2.332 16.632z" fill-rule="nonzero"/><path d="M708.661 1289.59v316.71" fill="none" stroke="#000" stroke-width="3.08" transform="matrix(.72637 0 0 .94873 -219.006 -1206.036)"/><path d="M348.376 270.606l-5.85 11.7-5.85-11.7c2.925 2.925 8.775 2.925 11.7 0z"/><path d="M342.526 227.592v45.354" fill="none" stroke="#000" stroke-width="2.6"/><path d="M348.376 109.755l-5.85 11.7-5.85-11.7c2.925 2.925 8.775 2.925 11.7 0z"/><path d="M342.526 66.742v45.353" fill="none" stroke="#000" stroke-width="2.6"/><path d="M218.512 313.708l-5.85 11.7-5.85-11.7c2.925 2.925 8.775 2.925 11.7 0z"/><path d="M212.663 50.891v265.156" fill="none" stroke="#000" stroke-width="2.6"/><path d="M216.19 17.336l79.555.096" fill="none" stroke="#000" stroke-width="2.602" stroke-linecap="square" stroke-linejoin="round"/><path d="M217.314 17.34c-.48-.52-21.117-17.343-21.117-17.343h-63.351v34.68h63.351s21.598-16.815 21.117-17.336z" fill="#d9d9d9"/><path d="M217.314 17.34c-.48-.52-21.117-17.343-21.117-17.343h-63.351v34.68h63.351s21.598-16.815 21.117-17.336zM195.273 2.603h-59.828V32.08h59.858c2.859-2.231 13.659-10.687 18.18-14.599-4.46-3.685-15.317-12.53-18.21-14.878z"/><path d="M140.652 25.217V9.465h5.94c1.056 0 1.848.044 2.398.154.77.132 1.43.374 1.936.726.528.374.946.88 1.276 1.54.308.638.484 1.364.484 2.134 0 1.342-.44 2.486-1.298 3.41-.836.924-2.376 1.386-4.62 1.386h-4.026v6.402h-2.09zm2.09-8.25h4.07c1.342 0 2.31-.264 2.86-.77.572-.484.858-1.21.858-2.112 0-.66-.176-1.21-.506-1.694-.33-.462-.77-.77-1.32-.924-.352-.088-.99-.132-1.936-.132h-4.026v5.632zm12.342-5.28V9.465h1.936v2.222h-1.936zm0 13.53V13.799h1.936v11.418h-1.936zm4.888 0V13.799h1.738v1.628c.836-1.254 2.046-1.87 3.63-1.87.682 0 1.32.11 1.892.374.572.242 1.012.572 1.298.968.286.396.484.88.594 1.43.088.352.11.968.11 1.87v7.018h-1.936v-6.93c0-.792-.066-1.386-.22-1.782a1.897 1.897 0 00-.792-.924c-.396-.242-.836-.352-1.342-.352-.836 0-1.54.264-2.134.792-.616.506-.902 1.496-.902 2.97v6.226h-1.936zm27.961-1.848v1.848h-10.406c0-.462.066-.924.242-1.342.264-.704.682-1.408 1.254-2.09.594-.704 1.43-1.496 2.53-2.398 1.716-1.386 2.882-2.508 3.476-3.322.594-.836.902-1.606.902-2.332 0-.77-.264-1.408-.814-1.936-.55-.528-1.276-.792-2.156-.792-.924 0-1.672.286-2.222.836-.572.55-.836 1.342-.858 2.332l-1.98-.22c.132-1.474.638-2.596 1.54-3.388.88-.77 2.068-1.166 3.564-1.166 1.518 0 2.706.418 3.586 1.254.88.836 1.32 1.892 1.32 3.124a4.48 4.48 0 01-.374 1.848c-.264.616-.682 1.254-1.276 1.936-.616.66-1.606 1.584-2.992 2.772-1.166.968-1.914 1.628-2.244 1.98-.33.352-.594.704-.814 1.056h7.722z" fill-rule="nonzero"/><g fill="none" stroke="#000" stroke-linecap="square" stroke-linejoin="round"><path d="M278.958 317.905h34.018m-28.336 4.251h22.652" stroke-width="2.002"/><path d="M1405.51 1057.09h29.53" stroke-width="4.56" transform="matrix(.39315 0 0 .48 -262.41 -180.993)"/></g><path d="M301.61 181.52l-5.85 17.55-5.85-17.55h11.7z" fill="#e82424"/><path d="M295.76 176.26v8.771" fill="none" stroke="#e82424" stroke-width="2.6"/><path fill="#fff" d="M280.991 216.588h29.421V277.5h-29.42z"/><path d="M310.412 216.588h-29.42v60.913h29.42v-60.913zm-27.42 1.999v56.909h25.42v-56.91h-25.42z"/><path d="M295.703 100.414L272.887 66.19h45.631l-22.815 34.224z" fill="#c4c8ed"/><path d="M295.703 100.414L272.887 66.19h45.631l-22.815 34.224zm-17.957-31.625l17.957 26.94 17.957-26.94h-35.914z"/><path d="M318.518 100.414h-45.63" fill="none" stroke="#000" stroke-width="2.598"/><path d="M323.976 90.734l2.24 7.157-7.5.147 5.26-7.304z"/><path d="M313.875 89.007l8.445 6.08" fill="none" stroke="#000" stroke-width="2"/><path d="M328.963 83.74l2.24 7.158-7.498.146 5.258-7.304z"/><path d="M318.863 82.014l8.445 6.08" fill="none" stroke="#000" stroke-width="2"/><path d="M249.74 236.854l-3.5 16.546c.546 0 1.144.024 1.618-.048l.072-.168 1.576-7.462h3.336c.406 0 .86-.022 1.17.072.308.55.546 1.146.808 1.74.932 1.91 1.716 3.96 2.72 5.818.5.072 1.072.048 1.644.048l-3.648-7.844c.526-.072 1.026-.238 1.526-.428 1.194-.432 2.362-1.144 3.172-2.146.786-.954 1.144-2.242.69-3.41a4.675 4.675 0 00-.428-.762c-1.004-1.242-2.528-1.836-4.506-1.956-.5-.022-.978 0-1.478 0h-4.77zm.027 7.678l1.36-6.414h3.574c1.144 0 2.36.022 3.41.526.714.356 1.19.834 1.406 1.74.262 1.5-.906 2.834-2.17 3.456-.978.454-2.028.62-3.1.692-.428.024-.834 0-1.262 0h-3.218m22.412.834h-1.462l-3.87 8.61-3.95-8.61h-1.428l5.378 11.868 5.332-11.868m-159.352 34.545c-.05.334-1.528 7.106-1.932 9.18-.19.882-.452 1.764-.524 2.644-.12 2.004.762 3.532 2.05 4.366 2.502 1.618 5.886.5 7.842-1.478.764-.788 1.386-1.718 1.766-2.744.332-.928.476-1.932.692-2.91l1.524-7.222.238-1.12c.05-.238.122-.476.144-.716H123.1c-.046.334-.478 2.312-.618 2.956l-1.22 5.7c-.38 1.788-.592 3.694-1.786 5.15-1.072 1.288-2.788 2.024-4.456 1.86-1.17-.12-2.244-.67-2.72-1.766-.5-1.098-.262-2.314 0-3.456.072-.382.144-.764.238-1.144l1.266-6.032c.118-.478.666-2.888.69-3.268h-1.668m15.434 8.849c-.403.05-.79.12-1.16.286-1.75.674-2.371 2.958-2.371 5.212 0 .352 0 .69.016 1.044.054 1.562.406 3.09 1.298 4.034.736.756 1.83 1.074 2.856.974.622-.068 1.158-.302 1.616-.59 1.428-1.006 1.764-3.09 1.764-5.344 0-1.85-.322-3.516-1.228-4.522-.69-.756-1.766-1.194-2.79-1.094zm1.429 1.228c.168.1.338.236.488.37.622.622.824 1.83.856 2.94 0 .238.018.456.018.69v.858c0 1.446-.134 2.84-.774 3.7-.842 1.094-2.622 1.124-3.512.034a2.411 2.411 0 01-.438-.792c-.304-.858-.37-1.934-.37-3.008v-.86c0-.216.016-.418.016-.638 0-1.328.338-2.64 1.228-3.208.656-.406 1.682-.522 2.488-.086m12.844-2.59a.464.464 0 00.046.906c.144.048.31.022.454.022h14.328c.19 0 .382 0 .524-.14.286-.262.094-.762-.286-.812-.336-.022-.666 0-1 0h-13.664c-.118 0-.284-.022-.402.024zm-.288 4.84c-.166.264 0 .62.288.692.14.046.284.024.428.024h14.424c.192 0 .358 0 .5-.144.31-.286.094-.762-.308-.812-.334-.022-.67 0-1.004 0H142.96c-.31 0-.546-.022-.716.24m26.189-11.421v8.538h.906c.118 0 .284.022.382-.026.118-.072.19-.262.262-.36a4.22 4.22 0 01.524-.57c1.098-.954 3.028-1.12 4.076-.214.882.692 1.144 1.788 1.216 2.86.144 1.432-.284 2.766-.928 3.482-1.242 1.358-3.41 1.334-4.936.55a4.88 4.88 0 01-1.862-1.672h-.022c-.072.122-.622.956-.622 1.096 0 .098.098.19.144.262 1.05 1.242 2.672 2.172 4.842 2.1 1.57-.096 3.05-.858 4.006-2.1 1.38-1.786 1.406-4.336.19-6.222-.454-.714-1.096-1.334-1.86-1.714-1.6-.788-3.552-.454-4.866.736v-5.48h6.772v-1.266h-8.224m14.562-.907c.144.526.406 1.026.598 1.528l3.192 7.866 2.576 6.344.288.69c.046.094.072.238.19.262.144.022.31 0 .454 0h.834c.356 0 .5.048.596-.334l.284-.69c1.17-2.79 6.272-15.378 6.344-15.666-.524 0-1.05 0-1.528.026l-.14.236-1.266 3.076c-1.524 3.912-3.168 7.702-4.624 11.684h-.048c-.072-.452-.31-.834-.452-1.24l-.86-2.194c-.334-.856-4.576-11.398-4.672-11.516-.096-.118-.334-.072-.454-.072h-1.312" fill-rule="nonzero"/><path d="M4.93 84.191h6.753l-2.2-8.184-4.554 8.184zm-3.08 5.544H0L8.977 74.16h1.54l4.576 15.576h-1.848l-1.144-4.092H4.137L1.85 89.735zm15.971-7.084c.066-.462.11-.924.176-1.386.044-.462.11-1.078.198-1.826h1.43l-.264 1.914h.044c.154-.286.33-.55.55-.814.22-.242.484-.484.792-.682a4.351 4.351 0 011.012-.506 4.27 4.27 0 011.232-.176c.418 0 .77.044 1.078.132l-.506 1.43c-.176-.066-.44-.11-.814-.11-.55 0-1.056.11-1.474.308-.418.22-.792.484-1.1.814-.308.352-.55.704-.726 1.078a3.197 3.197 0 00-.352 1.1l-.814 5.808h-1.452l.99-7.084zm7.37 1.936c-.088.572-.088 1.1.044 1.606.11.506.308.924.594 1.298s.638.66 1.1.858c.462.22.99.33 1.584.33.594 0 1.144-.11 1.694-.33a4.506 4.506 0 001.43-.858 5.485 5.485 0 001.034-1.298c.264-.506.44-1.034.528-1.606a3.91 3.91 0 00-.066-1.606 3.66 3.66 0 00-.682-1.298 3.639 3.639 0 00-1.188-.88 4.179 4.179 0 00-1.606-.308c-.594 0-1.144.11-1.65.308-.506.22-.968.506-1.342.88a4.356 4.356 0 00-.968 1.298 5.7 5.7 0 00-.506 1.606zm8.668 5.148h-1.452l.242-1.716h-.044c-.286.352-.616.66-.968.902a6.068 6.068 0 01-1.1.616c-.374.154-.77.286-1.144.352a6.4 6.4 0 01-1.078.11c-.814 0-1.518-.132-2.156-.418-.638-.264-1.166-.638-1.562-1.122-.44-.484-.726-1.056-.902-1.716-.176-.66-.198-1.386-.088-2.156.11-.77.33-1.496.704-2.156.374-.66.814-1.232 1.386-1.716a6.473 6.473 0 011.87-1.144 6.372 6.372 0 012.266-.396c.33 0 .682.044 1.056.11s.704.198 1.056.352c.33.154.638.374.924.616.286.242.506.55.704.902h.044l1.122-8.052h1.452L33.86 89.735zm10.604 0l.066-.836c.022-.264.066-.528.11-.814h-.044c-.198.286-.44.528-.726.77a4.13 4.13 0 01-.924.594c-.33.176-.682.308-1.034.418a4.62 4.62 0 01-1.056.132c-1.32 0-2.244-.352-2.772-1.056-.528-.682-.704-1.672-.528-2.97l.924-6.534h1.452l-.814 5.698a9.337 9.337 0 00-.066 1.518c.022.44.132.814.308 1.1.154.308.418.528.748.682.33.176.77.242 1.32.242.044 0 .154-.022.352-.044.176-.022.396-.066.638-.154.242-.066.484-.198.77-.374.286-.154.55-.396.814-.682.242-.286.484-.66.682-1.1.176-.44.33-.968.418-1.606l.748-5.28h1.452l-1.144 8.03c-.022.286-.066.638-.088 1.056-.044.418-.088.836-.11 1.21h-1.496zm8.91-14.255c-.044.307-.198.55-.44.747-.242.22-.506.308-.77.308a.862.862 0 01-.682-.308c-.198-.198-.264-.44-.22-.748a1.2 1.2 0 01.44-.77c.242-.198.506-.286.77-.286s.484.088.682.286c.198.198.264.462.22.77zm-2.332 14.255h-1.452l1.452-10.296h1.452l-1.452 10.296zm6.336-10.295c-.022.285-.044.55-.066.813-.022.286-.066.55-.11.836h.044c.198-.286.44-.528.726-.77s.594-.44.924-.616c.308-.154.66-.286 1.034-.396a4.3 4.3 0 011.034-.132c1.32 0 2.244.352 2.794 1.034.528.704.704 1.694.528 2.992l-.924 6.534h-1.452l.792-5.698c.088-.572.11-1.078.088-1.518a2.804 2.804 0 00-.286-1.122 1.792 1.792 0 00-.77-.682c-.33-.154-.77-.22-1.32-.22-.066 0-.286.022-.616.088-.352.066-.726.22-1.144.484-.418.264-.792.66-1.166 1.188-.374.528-.616 1.254-.748 2.2l-.748 5.28h-1.452l1.122-8.03c.044-.286.088-.638.132-1.056.022-.418.066-.836.088-1.21h1.496zm18.943 5.147c.087-.572.065-1.1-.045-1.606a3.198 3.198 0 00-.594-1.298 3.096 3.096 0 00-1.1-.88 3.987 3.987 0 00-1.584-.308c-.594 0-1.144.11-1.65.308-.506.22-.968.506-1.342.88a4.696 4.696 0 00-.946 1.298 5.7 5.7 0 00-.506 1.606c-.088.572-.066 1.1.044 1.606s.308.924.594 1.298.638.66 1.1.858c.44.22.968.33 1.562.33a4.2 4.2 0 001.672-.33 4.114 4.114 0 001.342-.858c.374-.374.704-.792.946-1.298a5.7 5.7 0 00.506-1.606zm1.583 0a6.54 6.54 0 01-.704 2.156c-.374.66-.814 1.232-1.364 1.716a6.335 6.335 0 01-1.892 1.122 6.123 6.123 0 01-2.288.418c-.792 0-1.496-.132-2.134-.418a4.072 4.072 0 01-1.562-1.122 4.285 4.285 0 01-.902-1.716c-.176-.66-.198-1.386-.088-2.156.11-.77.33-1.496.704-2.156a6.599 6.599 0 011.386-1.716 6.473 6.473 0 011.87-1.144 6.338 6.338 0 012.244-.396c.814 0 1.518.132 2.156.396.638.286 1.166.66 1.584 1.144.418.484.704 1.056.88 1.716.176.66.22 1.386.11 2.156zm7.458.594h-5.654l.198-1.452h5.654l-.198 1.452zm5.126-4.136h2.552c.704 0 1.32-.066 1.826-.22a4.426 4.426 0 001.254-.594c.33-.242.572-.528.748-.858.176-.33.286-.682.352-1.056a3.35 3.35 0 00-.044-1.056 1.762 1.762 0 00-.528-.858c-.264-.242-.638-.44-1.1-.594-.462-.132-1.056-.198-1.76-.198h-2.552l-.748 5.434zm-.616-6.886h4.532c1.584 0 2.794.352 3.608 1.034.814.682 1.122 1.738.924 3.124-.198 1.408-.814 2.464-1.804 3.146-1.012.682-2.31 1.034-3.916 1.034h-2.948l-1.012 7.238h-1.584l2.2-15.576zm14.014 1.321c-.044.307-.198.55-.44.747-.242.22-.506.308-.77.308a.862.862 0 01-.682-.308c-.198-.198-.264-.44-.22-.748a1.2 1.2 0 01.44-.77c.242-.198.506-.286.77-.286s.484.088.682.286c.198.198.264.462.22.77zm-2.332 14.255h-1.452l1.452-10.296h1.452l-1.452 10.296zm6.337-10.295l-.067.813c-.022.286-.066.55-.11.836h.044c.198-.286.44-.528.726-.77s.594-.44.924-.616c.308-.154.66-.286 1.034-.396a4.3 4.3 0 011.034-.132c1.32 0 2.244.352 2.794 1.034.528.704.704 1.694.528 2.992l-.924 6.534h-1.452l.792-5.698c.088-.572.11-1.078.088-1.518a2.804 2.804 0 00-.286-1.122 1.792 1.792 0 00-.77-.682c-.33-.154-.77-.22-1.32-.22-.066 0-.286.022-.616.088-.352.066-.726.22-1.144.484-.418.264-.792.66-1.166 1.188-.374.528-.616 1.254-.748 2.2l-.748 5.28h-1.452l1.122-8.03c.044-.286.088-.638.132-1.056.022-.418.066-.836.088-1.21h1.496zm12.21 9.24c-.045.307-.199.571-.44.813a1.335 1.335 0 01-.925.374c-.352 0-.616-.132-.792-.374a.992.992 0 01-.22-.814c.044-.308.198-.594.44-.836s.55-.352.902-.352.616.11.814.352c.198.242.264.528.22.836zm23.23-11.66a5.036 5.036 0 00-1.693-1.32c-.682-.33-1.518-.485-2.486-.485-.99 0-1.914.176-2.75.55a7.39 7.39 0 00-2.222 1.474 7.847 7.847 0 00-1.562 2.134 8.175 8.175 0 00-.814 2.574c-.132.902-.11 1.738.088 2.552.176.814.506 1.54.968 2.156.462.616 1.056 1.1 1.804 1.474.726.374 1.606.55 2.596.55a9.51 9.51 0 002.376-.308 8.759 8.759 0 002.09-.792l.726-5.214h-3.718l.198-1.452h5.302l-1.056 7.634c-.946.506-1.98.902-3.058 1.166-1.1.286-2.134.418-3.08.418-1.166 0-2.2-.198-3.124-.616-.946-.418-1.716-.99-2.332-1.716-.638-.726-1.078-1.584-1.342-2.574-.264-.99-.308-2.09-.154-3.278a9.142 9.142 0 011.078-3.278 9.134 9.134 0 012.068-2.596c.814-.726 1.76-1.276 2.816-1.694 1.034-.418 2.134-.616 3.3-.616 1.254 0 2.288.176 3.168.506.836.352 1.584.88 2.178 1.584l-1.364 1.166zm7.415-1.54c-.044.307-.198.55-.44.747-.242.22-.506.308-.77.308a.862.862 0 01-.682-.308c-.198-.198-.264-.44-.22-.748a1.2 1.2 0 01.44-.77c.242-.198.506-.286.77-.286s.484.088.682.286c.198.198.264.462.22.77zm-2.332 14.255h-1.452l1.452-10.296h1.452l-1.452 10.296zm13.618-5.148c.088-.572.066-1.1-.044-1.606a3.198 3.198 0 00-.594-1.298 3.096 3.096 0 00-1.1-.88 3.987 3.987 0 00-1.584-.308 4.82 4.82 0 00-1.694.308 4.9 4.9 0 00-1.408.88c-.418.374-.77.792-1.034 1.298a4.642 4.642 0 00-.55 1.606c-.088.572-.066 1.1.088 1.606.132.506.352.924.682 1.298.308.374.704.66 1.166.858.462.22 1.012.33 1.606.33a4.2 4.2 0 001.672-.33 4.114 4.114 0 001.342-.858c.374-.374.704-.792.946-1.298a5.7 5.7 0 00.506-1.606zm-7.788-11.484h1.452l-1.122 8.052h.044c.286-.352.594-.66.968-.902a6.068 6.068 0 011.1-.616 5.504 5.504 0 011.122-.352 6.4 6.4 0 011.078-.11c.814 0 1.518.132 2.156.396.638.286 1.166.66 1.584 1.144.418.484.704 1.056.88 1.716.176.66.22 1.386.11 2.156a6.54 6.54 0 01-.704 2.156c-.374.66-.814 1.232-1.364 1.716a6.073 6.073 0 01-1.892 1.122 6.123 6.123 0 01-2.288.418c-.33 0-.682-.044-1.034-.11a4.258 4.258 0 01-1.056-.352 4.229 4.229 0 01-.924-.616c-.286-.242-.506-.55-.704-.902h-.044l-.242 1.716h-1.452l2.332-16.632zm17.688 7.657h-2.97l-.836 6.071c-.066.374-.066.704-.022.924.022.242.11.44.22.572.11.132.242.22.44.264.176.066.374.088.594.088.242 0 .506-.044.792-.11.264-.066.506-.176.748-.286l-.11 1.342c-.594.242-1.254.374-2.024.374-.286 0-.55-.044-.836-.11-.308-.066-.55-.22-.77-.418-.22-.198-.396-.484-.506-.836-.11-.352-.132-.814-.044-1.386l.902-6.49h-2.178l.198-1.32h2.178l.396-2.904h1.452l-.396 2.904h2.97l-.198 1.32zM10.43 105.794c.131-.99-.045-1.782-.55-2.398-.507-.594-1.277-.902-2.333-.902a3.87 3.87 0 00-1.386.264c-.462.198-.88.44-1.254.748s-.704.66-.946 1.056a3.07 3.07 0 00-.484 1.232h6.952zm-7.173 1.188c-.022.506.022.99.176 1.452.154.462.374.836.66 1.166.286.33.638.594 1.056.792.418.198.88.286 1.386.286.77 0 1.474-.176 2.09-.55.616-.352 1.1-.77 1.452-1.232l.99.924c-.726.77-1.474 1.342-2.266 1.672a6.33 6.33 0 01-2.464.506c-.77 0-1.452-.132-2.046-.418a4.165 4.165 0 01-1.54-1.122c-.418-.484-.704-1.056-.88-1.716-.176-.66-.198-1.386-.088-2.156.11-.77.33-1.496.704-2.156a6.032 6.032 0 011.342-1.716 6.138 6.138 0 011.804-1.144 5.603 5.603 0 012.09-.396c.77 0 1.452.132 2.046.418.572.286 1.034.638 1.386 1.1.352.462.594 1.012.748 1.628.132.638.154 1.298.044 2.002l-.11.66h-8.58zm14.674-9.504c-.044.308-.198.55-.44.748-.242.22-.506.308-.77.308a.862.862 0 01-.682-.308c-.198-.198-.264-.44-.22-.748a1.2 1.2 0 01.44-.77c.242-.198.506-.286.77-.286s.484.088.682.286c.198.198.264.462.22.77zM15.6 111.734h-1.452l1.452-10.296h1.452L15.6 111.734zm6.335-10.296c-.022.286-.044.55-.066.814-.022.286-.066.55-.11.836h.044c.198-.286.44-.528.726-.77s.594-.44.924-.616c.308-.154.66-.286 1.034-.396a4.3 4.3 0 011.034-.132c1.32 0 2.244.352 2.794 1.034.528.704.704 1.694.528 2.992l-.924 6.534h-1.452l.792-5.698c.088-.572.11-1.078.088-1.518a2.804 2.804 0 00-.286-1.122 1.792 1.792 0 00-.77-.682c-.33-.154-.77-.22-1.32-.22-.066 0-.286.022-.616.088-.352.066-.726.22-1.144.484-.418.264-.792.66-1.166 1.188-.374.528-.616 1.254-.748 2.2l-.748 5.28h-1.452l1.122-8.03c.044-.286.088-.638.132-1.056.022-.418.066-.836.088-1.21h1.496zm18.238 4.356c.132-.99-.044-1.782-.55-2.398-.506-.594-1.276-.902-2.332-.902a3.87 3.87 0 00-1.386.264c-.462.198-.88.44-1.254.748s-.704.66-.946 1.056a3.07 3.07 0 00-.484 1.232h6.952zm-7.172 1.188c-.022.506.022.99.176 1.452.154.462.374.836.66 1.166.286.33.638.594 1.056.792.418.198.88.286 1.386.286.77 0 1.474-.176 2.09-.55.616-.352 1.1-.77 1.452-1.232l.99.924c-.726.77-1.474 1.342-2.266 1.672a6.33 6.33 0 01-2.464.506c-.77 0-1.452-.132-2.046-.418a4.165 4.165 0 01-1.54-1.122c-.418-.484-.704-1.056-.88-1.716-.176-.66-.198-1.386-.088-2.156.11-.77.33-1.496.704-2.156a6.032 6.032 0 011.342-1.716 6.138 6.138 0 011.804-1.144 5.603 5.603 0 012.09-.396c.77 0 1.452.132 2.046.418.572.286 1.034.638 1.386 1.1.352.462.594 1.012.748 1.628.132.638.154 1.298.044 2.002l-.11.66h-8.58zm26.4-8.25c-.528-1.012-1.452-1.518-2.794-1.518-.418 0-.814.044-1.232.154-.418.11-.792.286-1.122.506-.352.242-.66.528-.902.88a3.061 3.061 0 00-.462 1.276c-.066.528-.022.968.154 1.298.176.352.44.638.792.88.33.242.726.44 1.188.594.462.154.924.33 1.408.484.462.176.924.374 1.386.572.44.198.836.462 1.166.792.308.33.572.726.726 1.188.154.484.198 1.078.088 1.782a4.593 4.593 0 01-.726 1.892 5.053 5.053 0 01-1.386 1.43c-.55.374-1.122.682-1.76.88a6.416 6.416 0 01-1.892.308c-.946 0-1.826-.176-2.64-.55-.814-.352-1.452-.946-1.936-1.76l1.584-1.034c.242.572.66 1.034 1.21 1.364.55.352 1.254.528 2.068.528.396 0 .792-.066 1.21-.198.418-.11.792-.308 1.144-.55.352-.242.66-.528.902-.88s.418-.748.484-1.21c.066-.55.022-.99-.154-1.364a2.522 2.522 0 00-.77-.902 4.77 4.77 0 00-1.21-.594c-.462-.154-.924-.33-1.386-.484a12.983 12.983 0 01-1.386-.55 3.645 3.645 0 01-1.166-.792 2.75 2.75 0 01-.748-1.188c-.154-.462-.198-1.056-.088-1.782.11-.748.33-1.408.704-1.958a5.367 5.367 0 011.342-1.386 5.15 5.15 0 011.716-.814 7.01 7.01 0 011.892-.264c.88 0 1.672.132 2.354.418.682.286 1.276.77 1.782 1.474l-1.54 1.078zm12.629 7.854c.087-.572.065-1.1-.045-1.606a3.198 3.198 0 00-.594-1.298 3.096 3.096 0 00-1.1-.88 3.987 3.987 0 00-1.584-.308 4.82 4.82 0 00-1.694.308 4.9 4.9 0 00-1.408.88c-.418.374-.77.792-1.034 1.298a4.642 4.642 0 00-.55 1.606c-.088.572-.066 1.1.088 1.606.132.506.352.924.682 1.298.308.374.704.66 1.166.858.462.22 1.012.33 1.606.33a4.2 4.2 0 001.672-.33 4.114 4.114 0 001.342-.858c.374-.374.704-.792.946-1.298a5.7 5.7 0 00.506-1.606zm-8.669-5.148h1.452l-.242 1.716h.044c.286-.352.594-.66.968-.902a6.068 6.068 0 011.1-.616 5.504 5.504 0 011.122-.352 6.4 6.4 0 011.078-.11c.814 0 1.518.132 2.156.396.638.286 1.166.66 1.584 1.144.418.484.704 1.056.88 1.716.176.66.22 1.386.11 2.156a6.54 6.54 0 01-.704 2.156c-.374.66-.814 1.232-1.364 1.716a6.073 6.073 0 01-1.892 1.122 6.123 6.123 0 01-2.288.418c-.33 0-.682-.044-1.034-.11a4.258 4.258 0 01-1.056-.352 4.229 4.229 0 01-.924-.616c-.286-.242-.506-.55-.704-.902h-.044l-1.122 8.052H61.03l2.332-16.632zm18.569 5.17c-.375 0-.815.022-1.365.044-.55.044-1.1.132-1.628.264-.528.154-.99.374-1.386.66-.418.286-.66.704-.726 1.21-.044.33-.022.616.088.858.11.242.264.44.484.594.198.154.44.264.726.33.286.088.572.11.858.11.528 0 1.012-.088 1.43-.264.418-.176.77-.418 1.056-.726a3.74 3.74 0 00.726-1.056 4.77 4.77 0 00.374-1.276l.11-.748h-.748zm.901-1.188l.044-.264c.242-1.782-.528-2.662-2.266-2.662-1.21 0-2.31.396-3.322 1.21l-.726-1.034a5.706 5.706 0 011.958-1.122c.77-.242 1.628-.374 2.596-.374.506 0 .968.066 1.408.22.44.154.814.374 1.122.66.286.308.506.682.66 1.144.132.462.154.99.066 1.628l-.638 4.598c-.066.396-.11.814-.11 1.232-.022.44-.044.792-.044 1.078h-1.408c-.022-.242 0-.528.022-.814.022-.286.044-.572.088-.858h-.044c-.506.682-1.078 1.188-1.716 1.474-.638.308-1.364.462-2.2.462-.462 0-.88-.066-1.298-.176a2.662 2.662 0 01-1.034-.594 2.447 2.447 0 01-.66-.946c-.154-.374-.176-.792-.11-1.298.11-.836.418-1.496.924-1.98a5.178 5.178 0 011.782-1.056 8.556 8.556 0 012.134-.44 23.15 23.15 0 012.046-.088h.726zm6.776-3.982c-.022.286-.044.55-.066.814-.022.286-.066.55-.11.836h.044c.198-.286.44-.528.726-.77s.594-.44.924-.616c.308-.154.66-.286 1.034-.396a4.3 4.3 0 011.034-.132c1.32 0 2.244.352 2.794 1.034.528.704.704 1.694.528 2.992l-.924 6.534h-1.452l.792-5.698c.088-.572.11-1.078.088-1.518a2.804 2.804 0 00-.286-1.122 1.792 1.792 0 00-.77-.682c-.33-.154-.77-.22-1.32-.22-.066 0-.286.022-.616.088-.352.066-.726.22-1.144.484-.418.264-.792.66-1.166 1.188-.374.528-.616 1.254-.748 2.2l-.748 5.28h-1.452l1.122-8.03c.044-.286.088-.638.132-1.056.022-.418.066-.836.088-1.21h1.496zm12.233 0l-.067.814c-.022.286-.066.55-.11.836h.044c.198-.286.44-.528.726-.77s.594-.44.924-.616c.308-.154.66-.286 1.034-.396a4.3 4.3 0 011.034-.132c1.32 0 2.244.352 2.794 1.034.528.704.704 1.694.528 2.992l-.924 6.534h-1.452l.792-5.698c.088-.572.11-1.078.088-1.518a2.804 2.804 0 00-.286-1.122 1.792 1.792 0 00-.77-.682c-.33-.154-.77-.22-1.32-.22-.066 0-.286.022-.616.088-.352.066-.726.22-1.144.484-.418.264-.792.66-1.166 1.188-.374.528-.616 1.254-.748 2.2l-.748 5.28h-1.452l1.122-8.03c.044-.286.088-.638.132-1.056.022-.418.066-.836.088-1.21h1.496zm16.83 10.296c.021-.286.043-.55.065-.836.022-.264.066-.528.11-.814h-.044c-.198.286-.44.528-.726.77a4.13 4.13 0 01-.924.594c-.33.176-.682.308-1.034.418a4.62 4.62 0 01-1.056.132c-1.32 0-2.244-.352-2.772-1.056-.528-.682-.704-1.672-.528-2.97l.924-6.534h1.452l-.814 5.698a9.337 9.337 0 00-.066 1.518c.022.44.132.814.308 1.1.154.308.418.528.748.682.33.176.77.242 1.32.242.044 0 .154-.022.352-.044.176-.022.396-.066.638-.154.242-.066.484-.198.77-.374.286-.154.55-.396.814-.682.242-.286.484-.66.682-1.1.176-.44.33-.968.418-1.606l.748-5.28h1.452l-1.144 8.03c-.022.286-.066.638-.088 1.056-.044.418-.088.836-.11 1.21h-1.496zm7.633-10.296c-.022.286-.044.55-.066.814-.022.286-.066.55-.11.836h.044c.198-.286.44-.528.726-.77s.594-.44.924-.616c.308-.154.66-.286 1.034-.396a4.3 4.3 0 011.034-.132c1.32 0 2.244.352 2.794 1.034.528.704.704 1.694.528 2.992l-.924 6.534h-1.452l.792-5.698c.088-.572.11-1.078.088-1.518a2.804 2.804 0 00-.286-1.122 1.792 1.792 0 00-.77-.682c-.33-.154-.77-.22-1.32-.22-.066 0-.286.022-.616.088-.352.066-.726.22-1.144.484-.418.264-.792.66-1.166 1.188-.374.528-.616 1.254-.748 2.2l-.748 5.28h-1.452l1.122-8.03c.044-.286.088-.638.132-1.056.022-.418.066-.836.088-1.21h1.496zm11.198 5.016c-.066.55-.044 1.056.088 1.518.11.484.33.902.616 1.254.286.374.66.66 1.1.858.418.22.902.33 1.452.33.528 0 1.034-.088 1.562-.286a4.776 4.776 0 001.364-.814c.418-.33.748-.748 1.034-1.232.286-.484.44-1.034.506-1.628a5.102 5.102 0 00-.044-1.54 3.3 3.3 0 00-.594-1.254 3.177 3.177 0 00-1.122-.858 3.987 3.987 0 00-1.584-.308c-.55 0-1.056.11-1.54.308-.506.22-.946.506-1.342.858a5.41 5.41 0 00-.99 1.254c-.264.484-.44.99-.506 1.54zm-1.298 7.348c.33.572.836 1.034 1.474 1.386.638.33 1.364.506 2.2.506.726 0 1.364-.11 1.914-.308.55-.22.99-.506 1.364-.88.374-.374.66-.792.858-1.276a7.672 7.672 0 00.44-1.584l.242-1.848h-.044c-.55.704-1.188 1.21-1.914 1.496a5.945 5.945 0 01-2.2.44c-.748 0-1.43-.132-2.046-.396a4.34 4.34 0 01-2.464-2.75c-.198-.638-.242-1.342-.132-2.09.11-.748.33-1.452.704-2.09a6.628 6.628 0 011.32-1.694 6.138 6.138 0 011.804-1.144 5.863 5.863 0 012.156-.396c.308 0 .638.022.968.088.33.066.66.154.99.308.33.154.638.352.946.594.286.264.572.594.814.99h.044l.242-1.716h1.452l-1.43 10.208c-.088.55-.242 1.144-.462 1.782a5.67 5.67 0 01-1.056 1.738c-.484.528-1.1.968-1.87 1.32-.77.352-1.738.528-2.904.528-2.002 0-3.564-.682-4.664-2.068l1.254-1.144zm23.584-2.068h-1.628l-2.728-10.296h1.738l2.046 8.668h.044l4.51-8.668h1.65l-5.632 10.296zm15.62-5.148c.088-.572.066-1.1-.044-1.606a3.198 3.198 0 00-.594-1.298 3.096 3.096 0 00-1.1-.88 3.987 3.987 0 00-1.584-.308c-.594 0-1.144.11-1.65.308-.506.22-.968.506-1.342.88a4.696 4.696 0 00-.946 1.298 5.7 5.7 0 00-.506 1.606c-.088.572-.066 1.1.044 1.606s.308.924.594 1.298.638.66 1.1.858c.44.22.968.33 1.562.33a4.2 4.2 0 001.672-.33 4.114 4.114 0 001.342-.858c.374-.374.704-.792.946-1.298a5.7 5.7 0 00.506-1.606zm1.584 0a6.54 6.54 0 01-.704 2.156c-.374.66-.814 1.232-1.364 1.716a6.335 6.335 0 01-1.892 1.122 6.123 6.123 0 01-2.288.418c-.792 0-1.496-.132-2.134-.418a4.072 4.072 0 01-1.562-1.122 4.285 4.285 0 01-.902-1.716c-.176-.66-.198-1.386-.088-2.156.11-.77.33-1.496.704-2.156a6.599 6.599 0 011.386-1.716 6.473 6.473 0 011.87-1.144 6.338 6.338 0 012.244-.396c.814 0 1.518.132 2.156.396.638.286 1.166.66 1.584 1.144.418.484.704 1.056.88 1.716.176.66.22 1.386.11 2.156zm4.752-5.148c-.022.286-.044.55-.066.814-.022.286-.066.55-.11.836h.044c.198-.286.44-.528.726-.77s.594-.44.924-.616c.308-.154.66-.286 1.034-.396a4.3 4.3 0 011.034-.132c1.32 0 2.244.352 2.794 1.034.528.704.704 1.694.528 2.992l-.924 6.534h-1.452l.792-5.698c.088-.572.11-1.078.088-1.518a2.804 2.804 0 00-.286-1.122 1.792 1.792 0 00-.77-.682c-.33-.154-.77-.22-1.32-.22-.066 0-.286.022-.616.088-.352.066-.726.22-1.144.484-.418.264-.792.66-1.166 1.188-.374.528-.616 1.254-.748 2.2l-.748 5.28h-1.452l1.122-8.03c.044-.286.088-.638.132-1.056.022-.418.066-.836.088-1.21h1.496zM8.141 119.344c-.858 0-1.562.22-2.112.682a5.095 5.095 0 00-1.342 1.694 8.126 8.126 0 00-.77 2.156c-.176.77-.308 1.452-.396 2.068a18.18 18.18 0 00-.176 2.068 7.66 7.66 0 00.176 2.156c.154.682.44 1.232.858 1.694.418.462 1.056.682 1.914.682.858 0 1.562-.22 2.112-.682.55-.462.99-1.012 1.342-1.694.33-.682.594-1.386.77-2.156.176-.77.308-1.452.396-2.068a24.54 24.54 0 00.198-2.068 9.733 9.733 0 00-.176-2.156 3.678 3.678 0 00-.88-1.694c-.418-.462-1.056-.682-1.914-.682zm.198-1.452c1.122 0 1.98.264 2.596.77.616.506 1.056 1.166 1.342 1.958.264.792.396 1.672.396 2.618s-.066 1.848-.176 2.706c-.11.858-.308 1.76-.572 2.706a9.652 9.652 0 01-1.144 2.618c-.506.792-1.122 1.452-1.892 1.958-.77.506-1.694.77-2.816.77-1.122 0-1.98-.264-2.596-.77-.616-.506-1.056-1.166-1.32-1.958-.286-.792-.418-1.672-.396-2.618 0-.946.066-1.848.176-2.706.11-.858.308-1.782.572-2.728a9.513 9.513 0 011.144-2.596 6.119 6.119 0 011.87-1.958c.77-.506 1.694-.77 2.816-.77zm16.984 13.464h.044l6.974-13.2h1.716l-8.272 15.576h-1.584l-3.718-15.576h1.76l3.08 13.2zm23.716-2.772c.088-.572.066-1.1-.044-1.606a3.198 3.198 0 00-.594-1.298 3.096 3.096 0 00-1.1-.88 3.987 3.987 0 00-1.584-.308c-.594 0-1.144.11-1.65.308-.506.22-.968.506-1.342.88a4.696 4.696 0 00-.946 1.298 5.7 5.7 0 00-.506 1.606c-.088.572-.066 1.1.044 1.606s.308.924.594 1.298.638.66 1.1.858c.44.22.968.33 1.562.33a4.2 4.2 0 001.672-.33 4.114 4.114 0 001.342-.858c.374-.374.704-.792.946-1.298a5.7 5.7 0 00.506-1.606zm1.584 0a6.54 6.54 0 01-.704 2.156c-.374.66-.814 1.232-1.364 1.716a6.335 6.335 0 01-1.892 1.122 6.123 6.123 0 01-2.288.418c-.792 0-1.496-.132-2.134-.418a4.072 4.072 0 01-1.562-1.122 4.285 4.285 0 01-.902-1.716c-.176-.66-.198-1.386-.088-2.156.11-.77.33-1.496.704-2.156a6.599 6.599 0 011.386-1.716 6.473 6.473 0 011.87-1.144 6.338 6.338 0 012.244-.396c.814 0 1.518.132 2.156.396.638.286 1.166.66 1.584 1.144.418.484.704 1.056.88 1.716.176.66.22 1.386.11 2.156zm3.52 0c-.088.572-.088 1.1.044 1.606.11.506.308.924.594 1.298s.638.66 1.1.858c.462.22.99.33 1.584.33.594 0 1.144-.11 1.694-.33a4.506 4.506 0 001.43-.858 5.485 5.485 0 001.034-1.298c.264-.506.44-1.034.528-1.606a3.91 3.91 0 00-.066-1.606 3.66 3.66 0 00-.682-1.298 3.639 3.639 0 00-1.188-.88 4.179 4.179 0 00-1.606-.308c-.594 0-1.144.11-1.65.308-.506.22-.968.506-1.342.88a4.356 4.356 0 00-.968 1.298 5.7 5.7 0 00-.506 1.606zm8.668 5.148H61.36l.242-1.716h-.044c-.286.352-.616.66-.968.902a6.068 6.068 0 01-1.1.616c-.374.154-.77.286-1.144.352a6.4 6.4 0 01-1.078.11c-.814 0-1.518-.132-2.156-.418-.638-.264-1.166-.638-1.562-1.122-.44-.484-.726-1.056-.902-1.716-.176-.66-.198-1.386-.088-2.156.11-.77.33-1.496.704-2.156.374-.66.814-1.232 1.386-1.716a6.473 6.473 0 011.87-1.144 6.372 6.372 0 012.266-.396c.33 0 .682.044 1.056.11s.704.198 1.056.352c.33.154.638.374.924.616.286.242.506.55.704.902h.044l1.122-8.052h1.452l-2.332 16.632zm12.012-5.94c.132-.99-.044-1.782-.55-2.398-.506-.594-1.276-.902-2.332-.902a3.87 3.87 0 00-1.386.264c-.462.198-.88.44-1.254.748s-.704.66-.946 1.056a3.07 3.07 0 00-.484 1.232h6.952zm-7.172 1.188c-.022.506.022.99.176 1.452.154.462.374.836.66 1.166.286.33.638.594 1.056.792.418.198.88.286 1.386.286.77 0 1.474-.176 2.09-.55.616-.352 1.1-.77 1.452-1.232l.99.924c-.726.77-1.474 1.342-2.266 1.672a6.33 6.33 0 01-2.464.506c-.77 0-1.452-.132-2.046-.418a4.165 4.165 0 01-1.54-1.122c-.418-.484-.704-1.056-.88-1.716-.176-.66-.198-1.386-.088-2.156.11-.77.33-1.496.704-2.156a6.032 6.032 0 011.342-1.716 6.138 6.138 0 011.804-1.144 5.603 5.603 0 012.09-.396c.77 0 1.452.132 2.046.418.572.286 1.034.638 1.386 1.1.352.462.594 1.012.748 1.628.132.638.154 1.298.044 2.002l-.11.66h-8.58zm11.704-2.332c.066-.462.11-.924.176-1.386.044-.462.11-1.078.198-1.826h1.43l-.264 1.914h.044c.154-.286.33-.55.55-.814.22-.242.484-.484.792-.682a4.351 4.351 0 011.012-.506 4.27 4.27 0 011.232-.176c.418 0 .77.044 1.078.132l-.506 1.43c-.176-.066-.44-.11-.814-.11-.55 0-1.056.11-1.474.308-.418.22-.792.484-1.1.814-.308.352-.55.704-.726 1.078a3.197 3.197 0 00-.352 1.1l-.814 5.808h-1.452l.99-7.084zm22.902-7.04h-6.38l-.748 4.686c.352-.132.704-.22 1.078-.286a6.104 6.104 0 011.078-.088 5.01 5.01 0 011.958.374c.55.242 1.012.594 1.408 1.034.374.462.616.99.792 1.584.154.616.176 1.276.066 2.002-.11.748-.33 1.43-.682 2.046a5.553 5.553 0 01-1.32 1.606 5.83 5.83 0 01-1.826 1.056 6.31 6.31 0 01-2.134.374c-.99 0-1.826-.242-2.552-.704-.748-.462-1.254-1.166-1.54-2.068l1.65-.682c.22.616.572 1.1 1.056 1.452.462.374 1.056.55 1.738.55.506 0 .968-.088 1.43-.286.44-.176.836-.418 1.21-.726.352-.308.66-.682.902-1.1.242-.418.396-.88.462-1.364a4.186 4.186 0 00-.066-1.496 3.095 3.095 0 00-.638-1.188 3.047 3.047 0 00-1.122-.748 4.028 4.028 0 00-1.496-.264c-.55 0-1.122.066-1.694.22a8.828 8.828 0 00-1.65.638l1.298-8.074h7.942l-.22 1.452zm13.112 11.748h.044l6.974-13.2h1.716l-8.272 15.576h-1.584l-3.718-15.576h1.76l3.08 13.2zm20.746-2.75c-.374 0-.814.022-1.364.044-.55.044-1.1.132-1.628.264-.528.154-.99.374-1.386.66-.418.286-.66.704-.726 1.21-.044.33-.022.616.088.858.11.242.264.44.484.594.198.154.44.264.726.33.286.088.572.11.858.11.528 0 1.012-.088 1.43-.264.418-.176.77-.418 1.056-.726a3.74 3.74 0 00.726-1.056 4.77 4.77 0 00.374-1.276l.11-.748h-.748zm.902-1.188l.044-.264c.242-1.782-.528-2.662-2.266-2.662-1.21 0-2.31.396-3.322 1.21l-.726-1.034a5.706 5.706 0 011.958-1.122c.77-.242 1.628-.374 2.596-.374.506 0 .968.066 1.408.22.44.154.814.374 1.122.66.286.308.506.682.66 1.144.132.462.154.99.066 1.628l-.638 4.598c-.066.396-.11.814-.11 1.232-.022.44-.044.792-.044 1.078h-1.408c-.022-.242 0-.528.022-.814.022-.286.044-.572.088-.858h-.044c-.506.682-1.078 1.188-1.716 1.474-.638.308-1.364.462-2.2.462-.462 0-.88-.066-1.298-.176a2.662 2.662 0 01-1.034-.594 2.447 2.447 0 01-.66-.946c-.154-.374-.176-.792-.11-1.298.11-.836.418-1.496.924-1.98a5.178 5.178 0 011.782-1.056 8.556 8.556 0 012.134-.44 23.15 23.15 0 012.046-.088h.726zm11.374 6.314l.066-.836c.022-.264.066-.528.11-.814h-.044c-.198.286-.44.528-.726.77a4.13 4.13 0 01-.924.594c-.33.176-.682.308-1.034.418a4.62 4.62 0 01-1.056.132c-1.32 0-2.244-.352-2.772-1.056-.528-.682-.704-1.672-.528-2.97l.924-6.534h1.452l-.814 5.698a9.337 9.337 0 00-.066 1.518c.022.44.132.814.308 1.1.154.308.418.528.748.682.33.176.77.242 1.32.242.044 0 .154-.022.352-.044.176-.022.396-.066.638-.154.242-.066.484-.198.77-.374.286-.154.55-.396.814-.682.242-.286.484-.66.682-1.1.176-.44.33-.968.418-1.606l.748-5.28h1.452l-1.144 8.03c-.022.286-.066.638-.088 1.056-.044.418-.088.836-.11 1.21h-1.496zm11.352-7.854c-.154-.418-.396-.77-.726-1.012-.33-.242-.77-.374-1.298-.374-.242 0-.506.022-.77.088a3.536 3.536 0 00-.726.264c-.22.132-.396.286-.55.484a1.47 1.47 0 00-.308.704c-.066.484.044.836.352 1.056.308.22.792.418 1.452.572l1.43.352c.682.154 1.232.484 1.65.968.418.506.572 1.122.462 1.848-.088.55-.264 1.034-.55 1.43a3.234 3.234 0 01-1.056.99 4.175 4.175 0 01-1.364.572c-.506.11-.99.176-1.496.176-.792 0-1.518-.154-2.134-.462-.638-.286-1.166-.814-1.54-1.54l1.386-.858c.242.462.55.836.968 1.122.396.286.902.418 1.518.418.286 0 .594-.022.902-.11.286-.066.572-.154.814-.308.242-.132.462-.308.638-.528.154-.22.264-.484.308-.77.022-.264 0-.484-.066-.66a1.18 1.18 0 00-.352-.462 2.778 2.778 0 00-.572-.308c-.242-.066-.484-.154-.748-.22l-1.364-.33a5.799 5.799 0 01-.682-.22 2.873 2.873 0 01-.792-.462 2.152 2.152 0 01-.638-.814c-.154-.33-.198-.726-.132-1.21.066-.528.242-.99.506-1.386.264-.396.594-.726.99-.968.374-.242.814-.44 1.298-.572.462-.11.946-.176 1.43-.176.726 0 1.364.132 1.958.418.572.286.99.748 1.232 1.43l-1.43.858zm5.632 6.798c-.044.308-.198.572-.44.814a1.335 1.335 0 01-.924.374c-.352 0-.616-.132-.792-.374a.992.992 0 01-.22-.814c.044-.308.198-.594.44-.836s.55-.352.902-.352.616.11.814.352c.198.242.264.528.22.836zM343.766 24.537h6.6l-.18 1.32h-8.04l2-14.16h1.44l-1.82 12.84zm10 0h7.58l-.18 1.32h-9.02l2-14.16h8.78l-.2 1.32h-7.34l-.68 4.82h6.86l-.18 1.32h-6.86l-.76 5.38zm11.66 0h2.8c1.08 0 2.04-.16 2.88-.5.84-.32 1.56-.76 2.16-1.3a6.38 6.38 0 001.44-1.84c.34-.68.58-1.38.68-2.12.1-.74.06-1.44-.08-2.14-.16-.68-.46-1.3-.92-1.84s-1.06-.96-1.8-1.3c-.74-.32-1.66-.48-2.74-.48h-2.8l-1.62 11.52zm.38-12.84h4.7c.88 0 1.74.14 2.6.44.84.3 1.58.74 2.2 1.32.62.6 1.1 1.34 1.42 2.22.3.9.38 1.92.22 3.1-.16 1.18-.52 2.22-1.1 3.1-.58.88-1.26 1.62-2.04 2.2a8.35 8.35 0 01-2.58 1.34c-.94.3-1.84.44-2.72.44h-4.7l2-14.16z" fill="#595959" fill-rule="nonzero"/><path d="M117.658 14.766l7.843 2.571-6.763 4.732-1.08-7.303z" fill="#595959"/><path d="M91.922 64.941c.038-20.932 8.696-42.113 27.737-46.74" fill="none" stroke="#595959" stroke-width="1.7" stroke-linecap="square" stroke-linejoin="round"/><path d="M313.31 59.079l-5.017 6.554-2.234-7.946 7.25 1.392z" fill="#595959"/><path d="M336.384 18.294c-15.807-.509-23.125 22.701-26.978 41.539" fill="none" stroke="#595959" stroke-width="1.7" stroke-linecap="square" stroke-linejoin="round"/><path d="M317.772 169.047l-.38 1.812-3.122 14.734h1.238c.12 0 .358.046.43-.072.072-.118.094-.31.12-.454.07-.308 3.362-15.806 3.384-16.02h-1.67m11.676 14.312c0 3.162-1.566 4.676-4.994 4.676h-2.1v-9.314h2.1c3.428.032 4.994 1.394 4.994 4.638zm1.224 0c0-4.15-2.114-5.8-6.436-5.8h-3.144v11.634h3.144c4.322 0 6.436-1.68 6.436-5.834m13.62-9.617c-1.55.17-2.982 1.122-3.456 2.672-.144.454-.242.954-.192 1.432.022.166.07.428.264.5.356.094.402-.478.402-.788.168-1.452 1.668-2.312 2.838-2.456 1.216-.144 2.338.334 3.362.954 1.572.956 3.1 2.312 5.032 2.312.258 0 .546-.022.808-.072 1.478-.284 2.694-1.356 3.05-2.812.122-.404.192-.882.122-1.288-.024-.14-.072-.356-.24-.428-.356-.098-.404.524-.404.81-.05.214-.096.43-.19.622-.452 1.024-1.6 1.69-2.696 1.812-2.216.212-3.932-1.504-5.744-2.506-.882-.476-1.932-.858-2.956-.764zm0 5.582c-1.55.166-2.982 1.118-3.456 2.668-.144.454-.242.954-.192 1.432.022.166.07.428.264.5.356.094.402-.478.402-.788.168-1.452 1.668-2.312 2.838-2.456 1.216-.14 2.338.334 3.362.956 1.572.954 3.1 2.314 5.032 2.314.258 0 .546-.026.808-.072 1.478-.288 2.694-1.36 3.05-2.816.122-.404.192-.856.122-1.262-.024-.166-.072-.382-.24-.454-.356-.094-.404.524-.404.812-.168 1.428-1.74 2.312-2.862 2.432-2.24.238-3.98-1.504-5.794-2.504-.88-.502-1.906-.858-2.93-.762m22.172-4.674c.308-1.408.928-2.98 2.336-3.6.548-.214 1.144-.264 1.716-.214 1.17.094 2.338.594 3.05 1.572.504.716.694 1.622.622 2.504-.31 2.574-2.838 4.388-4.482 5.794l-3.29 3.028-.406.38c-.216.216-.238.216-.238.644v.834h10.014v-1.334h-8.632c.762-.74 3.934-3.528 4.362-3.862 1.384-1.122 2.956-2.266 3.792-3.91.956-1.908.452-4.294-1.166-5.674-1.864-1.622-5.15-1.766-6.988-.048-.618.62-1.096 1.406-1.406 2.288-.048.144-.166.334-.144.5.024.144.168.262.24.36.192.238.382.524.62.738m14.234-4.364c-1.62 1.122-2.216 3.194-2.406 5.054-.048.43-.098.858-.098 1.286 0 .432-.022.886-.022 1.314 0 2.74.404 5.268 1.788 6.7 1.216 1.308 3.338 1.762 5.032.978 1.262-.55 2.05-1.622 2.524-2.91.622-1.694.67-3.506.67-5.268 0-2.55-.428-5.006-1.67-6.366-1.452-1.67-3.908-2.004-5.818-.788zm4.746 1.406c.356.382.572.86.764 1.36.474 1.36.452 2.862.452 4.29 0 2.1 0 4.722-1.002 6.128-.526.764-1.36 1.264-2.266 1.334-1.048.072-2.072-.452-2.67-1.286-.978-1.406-1.024-3.792-1.024-5.914 0-2.024 0-4.242.978-5.602 1.024-1.5 3.432-1.74 4.768-.31m11.498 5.006h-.026v-2.358h-1.452v11.252h1.524v-5.196c0-1.194-.072-2.41.454-3.506.262-.548.668-1.048 1.216-1.334.452-.216.93-.238 1.43-.192.69.048 1.382.238 1.834.814.644.808.478 1.978.478 2.93v6.484h1.526v-5.196c0-1.194-.072-2.41.452-3.506.264-.548.67-1.048 1.216-1.334.454-.216.932-.238 1.432-.192.69.048 1.384.238 1.838.814.64.808.474 1.978.474 2.93v6.484h1.526v-6.318c0-1.454.144-3.076-.738-4.1-.55-.69-1.384-.928-2.24-1-.644-.05-1.314 0-1.91.262-.976.454-1.74 1.31-2.122 2.288-.068-.216-.094-.454-.166-.668-.428-1.144-1.288-1.788-2.718-1.882-.404-.026-.81-.05-1.216.046-.906.166-1.69.738-2.24 1.454-.216.31-.478.668-.572 1.024m16.68 8.895h1.076l.428-.046.19-.36 1.742-4.574c2.478.046 5.17-.098 7.534.046l.19.31c.572 1.55 1.144 3.1 1.788 4.578.524.072 1.144.046 1.74.046-.55-1.55-6.344-16.497-6.344-16.497-.046-.098-.068-.242-.19-.264-.14-.024-.284 0-.428 0h-.81c-.36 0-.502-.05-.596.336a13327.4 13327.4 0 00-6.32 16.425zm7.248-15.019c1.028 2.979 2.218 5.84 3.29 8.773h-6.602l3.312-8.773" stroke="#e61a1a" stroke-width=".48" stroke-linecap="butt" stroke-linejoin="round" stroke-miterlimit="2" fill="#e61a1a" fill-rule="nonzero"/><path d="M362.091 259.533c-.05.334-1.528 7.106-1.932 9.18-.19.882-.452 1.764-.524 2.644-.12 2.004.762 3.532 2.05 4.366 2.502 1.618 5.886.5 7.842-1.478.764-.788 1.386-1.718 1.766-2.744.332-.928.476-1.932.692-2.91l1.524-7.222.238-1.12c.05-.238.122-.476.144-.716h-1.526c-.046.334-.478 2.312-.618 2.956l-1.22 5.7c-.38 1.788-.592 3.694-1.786 5.15-1.072 1.288-2.788 2.024-4.456 1.86-1.17-.12-2.244-.67-2.72-1.766-.5-1.098-.262-2.314 0-3.456.072-.382.144-.764.238-1.144l1.266-6.032c.118-.478.666-2.888.69-3.268h-1.668m17.5 11.807c0 1.48-.976 2.2-2.554 2.2h-1.512v-4.333h1.512c1.528.032 2.554.604 2.554 2.134zm2.874 8.339c-.822-1.984-2.572-4.488-4.168-5.296 1.934-.504 2.54-1.662 2.54-3.042 0-2.322-1.43-3.296-3.784-3.296h-2.79v11.634h1.262v-4.96l.906.016c1.448 0 4.472 3.734 4.776 4.944h1.258m9.732-12.659a.464.464 0 00.046.906c.144.048.31.022.454.022h14.328c.19 0 .382 0 .524-.14.286-.262.094-.762-.286-.812-.336-.022-.666 0-1 0H392.6c-.118 0-.284-.022-.402.024zm-.288 4.84c-.166.264 0 .62.288.692.14.046.284.024.428.024h14.424c.192 0 .358 0 .5-.144.31-.286.094-.762-.308-.812-.334-.022-.67 0-1.004 0h-13.612c-.31 0-.546-.022-.716.24m29.634-12.327l-3.502 16.546c.546 0 1.144.024 1.618-.048l.072-.168 1.576-7.462h3.336c.406 0 .86-.022 1.17.072.308.55.546 1.146.808 1.74.932 1.91 1.716 3.96 2.72 5.818.5.072 1.072.048 1.644.048l-3.648-7.844c.526-.072 1.026-.238 1.526-.428 1.194-.432 2.362-1.144 3.172-2.146.786-.954 1.144-2.242.69-3.41a4.675 4.675 0 00-.428-.762c-1.004-1.242-2.528-1.836-4.506-1.956-.5-.022-.978 0-1.478 0h-4.77zm.026 7.678l1.36-6.414h3.574c1.144 0 2.36.022 3.41.526.716.356 1.19.834 1.406 1.74.262 1.5-.906 2.834-2.17 3.456-.978.454-2.028.62-3.1.692-.428.024-.834 0-1.262 0h-3.218m22.412.834h-1.462l-3.87 8.61-3.95-8.61h-1.428l5.378 11.868 5.332-11.868m8.916 1.143c-.382.742.046 1.67.882 1.838.428.072.74-.05 1.002-.24.594-.428.666-1.31.166-1.86-.166-.19-.406-.31-.668-.38-.644-.094-1.166.19-1.382.642m15.646-9.655l-.38 1.812-3.122 14.734h1.238c.12 0 .358.046.43-.072.072-.118.094-.31.12-.454.07-.308 3.362-15.806 3.384-16.02h-1.67m11.477 14.312c0 3.162-1.567 4.676-4.995 4.676h-2.1v-9.314h2.1c3.428.032 4.994 1.394 4.994 4.638zm1.223 0c0-4.15-2.114-5.8-6.436-5.8h-3.144v11.634h3.144c4.322 0 6.436-1.68 6.436-5.834M358.085 107.997c-.05.334-1.528 7.106-1.932 9.18-.19.882-.452 1.764-.524 2.644-.12 2.004.762 3.532 2.05 4.366 2.502 1.618 5.886.5 7.842-1.478.764-.788 1.386-1.718 1.766-2.744.332-.928.476-1.932.692-2.91l1.524-7.222.238-1.12c.05-.238.122-.476.144-.716h-1.526c-.046.334-.478 2.312-.618 2.956l-1.22 5.7c-.38 1.788-.592 3.694-1.786 5.15-1.072 1.288-2.788 2.024-4.456 1.86-1.17-.12-2.244-.67-2.72-1.766-.5-1.098-.262-2.314 0-3.456.072-.382.144-.764.238-1.144l1.266-6.032c.118-.478.666-2.888.69-3.268h-1.668m20.328 14.313c0 3.161-1.566 4.675-4.994 4.675h-2.1v-9.314h2.1c3.428.032 4.994 1.394 4.994 4.638zm1.224 0c0-4.15-2.116-5.8-6.436-5.8h-3.144v11.633h3.144c4.32 0 6.436-1.68 6.436-5.834m13.62-9.616c-1.55.17-2.982 1.122-3.456 2.672-.144.454-.242.954-.192 1.432.022.166.07.428.264.5.356.094.402-.478.402-.788.168-1.452 1.668-2.312 2.838-2.456 1.216-.144 2.338.334 3.362.954 1.572.956 3.1 2.312 5.032 2.312.258 0 .546-.022.808-.072 1.478-.284 2.694-1.356 3.05-2.812.122-.404.192-.882.122-1.288-.024-.14-.072-.356-.24-.428-.356-.098-.404.524-.404.81-.05.214-.096.43-.19.622-.452 1.024-1.6 1.69-2.696 1.812-2.216.212-3.932-1.504-5.744-2.506-.882-.476-1.932-.858-2.956-.764zm0 5.582c-1.55.166-2.982 1.118-3.456 2.668-.144.454-.242.954-.192 1.432.022.166.07.428.264.5.356.094.402-.478.402-.788.168-1.452 1.668-2.312 2.838-2.456 1.216-.14 2.338.334 3.362.956 1.572.954 3.1 2.314 5.032 2.314.258 0 .546-.026.808-.072 1.478-.288 2.694-1.36 3.05-2.816.122-.404.192-.856.122-1.262-.024-.166-.072-.382-.24-.454-.356-.094-.404.524-.404.812-.168 1.428-1.74 2.312-2.862 2.432-2.24.238-3.98-1.504-5.794-2.504-.88-.502-1.906-.858-2.93-.762m22.173-4.675c.307-1.407.927-2.98 2.335-3.6.548-.213 1.144-.263 1.716-.213 1.17.094 2.338.594 3.05 1.572.504.716.694 1.622.622 2.504-.31 2.574-2.838 4.388-4.48 5.794l-3.292 3.028-.406.38c-.216.216-.238.216-.238.644v.834h10.014v-1.334h-8.632c.762-.74 3.934-3.528 4.362-3.862 1.384-1.122 2.956-2.266 3.792-3.91.956-1.908.452-4.294-1.166-5.674-1.864-1.622-5.15-1.766-6.988-.048-.618.62-1.096 1.406-1.406 2.288-.048.144-.166.334-.144.5.024.144.168.262.24.36.192.238.382.524.62.738m33.294-5.554h-2.076l-5.482 12.206-5.602-12.206h-2.028l7.63 16.83 7.558-16.83" fill-rule="nonzero"/></svg>