<svg xmlns="http://www.w3.org/2000/svg" width="174" height="210" viewBox="0 0 174 210"><path d="M21.5 21.5h132v168h-132v-168z" fill="#FFF"/><path d="M21.5 21.5h132v168h-132v-168z" stroke="#C40000" stroke-width="10" fill="none"/><path d="M25.947 155.542h122.078v28.499H25.947v-28.499z" fill="#151515"/><text transform="translate(87.11 173.275)"><tspan x="-46.312" y="1.745" font-family="AmericanTypewriter" font-size="14" fill="#FFF">Rule The Bots</tspan></text><path d="M81.72 135.504s-.801-.229-1.978-.745c-1.236.768-2.059 2.234-2.059 3.906 0 2.473 1.812 4.478 4.037 4.478 2.236 0 4.037-2.005 4.037-4.478 0-1.191-.424-2.279-1.118-3.081l-2.919-.08zm35.027-82.47h-13.171l10.676-13.136c.4.149.835.218 1.283.218 2.307 0 4.178-2.062 4.178-4.616 0-2.531-1.871-4.592-4.178-4.592s-4.179 2.061-4.179 4.615c0 1.02.295 1.959.812 2.726L100.14 53.034H75.799c1.154-1.134 1.884-2.783 1.884-4.615 0-3.424-2.531-6.196-5.662-6.196s-5.661 2.772-5.661 6.196c0 1.832.73 3.481 1.883 4.615H57.474c-7.439 0-13.477 5.898-13.477 13.171l4.037 35.044c0 7.273 6.038 13.171 13.477 13.171h51.199c7.438 0 13.476-5.898 13.476-13.171l4.037-35.044c0-7.273-6.026-13.171-13.476-13.171zM67.443 91.767c-2.084 0-3.778-1.65-3.778-3.688 0-2.039 1.694-3.688 3.778-3.688 2.083 0 3.766 1.649 3.766 3.688 0 2.038-1.683 3.688-3.766 3.688zm37.452 1.053c-2.237 0-4.037-1.534-4.037-3.424s1.812-3.424 4.037-3.424c2.236 0 4.037 1.534 4.037 3.424s-1.801 3.424-4.037 3.424zM66.525 116c-.448.779-.695 1.615-.695 2.508 0 2.589 2.166 4.833 4.897 5.956 0 .022.011.045.011.068a12.13 12.13 0 01-.059-1.145c-.223-1.454-.647-4.421 1.036-7.375h-5.19zm10.757 17.5zm26.294-17.5c.495 1.626 1.107 4.318.836 7.273 2.354-.94 4.52-3.539 4.52-6.609 0-.217-.012-.446-.036-.664h-5.32zm-7.885 18.725c-3.72.779-3.72 1.042-3.72 1.042l-1.036-.023a4.497 4.497 0 00-.847 2.657c0 2.325 1.695 4.215 3.778 4.215s3.778-1.89 3.778-4.215c-.023-1.58-.8-2.954-1.953-3.676zM73.622 116a11.25 11.25 0 00-1.601 5.795c0 6.551 5.614 11.854 12.535 11.854h5.932c6.921 0 12.535-5.314 12.535-11.854 0-2.107-.588-4.088-1.601-5.795h-27.8z" fill="#151515"/></svg>