<svg xmlns="http://www.w3.org/2000/svg" width="86.226" height="112.235" viewBox="0 0 86.226 112.235"><path d="M37.723 104.596s-.8-.229-1.977-.744c-1.236.767-2.06 2.233-2.06 3.905 0 2.474 1.812 4.478 4.037 4.478 2.236 0 4.037-2.004 4.037-4.478 0-1.191-.424-2.279-1.118-3.081l-2.919-.08zm35.027-82.47H59.58L70.255 8.99c.4.149.836.218 1.283.218 2.307 0 4.178-2.062 4.178-4.615C75.716 2.062 73.845 0 71.538 0S67.36 2.062 67.36 4.615c0 1.02.294 1.959.812 2.726L56.143 22.126h-24.34c1.153-1.133 1.883-2.783 1.883-4.615 0-3.424-2.531-6.196-5.662-6.196-3.13 0-5.661 2.772-5.661 6.196 0 1.832.73 3.482 1.883 4.615H13.477C6.038 22.126 0 28.024 0 35.297l4.037 35.045c0 7.272 6.038 13.17 13.477 13.17h51.199c7.439 0 13.477-5.898 13.477-13.17l4.037-35.045c0-7.273-6.026-13.171-13.477-13.171zM23.446 60.859c-2.083 0-3.778-1.649-3.778-3.688 0-2.038 1.695-3.688 3.778-3.688s3.766 1.65 3.766 3.688c0 2.039-1.683 3.688-3.766 3.688zm37.452 1.053c-2.236 0-4.037-1.534-4.037-3.424s1.812-3.424 4.037-3.424c2.236 0 4.037 1.534 4.037 3.424s-1.801 3.424-4.037 3.424zm-38.37 23.18c-.447.779-.695 1.615-.695 2.508 0 2.589 2.166 4.833 4.897 5.956 0 .023.012.046.012.069a11.825 11.825 0 0 1-.059-1.146c-.224-1.454-.648-4.42 1.035-7.375h-5.19zm10.758 17.5zm26.294-17.5c.494 1.627 1.106 4.318.835 7.273 2.354-.939 4.52-3.539 4.52-6.608a6.44 6.44 0 0 0-.035-.665h-5.32zm-7.886 18.725c-3.72.779-3.72 1.042-3.72 1.042l-1.035-.022a4.485 4.485 0 0 0-.848 2.656c0 2.325 1.695 4.215 3.778 4.215 2.084 0 3.779-1.89 3.779-4.215-.024-1.58-.801-2.954-1.954-3.676zM29.625 85.092a11.25 11.25 0 0 0-1.601 5.795c0 6.551 5.615 11.854 12.535 11.854h5.932c6.921 0 12.535-5.314 12.535-11.854 0-2.107-.588-4.088-1.6-5.795H29.625z" fill="#C40000"/></svg>