<svg viewBox="0 0 2134 2134" xmlns="http://www.w3.org/2000/svg" fill-rule="evenodd" clip-rule="evenodd" stroke-linejoin="round" stroke-miterlimit="2"><g fill-rule="nonzero"><path d="M1508.05 2059.77H625.291c0-81.25 65.875-147.125 147.125-147.125h588.505c81.254-.004 147.129 65.875 147.129 147.125" fill="#d0dadc"/><path d="M1324.14 1912.64H809.198l73.562-294.25h367.817l73.563 294.25z" fill="#b0b6bb"/><path d="M2133.33 1324.14H0V202.3C0 131.2 57.638 73.563 128.738 73.563h1875.86c71.1 0 128.737 57.637 128.737 128.737l.001 1121.84h-.005z" fill="#38454f"/><path d="M2004.6 1618.39H128.74c-71.099 0-128.737-57.638-128.737-128.738v-165.516h2133.33v165.516c0 71.1-57.637 128.738-128.737 128.738" fill="#d0dadc"/><path d="M1802.3 1177.01h-551.725c-20.342 0-36.783-16.48-36.783-36.784s16.441-36.783 36.783-36.783H1802.3c20.342 0 36.783 16.479 36.783 36.783-.004 20.304-16.445 36.784-36.783 36.784M698.85 956.321H331.033c-20.341 0-36.783-16.479-36.783-36.784 0-20.304 16.442-36.783 36.783-36.783H698.85c20.342 0 36.783 16.479 36.783 36.784 0 20.304-16.441 36.783-36.783 36.783m919.54 0h-551.725c-20.342 0-36.784-16.479-36.784-36.784 0-20.304 16.442-36.783 36.784-36.783h551.725c20.341 0 36.783 16.479 36.783 36.784-.004 20.304-16.446 36.783-36.783 36.783m-735.632 0c-4.783 0-9.562-1.104-13.975-2.942-4.783-1.837-8.458-4.412-12.137-7.725-6.659-6.987-10.667-16.183-10.667-26.116 0-9.934 4.008-19.125 10.667-26.117 3.679-3.309 7.358-5.884 12.137-7.725 13.205-5.517 29.792-2.575 40.092 7.725 6.621 6.987 10.667 16.55 10.667 26.116 0 9.563-4.046 19.125-10.667 26.117-6.992 6.621-16.554 10.667-26.117 10.667m183.912 220.689H514.945c-20.342 0-36.784-16.48-36.784-36.784s16.442-36.783 36.784-36.783h551.725c20.341 0 36.783 16.479 36.783 36.783 0 20.304-16.442 36.784-36.783 36.784m-735.637 0c-4.783 0-9.562-1.105-13.975-2.942-4.412-1.838-8.458-4.413-12.137-7.725-6.659-6.988-10.667-16.183-10.667-26.117 0-4.783 1.104-9.562 2.942-13.975 1.837-4.783 4.412-8.458 7.725-12.137 8.829-8.459 21.333-12.138 33.066-9.929 2.613.366 4.784 1.104 7.025 2.208 2.171.737 4.413 1.837 6.255 3.308 2.171 1.471 4.046 2.942 5.883 4.413 3.308 3.679 5.883 7.358 7.725 12.137 1.838 4.413 2.942 9.196 2.942 13.975 0 9.929-4.046 19.125-10.667 26.117-1.838 1.471-3.717 2.942-5.883 4.412-1.838 1.471-4.084 2.575-6.255 3.309-2.241 1.104-4.412 1.837-7.025 2.208-2.17.367-4.745.737-6.954.737M1802.3 956.321c-2.242 0-4.783-.367-6.987-.738-2.575-.366-4.784-1.104-6.988-2.208-2.208-.737-4.412-1.837-6.658-3.308-1.804-1.471-3.642-2.942-5.479-4.413-6.659-6.987-10.667-16.55-10.667-26.116 0-9.563 4.008-19.125 10.667-26.117l5.479-4.413c2.245-1.471 4.45-2.575 6.658-3.308 2.208-1.104 4.413-1.838 6.988-2.208 11.77-2.575 24.608 1.47 33.104 9.929 1.471 1.837 2.941 3.679 4.412 5.883 1.471 1.838 2.538 4.046 3.309 6.254 1.104 2.209 1.837 4.413 2.17 6.988.405 2.208.771 4.783.771 6.987 0 2.204-.366 4.784-.771 7.359-.329 2.208-1.066 4.412-2.17 6.62a29.234 29.234 0 01-3.309 6.621l-4.412 5.517c-1.838 1.471-3.717 2.942-5.517 4.412-2.208 1.471-4.45 2.575-6.621 3.309-2.241 1.104-4.412 1.837-7.025 2.208-2.175.375-4.75.742-6.954.742m0-441.379h-551.725c-20.342 0-36.783-16.479-36.783-36.784 0-20.304 16.441-36.783 36.783-36.783H1802.3c20.342 0 36.783 16.479 36.783 36.783 0 20.305-16.445 36.784-36.783 36.784m0 220.691h-367.817c-20.341 0-36.783-16.479-36.783-36.783 0-20.304 16.442-36.783 36.783-36.783H1802.3c20.342 0 36.783 16.479 36.783 36.783 0 20.304-16.445 36.783-36.783 36.783m-662.07 0h-73.562c-20.342 0-36.784-16.479-36.784-36.783 0-20.304 16.442-36.783 36.784-36.783h73.562c20.342 0 36.783 16.479 36.783 36.783 0 20.304-16.441 36.783-36.783 36.783m478.16-441.379h-551.725c-20.342 0-36.784-16.479-36.784-36.783 0-20.304 16.442-36.784 36.784-36.784h551.725c20.341 0 36.783 16.48 36.783 36.784s-16.446 36.783-36.783 36.783m183.91 0c-2.242 0-4.783-.366-6.987-.737-2.575-.367-4.784-1.105-6.988-2.209-2.208-.737-4.412-1.837-6.658-3.308-1.804-1.471-3.642-2.942-5.479-4.413-6.659-6.987-10.667-16.549-10.667-26.116 0-9.563 4.008-19.125 10.667-26.117l5.479-4.412c2.245-1.471 4.45-2.575 6.658-3.309 2.208-1.104 4.413-1.837 6.988-2.208 11.77-2.575 24.608 1.471 33.104 9.929 1.471 1.838 2.941 3.679 4.412 5.883 1.471 1.838 2.538 4.046 3.309 6.255 1.104 2.208 1.837 4.412 2.17 6.987.405 2.208.771 4.784.771 6.988 0 2.204-.366 4.783-.771 7.358-.329 2.208-1.066 4.412-2.17 6.621a29.275 29.275 0 01-3.309 6.621c-1.471 1.837-2.941 3.679-4.412 5.516-1.838 1.471-3.717 2.942-5.517 4.413-2.208 1.471-4.45 2.575-6.621 3.308-2.241 1.104-4.412 1.838-7.025 2.208-2.175.371-4.75.742-6.954.742m-698.85 220.688c-9.563 0-19.163-4.046-26.117-10.667-3.308-3.679-5.883-7.725-7.725-12.137-1.841-4.413-2.941-9.196-2.941-13.976 0-4.783 1.104-9.562 2.941-13.974 1.838-4.413 4.413-8.459 7.725-12.138 8.459-8.458 21.334-12.137 33.067-9.929 2.612.366 4.783 1.104 7.025 2.208 2.171.738 4.412 1.838 6.254 3.308 2.171 1.471 4.046 2.942 5.517 4.413 3.679 3.679 6.254 7.725 8.091 12.137 1.838 4.413 2.942 9.196 2.942 13.975 0 4.784-1.104 9.563-2.942 13.975-1.837 4.413-4.412 8.459-8.091 12.138-1.471 1.471-3.346 2.942-5.517 4.412-1.837 1.471-4.083 2.575-6.254 3.309-2.242 1.104-4.413 1.837-7.025 2.208-2.171.371-4.746.738-6.95.738m183.91 220.691c-9.966 0-19.162-4.046-26.116-10.666-6.659-6.988-10.667-16.55-10.667-26.117 0-9.563 4.008-19.125 10.667-26.117 13.608-13.608 38.621-13.608 52.229 0 6.621 6.988 10.667 16.55 10.667 26.117 0 2.575-.367 4.783-.771 7.358-.329 2.209-1.067 4.413-2.171 6.621a29.27 29.27 0 01-3.308 6.621l-4.413 5.517c-6.992 6.62-16.187 10.666-26.117 10.666" fill="#ea6148"/><path d="M331.033 735.633h514.942V220.692H331.033v514.941z" fill="#45a8e1"/></g></svg>