<svg xmlns="http://www.w3.org/2000/svg" width="136.872" height="182.622" viewBox="0 0 136.872 182.622"><path d="M63.046 104.596s-.801-.229-1.978-.745c-1.236.768-2.059 2.233-2.059 3.905 0 2.474 1.812 4.478 4.037 4.478 2.236 0 4.037-2.004 4.037-4.478 0-1.191-.424-2.279-1.118-3.08l-2.919-.08zm35.027-82.47H84.902L95.578 8.99c.4.149.835.218 1.283.218 2.307 0 4.178-2.062 4.178-4.616 0-2.531-1.871-4.592-4.178-4.592s-4.179 2.061-4.179 4.615c0 1.019.295 1.958.812 2.726L81.466 22.126H57.125c1.154-1.134 1.884-2.783 1.884-4.615 0-3.425-2.531-6.196-5.662-6.196s-5.661 2.771-5.661 6.196c0 1.832.73 3.481 1.883 4.615H38.8c-7.439 0-13.477 5.898-13.477 13.17l4.037 35.045c0 7.272 6.038 13.17 13.477 13.17h51.199c7.438 0 13.476-5.898 13.476-13.17l4.037-35.045c0-7.272-6.026-13.17-13.476-13.17zM48.769 60.858c-2.084 0-3.778-1.649-3.778-3.687 0-2.039 1.694-3.688 3.778-3.688 2.083 0 3.766 1.649 3.766 3.688 0 2.038-1.683 3.687-3.766 3.687zm37.452 1.054c-2.237 0-4.037-1.535-4.037-3.424 0-1.89 1.812-3.425 4.037-3.425 2.236 0 4.037 1.535 4.037 3.425 0 1.889-1.801 3.424-4.037 3.424zm-38.37 23.18c-.448.779-.695 1.615-.695 2.508 0 2.588 2.166 4.833 4.897 5.955 0 .023.011.046.011.069a12.13 12.13 0 0 1-.059-1.145c-.223-1.455-.647-4.421 1.036-7.376h-5.19zm10.757 17.499zm26.294-17.499c.495 1.626 1.107 4.318.836 7.272 2.354-.939 4.52-3.539 4.52-6.608 0-.217-.012-.446-.036-.664h-5.32zm-7.885 18.725c-3.72.779-3.72 1.042-3.72 1.042l-1.035-.023a4.488 4.488 0 0 0-.848 2.657c0 2.325 1.695 4.215 3.778 4.215s3.778-1.89 3.778-4.215c-.023-1.58-.8-2.955-1.953-3.676zM54.948 85.092a11.25 11.25 0 0 0-1.601 5.795c0 6.551 5.614 11.853 12.535 11.853h5.932c6.921 0 12.535-5.314 12.535-11.853 0-2.107-.588-4.089-1.6-5.795H54.948z" fill="#900"/><path d="M0 127.758h136.872v54.837H0v-54.837z" fill="#151515"/><text transform="translate(67.437 157.622)"><tspan x="-44.478" y="-6" font-family="AmericanTypewriter-Semibold" font-size="21" fill="#FFF">Rule The</tspan> <tspan x="-22.365" y="18" font-family="AmericanTypewriter-Semibold" font-size="21" fill="#FFF">Bots</tspan></text></svg>