<svg xmlns="http://www.w3.org/2000/svg" width="390.969" height="188.898" viewBox="0 0 390.969 188.898"><defs><clipPath id="a"><path d="M119.451 407.201h76.912v83.876h-76.912zm70.912 8h-64.912v67.876h64.912v-67.876z"/></clipPath><filter id="b"><feGaussianBlur in="SourceAlpha" stdDeviation="2.5"/><feOffset dy="2" result="offsetblur"/><feFlood flood-color="#000"/><feComposite in2="offsetblur" operator="in"/></filter><clipPath id="c"><path d="M54.6 361.816h13.5v43.224H54.6zm7.5 8h-1.5v27.224h1.5v-27.224z"/></clipPath><filter id="d"><feGaussianBlur in="SourceAlpha" stdDeviation="2.5"/><feOffset dy="2" result="offsetblur"/><feFlood flood-color="#000"/><feComposite in2="offsetblur" operator="in"/></filter><clipPath id="e"><path d="M41.66 370.573h25.922v25.278H41.66zm19.922 8H47.66v9.278h13.922v-9.278z"/></clipPath><filter id="f"><feGaussianBlur in="SourceAlpha" stdDeviation="2.5"/><feOffset dy="2" result="offsetblur"/><feFlood flood-color="#000"/><feComposite in2="offsetblur" operator="in"/></filter><clipPath id="g"><path d="M339.041 407.776h76.911v83.876h-76.911zm70.911 8h-64.911v67.876h64.911v-67.876z"/></clipPath><filter id="h"><feGaussianBlur in="SourceAlpha" stdDeviation="2.5"/><feOffset dy="2" result="offsetblur"/><feFlood flood-color="#000"/><feComposite in2="offsetblur" operator="in"/></filter><clipPath id="i"><path d="M269.663 455.703h25.922v25.278h-25.922zm19.922 8h-13.922v9.278h13.922v-9.278z"/></clipPath><filter id="j"><feGaussianBlur in="SourceAlpha" stdDeviation="2.5"/><feOffset dy="2" result="offsetblur"/><feFlood flood-color="#000"/><feComposite in2="offsetblur" operator="in"/></filter></defs><path d="M190.363 415.201v67.876h-64.912v-67.876h64.912z" clip-path="url(#a)" filter="url(#b)" fill="rgba(0,0,0,0.75)" transform="translate(-41.91 -334.789)"/><path d="M83.541 80.412h64.912v67.876H83.541V80.412z" fill="#FFF"/><text transform="translate(118.186 99.176)"><tspan x="-14.826" y="3.5" font-family="AmericanTypewriter" font-size="12">Pin 3</tspan></text><g fill="#00979C"><path d="M115.395 140.358l-1.589 5.188h1.251l.286-.967h1.551l.279.967h1.36l-1.589-5.188h-1.549zm.263 3.178l.472-1.614.467 1.614h-.939zm5.863-.357a.766.766 0 0 0-.057-.057 1.322 1.322 0 0 0 .509-.323c.113-.118.202-.258.26-.411a1.48 1.48 0 0 0 .091-.532c0-.271-.049-.506-.145-.698a1.239 1.239 0 0 0-.419-.475 1.745 1.745 0 0 0-.634-.252 3.982 3.982 0 0 0-.789-.073h-1.622v5.188h1.244v-2.027h.037c.136 0 .25.03.347.092.096.061.17.151.226.276l.752 1.659h1.448l-.913-1.851a2.182 2.182 0 0 0-.335-.516zm-.541-.995a.475.475 0 0 1-.152.172.783.783 0 0 1-.26.112 1.517 1.517 0 0 1-.366.041h-.243v-1.092h.274c.284 0 .496.045.629.133.115.077.171.206.171.396 0 .092-.017.17-.053.238zm5.435-1.21a1.928 1.928 0 0 0-.786-.468 3.475 3.475 0 0 0-1.062-.148h-1.646v5.188h1.433c.462 0 .866-.063 1.202-.187.34-.126.624-.309.844-.543a2.16 2.16 0 0 0 .486-.848c.101-.323.152-.685.152-1.078 0-.428-.051-.803-.152-1.116a1.985 1.985 0 0 0-.471-.8zm-1.018 3.153c-.216.24-.529.357-.958.357h-.273v-3.063h.339c.24 0 .441.033.598.1a.84.84 0 0 1 .361.28c.092.126.158.285.198.471.041.197.063.425.063.678 0 .54-.111.936-.328 1.177zm4.639-.469c0 .179-.017.332-.05.454a.706.706 0 0 1-.133.275.472.472 0 0 1-.209.144c-.092.033-.21.05-.351.05a.982.982 0 0 1-.364-.057.543.543 0 0 1-.22-.158.628.628 0 0 1-.125-.265 1.748 1.748 0 0 1-.041-.405v-3.338h-1.244v3.394c0 .28.034.538.103.765.071.236.188.44.348.606.16.166.37.294.624.381.246.085.544.128.884.128.305 0 .584-.043.831-.128.251-.086.469-.217.645-.389.177-.172.314-.389.407-.644.092-.251.139-.544.139-.873v-3.24h-1.244v3.3m1.88-2.256h1.117v3.093h-1.117v1.051h3.493v-1.051h-1.117v-3.093h1.117v-1.044h-3.493v1.044m6.955 1.912l-1.39-2.956h-1.409v5.188h1.159v-3.012l1.398 3.012h1.401v-5.188h-1.159v2.956m5.187-2.342c-.363-.462-.907-.696-1.618-.696-.304 0-.594.054-.862.16a1.9 1.9 0 0 0-.713.499 2.36 2.36 0 0 0-.472.845 3.81 3.81 0 0 0-.169 1.197c0 .846.181 1.504.536 1.957.363.463.907.698 1.618.698.304 0 .594-.054.862-.16.272-.108.512-.276.713-.498.2-.222.359-.506.472-.846a3.81 3.81 0 0 0 .169-1.197c0-.848-.181-1.508-.536-1.959zm-.818 2.696a1.51 1.51 0 0 1-.166.479.705.705 0 0 1-.265.271.808.808 0 0 1-.4.092c-.311 0-.528-.116-.663-.354-.148-.261-.223-.673-.223-1.225 0-.258.019-.491.056-.69.035-.191.091-.353.166-.48a.724.724 0 0 1 .267-.271.79.79 0 0 1 .397-.092c.313 0 .531.116.664.353.148.262.222.674.222 1.226 0 .259-.019.492-.055.691zm-.444-18.404h.221v.581h.157v-.581h.222v-.144h-.6v.144m1.145-.144l-.151.494-.156-.494h-.205v.725h.148v-.463l.146.463h.134l.139-.451v.451h.146v-.725h-.201m-7.205 14.019c-1.972 0-3.658-.665-5.143-2.025-.916-.84-1.672-1.869-2.368-2.939-.695 1.07-1.451 2.099-2.368 2.939-1.595 1.461-3.423 2.12-5.588 2.014-4.13-.018-7.484-3.277-7.484-7.279 0-4.014 3.373-7.28 7.518-7.28 2.268 0 4.178.751 5.838 2.295.797.741 1.47 1.602 2.084 2.502.614-.9 1.287-1.761 2.085-2.502 1.659-1.544 3.569-2.295 5.838-2.295 4.145 0 7.517 3.266 7.517 7.28 0 4.002-3.353 7.261-7.483 7.279a9.449 9.449 0 0 1-.446.011zm-6.001-7.388c.823 1.335 1.622 2.577 2.594 3.469 1.098 1.006 2.255 1.42 3.751 1.34l.068-.001c2.728 0 4.948-2.113 4.948-4.71 0-2.598-2.22-4.711-4.948-4.711-1.611 0-2.91.511-4.088 1.607-.88.819-1.607 1.867-2.325 3.006zm-9.432-4.613c-2.729 0-4.948 2.113-4.948 4.711 0 2.597 2.219 4.71 4.948 4.71l.067.001c1.496.08 2.653-.334 3.751-1.34.973-.892 1.771-2.134 2.594-3.469-.718-1.139-1.444-2.187-2.324-3.006-1.178-1.096-2.477-1.607-4.088-1.607z"/><path d="M137.488 130.915v-1.393h-1.451v1.393h-1.393v1.443h1.393v1.403h1.451v-1.403h1.393v-1.443h-1.393m-18.271-.018h4.579v1.489h-4.579v-1.489z"/></g><path d="M148.953 80.912H84.041m0 0v67.877m0 0h64.912M28.282 12.5v85.977M26.16 7.378a3.001 3.001 0 0 1 4.243 4.243 3.001 3.001 0 0 1-4.243-4.243" stroke="#000" fill="none"/><path d="M25.504 98.564h71.715" fill="#FFF"/><g stroke="#000"><path d="M31.504 98.564h59.715" fill="none"/><path d="M26.382 100.686a3.001 3.001 0 0 1 4.243-4.243 3.001 3.001 0 0 1-4.243 4.243m64.837-2.122l-2 3 8-3-8-3z"/></g><text transform="translate(62.423 12.302)"><tspan x="-24.678" y="2.681" font-family="AmericanTypewriter" font-size="12">Vcc = 5V</tspan></text><path d="M23.081 37.984h11.387v21.174H23.081V37.984z" fill="#FFF"/><path d="M28.757 41.077c-1.43 0-2.588-.968-2.588-2.161s1.158-2.161 2.588-2.161c1.429 0 2.588.968 2.588 2.161s-1.159 2.161-2.588 2.161z" fill="#FFF"/><path d="M28.757 41.077c-1.43 0-2.588-.968-2.588-2.161s1.158-2.161 2.588-2.161c1.429 0 2.588.968 2.588 2.161s-1.159 2.161-2.588 2.161z" stroke="#000" fill="none"/><path d="M29.204 61.76c-1.43 0-2.588-.967-2.588-2.16 0-1.194 1.158-2.161 2.588-2.161 1.429 0 2.588.967 2.588 2.161 0 1.193-1.159 2.16-2.588 2.16z" fill="#FFF"/><path d="M29.204 61.76c-1.43 0-2.588-.967-2.588-2.16 0-1.194 1.158-2.161 2.588-2.161 1.429 0 2.588.967 2.588 2.161 0 1.193-1.159 2.16-2.588 2.16z" stroke="#000" fill="none"/><path d="M62.1 369.816v27.224h-1.5v-27.224h1.5z" clip-path="url(#c)" filter="url(#d)" fill="rgba(0,0,0,0.75)" transform="translate(-41.91 -334.789)"/><path d="M19.44 35.027v27.224" stroke="#000" stroke-width="1.5" fill="none"/><path d="M61.582 378.573v9.278H47.66v-9.278h13.922z" clip-path="url(#e)" filter="url(#f)" fill="rgba(0,0,0,0.75)" transform="translate(-41.91 -334.789)"/><path d="M6.5 44.534h12.422v7.778H6.5v-7.778z" fill="#FFF"/><path d="M6.5 44.534h12.422v7.778H6.5v-7.778z" stroke="#000" stroke-width="1.5" fill="none"/><text transform="translate(96.574 52.652)"><tspan x="-56.652" y="-13.004" font-family="AvenirNext-Medium" font-size="11" fill="#C40000">Bei offenem Taster ist </tspan> <tspan x="-56.652" y="1.996" font-family="AvenirNext-Medium" font-size="11" fill="#C40000">die Eingangspannung</tspan> <tspan x="-56.652" y="16.996" font-family="AvenirNext-Medium" font-size="11" fill="#C40000">undefiniert (floating)!</tspan></text><path d="M409.952 415.776v67.876h-64.911v-67.876h64.911z" clip-path="url(#g)" filter="url(#h)" fill="rgba(0,0,0,0.75)" transform="translate(-41.91 -334.789)"/><path d="M303.131 80.987h64.911v67.877h-64.911V80.987z" fill="#FFF"/><text transform="translate(337.775 99.751)"><tspan x="-14.826" y="3.5" font-family="AmericanTypewriter" font-size="12">Pin 3</tspan></text><g fill="#00979C"><path d="M334.985 140.933l-1.589 5.188h1.25l.287-.967h1.551l.279.967h1.36l-1.589-5.188h-1.549zm.262 3.178l.472-1.614.467 1.614h-.939zm5.864-.357a1.532 1.532 0 0 0-.057-.057 1.31 1.31 0 0 0 .508-.323c.114-.118.202-.258.261-.411a1.48 1.48 0 0 0 .091-.532 1.54 1.54 0 0 0-.146-.698 1.223 1.223 0 0 0-.419-.475 1.733 1.733 0 0 0-.633-.252 3.982 3.982 0 0 0-.789-.073h-1.622v5.188h1.244v-2.027h.037c.136 0 .249.03.347.092.096.061.17.151.226.276l.752 1.659h1.448l-.914-1.851a2.152 2.152 0 0 0-.334-.516zm-.541-.995a.478.478 0 0 1-.153.172.765.765 0 0 1-.26.112 1.511 1.511 0 0 1-.366.041h-.242v-1.092h.273c.285 0 .497.045.629.133.116.077.172.206.172.396 0 .092-.017.17-.053.238zm5.434-1.21a1.917 1.917 0 0 0-.785-.468 3.48 3.48 0 0 0-1.062-.148h-1.646v5.188h1.433c.462 0 .866-.063 1.201-.187a2.18 2.18 0 0 0 .845-.543c.219-.233.383-.519.486-.848a3.61 3.61 0 0 0 .152-1.078c0-.428-.051-.803-.152-1.116a1.986 1.986 0 0 0-.472-.8zm-1.017 3.153c-.216.24-.529.357-.958.357h-.274v-3.063h.34c.24 0 .441.034.598.1.152.065.27.157.36.28.092.127.159.285.199.471.041.197.062.425.062.678 0 .54-.11.936-.327 1.177zm4.639-.469c0 .179-.017.332-.05.454a.705.705 0 0 1-.134.276.467.467 0 0 1-.209.143c-.092.033-.21.05-.35.05a.978.978 0 0 1-.364-.057.536.536 0 0 1-.22-.158.64.64 0 0 1-.126-.265 1.808 1.808 0 0 1-.04-.405v-3.338h-1.245v3.394c0 .281.035.538.103.765.071.236.189.44.349.606.16.166.37.294.623.381.247.085.544.128.885.128.304 0 .584-.043.83-.128.252-.086.469-.217.646-.389.176-.172.313-.389.407-.644.092-.251.139-.544.139-.873v-3.24h-1.244v3.3m1.88-2.256h1.116v3.093h-1.116v1.051h3.493v-1.051h-1.117v-3.093h1.117v-1.044h-3.493v1.044m6.955 1.912l-1.391-2.956h-1.408v5.188h1.159v-3.012l1.398 3.012h1.401v-5.188h-1.159v2.956m5.187-2.342c-.363-.462-.908-.696-1.618-.696-.304 0-.594.054-.862.16a1.885 1.885 0 0 0-.713.499c-.2.221-.359.506-.472.846a3.8 3.8 0 0 0-.169 1.196c0 .846.18 1.504.535 1.957.364.463.908.698 1.619.698.304 0 .594-.054.862-.16.272-.108.511-.276.713-.498.2-.222.359-.506.472-.846a3.81 3.81 0 0 0 .168-1.196c0-.849-.18-1.509-.535-1.96zm-.819 2.696a1.486 1.486 0 0 1-.165.479.705.705 0 0 1-.265.271.808.808 0 0 1-.4.092c-.311 0-.528-.116-.663-.354-.148-.261-.223-.673-.223-1.224 0-.259.018-.492.055-.691.036-.191.092-.353.167-.48a.724.724 0 0 1 .267-.271.79.79 0 0 1 .397-.092c.313 0 .531.116.664.353.147.262.222.674.222 1.226 0 .259-.019.492-.056.691zm-.443-18.404h.221v.581h.156v-.581h.223v-.144h-.6v.144m1.145-.144l-.151.494-.157-.494h-.204v.725h.147v-.463l.146.463h.135l.138-.451v.451h.147v-.725h-.201m-7.205 14.019c-1.972 0-3.659-.665-5.143-2.025-.917-.84-1.673-1.869-2.368-2.939-.695 1.07-1.451 2.099-2.368 2.939-1.595 1.461-3.423 2.12-5.589 2.014-4.129-.018-7.483-3.277-7.483-7.279 0-4.014 3.372-7.28 7.518-7.28 2.268 0 4.178.751 5.838 2.295.797.742 1.47 1.602 2.084 2.502.614-.9 1.287-1.76 2.084-2.502 1.66-1.544 3.57-2.295 5.838-2.295 4.146 0 7.518 3.266 7.518 7.28 0 4.002-3.354 7.261-7.483 7.279a9.482 9.482 0 0 1-.446.011zm-6.001-7.387c.823 1.334 1.621 2.576 2.594 3.468 1.098 1.006 2.255 1.42 3.751 1.341l.067-.002c2.729 0 4.949-2.113 4.949-4.71s-2.22-4.71-4.949-4.71c-1.61 0-2.909.51-4.088 1.606-.88.819-1.606 1.867-2.324 3.007zm-9.432-4.613c-2.729 0-4.949 2.113-4.949 4.71s2.22 4.71 4.949 4.71l.067.002c1.496.079 2.653-.335 3.751-1.341.973-.892 1.771-2.134 2.594-3.468-.718-1.14-1.444-2.188-2.324-3.007-1.179-1.096-2.478-1.606-4.088-1.606z"/><path d="M357.077 131.49v-1.393h-1.45v1.393h-1.393v1.443h1.393v1.403h1.45v-1.403h1.394v-1.443h-1.394m-18.271-.017h4.58v1.488h-4.58v-1.488z"/></g><path d="M368.542 81.487h-64.911m0 0v67.877m0 0h64.911M247.181 12.5v158.263M245.059 7.378a3.001 3.001 0 0 1 4.243 4.243 3 3 0 1 1-4.243-4.243" stroke="#000" fill="none"/><path d="M244.403 98.564h71.7" fill="#FFF"/><g stroke="#000"><path d="M250.403 98.564h59.7" fill="none"/><path d="M245.281 100.686a3.001 3.001 0 0 1 4.243-4.243 3 3 0 1 1-4.243 4.243m64.822-2.122l-2 3 8-3-8-3z"/></g><path d="M241.237 170.841h11.607" stroke="#000" fill="none"/><text transform="translate(246.682 179.897)"><tspan x="-13.212" y="2" font-family="AmericanTypewriter" font-size="12">GND</tspan></text><text transform="translate(283.322 12.302)"><tspan x="-24.678" y="2.681" font-family="AmericanTypewriter" font-size="12">Vcc = 5V</tspan></text><path d="M247.759 126.207c-1.429 0-2.588-.968-2.588-2.161s1.159-2.161 2.588-2.161c1.43 0 2.588.968 2.588 2.161s-1.158 2.161-2.588 2.161z" fill="#FFF"/><path d="M247.759 126.207c-1.429 0-2.588-.968-2.588-2.161s1.159-2.161 2.588-2.161c1.43 0 2.588.968 2.588 2.161s-1.158 2.161-2.588 2.161z" stroke="#000" fill="none"/><path d="M248.206 146.89c-1.429 0-2.587-.967-2.587-2.161 0-1.193 1.158-2.16 2.587-2.16 1.43 0 2.588.967 2.588 2.16 0 1.194-1.158 2.161-2.588 2.161z" fill="#FFF"/><path d="M248.206 146.89c-1.429 0-2.587-.967-2.587-2.161 0-1.193 1.158-2.16 2.587-2.16 1.43 0 2.588.967 2.588 2.16 0 1.194-1.158 2.161-2.588 2.161z" stroke="#000" fill="none"/><path d="M289.585 463.703v9.278h-13.922v-9.278h13.922z" clip-path="url(#i)" filter="url(#j)" fill="rgba(0,0,0,0.75)" transform="translate(-41.91 -334.789)"/><path d="M234.503 129.664h12.422v7.778h-12.422v-7.778z" fill="#FFF"/><path d="M234.503 129.664h12.422v7.778h-12.422v-7.778z" stroke="#000" stroke-width="1.5" fill="none"/><text transform="translate(322.95 52.409)"><tspan x="-67.995" y="-13.525" font-family="AvenirNext-Medium" font-size="11" fill="#C40000">Bei geschlossenem Taster </tspan> <tspan x="-67.995" y="1.475" font-family="AvenirNext-Medium" font-size="11" fill="#C40000">wird die Spannungsquelle </tspan> <tspan x="-67.995" y="16.475" font-family="AvenirNext-Medium" font-size="11" fill="#C40000">Vcc kurzgeschlossen</tspan></text></svg>