<svg xmlns="http://www.w3.org/2000/svg" width="367.947" height="188.897" viewBox="0 0 367.947 188.897"><defs><clipPath id="a"><path d="M334.555 626.603h76.911v83.876h-76.911zm70.911 8h-64.911v67.876h64.911v-67.876z"/></clipPath><clipPath id="c"><path d="M267.127 675.253h25.922v25.278h-25.922zm19.922 8h-13.922v9.278h13.922v-9.278z"/></clipPath><clipPath id="e"><path d="M119.823 626.909h76.911v83.876h-76.911zm70.911 8h-64.911v67.876h64.911v-67.876z"/></clipPath><clipPath id="g"><path d="M55.209 666.496h13.5v43.224h-13.5zm7.5 8h-1.5v27.224h1.5v-27.224z"/></clipPath><clipPath id="i"><path d="M42.269 675.253h25.922v25.278H42.269zm19.922 8H48.269v9.278h13.922v-9.278z"/></clipPath><filter id="b"><feGaussianBlur in="SourceAlpha" stdDeviation="2.5"/><feOffset dy="2" result="offsetblur"/><feFlood flood-color="#000"/><feComposite in2="offsetblur" operator="in"/></filter><filter id="d"><feGaussianBlur in="SourceAlpha" stdDeviation="2.5"/><feOffset dy="2" result="offsetblur"/><feFlood flood-color="#000"/><feComposite in2="offsetblur" operator="in"/></filter><filter id="f"><feGaussianBlur in="SourceAlpha" stdDeviation="2.5"/><feOffset dy="2" result="offsetblur"/><feFlood flood-color="#000"/><feComposite in2="offsetblur" operator="in"/></filter><filter id="h"><feGaussianBlur in="SourceAlpha" stdDeviation="2.5"/><feOffset dy="2" result="offsetblur"/><feFlood flood-color="#000"/><feComposite in2="offsetblur" operator="in"/></filter><filter id="j"><feGaussianBlur in="SourceAlpha" stdDeviation="2.5"/><feOffset dy="2" result="offsetblur"/><feFlood flood-color="#000"/><feComposite in2="offsetblur" operator="in"/></filter></defs><path d="M405.466 634.603v67.876h-64.911v-67.876h64.911z" clip-path="url(#a)" filter="url(#b)" fill="rgba(0,0,0,0.75)" transform="translate(-42.519 -554.339)"/><path d="M298.036 80.264h64.911v67.876h-64.911V80.264z" fill="#FFF"/><text transform="translate(332.68 99.027)"><tspan x="-14.826" y="3.5" font-family="AmericanTypewriter" font-size="12">Pin 3</tspan></text><g fill="#00979C"><path d="M329.89 140.21l-1.59 5.188h1.251l.287-.967h1.55l.279.967h1.361l-1.59-5.188h-1.548zm.262 3.177l.472-1.613.467 1.613h-.939zm5.864-.356a1.037 1.037 0 00-.058-.057 1.305 1.305 0 00.509-.324c.114-.118.202-.257.26-.41.061-.156.092-.335.092-.532 0-.272-.049-.507-.146-.699a1.23 1.23 0 00-.419-.475 1.766 1.766 0 00-.634-.252 3.975 3.975 0 00-.788-.072h-1.623v5.188h1.245v-2.027h.036c.137 0 .25.03.347.091a.604.604 0 01.227.277l.752 1.659h1.448l-.914-1.851a2.162 2.162 0 00-.334-.516zm-.541-.995a.493.493 0 01-.153.171.756.756 0 01-.26.113 1.517 1.517 0 01-.366.041h-.242v-1.092h.273c.285 0 .496.044.629.133.116.076.172.206.172.396a.512.512 0 01-.053.238zm5.434-1.21a1.913 1.913 0 00-.785-.468 3.481 3.481 0 00-1.063-.148h-1.645v5.188h1.432c.463 0 .867-.063 1.202-.188a2.17 2.17 0 00.844-.542c.22-.234.384-.519.487-.849.101-.322.152-.684.152-1.077 0-.428-.051-.804-.153-1.116a1.973 1.973 0 00-.471-.8zm-1.017 3.153c-.216.24-.53.356-.958.356h-.274v-3.063h.339c.24 0 .442.034.599.101.152.065.27.156.36.28.092.126.159.285.198.471.042.197.063.425.063.678 0 .54-.11.936-.327 1.177zm4.638-.469c0 .179-.016.331-.049.453a.719.719 0 01-.134.276.47.47 0 01-.209.144c-.092.033-.21.05-.35.05a.984.984 0 01-.365-.057.552.552 0 01-.22-.159.623.623 0 01-.125-.264 1.807 1.807 0 01-.041-.406v-3.337h-1.244v3.394c0 .28.035.537.103.765.071.236.188.44.349.606.16.166.37.294.623.381.246.085.544.128.885.128.304 0 .584-.043.83-.128.252-.087.469-.218.645-.389.177-.173.314-.389.408-.645.092-.25.138-.544.138-.872v-3.24h-1.244v3.3m1.881-2.256h1.116v3.092h-1.116v1.052h3.492v-1.052h-1.116v-3.092h1.116v-1.044h-3.492v1.044m6.955 1.912l-1.391-2.956h-1.408v5.188h1.158v-3.013l1.399 3.013h1.401v-5.188h-1.159v2.956m5.187-2.342c-.363-.462-.908-.696-1.618-.696-.304 0-.594.054-.862.16a1.894 1.894 0 00-.714.498c-.2.221-.359.506-.472.846a3.84 3.84 0 00-.168 1.196c0 .846.18 1.505.535 1.958.363.463.908.698 1.618.698.304 0 .595-.054.862-.161.272-.107.512-.275.714-.498.2-.221.358-.506.472-.846a3.83 3.83 0 00.168-1.196c0-.849-.18-1.508-.535-1.959zm-.819 2.695a1.508 1.508 0 01-.165.48.7.7 0 01-.266.271.804.804 0 01-.399.092c-.311 0-.528-.116-.663-.354-.148-.262-.224-.674-.224-1.225 0-.259.019-.491.056-.691.036-.191.092-.352.167-.479a.725.725 0 01.266-.272.805.805 0 01.398-.091c.313 0 .53.115.664.353.147.261.222.674.222 1.225 0 .26-.019.492-.056.691zm-.443-18.403h.22v.58h.157v-.58h.223v-.144h-.6v.144m1.144-.144l-.151.494-.156-.494h-.204v.724h.147v-.462l.146.462h.135l.138-.45v.45h.147v-.724h-.202m-7.204 14.018c-1.973 0-3.659-.665-5.143-2.025-.917-.84-1.673-1.869-2.368-2.939-.696 1.07-1.452 2.099-2.368 2.939-1.595 1.462-3.423 2.121-5.589 2.014-4.129-.018-7.484-3.276-7.484-7.279 0-4.014 3.373-7.279 7.518-7.279 2.269 0 4.178.751 5.838 2.294.798.742 1.471 1.602 2.085 2.503.614-.901 1.287-1.761 2.084-2.503 1.66-1.543 3.57-2.294 5.838-2.294 4.146 0 7.518 3.265 7.518 7.279 0 4.003-3.354 7.261-7.484 7.279a8.26 8.26 0 01-.445.011zm-6.001-7.387c.823 1.335 1.621 2.577 2.594 3.468 1.098 1.006 2.255 1.42 3.751 1.341l.067-.002c2.729 0 4.948-2.113 4.948-4.71s-2.219-4.71-4.948-4.71c-1.611 0-2.91.511-4.088 1.606-.88.819-1.606 1.868-2.324 3.007zm-9.433-4.613c-2.728 0-4.948 2.113-4.948 4.71s2.22 4.71 4.948 4.71l.068.002c1.496.079 2.653-.335 3.751-1.341.972-.891 1.771-2.133 2.593-3.468-.717-1.139-1.444-2.188-2.324-3.007-1.178-1.095-2.477-1.606-4.088-1.606z"/><path d="M351.982 130.767v-1.394h-1.45v1.394h-1.393v1.443h1.393v1.403h1.45v-1.403h1.393v-1.443h-1.393m-18.271-.018h4.58v1.488h-4.58v-1.488z"/></g><path d="M363.447 80.764h-64.911m0 0v67.876m0 0h64.911M244.035 12.5v158.264M241.914 7.379a3 3 0 114.243 4.241 3 3 0 01-4.243-4.241" stroke="#000" fill="none"/><path d="M241.257 98.565h71.7" fill="#FFF"/><g stroke="#000"><path d="M247.257 98.565h59.7" fill="none"/><path d="M242.136 100.686a3 3 0 114.241-4.243 3 3 0 01-4.241 4.243m64.821-2.121l-2 3 8-3-8-3z"/></g><path d="M238.092 170.841h11.606" stroke="#000" fill="none"/><text transform="translate(243.537 179.897)"><tspan x="-13.212" y="2" font-family="AmericanTypewriter" font-size="12">GND</tspan></text><text transform="translate(280.177 12.303)"><tspan x="-24.678" y="2.681" font-family="AmericanTypewriter" font-size="12">Vcc = 5V</tspan></text><path d="M236.633 29.659h16.448v34.793h-16.448V29.659z" fill="#FF8080"/><path d="M236.633 29.659h16.448v34.793h-16.448V29.659z" stroke="#D11D00" stroke-width="1.5" fill="none"/><path d="M243.615 126.207c-1.43 0-2.588-.968-2.588-2.161s1.158-2.16 2.588-2.16c1.429 0 2.588.967 2.588 2.16s-1.159 2.161-2.588 2.161z" fill="#FFF"/><path d="M243.615 126.207c-1.43 0-2.588-.968-2.588-2.161s1.158-2.16 2.588-2.16c1.429 0 2.588.967 2.588 2.16s-1.159 2.161-2.588 2.161z" stroke="#000" fill="none"/><path d="M244.062 146.89c-1.429 0-2.588-.967-2.588-2.16 0-1.194 1.159-2.161 2.588-2.161s2.588.967 2.588 2.161c0 1.193-1.159 2.16-2.588 2.16z" fill="#FFF"/><path d="M244.062 146.89c-1.429 0-2.588-.967-2.588-2.16 0-1.194 1.159-2.161 2.588-2.161s2.588.967 2.588 2.161c0 1.193-1.159 2.16-2.588 2.16z" stroke="#000" fill="none"/><path d="M287.049 683.253v9.278h-13.922v-9.278h13.922z" clip-path="url(#c)" filter="url(#d)" fill="rgba(0,0,0,0.75)" transform="translate(-42.519 -554.339)"/><path d="M231.358 129.664h12.422v7.778h-12.422v-7.778z" fill="#FFF"/><path d="M231.358 129.664h12.422v7.778h-12.422v-7.778z" stroke="#000" stroke-width="1.5" fill="none"/><text transform="translate(297.214 46.235)"><tspan x="-34.278" y="-5" font-family="AvenirNext-Medium" font-size="12" fill="#2B2B2B">Pullup- </tspan> <tspan x="-34.278" y="11" font-family="AvenirNext-Medium" font-size="12" fill="#2B2B2B">Widerstand</tspan></text><g stroke="#000" stroke-width=".75"><path d="M255.223 118.2l-.348 41.788" fill="none"/><path d="M254.875 159.988l-2.237-1.519 2.199 6.019 2.3-5.981z"/></g><path d="M268.796 128.834c0-.203.06-1.41.096-1.578l-.084-.072h-2.021l-.095.084.024.239c.167 0 1.052.144 1.052.622v.705c0 .933-.024 1.877-.024 2.798 0 .729.012 1.614.096 2.164.143.705.538 1.625 2.199 1.625.993 0 1.949-.406 2.786-.944l.095.072c0 .358-.071.825.395.825.371 0 1.219-.251 1.829-.443l.06-.083-.048-.204c-.239.024-.454.096-.693.096-.574 0-.574-.861-.574-1.841 0-1.937.012-4.435.191-5.798l-.072-.084-1.052.418a594.107 594.107 0 00-.048 6.552c-.645.382-1.362.705-2.104.705-1.159 0-2.104-.586-2.104-2.594zm8.981 4.992c0-.435-.209-.661-.586-.661-.376 0-.887.326-1.322.628l.126.15c.226-.125.544-.267.753-.267.251 0 .326.276.326.711l-.05 1.849c0 .82.335.938.762.938.527 0 1.004-.436 1.322-.812v-.092l-.126-.084c-.259.201-.51.377-.862.377-.343 0-.41-.36-.41-.979zm.126-1.95a.479.479 0 00-.502-.485c-.285 0-.603.184-.603.469 0 .267.251.485.544.485.301 0 .552-.193.561-.469zm3.755 5.08a17.224 17.224 0 01-.025-.82c0-.611.034-1.347.059-1.95.343-.251.778-.51 1.213-.51.662 0 .854.477.854 1.347l-.042 1.431c0 .418.168.736.678.736.444 0 1.054-.368 1.481-.744l-.083-.176h-.118c-.242.159-.544.335-.761.335-.393 0-.452-.243-.452-.921v-.72c0-.535 0-1.339-.193-1.54-.175-.184-.443-.242-.728-.242-.61 0-1.263.318-1.782.602l-.084-.05c-.033-.318-.226-.569-.686-.569-.343 0-.879.343-1.264.594l.159.184c.277-.159.511-.293.712-.293.293 0 .351.369.351.913 0 .661-.058 2.1-.092 2.535l.151.059zm-15.03 12.955l.071-.478h-7.902l-.084.478zm0 2.355l.071-.478h-7.902l-.084.478zm8.856-2.534c0 1.147-.108 3.491-1.782 3.491-1.697 0-1.757-2.367-1.757-3.491s.048-3.527 1.757-3.527c1.686 0 1.782 2.439 1.782 3.527zm.848 0c-.012-1.746-.406-4.304-2.63-4.304-2.235 0-2.618 2.582-2.618 4.304 0 1.745.407 4.28 2.618 4.28 2.212 0 2.63-2.535 2.63-4.28zm10.401-4.161h-1.04l-2.749 6.121-2.81-6.121h-1.016l3.826 8.441z"/><path d="M190.734 634.909v67.876h-64.911v-67.876h64.911z" clip-path="url(#e)" filter="url(#f)" fill="rgba(0,0,0,0.75)" transform="translate(-42.519 -554.339)"/><path d="M83.304 80.57h64.911v67.876H83.304V80.57z" fill="#FFF"/><text transform="translate(117.948 99.333)"><tspan x="-14.826" y="3.5" font-family="AmericanTypewriter" font-size="12">Pin 3</tspan></text><g fill="#00979C"><path d="M115.158 140.516l-1.59 5.187h1.251l.287-.966h1.55l.279.966h1.36l-1.589-5.187h-1.548zm.262 3.177l.472-1.613.467 1.613h-.939zm5.864-.356a1.037 1.037 0 00-.058-.057 1.305 1.305 0 00.509-.324c.114-.118.202-.258.26-.41.061-.156.091-.335.091-.532 0-.272-.049-.507-.145-.699a1.23 1.23 0 00-.419-.475 1.766 1.766 0 00-.634-.252 3.975 3.975 0 00-.788-.072h-1.623v5.187h1.244v-2.027h.037c.136 0 .25.03.347.092a.6.6 0 01.227.276l.752 1.659h1.447l-.913-1.85a2.141 2.141 0 00-.334-.516zm-.542-.996a.475.475 0 01-.152.172.796.796 0 01-.26.113 1.52 1.52 0 01-.366.04h-.243v-1.092h.274c.285 0 .496.045.629.133.115.077.172.207.172.397a.496.496 0 01-.054.237zm5.435-1.209a1.932 1.932 0 00-.785-.469 3.487 3.487 0 00-1.063-.147h-1.645v5.187h1.432c.462 0 .867-.063 1.202-.187a2.18 2.18 0 00.844-.542c.22-.234.384-.52.487-.849.101-.322.152-.685.152-1.077 0-.428-.051-.804-.153-1.116a1.985 1.985 0 00-.471-.8zm-1.017 3.152c-.216.24-.53.357-.958.357h-.274v-3.063h.339c.24 0 .442.034.599.101a.84.84 0 01.36.279c.092.127.159.285.198.472.042.196.063.425.063.678 0 .539-.11.935-.327 1.176zm4.638-.468c0 .179-.016.331-.049.453a.719.719 0 01-.134.276.475.475 0 01-.209.144 1.06 1.06 0 01-.351.049c-.148 0-.271-.019-.364-.056a.552.552 0 01-.22-.159.63.63 0 01-.125-.264 1.807 1.807 0 01-.041-.406v-3.337h-1.244v3.393c0 .281.035.538.103.765.071.236.188.44.348.606.161.166.37.295.624.381.246.085.544.128.885.128.304 0 .584-.043.83-.128.252-.086.469-.217.645-.389.177-.172.314-.389.407-.644.092-.25.139-.544.139-.872v-3.24h-1.244v3.3m1.88-2.257h1.117v3.093h-1.117v1.051h3.493v-1.051h-1.116v-3.093h1.116v-1.043h-3.493v1.043m6.956 1.913l-1.391-2.956h-1.408v5.187h1.158v-3.012l1.399 3.012h1.401v-5.187h-1.159v2.956m5.187-2.342c-.364-.462-.908-.697-1.619-.697-.304 0-.593.054-.861.16a1.908 1.908 0 00-.714.499c-.2.221-.359.506-.472.846-.112.335-.168.738-.168 1.196 0 .846.18 1.505.535 1.957.363.464.908.698 1.618.698.304 0 .594-.054.862-.16.272-.107.512-.275.714-.498.199-.221.358-.506.472-.846.111-.335.168-.738.168-1.196 0-.849-.18-1.508-.535-1.959zm-.819 2.695a1.517 1.517 0 01-.165.48.711.711 0 01-.266.27.805.805 0 01-.4.092c-.311 0-.527-.115-.662-.353-.149-.262-.224-.674-.224-1.225 0-.259.019-.492.056-.691.036-.191.092-.352.167-.479a.71.71 0 01.266-.272.793.793 0 01.397-.091c.314 0 .531.115.665.353.147.261.221.674.221 1.225 0 .259-.018.492-.055.691zm-.443-18.403h.22v.58h.157v-.58h.222v-.144h-.599v.144m1.144-.144l-.151.493-.156-.493h-.204v.724h.147v-.463l.146.463h.134l.139-.451v.451h.147v-.724h-.202m-7.204 14.018c-1.973 0-3.659-.665-5.143-2.025-.917-.84-1.673-1.869-2.368-2.939-.696 1.07-1.452 2.099-2.369 2.939-1.594 1.461-3.423 2.12-5.588 2.014-4.13-.018-7.484-3.276-7.484-7.279 0-4.014 3.373-7.279 7.518-7.279 2.269 0 4.178.75 5.838 2.294.798.742 1.471 1.602 2.085 2.502.614-.9 1.287-1.76 2.084-2.502 1.66-1.544 3.57-2.294 5.838-2.294 4.145 0 7.518 3.265 7.518 7.279 0 4.003-3.354 7.261-7.484 7.279a8.26 8.26 0 01-.445.011zm-6.001-7.387c.823 1.335 1.621 2.577 2.594 3.468 1.098 1.006 2.255 1.42 3.751 1.341l.067-.002c2.728 0 4.948-2.113 4.948-4.71s-2.22-4.71-4.948-4.71c-1.611 0-2.91.51-4.088 1.606-.88.819-1.607 1.868-2.324 3.007zm-9.433-4.613c-2.728 0-4.948 2.113-4.948 4.71s2.22 4.71 4.948 4.71l.068.002c1.496.079 2.653-.335 3.75-1.341.973-.891 1.772-2.133 2.594-3.468-.717-1.139-1.444-2.188-2.324-3.007-1.178-1.096-2.477-1.606-4.088-1.606z"/><path d="M137.25 131.072v-1.393h-1.45v1.393h-1.394v1.443h1.394v1.404h1.45v-1.404h1.393v-1.443h-1.393m-18.271-.017h4.579v1.488h-4.579v-1.488z"/></g><path d="M148.715 81.07H83.804m0 0v67.876m0 0h64.911M29.178 12.5v158.264M27.057 7.379A3 3 0 1131.3 11.62a3 3 0 01-4.243-4.241" stroke="#000" fill="none"/><path d="M26.4 98.565h71.7" fill="#FFF"/><g stroke="#000"><path d="M32.4 98.565h59.7" fill="none"/><path d="M27.279 100.686a3 3 0 114.241-4.243 3 3 0 01-4.241 4.243M92.1 98.565l-2 3 8-3-8-3z"/></g><path d="M23.235 170.841h11.607" stroke="#000" fill="none"/><text transform="translate(29.68 179.897)"><tspan x="-13.212" y="2" font-family="AmericanTypewriter" font-size="12">GND</tspan></text><text transform="translate(65.32 12.303)"><tspan x="-24.678" y="2.681" font-family="AmericanTypewriter" font-size="12">Vcc = 5V</tspan></text><path d="M21.776 29.659h16.448v34.793H21.776V29.659z" fill="#FF8080"/><path d="M21.776 29.659h16.448v34.793H21.776V29.659z" stroke="#D11D00" stroke-width="1.5" fill="none"/><path d="M23.081 123.114h11.387v21.175H23.081v-21.175z" fill="#FFF"/><path d="M28.757 126.207c-1.43 0-2.588-.967-2.588-2.161 0-1.193 1.158-2.16 2.588-2.16 1.429 0 2.588.967 2.588 2.16 0 1.194-1.159 2.161-2.588 2.161z" fill="#FFF"/><path d="M28.757 126.207c-1.43 0-2.588-.967-2.588-2.161 0-1.193 1.158-2.16 2.588-2.16 1.429 0 2.588.967 2.588 2.16 0 1.194-1.159 2.161-2.588 2.161z" stroke="#000" fill="none"/><path d="M29.204 146.89c-1.43 0-2.588-.967-2.588-2.16 0-1.194 1.158-2.161 2.588-2.161 1.429 0 2.588.967 2.588 2.161 0 1.193-1.159 2.16-2.588 2.16z" fill="#FFF"/><path d="M29.204 146.89c-1.43 0-2.588-.967-2.588-2.16 0-1.194 1.158-2.161 2.588-2.161 1.429 0 2.588.967 2.588 2.161 0 1.193-1.159 2.16-2.588 2.16z" stroke="#000" fill="none"/><path d="M62.709 674.496v27.224h-1.5v-27.224h1.5z" clip-path="url(#g)" filter="url(#h)" fill="rgba(0,0,0,0.75)" transform="translate(-42.519 -554.339)"/><path d="M19.44 120.157v27.224" stroke="#000" stroke-width="1.5" fill="none"/><path d="M62.191 683.253v9.278H48.269v-9.278h13.922z" clip-path="url(#i)" filter="url(#j)" fill="rgba(0,0,0,0.75)" transform="translate(-42.519 -554.339)"/><path d="M6.5 129.664h12.422v7.778H6.5v-7.778z" fill="#FFF"/><path d="M6.5 129.664h12.422v7.778H6.5v-7.778z" stroke="#000" stroke-width="1.5" fill="none"/><text transform="translate(82.357 46.235)"><tspan x="-34.278" y="-5" font-family="AvenirNext-Medium" font-size="12" fill="#2B2B2B">Pullup- </tspan> <tspan x="-34.278" y="11" font-family="AvenirNext-Medium" font-size="12" fill="#2B2B2B">Widerstand</tspan></text><g stroke="#000" stroke-width=".75"><path d="M38.231 115.059l-.349 41.788" fill="none"/><path d="M37.882 156.847l-2.237-1.519 2.2 6.019 2.3-5.981z"/></g><path d="M53.812 127.885c0-.203.06-1.41.096-1.578l-.084-.072h-2.02l-.096.084.024.239c.168 0 1.052.144 1.052.622v.705c0 .933-.024 1.877-.024 2.798 0 .729.012 1.614.096 2.164.143.705.538 1.626 2.2 1.626.992 0 1.948-.407 2.785-.945l.096.072c0 .358-.072.825.394.825.371 0 1.22-.251 1.83-.443l.059-.083-.047-.204c-.24.024-.455.096-.694.096-.574 0-.574-.861-.574-1.841 0-1.937.012-4.435.192-5.798l-.072-.084-1.052.419a593.745 593.745 0 00-.048 6.551c-.646.382-1.363.705-2.104.705-1.16 0-2.104-.586-2.104-2.594zm8.982 4.992c0-.435-.21-.661-.586-.661-.377 0-.887.326-1.322.628l.125.15c.226-.125.544-.267.753-.267.251 0 .327.276.327.711l-.051 1.849c0 .82.335.938.762.938.527 0 1.004-.436 1.322-.812v-.092l-.125-.084c-.26.201-.511.377-.862.377-.343 0-.41-.36-.41-.979zm.125-1.95a.479.479 0 00-.502-.485c-.284 0-.602.184-.602.469 0 .267.251.485.543.485.302 0 .553-.193.561-.469zm3.756 5.08a15.987 15.987 0 01-.025-.82c0-.611.033-1.347.058-1.95.344-.251.779-.51 1.214-.51.661 0 .853.477.853 1.347l-.041 1.431c0 .418.167.736.677.736.444 0 1.055-.368 1.482-.744l-.084-.176h-.117c-.243.159-.544.335-.762.335-.393 0-.452-.243-.452-.921v-.72c0-.535 0-1.339-.192-1.539-.176-.185-.444-.243-.728-.243-.611 0-1.264.318-1.783.602l-.083-.05c-.034-.318-.226-.569-.687-.569-.343 0-.878.343-1.263.594l.159.184c.276-.159.51-.293.711-.293.293 0 .352.369.352.913 0 .661-.059 2.1-.092 2.535l.15.059zm-14.47 11.485c0-.251-.083-.359-.167-.359-.048 0-.155.048-.167.323-.048.825-.885 1.315-1.662 1.315-.693 0-1.291-.371-1.913-.789-.645-.431-1.291-.861-2.068-.861-1.112 0-1.997.849-1.997 1.949 0 .263.096.358.168.358.119 0 .167-.227.167-.275.06-1.004 1.04-1.363 1.662-1.363.693 0 1.291.371 1.913.79.645.43 1.291.86 2.068.86 1.112 0 1.996-.849 1.996-1.948zm0 2.797c0-.347-.143-.371-.167-.371-.048 0-.155.06-.167.323-.048.825-.885 1.315-1.662 1.315-.693 0-1.291-.37-1.913-.789-.645-.43-1.291-.86-2.068-.86-1.112 0-1.997.848-1.997 1.948 0 .263.096.359.168.359.119 0 .167-.227.167-.275.06-1.004 1.04-1.363 1.662-1.363.693 0 1.291.371 1.913.789.645.43 1.291.861 2.068.861 1.136 0 1.996-.885 1.996-1.937zm9.31-.024c-.023-1.685-1.064-2.785-2.749-2.785h-1.028v-1.985h3.216v-.873h-4.017v3.718h1.638c1.219 0 2.08.658 2.08 1.925 0 1.315-.849 1.949-2.08 1.949-.813 0-1.375-.168-1.973-.538v1.04c.55.191 1.351.347 1.996.347 1.77 0 2.917-.969 2.917-2.798zm10.234-5.643h-1.04l-2.75 6.121-2.809-6.121h-1.016l3.825 8.441z"/></svg>